<svg xmlns="http://www.w3.org/2000/svg" xmlns:xlink="http://www.w3.org/1999/xlink" viewBox="0 0 2042.16 507.23"><defs><style>.cls-1,.cls-4{fill:none;}.cls-2{clip-path:url(#clip-path);}.cls-3{opacity:0.2;}.cls-4{stroke:#1a71ca;stroke-miterlimit:10;stroke-width:0.55px;}</style><clipPath id="clip-path" transform="translate(325.35 70.01)"><rect class="cls-1" width="1440" height="150"/></clipPath></defs><g id="Layer_2" data-name="Layer 2"><g id="Layer_1-2" data-name="Layer 1"><g class="cls-2"><g class="cls-3"><path class="cls-4" d="M1716.66-69.78c-74.83,51.09-153.06,97.87-236.9,132.24-27.18,11.14-55.11,21-84.15,25.43-59.22,9-119.27-5.06-179.14-7-76-2.4-152.51,15.64-219.81,51C946,158.51,889,197.11,831.76,206.8c-52,8.8-108-39.08-154.11-57.77-47.21-19.14-100-23.21-149.86-13.37a265.52,265.52,0,0,0-74.93,26.81c-22.4,12.12-41.91,34.69-68.46,17-8.78-5.86-14.85-14.89-22.39-22.27C335.8,131.54,290,129.53,261.6,152.81" transform="translate(325.35 70.01)"/><path class="cls-4" d="M1713.35-68.16c-73.13,51.76-150.56,99-233.93,133.28-27.76,11.42-56.28,21-85.83,25.92-35.66,5.9-71.69,3.71-107.83.6-24.67-2.12-49.4-4.67-74.1-5.39a493.44,493.44,0,0,0-144.46,17.51,481.33,481.33,0,0,0-79.08,29.32c-17.77,8.41-36.2,18.14-55.13,27.61-26.62,13.29-54.19,26.06-82.21,34.24a234,234,0,0,1-30.29,6.85c-41.84,6.37-86.14-20.56-126-40.46a286.51,286.51,0,0,0-31-13.72c-40.78-14.69-85.26-18.38-128.32-12Q524,137.25,513,139.8A289.5,289.5,0,0,0,438,168.72c-14,7.77-27,19.33-41.25,23-8.79,2.25-18,1.46-28.31-5-9-5.62-15.4-14.3-23.22-21.43-27.16-24.79-73.36-27-102.53-4" transform="translate(325.35 70.01)"/><path class="cls-4" d="M1710.06-66.57c-71.43,52.46-148,100.23-231,134.34-28.35,11.7-57.46,21-87.52,26.4-36.11,6.45-72.68,4.87-109.39,2.2-25.07-1.83-50.22-4.17-75.33-4.83A556.62,556.62,0,0,0,1060,107.47a520.3,520.3,0,0,0-80.37,26.75c-18.1,7.66-36.86,16.56-56.07,25.19-27,12.09-55,23.61-83.51,31a262.13,262.13,0,0,1-30.8,6.25c-42.66,5.81-87.85-19.87-128.44-38.12a279.38,279.38,0,0,0-31.48-12.45C608,133.22,563.35,131,520.35,139q-11.1,2-22.06,5a317.12,317.12,0,0,0-75.22,31c-14.12,8-27.32,19.66-41.86,23.49-9,2.36-18.36,1.69-28.8-4.4-9.2-5.37-15.94-13.7-24.05-20.58-28.09-23.92-74.67-26.29-104.65-3.62" transform="translate(325.35 70.01)"/><path class="cls-4" d="M1706.76-65c-69.72,53.14-145.54,101.4-228,135.39a464.24,464.24,0,0,1-89.2,26.89c-36.57,7-73.67,6-111,3.79-25.46-1.53-51-3.66-76.55-4.26a633.12,633.12,0,0,0-149.22,14.38,581.69,581.69,0,0,0-81.73,24.15c-18.43,7-37.53,15-57,22.77C886.59,169,858.27,179.3,829.25,186a296.14,296.14,0,0,1-31.3,5.65c-43.49,5.24-89.58-19-130.86-35.79a276.11,276.11,0,0,0-32-11.18c-41.87-11.25-86.59-11.76-129.52-2.34q-11.07,2.4-22,5.72a351.32,351.32,0,0,0-75.36,33.14c-14.24,8.31-27.66,20-42.47,24-9.14,2.48-18.69,1.93-29.29-3.84-9.41-5.13-16.49-13.1-24.88-19.73-29-23.06-76-25.61-106.77-3.24" transform="translate(325.35 70.01)"/><path class="cls-4" d="M1703.46-63.37c-68,53.83-143,102.58-225,136.44-29.51,12.26-59.78,21-90.87,27.38-37,7.61-74.67,7.19-112.53,5.38-25.86-1.23-51.82-3.14-77.77-3.69a730.13,730.13,0,0,0-151.68,12.75,653.48,653.48,0,0,0-83,21.56c-18.78,6.23-38.18,13.4-57.94,20.35-27.88,9.67-56.58,18.72-86.1,24.64-10.54,2.16-21.16,3.91-31.81,5.06-44.36,4.72-91.3-18.28-133.31-33.46A272.29,272.29,0,0,0,621,143.12c-42.39-9.56-87.25-8.45-130.12,2.48q-11.07,2.81-22,6.48c-25.95,8.69-51.27,20.81-75.5,35.25-14.37,8.57-28,20.31-43.09,24.51-9.31,2.59-19,2.16-29.78-3.29-9.62-4.87-17-12.49-25.7-18.87-30-22.2-77.3-24.93-108.9-2.86" transform="translate(325.35 70.01)"/><path class="cls-4" d="M1700.16-61.78C1633.84-7.25,1559.63,42,1478.1,75.72c-30.1,12.54-61,21-92.55,27.87-37.48,8.16-75.67,8.34-114.1,7-26.25-.93-52.63-2.63-79-3.13a854.21,854.21,0,0,0-154.1,11.13,742.74,742.74,0,0,0-84.38,19c-19.13,5.5-38.83,11.88-58.87,17.93-28.29,8.54-57.39,16.21-87.4,21.44-10.71,1.87-21.49,3.44-32.32,4.46-45.14,4.11-93-17.49-135.69-31.12a270,270,0,0,0-33-8.66c-42.9-7.88-87.91-5.13-130.72,7.31q-11.06,3.2-22,7.24c-25.9,9.58-51.2,22.48-75.64,37.37-14.49,8.83-28.34,20.63-43.7,25-9.48,2.71-19.35,2.41-30.26-2.72-9.84-4.62-17.59-11.88-26.53-18-30.92-21.33-78.61-24.24-111-2.47" transform="translate(325.35 70.01)"/><path class="cls-4" d="M1696.86-60.17c-64.62,55.2-138,104.94-219.09,138.54-30.68,12.82-62.12,21-94.24,28.36-37.92,8.73-76.66,9.5-115.65,8.56-26.66-.63-53.45-2.12-80.23-2.56a1018.6,1018.6,0,0,0-156.48,9.58,857.38,857.38,0,0,0-85.7,16.37C926,143.45,906,149,885.66,154.19A866.64,866.64,0,0,1,797,172.43c-10.86,1.61-21.82,3-32.82,3.86-46,3.54-94.65-16.73-138.11-28.79a267.07,267.07,0,0,0-33.44-7.39c-43.42-6.2-88.57-1.82-131.33,12.13q-11,3.57-21.9,8c-25.86,10.46-51.14,24.15-75.78,39.48-14.62,9.1-28.69,20.95-44.32,25.51-9.65,2.83-19.69,2.65-30.75-2.15-10.06-4.38-18.13-11.29-27.36-17.18-31.86-20.46-79.92-23.56-113.14-2.08" transform="translate(325.35 70.01)"/><path class="cls-4" d="M1693.56-58.57C1630.64-2.68,1558.05,47.54,1477.44,81c-31.27,13.1-63.3,21-95.92,28.84-38.38,9.29-77.66,10.66-117.23,10.16-27-.34-54.25-1.61-81.45-2A1245.82,1245.82,0,0,0,1024,126c-30,3.44-59.1,8.11-87,13.79-19.83,4-40.14,8.74-60.74,13.09-29.13,6.15-59,11.29-90,15-11,1.34-22.15,2.52-33.33,3.26-46.79,3-96.33-16-140.51-26.46a263.81,263.81,0,0,0-33.94-6.12c-43.93-4.53-89.24,1.49-131.93,17-7.34,2.64-14.63,5.58-21.86,8.76-25.82,11.34-51.08,25.82-75.92,41.59-14.75,9.37-29,21.28-44.93,26a45.76,45.76,0,0,1-31.24-1.6c-10.31-4.11-18.7-10.69-28.21-16.33-32.8-19.6-81.23-22.87-115.27-1.7" transform="translate(325.35 70.01)"/><path class="cls-4" d="M1690.27-57c-61.22,56.57-133,107.29-213.16,140.64-31.85,13.38-64.46,20.94-97.6,29.34-38.84,9.83-78.65,11.81-118.79,11.74-27.44,0-55.06-1.09-82.68-1.43a1576,1576,0,0,0-161.29,6.41c-30.46,2.76-60,6.56-88.35,11.2-20.19,3.3-40.8,7.17-61.67,10.67-29.55,5-59.77,8.84-91.29,11.84-11.18,1.07-22.48,2.05-33.83,2.66-47.61,2.41-98-15.21-142.93-24.13a264.62,264.62,0,0,0-34.43-4.85c-44.43-2.87-89.9,4.8-132.53,21.77q-11,4.35-21.83,9.52c-25.77,12.23-51,27.49-76.06,43.7-14.87,9.64-29.38,21.6-45.54,26.53a48,48,0,0,1-31.73-1c-10.5-3.86-19.23-10.09-29-15.47C193.83,203.43,145,200,110.18,220.85" transform="translate(325.35 70.01)"/><path class="cls-4" d="M1687-55.37c-59.52,57.26-130.51,108.46-210.2,141.69-32.42,13.66-65.63,20.9-99.28,29.82-39.29,10.39-79.65,13-120.36,13.34-27.84.26-55.87-.58-83.9-.87-55.3-.58-110.81,1.26-163.69,4.82-30.92,2.09-60.87,5-89.68,8.61-20.54,2.57-41.45,5.61-62.6,8.26-30,3.75-60.56,6.38-92.58,8.64-11.35.8-22.82,1.58-34.35,2.06-48.44,1.84-99.69-14.45-145.34-21.8a265.58,265.58,0,0,0-34.92-3.58c-44.94-1.22-90.56,8.11-133.13,26.58-7.32,3.16-14.58,6.61-21.79,10.29-25.73,13.11-50.95,29.17-76.2,45.82-15,9.9-29.73,21.92-46.16,27a50.68,50.68,0,0,1-32.22-.48c-10.73-3.6-19.77-9.48-29.85-14.62-34.67-17.87-83.85-21.51-119.51-.93" transform="translate(325.35 70.01)"/><path class="cls-4" d="M1683.67-53.78c-57.81,58-128,109.65-207.23,142.75-33,13.94-66.79,20.91-101,30.31-39.75,10.94-80.64,14.13-121.92,14.93-28.24.56-56.69-.07-85.13-.31-56.12-.47-112.44.83-166.1,3.25-31.37,1.41-61.76,3.46-91,6-20.89,1.82-42.12,4-63.54,5.83-30.4,2.56-61.36,3.93-93.88,5.45-11.5.53-23.14,1.12-34.85,1.46-49.22,1.33-101.32-13.67-147.67-19.45a267.15,267.15,0,0,0-35.42-2.32c-45.44.44-91.22,11.43-133.73,31.41q-11,5.13-21.75,11.05c-25.69,14-50.89,30.84-76.34,47.93C289,234.68,274,246.76,257.34,252a53.39,53.39,0,0,1-32.7.09c-11-3.35-20.34-8.86-30.68-13.77-35.65-16.93-85.17-20.82-121.64-.55" transform="translate(325.35 70.01)"/><path class="cls-4" d="M1680.35-52.17C1624.26,6.46,1554.87,58.65,1476.11,91.62c-33.6,14.21-68,20.89-102.64,30.8-40.21,11.48-81.64,15.28-123.49,16.51-28.64.86-57.49.44-86.36.26-56.93-.36-114.07.4-168.5,1.66-31.82.74-62.66,1.91-92.32,3.43-21.25,1.09-42.78,2.46-64.47,3.42-30.82,1.35-62.15,1.48-95.18,2.24-11.66.27-23.47.66-35.36.87-50.09.71-103-13-150.16-17.14a267.56,267.56,0,0,0-35.92-1c-45.93,2.08-91.88,14.73-134.33,36.23-7.29,3.67-14.52,7.63-21.71,11.8-25.64,14.89-50.83,32.51-76.48,50-15.25,10.44-30.41,22.57-47.38,28a56.39,56.39,0,0,1-33.19.65c-11.2-3.09-20.89-8.27-31.51-12.93-36.59-16-86.48-20.1-123.76-.12" transform="translate(325.35 70.01)"/><path class="cls-4" d="M1677.07-50.57c-54.41,59.32-123,112-201.29,144.84-34.19,14.5-69.14,20.88-104.33,31.29-40.66,12-82.63,16.44-125,18.11-29,1.15-58.3,1-87.58.82-57.75-.26-115.7,0-170.91.08-32.27.06-63.55.36-93.65.84-21.6.35-43.44.89-65.4,1-31.25.15-63-1-96.48-1-11.82,0-23.8.19-35.86.27-50.91.14-104.71-12.21-152.58-14.8a269.62,269.62,0,0,0-36.4.21c-46.49,3.77-92.59,18.13-135,41.13-7.28,3.93-14.49,8.14-21.67,12.56-25.58,15.74-50.76,34.15-76.58,52.13-15.38,10.71-30.76,22.89-48,28.54a59.64,59.64,0,0,1-33.69,1.22c-11.42-2.82-21.43-7.67-32.33-12.08-37.53-15.2-87.79-19.46-125.89.22" transform="translate(325.35 70.01)"/><path class="cls-4" d="M1673.77-49c-52.71,60-120.54,113-198.32,145.89-34.8,14.7-70.31,20.85-106,31.78-41.11,12.58-83.62,17.6-126.62,19.7-29.42,1.45-59.11,1.46-88.8,1.39-58.56-.16-117.33-.46-173.31-1.52l-95-1.75c-22-.39-44.1-.68-66.33-1.42-31.67-1-63.74-3.41-97.77-4.15-12-.26-24.14-.28-36.37-.33-51.74-.42-106.39-11.48-155-12.47a272.29,272.29,0,0,0-36.9,1.48C446.41,135,400.15,151,357.81,175.5c-7.27,4.19-14.47,8.66-21.63,13.33-25.56,16.65-50.7,35.85-76.76,54.27-15.5,11-31.11,23.21-48.61,29a62.94,62.94,0,0,1-34.17,1.78c-11.65-2.55-22-7.06-33.16-11.23-38.47-14.32-89.1-18.76-128,.61" transform="translate(325.35 70.01)"/><path class="cls-4" d="M1670.47-47.38c-51,60.7-118,114.2-195.36,147-35.38,15-71.48,20.83-107.69,32.26-41.57,13.13-84.62,18.76-128.18,21.3-29.82,1.74-59.92,2-90,2-59.38-.06-119-.88-175.72-3.1q-49.77-2-96.3-4.34c-22.31-1.14-44.75-2.26-67.26-3.84-32.1-2.25-64.53-5.86-99.07-7.35-12.15-.52-24.47-.74-36.88-.93-52.56-1-108.06-10.74-157.4-10.14a278.63,278.63,0,0,0-37.4,2.74c-47.44,7-93.85,24.67-136.13,50.7-7.26,4.45-14.44,9.17-21.6,14.09-25.51,17.53-50.64,37.52-76.9,56.38-15.63,11.24-31.45,23.54-49.22,29.55a66.63,66.63,0,0,1-34.69,2.28c-11.88-2.28-22.52-6.46-34-10.38-39.4-13.46-90.41-18.08-130.13,1" transform="translate(325.35 70.01)"/><path class="cls-4" d="M1667.17-45.78c-49.3,61.38-115.53,115.37-192.39,148-36,15.26-72.65,20.81-109.37,32.75-42,13.67-85.61,19.92-129.75,22.89-30.21,2-60.72,2.49-91.25,2.51-60.19,0-120.59-1.31-178.12-4.68-33.63-2-66.23-4.31-97.62-6.93-22.67-1.88-45.42-3.83-68.2-6.26C768,139,735.14,134.19,700.1,132c-12.3-.79-24.8-1.2-37.39-1.52-53.38-1.56-109.73-10-159.81-7.82a281.59,281.59,0,0,0-37.88,4c-47.95,8.62-94.53,28-136.75,55.51-7.24,4.71-14.41,9.69-21.55,14.85-25.47,18.42-50.57,39.2-77,58.5C214,267,197.93,279.33,179.89,285.53a70.68,70.68,0,0,1-35.15,2.9c-12.12-2-23.08-5.86-34.83-9.53-40.33-12.59-91.72-17.4-132.25,1.38" transform="translate(325.35 70.01)"/><path class="cls-4" d="M1663.87-44.18c-47.6,62.07-113,116.71-189.42,149.05-36.52,15.61-73.83,20.79-111,33.24-42.49,14.21-86.61,21.07-131.32,24.47-30.61,2.34-61.53,3-92.48,3.08-61,.16-122.22-1.73-180.52-6.26q-51.12-4-99-9.52c-23-2.64-46.08-5.41-69.13-8.68-33-4.67-66.12-10.75-101.67-13.75-12.46-1-25.13-1.67-37.89-2.13-54.21-2.12-111.41-9.27-162.23-5.48a288.51,288.51,0,0,0-38.37,5.29c-48.49,10.24-95.19,31.29-137.35,60.33Q302.65,193,292,201.07c-25.43,19.31-50.52,40.87-77.19,60.61-15.88,11.77-32.13,24.19-50.44,30.54a74.65,74.65,0,0,1-35.63,3.46C116.37,294,105.1,290.4,93.06,287c-41.25-11.81-93-16.72-134.37,1.76" transform="translate(325.35 70.01)"/><path class="cls-4" d="M1660.57-42.58c-45.9,62.8-110.45,117.89-186.45,150.1-37.1,15.89-75,20.77-112.73,33.73-43,14.75-87.61,22.23-132.89,26.07-31,2.64-62.34,3.51-93.7,3.64-61.82.26-123.85-2.16-182.93-7.85-34.54-3.32-68-7.43-100.28-12.11-23.37-3.38-46.73-7-70.06-11.09-33.37-5.88-66.91-13.2-103-17-12.63-1.32-25.46-2.14-38.4-2.73-55-2.69-113.08-8.55-164.64-3.15a293.94,293.94,0,0,0-38.87,6.55c-49,11.86-95.84,34.6-137.94,65.16-7.22,5.22-14.36,10.71-21.48,16.37-25.38,20.19-50.45,42.53-77.32,62.72-16,12-32.48,24.51-51.06,31.07a79.33,79.33,0,0,1-36.12,4c-12.58-1.46-24.17-4.68-36.48-7.83-42.2-10.94-94.35-16-136.5,2.15" transform="translate(325.35 70.01)"/><path class="cls-4" d="M1657.27-41c-44.19,63.44-107.92,119.07-183.48,151.2-37.69,16.17-76.17,20.74-114.41,34.22-43.41,15.29-88.6,23.38-134.45,27.66-31.4,2.94-63.16,4-94.93,4.21-62.63.36-125.48-2.59-185.33-9.43-35-4-68.9-9-101.6-14.7-23.72-4.14-47.39-8.57-71-13.52-33.79-7.09-67.7-15.64-104.26-20.15-12.78-1.58-25.79-2.6-38.9-3.32-55.86-3.26-114.76-7.83-167-.82a303.22,303.22,0,0,0-39.37,7.81c-49.46,13.48-96.5,37.92-138.54,70-7.21,5.48-14.34,11.22-21.44,17.13-25.34,21.07-50.39,44.21-77.46,64.83C169,286.45,152.28,299,133.43,305.71a84.13,84.13,0,0,1-36.66,4.51c-12.81-1.18-24.71-4.08-37.31-7-43.11-10-95.66-15.32-138.62,2.57" transform="translate(325.35 70.01)"/><path class="cls-4" d="M1654-39.38c-42.49,64.13-105.43,120.24-180.52,152.2-38.27,16.45-77.34,20.72-116.09,34.71-43.87,15.83-89.6,24.54-136,29.25-31.8,3.23-64,4.53-96.15,4.77-63.44.47-127.11-3-187.74-11C902,165.88,867.68,160,834.55,153.26q-36.12-7.32-71.93-15.94C728.35,129,694.1,119.22,657,114c-12.94-1.84-26.12-3.07-39.41-3.92-56.68-3.82-116.43-7.1-169.46,1.51a308.41,308.41,0,0,0-39.82,9.08c-50,15.09-97.17,41.23-139.15,74.8-7.23,5.79-14.35,11.79-21.43,17.89-25.3,22-50.33,45.88-77.6,67C153.9,292.89,137,305.48,117.88,312.4a89.55,89.55,0,0,1-37.1,5.15c-13-.9-25.26-3.48-38.14-6.13-44.07-9.21-97-14.66-140.74,2.92" transform="translate(325.35 70.01)"/><path class="cls-4" d="M1650.68-37.78C1609.88,27,1547.74,83.64,1473.12,115.46c-38.85,16.74-78.51,20.7-117.77,35.2-44.33,16.38-90.59,25.7-137.58,30.84a974.64,974.64,0,0,1-97.38,5.34c-64.25.58-128.74-3.45-190.14-12.6-35.9-5.35-70.67-12.14-104.25-19.88Q789.37,145.9,753.14,136c-34.64-9.51-69.29-20.52-106.86-26.54-13.1-2.1-26.44-3.53-39.91-4.52-57.51-4.39-118.12-6.38-171.88,3.84a317.06,317.06,0,0,0-40.35,10.35c-50.5,16.7-97.79,44.54-139.79,79.62-7.18,6-14.28,12.25-21.36,18.65-25.26,22.85-50.26,47.55-77.74,69.06-16.39,12.84-33.52,25.48-52.9,32.59a95,95,0,0,1-37.58,5.7c-13.28-.6-25.81-2.87-39-5.27-45-8.35-98.27-14-142.86,3.3" transform="translate(325.35 70.01)"/><path class="cls-4" d="M1647.35-36.18c-39.1,65.5-100.43,122.59-174.59,154.3-39.44,17-79.69,20.66-119.46,35.69-44.78,16.91-91.59,26.86-139.14,32.43a931,931,0,0,1-98.61,5.9c-65.06.68-130.37-3.87-192.54-14.18-36.35-6-71.56-13.71-105.58-22.47q-37.14-9.6-73.79-20.78c-35.06-10.72-70.09-23-108.16-29.74-13.26-2.37-26.78-4-40.42-5.12-58.33-5-119.8-5.66-174.29,6.17a322.05,322.05,0,0,0-40.84,11.62c-51,18.3-98.49,47.85-140.35,84.44-7.17,6.26-14.26,12.76-21.33,19.41-25.21,23.73-50.2,49.22-77.88,71.17-16.51,13.11-33.85,25.81-53.51,33.09A101.24,101.24,0,0,1,48.79,332c-13.51-.32-26.36-2.28-39.8-4.42-46-7.49-99.59-13.29-145,3.68" transform="translate(325.35 70.01)"/><path class="cls-4" d="M1644.08-34.58c-37.4,66.18-97.92,123.77-171.62,155.35-40,17.29-80.86,20.64-121.14,36.17-45.25,17.45-92.58,28-140.71,34a893.22,893.22,0,0,1-99.83,6.47c-65.88.78-132-4.31-195-15.78-36.8-6.7-72.45-15.27-106.9-25.06q-37.7-10.71-74.73-23.19c-35.42-11.9-70.8-25.38-109.4-32.92a406.05,406.05,0,0,0-40.93-5.71c-59.15-5.53-121.47-5-176.7,8.47a332.3,332.3,0,0,0-41.33,12.89c-51.54,19.91-99.15,51.16-141,89.26-7.16,6.52-14.23,13.28-21.29,20.18-25.17,24.61-50.14,50.89-78,73.28-16.66,13.39-34.2,26.16-54.14,33.63a108.23,108.23,0,0,1-38.57,6.83c-13.73,0-26.9-1.68-40.62-3.58-46.87-6.62-100.87-12.61-147.12,4.07" transform="translate(325.35 70.01)"/><path class="cls-4" d="M1640.78-33c-35.69,66.87-95.41,125-168.65,156.39-40.61,17.57-82.07,20.54-122.82,36.67-45.74,17.9-93.58,29.17-142.28,35.61a857.09,857.09,0,0,1-101,7c-66.7.89-133.63-4.73-197.36-17.35A1067.85,1067.85,0,0,1,800.4,157.72q-38.22-11.85-75.66-25.62C688.85,119,653,104.33,614,96a385.67,385.67,0,0,0-41.43-6.31c-60-6.09-123.21-4.23-179.11,10.83a343.08,343.08,0,0,0-41.84,14.15c-52.05,21.52-99.81,54.48-141.55,94.09-7.15,6.77-14.2,13.79-21.25,20.93-25.12,25.5-50.07,52.57-78.16,75.4-16.76,13.64-34.55,26.45-54.74,34.1a115.26,115.26,0,0,1-39,7.4c-14,.25-27.45-1.08-41.45-2.73-47.84-5.75-102.22-11.93-149.24,4.45" transform="translate(325.35 70.01)"/><path class="cls-4" d="M1637.48-31.38c-34,67.56-92.91,126.12-165.69,157.44-41.18,17.86-83.23,20.52-124.5,37.16-46.19,18.45-94.57,30.33-143.84,37.21A827.34,827.34,0,0,1,1101.17,208c-67.51,1-135.26-5.15-199.75-18.94a1010.82,1010.82,0,0,1-109.55-30.24c-25.83-8.64-51.32-18.09-76.59-28-36.29-14.42-72.5-30.22-112-39.35a367,367,0,0,0-41.94-6.91c-60.81-6.65-124.85-3.51-181.53,13.17a352,352,0,0,0-42.32,15.42c-52.62,23-100.52,57.75-142.2,98.88-7.14,7-14.18,14.3-21.21,21.69-25.09,26.38-50,54.24-78.31,77.51C78.89,325.16,60.89,338,40.43,345.86A123.06,123.06,0,0,1,.88,353.81c-14.19.55-28-.48-42.28-1.87-48.78-4.89-103.53-11.25-151.36,4.83" transform="translate(325.35 70.01)"/><path class="cls-4" d="M1634.18-29.78c-32.29,68.24-90.4,127.3-162.71,158.5-41.78,18.13-84.41,20.49-126.19,37.64-46.65,19-95.56,31.48-145.4,38.8a802.64,802.64,0,0,1-103.53,8.16c-68.32,1.09-136.89-5.59-202.16-20.53A965.11,965.11,0,0,1,783.35,160c-26.18-9.4-52-19.67-77.53-30.45C669.1,113.88,632.53,96.85,592.47,87A347,347,0,0,0,550,79.46c-61.67-7.24-126.54-2.8-183.94,15.5a361.36,361.36,0,0,0-42.82,16.68c-53.1,24.72-101.13,61.1-142.76,103.73-7.15,7.28-14.15,14.85-21.15,22.46-25,27.26-50,55.9-78.45,79.62-17,14.17-35.23,27.1-56,35.11a131.85,131.85,0,0,1-40,8.52c-14.41.84-28.55.12-43.11-1-49.72-4-104.84-10.56-153.48,5.22" transform="translate(325.35 70.01)"/><path class="cls-4" d="M1630.88-28.19c-30.53,68.94-87.89,128.48-159.75,159.55-42.36,18.41-85.58,20.47-127.86,38.13-47.12,19.54-96.56,32.65-147,40.4a779.71,779.71,0,0,1-104.73,8.72c-69.14,1.2-138.52-6-204.57-22.11a931.43,931.43,0,0,1-112.2-35.42c-26.49-10.15-52.6-21.24-78.42-32.86-37.13-16.83-74.08-35.11-114.63-45.74a333.8,333.8,0,0,0-43-8.11c-62.37-7.8-128.19-2.1-186.32,17.85a371.13,371.13,0,0,0-43.31,18c-53.63,26.24-101.74,64.33-143.36,108.47-7.11,7.55-14.12,15.33-21.13,23.22-25,28.15-49.88,57.57-78.58,81.73-17.14,14.44-35.58,27.43-56.57,35.58a140.22,140.22,0,0,1-40.52,9.08c-14.64,1.13-29.1.73-43.94-.18-50.66-3.15-106.15-9.87-155.61,5.61" transform="translate(325.35 70.01)"/><path class="cls-4" d="M1627.58-26.58C1598.7,43,1542.2,103.08,1470.8,134c-42.94,18.69-86.75,20.45-129.55,38.62-47.57,20.09-97.55,33.81-148.54,42a758.16,758.16,0,0,1-106,9.29c-70,1.3-140.15-6.44-207-23.7-39.07-10.08-76.85-23.18-113.52-38q-40.29-16.5-79.4-35.29C649.29,108.93,612,89.37,570.91,78a318.25,318.25,0,0,0-43.47-8.71c-63.27-8.35-130-1.48-188.76,20.16a376.29,376.29,0,0,0-43.8,19.22c-54.16,27.92-102.46,67.72-144,113.37-7.1,7.8-14.1,15.84-21.09,24-25,29-49.83,59.24-78.72,83.84C33.8,344.57,15.14,357.62-6.12,366a151,151,0,0,1-41,9.65c-14.87,1.43-29.65,1.32-44.78.67-51.59-2.29-107.45-9.19-157.72,6" transform="translate(325.35 70.01)"/><path class="cls-4" d="M1624.28-25c-27.18,70.31-82.88,130.84-153.81,161.65-43.52,19-87.93,20.43-131.23,39.11a653.44,653.44,0,0,1-150.1,43.58A739.19,739.19,0,0,1,1082,229.22c-70.76,1.41-141.78-6.87-209.37-25.28-39.52-10.78-77.73-24.72-114.85-40.61-27.2-11.7-54-24.4-80.32-37.71-38-19.25-75.68-40-117.24-52.14a308.73,308.73,0,0,0-44-9.31,384.82,384.82,0,0,0-235.46,43c-54.75,29.41-103.12,71-144.57,118.19-7.08,8.06-14.07,16.36-21,24.74C90.21,280,65.35,311,36.26,336,18.87,351,0,364.11-21.54,372.66A160.89,160.89,0,0,1-63,382.86a324.43,324.43,0,0,1-45.6,1.53c-52.53-1.43-108.77-8.51-159.85,6.37" transform="translate(325.35 70.01)"/><path class="cls-4" d="M1621-23.39c-25.48,71-80.37,132-150.85,162.7-44.1,19.25-89.09,20.41-132.91,39.6a662.47,662.47,0,0,1-151.67,45.16,724.26,724.26,0,0,1-108.4,10.42c-71.58,1.51-143.41-7.3-211.78-26.86-40-11.44-78.61-26.3-116.17-43.19-27.55-12.44-54.61-26-81.26-40.13C629.55,103.86,591.47,81.86,549.41,69a300.6,300.6,0,0,0-44.47-9.9c-64.93-9.49-133.32,0-193.59,24.82a396.05,396.05,0,0,0-44.79,21.75c-55.27,31.05-103.78,74.34-145.16,123-7.05,8.33-14.05,16.88-21.05,25.51-24.86,30.8-49.7,62.59-79,88.07-17.52,15.24-36.61,28.4-58.41,37.14a173.48,173.48,0,0,1-42,10.76,327.41,327.41,0,0,1-46.43,2.37c-53.47-.56-110.08-7.82-162,6.76" transform="translate(325.35 70.01)"/><path class="cls-4" d="M1617.69-21.78C1593.91,49.9,1539.82,111.41,1469.8,142c-44.69,19.53-90.27,20.39-134.59,40.09A671.35,671.35,0,0,1,1182,228.82a708.71,708.71,0,0,1-109.64,11c-72.39,1.62-145-7.72-214.18-28.45-40.42-12.11-79.5-27.86-117.5-45.77-27.9-13.19-55.26-27.55-82.2-42.55-38.8-21.66-77.26-44.9-119.82-58.54a290.41,290.41,0,0,0-45-10.5c-65.75-10.06-135,.72-196,27.15a412.94,412.94,0,0,0-45.28,23C196.57,136.84,147.92,181.81,106.59,232c-7.06,8.57-14,17.38-21,26.25C60.76,289.94,36,322.51,6.44,348.44c-17.64,15.5-36.95,28.71-59,37.63A184.64,184.64,0,0,1-95,397.4a327.68,327.68,0,0,1-47.26,3.22c-54.41.31-111.39-7.13-164.1,7.15" transform="translate(325.35 70.01)"/><path class="cls-4" d="M1614.35-20.19c-22,72.41-75.33,134.41-144.88,164.8C1424.2,164.42,1378,165,1333.2,185.19a680.47,680.47,0,0,1-154.8,48.35c-108.5,20.2-222,14.51-327.45-18.49C780,192.86,713.22,159.13,649,121.71,609.72,98.86,571,74.37,527.84,60c-79.17-26.46-167.9-16.13-243.9,18.38s-140,91.71-192.1,156.94C44.58,294.5,2.13,364.22-68,392.76c-80.22,32.69-173.45,1.59-257.26,23.49" transform="translate(325.35 70.01)"/><path class="cls-4" d="M1446.91,437.22c.88-91.46-31.46-182.88-89.65-253.44-16.56-20.08-36-39.06-60.46-47.86-70.75-25.44-146.3,30.17-205.79,61.74-71.78,38.1-142.76,78-217.5,110.18-42,18.05-91.25,33.37-131.84,12.42-41.1-21.22-56.75-70.62-73.74-113.65-19.8-50.12-47.07-98.39-87.09-134.51s-94.14-58.88-147.72-53C391.12,23.69,352.93,45,318,68.7a769,769,0,0,0-226.67,240" transform="translate(325.35 70.01)"/><path class="cls-4" d="M1449.2,433.28c.79-80.83-27.65-159.95-78.07-227.8-4.68-6.3-9.5-12.5-14.53-18.52-16.53-19.8-35.78-38.54-59.92-47.42-69.81-25.69-144.21,27-203.61,57.45-52.67,27-105,55.49-159.11,81.28q-28.19,13.5-56.92,25.8c-41.63,17.71-90.33,32.82-130.62,12.85C705.63,296.69,689.48,249.2,672,207.86c-20.35-48.16-47.93-94.58-87.88-129.29a223.9,223.9,0,0,0-46.1-31c-31.11-15.65-65.93-23.69-100.54-20C395.93,32,358,52.39,323.28,75A758.31,758.31,0,0,0,139.83,243.22,739.73,739.73,0,0,0,97,304.09" transform="translate(325.35 70.01)"/><path class="cls-4" d="M1451.49,429.33c.76-78.14-29.19-152.87-81-221-4.71-6.18-9.5-12.3-14.51-18.23-16.51-19.53-35.59-38-59.39-47-68.88-26-142.1,23.84-201.43,53.15-52.11,25.75-104,53.49-158.07,78.74q-28,13.17-56.49,25.25c-41.29,17.36-89.41,32.27-129.39,13.27-40.49-19.24-57.14-64.82-75.07-104.47-20.91-46.2-48.81-90.74-88.68-124a225,225,0,0,0-45.89-29.73c-30.88-15-65.39-22.76-99.66-19.28C400.7,40.22,363,59.8,328.55,81.36,258.74,125,197.09,178.7,145.77,241.22a718.51,718.51,0,0,0-43.09,58.23" transform="translate(325.35 70.01)"/><path class="cls-4" d="M1453.79,425.38c.73-75.45-30.72-145.79-84-214.13-4.73-6.06-9.49-12.1-14.48-17.94-16.49-19.25-35.4-37.5-58.85-46.52-67.94-26.21-140,20.68-199.26,48.86-51.55,24.51-103,51.37-157,76.2-18.53,8.52-37.18,16.85-56.06,24.69-41,17-88.49,31.72-128.17,13.7-40.17-18.25-57.33-61.91-75.73-99.88-21.46-44.23-49.67-86.9-89.46-118.82a227.5,227.5,0,0,0-45.73-28.48c-30.7-14.39-64.84-21.84-98.8-18.52-40.78,4-78.17,22.68-112.42,43.15-69.4,41.4-130.64,92-182.1,151.48a688.76,688.76,0,0,0-43.38,55.6" transform="translate(325.35 70.01)"/><path class="cls-4" d="M1456.08,421.43c.7-72.75-32.22-138.72-87-207.29-4.75-5.95-9.49-11.9-14.46-17.65-16.47-19-35.22-37-58.32-46.08-67-26.47-137.88,17.53-197.08,44.57-51,23.28-102,49.33-156,73.66-18.4,8.3-36.9,16.45-55.63,24.14C847,309.45,800,323.94,760.65,306.9c-39.86-17.26-57.54-59-76.41-95.29C662.24,169.34,633.71,128.55,594,98a231.24,231.24,0,0,0-45.44-27.24C518.1,57,484.25,49.89,450.62,53c-40.39,3.77-77.5,21.6-111.53,41-69,39.19-129.82,86.67-181.43,143.14a666,666,0,0,0-43.65,53" transform="translate(325.35 70.01)"/><path class="cls-4" d="M1458.35,417.47c.68-70.05-33.71-131.65-90-200.45-4.77-5.83-9.49-11.7-14.44-17.36-16.44-18.69-35-36.47-57.78-45.63-66.07-26.72-135.75,14.38-194.91,40.28-50.4,22.06-101,47.3-154.94,71.13-18.28,8.07-36.62,16-55.2,23.58-40.29,16.32-86.66,30.61-125.72,14.54-39.55-16.27-57.73-56.1-77.07-90.7-22.56-40.31-51.41-79.22-91-108.35a233.39,233.39,0,0,0-45.25-26c-30.23-13.14-63.76-20-97.07-17-40,3.57-76.82,20.54-110.63,38.84-68.56,37-129,81.34-180.75,134.8a644.16,644.16,0,0,0-43.94,50.31" transform="translate(325.35 70.01)"/><path class="cls-4" d="M1460.66,413.52c.66-67.36-35.17-124.6-92.93-193.62-4.79-5.72-9.48-11.5-14.42-17.07-16.41-18.42-34.83-36-57.24-45.18-65.13-27-133.61,11.23-192.73,36-49.82,20.85-100,45.28-153.91,68.59-18.14,7.85-36.34,15.66-54.76,23-40,16-85.74,30.07-124.5,15C730.93,285,712.24,247,692.43,214.12,669.35,175.75,640.16,138.71,600.6,111a237.65,237.65,0,0,0-45-24.75c-30.05-12.5-63.25-19-96.25-16.24-39.6,3.37-76.15,19.47-109.73,36.69-68.15,34.77-128.17,76-180.07,126.45a618.83,618.83,0,0,0-44.2,47.68" transform="translate(325.35 70.01)"/><path class="cls-4" d="M1463,409.57c.63-64.67-36.63-117.55-95.91-186.79-4.8-5.6-9.47-11.3-14.39-16.77-16.39-18.14-34.64-35.44-56.71-44.74-64.19-27.24-131.46,8.1-190.55,31.69-49.22,19.64-99,43.24-152.87,66-18,7.63-36.06,15.26-54.33,22.47-39.61,15.63-84.82,29.51-123.27,15.4-38.94-14.29-58.13-50.31-78.41-81.53-23.65-36.38-53.13-71.54-92.61-97.88a242.94,242.94,0,0,0-44.83-23.5C529.28,82,496.4,75.82,463.74,78.44,424.53,81.6,388.26,96.84,354.89,113c-67.72,32.57-127.33,70.68-179.39,118.11a596.16,596.16,0,0,0-44.51,45" transform="translate(325.35 70.01)"/><path class="cls-4" d="M1465.25,405.62c.6-62-38.07-110.51-98.89-180-4.8-5.49-9.46-11.1-14.36-16.49-16.37-17.86-34.46-34.92-56.17-44.29-63.26-27.49-129.31,5-188.38,27.39-48.62,18.45-98,41.22-151.83,63.52-17.88,7.4-35.79,14.85-53.9,21.91-39.28,15.29-83.9,29-122,15.82-38.67-13.31-58.37-47.39-79.12-76.93-24.21-34.41-54-67.7-93.41-92.65a248.26,248.26,0,0,0-44.61-22.25C533,90.45,500.45,84.53,468.11,87c-38.82,3-74.8,17.33-107.95,32.37-67.31,30.37-126.51,65.35-178.72,109.78a571.08,571.08,0,0,0-44.79,42.39" transform="translate(325.35 70.01)"/><path class="cls-4" d="M1467.54,401.66c.57-59.27-39.48-103.47-101.86-173.11-4.82-5.38-9.46-10.9-14.34-16.19-16.34-17.59-34.27-34.41-55.63-43.85-62.32-27.75-127.15,1.85-186.21,23.1-48,17.26-97,39.2-150.78,61C941,259.8,923.21,267.07,905.25,274c-39,15-83,28.41-120.83,16.25-38.31-12.31-58.53-44.49-79.74-72.34-24.75-32.45-54.87-63.86-94.2-87.41a253.69,253.69,0,0,0-44.39-21c-29.36-10.62-61.59-16.24-93.6-14-38.43,2.76-74.14,16.26-107.06,30.22-66.89,28.16-125.69,60-178,101.44a546.71,546.71,0,0,0-45.08,39.75" transform="translate(325.35 70.01)"/><path class="cls-4" d="M1469.83,397.71c.55-56.58-40.88-96.45-104.83-166.28-4.83-5.27-9.45-10.7-14.32-15.9-16.32-17.31-34.08-33.89-55.1-43.4-61.38-28-125-1.26-184,18.8-47.38,16.09-96,37.18-149.75,58.44-17.61,7-35.23,14.06-53,20.8-38.61,14.6-82.07,27.85-119.61,16.68-38-11.33-58.72-41.59-80.4-67.76-25.31-30.48-55.74-60-95-82.17a262.61,262.61,0,0,0-44.19-19.77c-29.13-10-61-15.31-92.73-13.2-38,2.53-73.46,15.18-106.16,28.06-66.47,26-124.86,54.68-177.37,93.09A527.48,527.48,0,0,0,148,262.22" transform="translate(325.35 70.01)"/><path class="cls-4" d="M1472.12,393.76c.53-53.89-42.26-89.44-107.8-159.45-4.84-5.16-9.45-10.5-14.3-15.61-16.29-17-33.89-33.37-54.56-42.95-60.44-28.27-122.78-4.37-181.85,14.5-46.75,14.94-95,35.16-148.71,55.91-17.48,6.75-34.95,13.67-52.6,20.24-38.27,14.26-81.15,27.31-118.38,17.11-37.69-10.29-58.92-38.69-81.07-63.17-25.86-28.52-56.6-56.17-95.78-76.94a273,273,0,0,0-44-18.52c-28.92-9.36-60.49-14.37-91.87-12.44-37.64,2.33-72.79,14.11-105.26,25.9-66.06,23.75-124,49.35-176.69,84.75a502.44,502.44,0,0,0-45.64,34.47" transform="translate(325.35 70.01)"/><path class="cls-4" d="M1474.41,389.81c.5-51.19-43.62-82.45-110.77-152.61-4.84-5.06-9.44-10.31-14.28-15.32-16.24-16.79-33.7-32.85-54-42.51-59.51-28.52-120.59-7.45-179.67,10.22-46.12,13.78-94,33.14-147.67,53.36-17.37,6.54-34.67,13.27-52.2,19.69-37.93,13.91-80.23,26.75-117.15,17.53-37.38-9.35-59.12-35.79-81.74-58.58-26.41-26.55-57.47-52.37-96.58-71.7a285.93,285.93,0,0,0-43.76-17.28c-28.7-8.73-60-13.44-91-11.68-37.25,2.12-72.12,13-104.37,23.75-65.64,21.54-123.21,44-176,76.41a480.65,480.65,0,0,0-45.87,31.83" transform="translate(325.35 70.01)"/><path class="cls-4" d="M1476.71,385.86c.47-48.5-45-75.47-113.75-145.78-4.85-5-9.43-10.11-14.25-15-16.22-16.52-33.51-32.34-53.49-42.07-58.58-28.78-118.38-10.53-177.5,5.92-45.47,12.65-93,31.13-146.63,50.83-17.21,6.32-34.39,12.87-51.74,19.13-37.6,13.57-79.31,26.2-115.93,18-37.07-8.35-59.32-32.88-82.41-54-27-24.58-58.33-48.49-97.35-66.47a299.65,299.65,0,0,0-43.55-16c-28.48-8.1-59.41-12.5-90.13-10.92-36.86,1.91-71.44,12-103.48,21.59-65.22,19.34-122.38,38.69-175.34,68.06A463,463,0,0,0,165,248.22" transform="translate(325.35 70.01)"/><path class="cls-4" d="M1479,381.9c.44-45.8-46.3-68.5-116.73-138.94-4.84-4.84-9.42-9.91-14.22-14.73-16.19-16.25-33.32-31.82-53-41.62-57.63-29-116.17-13.59-175.32,1.63-44.82,11.53-92,29.12-145.59,48.29-17.08,6.1-34.11,12.47-51.3,18.57-37.27,13.23-78.4,25.65-114.72,18.38-36.76-7.36-59.51-30-83.07-49.4-27.5-22.62-59.2-44.65-98.14-61.23a316.64,316.64,0,0,0-43.34-14.79c-28.22-7.47-58.82-11.57-89.22-10.16-36.47,1.71-70.77,10.9-102.59,19.44C327,174.47,270.2,190.69,217.1,217.06a440.39,440.39,0,0,0-46.49,26.56" transform="translate(325.35 70.01)"/><path class="cls-4" d="M1481.29,378c.42-43.11-47.61-61.55-119.7-132.11-4.84-4.74-9.41-9.71-14.2-14.44-16.16-16-33.13-31.3-52.42-41.17-56.69-29.29-113.94-16.63-173.14-2.67-44.17,10.42-91,27.12-144.55,45.75-16.95,5.89-33.84,12.08-50.88,18-36.93,12.88-77.48,25.1-113.49,18.81-36.45-6.38-59.71-27.08-83.73-44.82-28.06-20.65-60.07-40.8-98.93-56a336.91,336.91,0,0,0-43.13-13.54c-28-6.85-58.32-10.64-88.4-9.4-36.06,1.5-70.09,9.83-101.69,17.28-64.38,14.93-120.73,28-174,51.38a421,421,0,0,0-46.77,23.92" transform="translate(325.35 70.01)"/><path class="cls-4" d="M1483.58,374c.39-40.41-48.9-54.63-122.67-125.27-4.84-4.64-9.42-9.52-14.18-14.15-16.14-15.7-33-30.75-51.88-40.73-55.82-29.43-111.72-19.66-171-7-43.5,9.37-89.91,25.16-143.5,43.25-16.81,5.68-33.56,11.68-50.44,17.46-36.56,12.54-76.56,24.55-112.25,19.24-36.14-5.39-59.91-24.18-84.4-40.23-28.61-18.68-60.93-37-99.72-50.76a365.23,365.23,0,0,0-42.91-12.29c-27.83-6.22-57.78-9.71-87.53-8.64-35.68,1.29-69.43,8.75-100.8,15.12-64,12.72-119.9,22.69-173.31,43a404.16,404.16,0,0,0-47.06,21.28" transform="translate(325.35 70.01)"/><path class="cls-4" d="M1485.88,370.05c.36-37.72-50.18-47.72-125.65-118.44-4.84-4.54-9.41-9.31-14.15-13.85-16.12-15.42-32.77-30.24-51.35-40.28-54.88-29.7-109.49-22.68-168.79-11.26-42.84,8.25-88.93,23.12-142.47,40.68-16.67,5.47-33.28,11.28-50,16.91-36.26,12.19-75.64,24-111,19.66-35.89-4.39-60.12-21.25-85.12-35.64-29.16-16.72-61.8-33.12-100.51-45.52a394.81,394.81,0,0,0-42.7-11.09c-27.61-5.59-57.24-8.78-86.67-7.88-35.28,1.08-68.75,7.68-99.9,13C344,186.85,288.49,193.7,234.94,211a385.37,385.37,0,0,0-47.34,18.64" transform="translate(325.35 70.01)"/><path class="cls-4" d="M1488.17,366.1c.34-35-51.43-40.83-128.62-111.61-4.84-4.43-9.41-9.11-14.14-13.56-16.09-15.14-32.58-29.72-50.81-39.84-54-30-107.25-25.65-166.62-15.55-42.16,7.19-87.91,21.13-141.42,38.14C970,228.94,953.56,234.57,937,240c-35.92,11.85-74.72,23.45-109.82,20.09-35.52-3.4-60.31-18.37-85.74-31.05-29.7-14.76-62.66-29.28-101.3-40.29-13.48-3.82-27.73-7.16-42.48-9.8a424,424,0,0,0-85.8-7.13c-34.9.88-68.08,6.62-99,10.82-63.12,8.3-118.26,12-172,26.35a370,370,0,0,0-47.63,16" transform="translate(325.35 70.01)"/><path class="cls-4" d="M1490.46,362.14c.31-32.33-52.67-33.95-131.59-104.77-4.84-4.34-9.4-8.91-14.11-13.27-16.07-14.87-32.39-29.2-50.27-39.39-53-30.21-105-28.62-164.45-19.84-41.49,6.13-86.89,19.13-140.38,35.6-16.4,5.05-32.73,10.49-49.15,15.79-35.59,11.51-73.81,22.9-108.6,20.52-35.21-2.42-60.5-15.47-86.4-26.46-30.26-12.8-63.53-25.45-102.09-35.1-13.46-3.34-27.63-6.25-42.27-8.55a484.15,484.15,0,0,0-84.93-6.36c-34.5.67-67.4,5.54-98.12,8.65-62.7,6.1-117.42,6.69-171.27,18a358.19,358.19,0,0,0-47.91,13.36" transform="translate(325.35 70.01)"/><path class="cls-4" d="M1492.75,358.22c.29-29.64-53.89-27.1-134.56-97.93-4.84-4.24-9.4-8.72-14.09-13-16-14.59-32.2-28.69-49.74-38.95-52.07-30.47-102.77-31.57-162.26-24.14-40.82,5.1-85.88,17.15-139.35,33.07-16.26,4.84-32.45,10.09-48.71,15.23-35.26,11.16-72.89,22.35-107.38,20.94-34.9-1.42-60.7-12.56-87.07-21.87-30.81-10.83-64.39-21.6-102.87-29.82-13.44-2.85-27.53-5.35-42.06-7.31a566.89,566.89,0,0,0-84.07-5.6c-34.1.46-66.73,4.47-97.22,6.5-62.28,3.89-116.6,1.36-170.59,9.67a345.39,345.39,0,0,0-48.2,10.71" transform="translate(325.35 70.01)"/><path class="cls-4" d="M1495,354.22c.26-27-55.09-20.28-137.54-91.1-4.83-4.15-9.39-8.52-14.06-12.69-16-14.31-32-28.2-49.2-38.5-51.08-30.83-100.53-34.48-160.1-28.43-40.14,4.08-84.85,15.17-138.3,30.53-16.12,4.64-32.17,9.69-48.28,14.68-34.92,10.82-72,21.79-106.15,21.37-34.59-.44-60.9-9.66-87.73-17.29C722.35,224,688.42,215.05,650,208.22c-13.41-2.36-27.43-4.44-41.85-6.06a686.45,686.45,0,0,0-83.2-4.85c-33.71.26-66.06,3.4-96.33,4.34-61.86,1.7-115.77-4-169.91,1.33a334.32,334.32,0,0,0-48.48,8.08" transform="translate(325.35 70.01)"/><path class="cls-4" d="M1497.35,350.29c.23-24.25-56.29-13.48-140.52-84.26-4.82-4-9.38-8.32-14-12.4-16-14-31.8-27.69-48.66-38-50.14-31.09-98.29-37.38-157.92-32.73-39.47,3.08-83.83,13.19-137.26,28-16,4.43-31.89,9.3-47.85,14.13-34.58,10.47-71.06,21.24-104.93,21.79-34.28.55-61.1-6.76-88.4-12.7-32-6.9-66.18-14-104.46-19.41-13.39-1.88-27.32-3.53-41.63-4.82-26.51-2.45-54.52-4.12-82.33-4.08-33.32,0-65.38,2.33-95.44,2.18-61.44-.51-114.95-9.29-169.24-7A326.14,326.14,0,0,0,216,206.43" transform="translate(325.35 70.01)"/><path class="cls-4" d="M1499.63,346.34c.21-21.56-57.46-6.72-143.49-77.43-4.81-4-9.38-8.12-14-12.11-16-13.75-31.62-27.17-48.13-37.61-49.21-31.34-96-40.24-155.74-37-38.8,2.1-82.82,11.22-136.23,25.46-15.85,4.22-31.61,8.89-47.42,13.57-34.24,10.12-70.13,20.68-103.7,22.21-34,1.55-61.29-3.85-89.07-8.11-32.5-4.94-67-10.1-105.25-14.1-13.37-1.4-27.22-2.63-41.42-3.58-26.3-1.82-54-3.19-81.47-3.32-32.93-.16-64.71,1.26-94.54,0-61-2.72-114.12-14.64-168.56-15.36a318.61,318.61,0,0,0-49,2.8" transform="translate(325.35 70.01)"/><path class="cls-4" d="M1501.92,342.38c.19-18.86-58.6,0-146.46-70.59-4.81-3.87-9.39-7.91-14-11.81-16-13.45-31.43-26.66-47.6-37.16-48.26-31.61-93.8-43.08-153.56-41.32-38.13,1.13-81.79,9.25-135.18,22.92-15.71,4-31.34,8.49-47,13-33.91,9.78-69.22,20.14-102.48,22.64-33.66,2.54-61.49-.95-89.74-3.52-33-3-67.85-6.23-106-8.87-13.34-.91-27.12-1.72-41.21-2.33-26.07-1.19-53.43-2.26-80.6-2.57-32.53-.36-64,.19-93.64-2.12-60.61-4.93-113.3-20-167.89-23.7a313.68,313.68,0,0,0-49.33.16" transform="translate(325.35 70.01)"/><path class="cls-4" d="M1504.21,338.43c.16-16.16-59.74,6.75-149.43-63.76-4.8-3.77-9.38-7.7-14-11.52-16-13.17-31.23-26.14-47.06-36.72-47.32-31.85-91.57-45.88-151.38-45.61-37.47.18-80.78,7.28-134.15,20.38-15.57,3.82-31.06,8.1-46.55,12.46-33.55,9.43-68.29,19.56-101.23,23.07-33.35,3.52-61.69,2-90.4,1.06-33.57-1-68.73-2.39-106.83-3.64q-20-.63-41-1.08c-25.83-.57-52.83-1.33-79.73-1.85-32.14-.57-63.36-.88-92.75-4.28-60.19-7.13-112.47-25.29-167.21-32a309.25,309.25,0,0,0-49.61-2.47" transform="translate(325.35 70.01)"/><path class="cls-4" d="M1506.51,334.48c.13-13.47-60.87,13.44-152.41-56.93-4.79-3.68-9.38-7.5-14-11.22-15.94-12.9-31-25.63-46.52-36.27-46.39-32.12-89.35-48.66-149.21-49.91-36.81-.76-79.75,5.32-133.1,17.84-15.44,3.62-30.78,7.71-46.13,11.9-33.24,9.1-67.38,19-100,23.5-33,4.51-61.89,4.85-91.07,5.65-34.11,1-69.59,1.45-107.61,1.6l-40.79.16c-25.64.07-52.34-.39-78.86-1-31.75-.78-62.69-2-91.86-6.44C395.18,224,343.31,202.73,288.42,193a307.14,307.14,0,0,0-49.9-5.12" transform="translate(325.35 70.01)"/><path class="cls-4" d="M1508.8,330.53c.1-10.78-62,20.09-155.39-50.09-4.78-3.59-9.37-7.31-13.92-10.94-15.91-12.62-30.85-25.1-46-35.82-45.45-32.38-87.14-51.4-147-54.2-36.15-1.68-78.72,3.37-132.06,15.3-15.29,3.43-30.5,7.31-45.69,11.35-32.91,8.75-66.46,18.48-98.81,23.92-32.73,5.5-62.09,7.76-91.74,10.25-34.66,2.93-70.46,5.29-108.4,6.83-13.26.55-26.81,1-40.57,1.4-25.42.69-51.8.54-78-.29-31.36-1-62-3-91-8.59-59.36-11.54-110.82-36-165.86-48.72a306.78,306.78,0,0,0-50.16-7.71" transform="translate(325.35 70.01)"/><path class="cls-4" d="M1511.09,326.58c.08-8.09-63,26.71-158.35-43.26-4.78-3.51-9.37-7.11-13.9-10.65-15.9-12.34-30.67-24.59-45.45-35.37-44.52-32.63-85-54.11-144.86-58.49-35.52-2.6-77.7,1.41-131,12.76-15.16,3.22-30.22,6.91-45.26,10.79-32.57,8.4-65.55,17.93-97.59,24.34-32.42,6.49-62.28,10.66-92.4,14.84-35.22,4.9-71.32,9.13-109.19,12.07q-19.86,1.54-40.36,2.65c-25.2,1.32-51.26,1.47-77.13.47-31-1.19-61.35-4.1-90.07-10.75-59-13.76-110-41.29-165.18-57.06a307.76,307.76,0,0,0-50.47-10.4" transform="translate(325.35 70.01)"/><path class="cls-4" d="M1513.35,322.62c0-5.39-64.12,33.31-161.33-36.42-4.76-3.42-9.36-6.91-13.87-10.35-15.87-12.07-30.48-24.07-44.91-34.94-43.58-32.88-82.76-56.78-142.69-62.78-34.88-3.49-76.68-.52-130,10.23-15,3-29.94,6.51-44.82,10.23-32.24,8.06-64.63,17.38-96.37,24.77-32,7.48-62.43,13.57-93,19.43-35.76,6.86-72.19,13-110,17.3q-19.83,2.28-40.15,3.89A619.82,619.82,0,0,1,560,265.22c-30.57-1.4-60.67-5.17-89.17-12.91-58.52-16-109.17-46.62-164.51-65.4a310.38,310.38,0,0,0-50.74-13" transform="translate(325.35 70.01)"/><path class="cls-4" d="M1515.67,318.67c0-2.69-65.18,39.86-164.3-29.58-4.76-3.34-9.35-6.71-13.85-10.06-15.85-11.8-30.29-23.56-44.38-34.49-42.64-33.14-80.6-59.43-140.51-67.08-34.27-4.38-75.64-2.4-128.94,7.69-14.88,2.85-29.67,6.11-44.39,9.67-31.9,7.72-63.71,16.83-95.14,25.2-31.8,8.47-62.68,16.47-93.74,24-36.32,8.83-73.06,16.82-110.77,22.54q-19.77,3-39.94,5.14a483,483,0,0,1-75.39,2c-30.18-1.61-60-6.24-88.28-15.06-58.11-18.16-108.35-52-163.83-73.75a314.08,314.08,0,0,0-51-15.68" transform="translate(325.35 70.01)"/><path class="cls-4" d="M1518,314.72S1451.75,361.1,1350.69,292s-135.85-143.72-323.9-110c-130,23.28-252.55,80.38-383.56,97.5-53.9,7-110.4,3.73-161.92-14.46-57.68-20.37-107.52-57.29-163.15-82.09a318.59,318.59,0,0,0-51.32-18.32" transform="translate(325.35 70.01)"/></g></g></g></g></svg>