<svg width="250" height="250" viewBox="0 0 250 250" fill="none" xmlns="http://www.w3.org/2000/svg">
<g style="mix-blend-mode:soft-light" opacity="0.6">
<path d="M19.6621 246.119C19.6621 248.274 15.7286 249.998 10.9209 249.998C6.11324 249.998 2.17969 248.274 2.17969 246.119C2.17969 243.963 6.11324 242.239 10.9209 242.239C15.2915 242.239 19.6621 243.963 19.6621 246.119Z" fill="#C2CFD6"/>
<path d="M19.5348 209.853L1.61523 210.01L1.94035 246.217L19.8599 246.06L19.5348 209.853Z" fill="#C2CFD6"/>
<path d="M19.2344 209.912C19.2344 212.068 15.3009 213.792 10.4932 213.792C5.6855 213.792 1.75195 212.068 1.75195 209.912C1.75195 207.757 5.6855 206.033 10.4932 206.033C15.3009 206.033 19.2344 207.757 19.2344 209.912Z" fill="#FCFCFC"/>
<path d="M56.3789 137.499C56.3789 137.499 73.8614 168.102 78.6691 176.723C83.9138 185.343 132.865 206.033 194.49 159.481C222.462 138.792 233.389 103.447 227.27 92.6713C221.151 81.8955 201.046 46.5508 201.046 46.5508L56.3789 137.499Z" fill="#FCFCFC"/>
<path d="M3.93359 146.982L171.328 153.017L249.999 12.9309L82.6046 6.89648L3.93359 146.982Z" fill="#C2CFD6"/>
<path d="M246.065 5.60254L249.998 12.9301L240.82 18.1025L234.701 15.5163L246.065 5.60254Z" fill="#F6F8F9"/>
<path d="M0 140.085L3.93352 146.982L16.6083 135.344L0 140.085Z" fill="#F6F8F9"/>
<path d="M0 140.086L166.957 145.689L246.065 5.60344L78.2339 0L0 140.086Z" fill="#E0E7EB"/>
<path d="M10.4943 211.208C9.62019 211.208 8.74609 210.346 8.74609 209.484L8.74609 145.26C8.74609 144.829 9.18314 144.398 9.6202 143.967L120.197 66.3808C121.071 65.9498 121.945 65.9497 122.382 66.8118C122.819 67.6739 122.819 68.5359 121.945 68.967L11.8055 146.122L11.8055 209.484C12.2426 210.777 11.3684 211.208 10.4943 211.208Z" fill="#FCFCFC"/>
<path d="M130.684 68.1041C130.247 73.2765 125.439 77.1558 120.194 76.7247C114.95 76.2937 111.016 71.5523 111.453 66.3799C111.89 61.2075 116.698 57.3282 121.943 57.7593C127.187 58.6213 131.121 62.9317 130.684 68.1041Z" fill="#C2CFD6"/>
</g>
</svg>
