<svg width="1594" height="150" viewBox="0 0 1594 150" fill="none" xmlns="http://www.w3.org/2000/svg">
<g opacity="0.25">
<path fill-rule="evenodd" clip-rule="evenodd" d="M827 117.219L816.232 115.125C805.464 113.032 785.722 108.846 764.186 95.2401C744.444 82.6809 722.908 60.7025 703.167 54.4229C681.63 48.1433 661.889 56.5161 640.353 48.1433C620.611 39.7706 606.742 26.1649 587 32.4444C565.464 38.724 538.056 64.8888 516.519 66.982C496.778 70.1218 475.242 52.3297 455.5 48.1433C433.964 43.957 414.222 52.3297 392.686 70.1218C372.944 86.8673 351.408 95.2401 331.667 93.1469C310.13 91.0537 290.389 78.4946 268.853 76.4014C249.111 74.3082 227.575 82.6809 207.833 76.4014C186.297 70.1218 186.036 41.5267 164.5 25.8278C144.758 11.1755 103.742 9.41935 94.7681 5.23297L84 0V117.219H94.7681C103.742 117.219 125.278 117.219 145.019 117.219C166.556 117.219 186.297 117.219 207.833 117.219C227.575 117.219 249.111 117.219 268.853 117.219C290.389 117.219 310.13 117.219 331.667 117.219C351.408 117.219 372.944 117.219 392.686 117.219C414.222 117.219 433.964 117.219 455.5 117.219C475.242 117.219 496.778 117.219 516.519 117.219C538.056 117.219 557.797 117.219 579.333 117.219C599.075 117.219 620.611 117.219 640.353 117.219C661.889 117.219 681.63 117.219 703.167 117.219C722.908 117.219 744.444 117.219 764.186 117.219C785.722 117.219 805.464 117.219 816.232 117.219H827Z" fill="url(#paint0_linear_1916_3691)"/>
<path opacity="0.8" fill-rule="evenodd" clip-rule="evenodd" d="M1393 143.046L1373.54 140.614C1354.07 138.181 1318.39 133.316 1279.46 117.503C1243.78 102.907 1204.85 77.3643 1169.17 70.0663C1130.24 62.7683 1094.56 72.499 1055.63 62.7683C1019.94 53.0376 981.017 22.6293 945.333 29.9273C906.406 37.2253 870.722 82.2296 831.795 84.6623C796.111 88.3113 757.184 46.9559 721.5 42.0906C682.572 37.2253 646.889 67.6336 607.961 88.3113C572.278 107.773 533.35 117.503 497.667 115.071C458.739 112.638 423.056 98.042 384.128 95.6093C348.444 93.1766 309.517 102.907 273.833 95.6093C234.906 88.3113 199.222 62.7683 160.295 44.5233C91.3948 11.0761 66.2198 107.775 50 102.909V143.046H69.4637C85.6836 143.046 124.611 143.046 160.295 143.046C199.222 143.046 234.906 143.046 273.833 143.046C309.517 143.046 348.444 143.046 384.128 143.046C423.056 143.046 458.739 143.046 497.667 143.046C533.35 143.046 572.278 143.046 607.961 143.046C646.889 143.046 682.572 143.046 721.5 143.046C757.184 143.046 796.111 143.046 831.795 143.046C870.722 143.046 906.406 143.046 945.333 143.046C981.017 143.046 1019.94 143.046 1055.63 143.046C1094.56 143.046 1130.24 143.046 1169.17 143.046C1204.85 143.046 1243.78 143.046 1279.46 143.046C1318.39 143.046 1354.07 143.046 1373.54 143.046H1393Z" fill="url(#paint1_linear_1916_3691)"/>
<path opacity="0.8" fill-rule="evenodd" clip-rule="evenodd" d="M1594 98.3L1578.6 94.7345C1563.2 91.169 1536.25 83.4437 1505.44 83.4437C1474.64 83.4437 1447.69 91.169 1416.89 94.7345C1386.09 98.3 1359.14 98.3 1328.33 101.866C1297.53 106.025 1270.58 113.156 1239.78 114.345C1208.98 115.533 1182.02 110.779 1151.22 106.025C1120.42 100.677 1093.47 95.923 1062.67 99.4885C1031.86 103.054 1004.91 115.533 974.111 114.345C943.309 113.156 916.357 98.3 885.556 97.1115C854.754 95.923 827.802 108.402 797 117.91C766.198 128.013 739.246 135.144 708.444 131.578C677.642 128.013 650.691 113.156 619.889 104.837C589.087 95.923 562.135 93.546 531.333 93.546C500.531 93.546 473.58 95.923 442.778 100.677C411.976 106.025 385.024 113.156 354.222 113.156C323.42 113.156 296.469 106.025 265.667 109.591C234.865 113.156 207.913 128.013 177.111 126.824C146.309 125.636 119.357 108.402 88.5555 108.402C57.7536 108.402 30.8018 125.636 15.4009 133.955L0 142.869V150H15.4009C30.8018 150 57.7536 150 88.5555 150C119.357 150 146.309 150 177.111 150C207.913 150 234.865 150 265.667 150C296.469 150 323.42 150 354.222 150C385.024 150 411.976 150 442.778 150C473.58 150 500.531 150 531.333 150C562.135 150 589.087 150 619.889 150C650.691 150 677.642 150 708.444 150C739.246 150 766.198 150 797 150C827.802 150 854.754 150 885.556 150C916.357 150 943.309 150 974.111 150C1004.91 150 1031.86 150 1062.67 150C1093.47 150 1120.42 150 1151.22 150C1182.02 150 1208.98 150 1239.78 150C1270.58 150 1297.53 150 1328.33 150C1359.14 150 1386.09 150 1416.89 150C1447.69 150 1474.64 150 1505.44 150C1536.25 150 1563.2 150 1578.6 150H1594V98.3Z" fill="url(#paint2_linear_1916_3691)"/>
</g>
<defs>
<linearGradient id="paint0_linear_1916_3691" x1="455.5" y1="0" x2="455.5" y2="117.219" gradientUnits="userSpaceOnUse">
<stop stop-color="white"/>
<stop offset="1" stop-color="#B8E2C5"/>
</linearGradient>
<linearGradient id="paint1_linear_1916_3691" x1="721.5" y1="28.8079" x2="721.5" y2="143.046" gradientUnits="userSpaceOnUse">
<stop stop-color="white"/>
<stop offset="1" stop-color="#F9D2D9"/>
</linearGradient>
<linearGradient id="paint2_linear_1916_3691" x1="797" y1="150" x2="797" y2="83.4437" gradientUnits="userSpaceOnUse">
<stop stop-color="#D9F2E1"/>
<stop offset="1" stop-color="white"/>
</linearGradient>
</defs>
</svg>
