<svg id="Layer_1" data-name="Layer 1" xmlns="http://www.w3.org/2000/svg" viewBox="0 0 2042.17 507.23"><defs><style>.cls-1{opacity:0.2;}.cls-2{fill:none;stroke:#1a71ca;stroke-miterlimit:10;stroke-width:0.55px;}</style></defs><g class="cls-1"><path class="cls-2" d="M1724.31-83c-74.83,51.09-153.06,97.87-236.9,132.24-27.18,11.14-55.11,21-84.15,25.43-59.22,9-119.27-5.06-179.14-7-76-2.4-152.51,15.64-219.81,51-50.64,26.62-107.62,65.22-164.9,74.91-52,8.8-108-39.08-154.11-57.77-47.21-19.14-100-23.21-149.86-13.37a265.83,265.83,0,0,0-74.93,26.81c-22.4,12.12-41.91,34.69-68.46,17-8.78-5.86-14.85-14.89-22.39-22.27-26.21-25.66-72.05-27.67-100.41-4.39" transform="translate(317.7 83.21)"/><path class="cls-2" d="M1721-81.38c-73.13,51.76-150.56,99-233.93,133.28-27.76,11.42-56.28,21-85.83,25.92-35.66,5.9-71.69,3.71-107.83.6-24.67-2.12-49.4-4.67-74.1-5.39a493.53,493.53,0,0,0-144.46,17.51,481.44,481.44,0,0,0-79.08,29.32C978,128.27,959.57,138,940.64,147.47c-26.62,13.29-54.19,26.06-82.21,34.24a233,233,0,0,1-30.29,6.85C786.3,194.93,742,168,702.1,148.1a287.92,287.92,0,0,0-31-13.72c-40.78-14.69-85.26-18.38-128.32-12q-11.12,1.65-22.09,4.2a289.45,289.45,0,0,0-75.08,28.92c-14,7.77-27,19.33-41.25,23-8.79,2.25-18,1.46-28.31-5-9-5.62-15.4-14.3-23.22-21.43-27.16-24.79-73.36-27-102.53-4" transform="translate(317.7 83.21)"/><path class="cls-2" d="M1717.71-79.79c-71.43,52.46-148,100.23-231,134.34-28.35,11.7-57.46,21-87.52,26.4-36.11,6.45-72.68,4.87-109.39,2.2-25.07-1.83-50.22-4.17-75.33-4.83a556.56,556.56,0,0,0-146.86,15.93A521.09,521.09,0,0,0,987.24,121c-18.1,7.66-36.86,16.56-56.07,25.19-27,12.09-55,23.61-83.51,31a261,261,0,0,1-30.8,6.25c-42.66,5.81-87.85-19.87-128.44-38.12a280.65,280.65,0,0,0-31.48-12.45C615.6,120,571,117.82,528,125.73q-11.1,2-22.06,5a317.61,317.61,0,0,0-75.22,31c-14.12,8-27.32,19.66-41.86,23.49-9,2.36-18.36,1.69-28.8-4.4-9.2-5.37-15.94-13.7-24.05-20.58-28.09-23.92-74.67-26.29-104.65-3.62" transform="translate(317.7 83.21)"/><path class="cls-2" d="M1714.41-78.19c-69.72,53.14-145.54,101.4-228,135.39a463.62,463.62,0,0,1-89.2,26.89c-36.57,7-73.67,6-111,3.79-25.46-1.53-51-3.66-76.55-4.26A633.39,633.39,0,0,0,1060.44,98a582.84,582.84,0,0,0-81.73,24.15c-18.43,7-37.53,15-57,22.77-27.47,10.87-55.79,21.16-84.81,27.84a295.64,295.64,0,0,1-31.3,5.65c-43.49,5.24-89.58-19-130.86-35.79a278.08,278.08,0,0,0-32-11.18c-41.87-11.25-86.59-11.76-129.52-2.34q-11.08,2.41-22,5.72a351.38,351.38,0,0,0-75.36,33.14c-14.24,8.31-27.66,20-42.47,24-9.14,2.48-18.69,1.93-29.29-3.84-9.41-5.13-16.49-13.1-24.88-19.73-29-23.06-76-25.61-106.77-3.24" transform="translate(317.7 83.21)"/><path class="cls-2" d="M1711.11-76.59c-68,53.83-143,102.58-225,136.44-29.51,12.26-59.78,21-90.87,27.38-37,7.61-74.67,7.19-112.53,5.38-25.86-1.23-51.82-3.14-77.77-3.69a730.61,730.61,0,0,0-151.68,12.75,652.92,652.92,0,0,0-83.05,21.56c-18.78,6.23-38.18,13.4-57.94,20.35-27.88,9.67-56.58,18.72-86.1,24.64-10.54,2.16-21.16,3.91-31.81,5.06C750,178,703.06,155,661.05,139.82a273.19,273.19,0,0,0-32.45-9.92c-42.39-9.56-87.25-8.45-130.12,2.48q-11.07,2.81-22,6.48c-25.95,8.69-51.27,20.81-75.5,35.25-14.37,8.57-28,20.31-43.09,24.51-9.31,2.59-19,2.16-29.78-3.29-9.62-4.87-17-12.49-25.7-18.87-30-22.2-77.3-24.93-108.9-2.86" transform="translate(317.7 83.21)"/><path class="cls-2" d="M1707.81-75C1641.49-20.47,1567.28,28.77,1485.75,62.5c-30.1,12.54-61,21-92.55,27.87-37.48,8.16-75.67,8.34-114.1,7-26.25-.93-52.63-2.63-79-3.13A854.22,854.22,0,0,0,1046,105.37a743.22,743.22,0,0,0-84.38,19c-19.13,5.5-38.83,11.88-58.87,17.93-28.29,8.54-57.39,16.21-87.4,21.44-10.71,1.87-21.49,3.44-32.32,4.46-45.14,4.11-93-17.49-135.69-31.12a270,270,0,0,0-33-8.66c-42.9-7.88-87.91-5.13-130.72,7.31q-11.06,3.2-21.95,7.24c-25.9,9.58-51.2,22.48-75.64,37.37-14.49,8.83-28.34,20.63-43.7,25-9.48,2.71-19.35,2.41-30.26-2.72-9.84-4.62-17.59-11.88-26.53-18-30.92-21.33-78.61-24.24-111-2.47" transform="translate(317.7 83.21)"/><path class="cls-2" d="M1704.51-73.39c-64.62,55.2-138,104.94-219.09,138.54-30.68,12.82-62.12,21-94.24,28.36-37.92,8.73-76.66,9.5-115.65,8.56-26.66-.63-53.45-2.12-80.23-2.56a1018.35,1018.35,0,0,0-156.48,9.58,857.13,857.13,0,0,0-85.7,16.37c-19.48,4.77-39.48,10.32-59.81,15.51a863.71,863.71,0,0,1-88.69,18.24c-10.86,1.61-21.82,3-32.82,3.86-46,3.54-94.65-16.73-138.11-28.79a268,268,0,0,0-33.44-7.39c-43.42-6.2-88.57-1.82-131.33,12.13q-11,3.58-21.9,8c-25.86,10.46-51.14,24.15-75.78,39.48-14.62,9.1-28.69,20.95-44.32,25.51-9.65,2.83-19.69,2.65-30.75-2.15-10.06-4.38-18.13-11.29-27.36-17.18-31.86-20.46-79.92-23.56-113.14-2.08" transform="translate(317.7 83.21)"/><path class="cls-2" d="M1701.21-71.79C1638.29-15.9,1565.7,34.32,1485.09,67.8c-31.27,13.1-63.3,21-95.92,28.84-38.38,9.29-77.66,10.66-117.23,10.16-27-.34-54.25-1.61-81.45-2a1247.23,1247.23,0,0,0-158.88,8c-30,3.44-59.1,8.11-87,13.79-19.83,4-40.14,8.74-60.74,13.09-29.13,6.15-59,11.29-90,15-11,1.34-22.15,2.52-33.33,3.26-46.79,3-96.33-16-140.51-26.46a265.41,265.41,0,0,0-33.94-6.12c-43.93-4.53-89.24,1.49-131.93,17-7.34,2.64-14.63,5.58-21.86,8.76-25.82,11.34-51.08,25.82-75.92,41.59-14.75,9.37-29,21.28-44.93,26a45.74,45.74,0,0,1-31.24-1.6C269.9,213,261.51,206.42,252,200.78c-32.8-19.6-81.23-22.87-115.27-1.7" transform="translate(317.7 83.21)"/><path class="cls-2" d="M1697.92-70.19c-61.22,56.57-133,107.29-213.16,140.64-31.85,13.38-64.46,20.94-97.6,29.34-38.84,9.83-78.65,11.81-118.79,11.74-27.44,0-55.06-1.09-82.68-1.43a1579.93,1579.93,0,0,0-161.29,6.41c-30.46,2.76-60,6.56-88.35,11.2-20.19,3.3-40.8,7.17-61.67,10.67-29.55,5-59.77,8.84-91.29,11.84-11.18,1.07-22.48,2.05-33.83,2.66-47.61,2.41-98-15.21-142.93-24.13a266.08,266.08,0,0,0-34.43-4.85c-44.43-2.87-89.9,4.8-132.53,21.77q-11,4.35-21.83,9.52c-25.77,12.23-51,27.49-76.06,43.7-14.87,9.64-29.38,21.6-45.54,26.53a48.06,48.06,0,0,1-31.73-1c-10.5-3.86-19.23-10.09-29-15.47-33.73-18.74-82.54-22.19-117.38-1.32" transform="translate(317.7 83.21)"/><path class="cls-2" d="M1694.62-68.59C1635.1-11.33,1564.11,39.87,1484.42,73.1,1452,86.76,1418.79,94,1385.14,102.92c-39.29,10.39-79.65,13-120.36,13.34-27.84.26-55.87-.58-83.9-.87-55.3-.58-110.81,1.26-163.69,4.82-30.92,2.09-60.87,5-89.68,8.61-20.54,2.57-41.45,5.61-62.6,8.26-30,3.75-60.56,6.38-92.58,8.64-11.35.8-22.82,1.58-34.35,2.06-48.44,1.84-99.69-14.45-145.34-21.8a266.06,266.06,0,0,0-34.92-3.58c-44.94-1.22-90.56,8.11-133.13,26.58-7.32,3.16-14.58,6.61-21.79,10.29-25.73,13.11-50.95,29.17-76.2,45.82-15,9.9-29.73,21.92-46.16,27a50.64,50.64,0,0,1-32.22-.48c-10.73-3.6-19.77-9.48-29.85-14.62-34.67-17.87-83.85-21.51-119.51-.93" transform="translate(317.7 83.21)"/><path class="cls-2" d="M1691.32-67C1633.51-9,1563.32,42.65,1484.09,75.75c-33,13.94-66.79,20.91-101,30.31-39.75,10.94-80.64,14.13-121.92,14.93-28.24.56-56.69-.07-85.13-.31-56.12-.47-112.44.83-166.1,3.25-31.37,1.41-61.76,3.46-91,6-20.89,1.82-42.12,4-63.54,5.83-30.4,2.56-61.36,3.93-93.88,5.45-11.5.53-23.14,1.12-34.85,1.46C677.45,144,625.35,129,579,123.22a267.64,267.64,0,0,0-35.42-2.32c-45.44.44-91.22,11.43-133.73,31.41q-11,5.13-21.75,11.05c-25.69,14-50.89,30.84-76.34,47.93-15.12,10.17-30.07,22.25-46.77,27.53a53.4,53.4,0,0,1-32.7.09c-11-3.35-20.34-8.86-30.68-13.77-35.65-16.93-85.17-20.82-121.64-.55" transform="translate(317.7 83.21)"/><path class="cls-2" d="M1688-65.39C1631.91-6.76,1562.52,45.43,1483.76,78.4c-33.6,14.21-68,20.89-102.64,30.8-40.21,11.48-81.64,15.28-123.49,16.51-28.64.86-57.49.44-86.36.26-56.93-.36-114.07.4-168.5,1.66-31.82.74-62.66,1.91-92.32,3.43-21.25,1.09-42.78,2.46-64.47,3.42-30.82,1.35-62.15,1.48-95.18,2.24-11.66.27-23.47.66-35.36.87-50.09.71-103-13-150.16-17.14a268.49,268.49,0,0,0-35.92-1c-45.93,2.08-91.88,14.73-134.33,36.23-7.29,3.67-14.52,7.63-21.71,11.8-25.64,14.89-50.83,32.51-76.48,50-15.25,10.44-30.41,22.57-47.38,28a56.34,56.34,0,0,1-33.19.65c-11.2-3.09-20.89-8.27-31.51-12.93C148.17,217.17,98.28,213.1,61,233.08" transform="translate(317.7 83.21)"/><path class="cls-2" d="M1684.72-63.79c-54.41,59.32-123,112-201.29,144.84-34.19,14.5-69.14,20.88-104.33,31.29-40.66,12-82.63,16.44-125,18.11-29,1.15-58.3,1-87.58.82-57.75-.26-115.7,0-170.91.08-32.27.06-63.55.36-93.65.84-21.6.35-43.44.89-65.4,1-31.25.15-63-1-96.48-1-11.82,0-23.8.19-35.86.27-50.91.14-104.71-12.21-152.58-14.8a270.38,270.38,0,0,0-36.4.21C468.75,121.64,422.65,136,380.25,159c-7.28,3.93-14.49,8.14-21.67,12.56C333,187.3,307.82,205.71,282,223.69c-15.38,10.71-30.76,22.89-48,28.54a59.56,59.56,0,0,1-33.69,1.22c-11.42-2.82-21.43-7.67-32.33-12.08-37.53-15.2-87.79-19.46-125.89.22" transform="translate(317.7 83.21)"/><path class="cls-2" d="M1681.42-62.19c-52.71,60-120.54,113-198.32,145.89-34.8,14.7-70.31,20.85-106,31.78-41.11,12.58-83.62,17.6-126.62,19.7-29.42,1.45-59.11,1.46-88.8,1.39-58.56-.16-117.33-.46-173.31-1.52l-95-1.75c-22-.39-44.1-.68-66.33-1.42-31.67-1-63.74-3.41-97.77-4.15-12-.26-24.14-.28-36.37-.33-51.74-.42-106.39-11.48-155-12.47a273.51,273.51,0,0,0-36.9,1.48c-46.94,5.36-93.2,21.36-135.54,45.87-7.27,4.19-14.47,8.66-21.63,13.33-25.56,16.65-50.7,35.85-76.76,54.27-15.5,11-31.11,23.21-48.61,29a62.87,62.87,0,0,1-34.17,1.78c-11.65-2.55-22-7.06-33.16-11.23-38.47-14.32-89.1-18.76-128,.61" transform="translate(317.7 83.21)"/><path class="cls-2" d="M1678.12-60.6c-51,60.7-118,114.2-195.36,147-35.38,15-71.48,20.83-107.69,32.26-41.57,13.13-84.62,18.76-128.18,21.3-29.82,1.74-59.92,2-90,2-59.38-.06-119-.88-175.72-3.1q-49.77-1.94-96.3-4.34c-22.31-1.14-44.75-2.26-67.26-3.84-32.1-2.25-64.53-5.86-99.07-7.35-12.15-.52-24.47-.74-36.88-.93-52.56-1-108.06-10.74-157.4-10.14a279.4,279.4,0,0,0-37.4,2.74c-47.44,7-93.85,24.67-136.13,50.7-7.26,4.45-14.44,9.17-21.6,14.09-25.51,17.53-50.64,37.52-76.9,56.38-15.63,11.24-31.45,23.54-49.22,29.55A66.59,66.59,0,0,1,168.32,268c-11.88-2.28-22.52-6.46-34-10.38-39.4-13.46-90.41-18.08-130.13,1" transform="translate(317.7 83.21)"/><path class="cls-2" d="M1674.82-59c-49.3,61.38-115.53,115.37-192.39,148-36,15.26-72.65,20.81-109.37,32.75-42,13.67-85.61,19.92-129.75,22.89-30.21,2-60.72,2.49-91.25,2.51-60.19,0-120.59-1.31-178.12-4.68-33.63-2-66.23-4.31-97.62-6.93-22.67-1.88-45.42-3.83-68.2-6.26-32.52-3.46-65.33-8.31-100.37-10.55-12.3-.79-24.8-1.2-37.39-1.52-53.38-1.56-109.73-10-159.81-7.82a282.68,282.68,0,0,0-37.88,4c-47.95,8.62-94.53,28-136.75,55.51-7.24,4.71-14.41,9.69-21.55,14.85-25.47,18.42-50.57,39.2-77,58.5-15.76,11.5-31.79,23.86-49.83,30.06a70.63,70.63,0,0,1-35.15,2.9c-12.12-2-23.08-5.86-34.83-9.53-40.33-12.59-91.72-17.4-132.25,1.38" transform="translate(317.7 83.21)"/><path class="cls-2" d="M1671.52-57.4c-47.6,62.07-113,116.71-189.42,149.05-36.52,15.61-73.83,20.79-111,33.24-42.49,14.21-86.61,21.07-131.32,24.47-30.61,2.34-61.53,3-92.48,3.08-61,.16-122.22-1.73-180.52-6.26q-51.13-4-99-9.52c-23-2.64-46.08-5.41-69.13-8.68-32.95-4.67-66.12-10.75-101.67-13.75-12.46-1-25.13-1.67-37.89-2.13-54.21-2.12-111.41-9.27-162.23-5.48a288.75,288.75,0,0,0-38.37,5.29C410,122.15,363.3,143.2,321.14,172.24c-7.23,5-14.39,10.2-21.51,15.61-25.43,19.31-50.52,40.87-77.19,60.61C206.56,260.23,190.31,272.65,172,279a74.61,74.61,0,0,1-35.63,3.46c-12.35-1.73-23.62-5.28-35.66-8.67-41.25-11.81-93-16.72-134.37,1.76" transform="translate(317.7 83.21)"/><path class="cls-2" d="M1668.22-55.8C1622.32,7,1557.77,62.09,1481.77,94.3c-37.1,15.89-75,20.77-112.73,33.73-43,14.75-87.61,22.23-132.89,26.07-31,2.64-62.34,3.51-93.7,3.64-61.82.26-123.85-2.16-182.93-7.85-34.54-3.32-68-7.43-100.28-12.11-23.37-3.38-46.73-7-70.06-11.09-33.37-5.88-66.91-13.2-103-17-12.63-1.32-25.46-2.14-38.4-2.73-55-2.69-113.08-8.55-164.64-3.15a295.93,295.93,0,0,0-38.87,6.55c-49,11.86-95.84,34.6-137.94,65.16-7.22,5.22-14.36,10.71-21.48,16.37-25.38,20.19-50.45,42.53-77.32,62.72-16,12-32.48,24.51-51.06,31.07a79.33,79.33,0,0,1-36.12,4c-12.58-1.46-24.17-4.68-36.48-7.83-42.2-10.94-94.35-16-136.5,2.15" transform="translate(317.7 83.21)"/><path class="cls-2" d="M1664.92-54.2C1620.73,9.24,1557,64.87,1481.44,97c-37.69,16.17-76.17,20.74-114.41,34.22-43.41,15.29-88.6,23.38-134.45,27.66-31.4,2.94-63.16,4-94.93,4.21-62.63.36-125.48-2.59-185.33-9.43-35-4-68.9-9-101.6-14.7-23.72-4.14-47.39-8.57-71-13.52-33.79-7.09-67.7-15.64-104.26-20.15-12.78-1.58-25.79-2.6-38.9-3.32-55.86-3.26-114.76-7.83-167-.82a302.34,302.34,0,0,0-39.37,7.81c-49.46,13.48-96.5,37.92-138.54,70-7.21,5.48-14.34,11.22-21.44,17.13-25.34,21.07-50.39,44.21-77.46,64.83-16.13,12.31-32.82,24.84-51.67,31.57A84.15,84.15,0,0,1,104.42,297c-12.81-1.18-24.71-4.08-37.31-7C24,280-28.55,274.68-71.51,292.57" transform="translate(317.7 83.21)"/><path class="cls-2" d="M1661.62-52.6C1619.13,11.53,1556.19,67.64,1481.1,99.6c-38.27,16.45-77.34,20.72-116.09,34.71-43.87,15.83-89.6,24.54-136,29.25-31.8,3.23-64,4.53-96.15,4.77-63.44.47-127.11-3-187.74-11-35.44-4.67-69.79-10.57-102.92-17.29q-36.12-7.32-71.93-15.94C736,115.79,701.75,106,664.69,100.74c-12.94-1.84-26.12-3.07-39.41-3.92C568.6,93,508.85,89.72,455.82,98.33A309.08,309.08,0,0,0,416,107.41c-50,15.09-97.17,41.23-139.15,74.8C269.62,188,262.5,194,255.42,200.1c-25.3,22-50.33,45.88-77.6,67-16.27,12.57-33.17,25.16-52.29,32.08a89.54,89.54,0,0,1-37.1,5.15c-13-.9-25.26-3.48-38.14-6.13-44.07-9.21-97-14.66-140.74,2.92" transform="translate(317.7 83.21)"/><path class="cls-2" d="M1658.33-51c-40.8,64.81-102.94,121.42-177.56,153.24-38.85,16.74-78.51,20.7-117.77,35.2-44.33,16.38-90.59,25.7-137.58,30.84a973.86,973.86,0,0,1-97.38,5.34c-64.25.58-128.74-3.45-190.14-12.6-35.9-5.35-70.67-12.14-104.25-19.88q-36.63-8.46-72.86-18.36c-34.64-9.51-69.29-20.52-106.86-26.54-13.1-2.1-26.44-3.53-39.91-4.52-57.51-4.39-118.12-6.38-171.88,3.84a317,317,0,0,0-40.35,10.35C351.29,122.61,304,150.45,262,185.53c-7.18,6-14.28,12.25-21.36,18.65-25.26,22.85-50.26,47.55-77.74,69.06-16.39,12.84-33.52,25.48-52.9,32.59a94.86,94.86,0,0,1-37.58,5.7c-13.28-.6-25.81-2.87-39-5.27-45-8.35-98.27-14-142.86,3.3" transform="translate(317.7 83.21)"/><path class="cls-2" d="M1655-49.4c-39.1,65.5-100.43,122.59-174.59,154.3-39.44,17-79.69,20.66-119.46,35.69-44.78,16.91-91.59,26.86-139.14,32.43a927.4,927.4,0,0,1-98.61,5.9c-65.06.68-130.37-3.87-192.54-14.18-36.35-6-71.56-13.71-105.58-22.47q-37.15-9.59-73.79-20.78c-35.06-10.72-70.09-23-108.16-29.74-13.26-2.37-26.78-4-40.42-5.12-58.33-5-119.8-5.66-174.29,6.17a323.06,323.06,0,0,0-40.84,11.62c-51,18.3-98.49,47.85-140.35,84.44-7.17,6.26-14.26,12.76-21.33,19.41-25.21,23.73-50.2,49.22-77.88,71.17-16.51,13.11-33.85,25.81-53.51,33.09a101,101,0,0,1-38.07,6.27c-13.51-.32-26.36-2.28-39.8-4.42-46-7.49-99.59-13.29-145,3.68" transform="translate(317.7 83.21)"/><path class="cls-2" d="M1651.73-47.8c-37.4,66.18-97.92,123.77-171.62,155.35-40,17.29-80.86,20.64-121.14,36.17-45.25,17.45-92.58,28-140.71,34a892.35,892.35,0,0,1-99.83,6.47c-65.88.78-132-4.31-195-15.78-36.8-6.7-72.45-15.27-106.9-25.06q-37.7-10.71-74.73-23.19C706.38,108.26,671,94.78,632.4,87.24a406.25,406.25,0,0,0-40.93-5.71C532.32,76,470,76.58,414.77,90a333.6,333.6,0,0,0-41.33,12.89c-51.54,19.91-99.15,51.16-140.95,89.26-7.16,6.52-14.23,13.28-21.29,20.18-25.17,24.61-50.14,50.89-78,73.28C116.54,299,99,311.77,79.06,319.24a108.14,108.14,0,0,1-38.57,6.83c-13.73,0-26.9-1.68-40.62-3.58C-47,315.87-101,309.88-147.25,326.56" transform="translate(317.7 83.21)"/><path class="cls-2" d="M1648.43-46.2c-35.69,66.87-95.41,125-168.65,156.39-40.61,17.57-82.07,20.54-122.82,36.67-45.74,17.9-93.58,29.17-142.28,35.61a855.15,855.15,0,0,1-101,7c-66.7.89-133.63-4.73-197.36-17.35A1067.58,1067.58,0,0,1,808.05,144.5q-38.22-11.85-75.66-25.62c-35.89-13.14-71.7-27.77-110.75-36.14a387.09,387.09,0,0,0-41.43-6.31C520.23,70.34,457,72.2,401.1,87.26a343.37,343.37,0,0,0-41.84,14.15c-52.05,21.52-99.81,54.48-141.55,94.09-7.15,6.77-14.2,13.79-21.25,20.93-25.12,25.5-50.07,52.57-78.16,75.4-16.76,13.64-34.55,26.45-54.74,34.1a115.17,115.17,0,0,1-39,7.4c-14,.25-27.45-1.08-41.45-2.73-47.84-5.75-102.22-11.93-149.24,4.45" transform="translate(317.7 83.21)"/><path class="cls-2" d="M1645.13-44.6c-34,67.56-92.91,126.12-165.69,157.44-41.18,17.86-83.23,20.52-124.5,37.16-46.19,18.45-94.57,30.33-143.84,37.21a826.69,826.69,0,0,1-102.28,7.59c-67.51,1-135.26-5.15-199.75-18.94a1009.6,1009.6,0,0,1-109.55-30.24c-25.83-8.64-51.32-18.09-76.59-28-36.29-14.42-72.5-30.22-112-39.35a368.17,368.17,0,0,0-41.94-6.91c-60.81-6.65-124.85-3.51-181.53,13.17a352.27,352.27,0,0,0-42.32,15.42C292.52,123,244.62,157.7,202.94,198.83c-7.14,7-14.18,14.3-21.21,21.69-25.09,26.38-50,54.24-78.31,77.51-16.88,13.91-34.88,26.78-55.34,34.61a123,123,0,0,1-39.55,7.95c-14.19.55-28-.48-42.28-1.87-48.78-4.89-103.53-11.25-151.36,4.83" transform="translate(317.7 83.21)"/><path class="cls-2" d="M1641.83-43c-32.29,68.24-90.4,127.3-162.71,158.5-41.78,18.13-84.41,20.49-126.19,37.64-46.65,19-95.56,31.48-145.4,38.8A801.87,801.87,0,0,1,1104,200.1c-68.32,1.09-136.89-5.59-202.16-20.53A963.58,963.58,0,0,1,791,146.74c-26.18-9.4-52-19.67-77.53-30.45-36.72-15.63-73.29-32.66-113.35-42.54a348.31,348.31,0,0,0-42.45-7.51C496,59,431.13,63.44,373.73,81.74a361.43,361.43,0,0,0-42.82,16.68c-53.1,24.72-101.13,61.1-142.76,103.73C181,209.43,174,217,167,224.61c-25.05,27.26-50,55.9-78.45,79.62-17,14.17-35.23,27.1-56,35.11a131.59,131.59,0,0,1-40,8.52c-14.41.84-28.55.12-43.11-1-49.72-4-104.84-10.56-153.48,5.22" transform="translate(317.7 83.21)"/><path class="cls-2" d="M1638.53-41.41C1608,27.53,1550.64,87.07,1478.78,118.14c-42.36,18.41-85.58,20.47-127.86,38.13-47.12,19.54-96.56,32.65-147,40.4a778.08,778.08,0,0,1-104.73,8.72c-69.14,1.2-138.52-6-204.57-22.11a928.88,928.88,0,0,1-112.2-35.42C755.93,137.71,729.82,126.62,704,115c-37.13-16.83-74.08-35.11-114.63-45.74a333.72,333.72,0,0,0-43-8.11C484,53.35,418.18,59.05,360.05,79a372.78,372.78,0,0,0-43.31,18C263.11,123.24,215,161.33,173.38,205.47c-7.11,7.55-14.12,15.33-21.13,23.22-25,28.15-49.88,57.57-78.58,81.73C56.53,324.86,38.09,337.85,17.1,346a140,140,0,0,1-40.52,9.08c-14.64,1.13-29.1.73-43.94-.18-50.66-3.15-106.15-9.87-155.61,5.61" transform="translate(317.7 83.21)"/><path class="cls-2" d="M1635.23-39.8c-28.88,69.61-85.38,129.66-156.78,160.59-42.94,18.69-86.75,20.45-129.55,38.62-47.57,20.09-97.55,33.81-148.54,42a758.08,758.08,0,0,1-105.95,9.29c-70,1.3-140.15-6.44-207-23.7-39.07-10.08-76.85-23.18-113.52-38-26.86-11-53.3-22.82-79.4-35.29-37.55-18-74.88-37.56-115.93-48.94a319.76,319.76,0,0,0-43.47-8.71c-63.27-8.35-129.95-1.48-188.76,20.16a376.25,376.25,0,0,0-43.8,19.22c-54.16,27.92-102.46,67.72-144,113.37-7.1,7.8-14.1,15.84-21.09,24-25,29-49.83,59.24-78.72,83.84-17.27,14.7-35.93,27.75-57.19,36.12a150.86,150.86,0,0,1-41,9.65c-14.87,1.43-29.65,1.32-44.78.67-51.59-2.29-107.45-9.19-157.72,6" transform="translate(317.7 83.21)"/><path class="cls-2" d="M1631.93-38.21c-27.18,70.31-82.88,130.84-153.81,161.65-43.52,19-87.93,20.43-131.23,39.11a653,653,0,0,1-150.1,43.58A739.41,739.41,0,0,1,1089.6,216c-70.76,1.41-141.78-6.87-209.37-25.28C840.71,179.94,802.5,166,765.38,150.11c-27.2-11.7-54-24.4-80.32-37.71-38-19.25-75.68-40-117.24-52.14a309.92,309.92,0,0,0-44-9.31,384.86,384.86,0,0,0-235.46,43c-54.75,29.41-103.12,71-144.57,118.19-7.08,8.06-14.07,16.36-21,24.74C97.86,266.77,73,297.77,43.91,322.81c-17.39,15-36.27,28.08-57.8,36.63a161,161,0,0,1-41.5,10.2,324.72,324.72,0,0,1-45.6,1.53c-52.53-1.43-108.77-8.51-159.85,6.37" transform="translate(317.7 83.21)"/><path class="cls-2" d="M1628.63-36.61c-25.48,71-80.37,132-150.85,162.7-44.1,19.25-89.09,20.41-132.91,39.6a661.88,661.88,0,0,1-151.67,45.16,723.38,723.38,0,0,1-108.4,10.42c-71.58,1.51-143.41-7.3-211.78-26.86-40-11.44-78.61-26.3-116.17-43.19-27.55-12.44-54.61-26-81.26-40.13C637.2,90.64,599.12,68.64,557.06,55.75a300.6,300.6,0,0,0-44.47-9.9c-64.93-9.49-133.32,0-193.59,24.82a397.18,397.18,0,0,0-44.79,21.75c-55.27,31.05-103.78,74.34-145.16,123C122,223.75,115,232.3,108,240.93c-24.86,30.8-49.7,62.59-79,88.07-17.52,15.24-36.61,28.4-58.41,37.14a173.46,173.46,0,0,1-42,10.76,326.92,326.92,0,0,1-46.43,2.37c-53.47-.56-110.08-7.82-162,6.76" transform="translate(317.7 83.21)"/><path class="cls-2" d="M1625.34-35c-23.78,71.68-77.87,133.19-147.89,163.75-44.69,19.53-90.27,20.39-134.59,40.09a671.2,671.2,0,0,1-153.23,46.76,708.31,708.31,0,0,1-109.64,11c-72.39,1.62-145-7.72-214.18-28.45-40.42-12.11-79.5-27.86-117.5-45.77-27.9-13.19-55.26-27.55-82.2-42.55-38.8-21.66-77.26-44.9-119.82-58.54a291.24,291.24,0,0,0-45-10.5c-65.75-10.06-135,.72-196,27.15a413,413,0,0,0-45.28,23c-55.79,32.68-104.44,77.65-145.77,127.84-7.06,8.57-14,17.38-21,26.25-24.83,31.69-49.64,64.26-79.15,90.19-17.64,15.5-36.95,28.71-59,37.63a184.44,184.44,0,0,1-42.47,11.33,327.8,327.8,0,0,1-47.26,3.22c-54.41.31-111.39-7.13-164.1,7.15" transform="translate(317.7 83.21)"/><path class="cls-2" d="M1622-33.41C1600,39,1546.67,101,1477.12,131.39c-45.27,19.81-91.44,20.37-136.27,40.58a680.47,680.47,0,0,1-154.8,48.35c-108.5,20.2-222,14.51-327.45-18.49-70.92-22.19-137.73-55.92-202-93.34-39.23-22.85-78-47.34-121.11-61.73-79.17-26.46-167.9-16.13-243.9,18.38S151.57,156.85,99.49,222.08C52.23,281.28,9.78,351-60.37,379.54c-80.22,32.69-173.45,1.59-257.26,23.49" transform="translate(317.7 83.21)"/><path class="cls-2" d="M1454.56,424c.88-91.46-31.46-182.88-89.65-253.44-16.56-20.08-36-39.06-60.46-47.86-70.75-25.44-146.3,30.17-205.79,61.74-71.78,38.1-142.76,78-217.5,110.18-42,18.05-91.25,33.37-131.84,12.42-41.1-21.22-56.75-70.62-73.74-113.65C655.78,143.27,628.51,95,588.49,58.88S494.35,0,440.77,5.86c-42,4.61-80.19,25.9-115.1,49.62A769.09,769.09,0,0,0,99,295.5" transform="translate(317.7 83.21)"/><path class="cls-2" d="M1456.85,420.06c.79-80.83-27.65-159.95-78.07-227.8-4.68-6.3-9.5-12.5-14.53-18.52-16.53-19.8-35.78-38.54-59.92-47.42-69.81-25.69-144.21,27-203.61,57.45-52.67,27-105,55.49-159.11,81.28-18.79,9-37.73,17.64-56.92,25.8-41.63,17.71-90.33,32.82-130.62,12.85-40.79-20.23-56.94-67.72-74.41-109.06-20.35-48.16-47.93-94.58-87.88-129.29a224.41,224.41,0,0,0-46.1-31c-31.11-15.65-65.93-23.69-100.54-20-41.56,4.4-79.52,24.82-114.21,47.47A758.34,758.34,0,0,0,147.48,230a738.74,738.74,0,0,0-42.81,60.87" transform="translate(317.7 83.21)"/><path class="cls-2" d="M1459.14,416.11c.76-78.14-29.19-152.87-81-221-4.71-6.18-9.5-12.3-14.51-18.23-16.51-19.53-35.59-38-59.39-47-68.88-26-142.1,23.84-201.43,53.15-52.11,25.75-103.95,53.49-158.07,78.74q-28,13.17-56.49,25.25c-41.29,17.36-89.41,32.27-129.39,13.27-40.49-19.24-57.14-64.82-75.07-104.47-20.91-46.2-48.81-90.74-88.68-124a225.29,225.29,0,0,0-45.89-29.73c-30.88-15-65.39-22.76-99.66-19.28C408.35,27,370.67,46.58,336.2,68.14,266.39,111.74,204.74,165.48,153.42,228a716.86,716.86,0,0,0-43.09,58.23" transform="translate(317.7 83.21)"/><path class="cls-2" d="M1461.44,412.16c.73-75.45-30.72-145.79-84-214.13-4.73-6.06-9.49-12.1-14.48-17.94-16.49-19.25-35.4-37.5-58.85-46.52-67.94-26.21-140,20.68-199.26,48.86-51.55,24.51-103,51.37-157,76.2-18.53,8.52-37.18,16.85-56.06,24.69-41,17-88.49,31.72-128.17,13.7-40.17-18.25-57.33-61.91-75.73-99.88-21.46-44.23-49.67-86.9-89.46-118.82A228.11,228.11,0,0,0,552.7,49.84C522,35.45,487.86,28,453.9,31.32c-40.78,4-78.17,22.68-112.42,43.15-69.4,41.4-130.64,92-182.1,151.48A688.6,688.6,0,0,0,116,281.55" transform="translate(317.7 83.21)"/><path class="cls-2" d="M1463.73,408.21c.7-72.75-32.22-138.72-87-207.29-4.75-5.95-9.49-11.9-14.46-17.65-16.47-19-35.22-37-58.32-46.08-67-26.47-137.88,17.53-197.08,44.57-51,23.28-102,49.33-156,73.66-18.4,8.3-36.9,16.45-55.63,24.14-40.62,16.67-87.57,31.16-126.94,14.12-39.86-17.26-57.54-59-76.41-95.29-22-42.27-50.53-83.06-90.25-113.59A231.11,231.11,0,0,0,556.2,57.56c-30.45-13.76-64.3-20.89-97.93-17.75-40.39,3.77-77.5,21.6-111.53,41-69,39.19-129.82,86.67-181.43,143.14a666.22,666.22,0,0,0-43.65,52.95" transform="translate(317.7 83.21)"/><path class="cls-2" d="M1466,404.25c.68-70.05-33.71-131.65-90-200.45-4.77-5.83-9.49-11.7-14.44-17.36-16.44-18.69-35-36.47-57.78-45.63-66.07-26.72-135.75,14.38-194.91,40.28-50.4,22.06-101,47.3-154.94,71.13-18.28,8.07-36.62,16-55.2,23.58-40.29,16.32-86.66,30.61-125.72,14.54-39.55-16.27-57.73-56.1-77.07-90.7-22.56-40.31-51.41-79.22-91-108.35a234.08,234.08,0,0,0-45.25-26c-30.23-13.14-63.76-20-97.07-17-40,3.57-76.82,20.54-110.63,38.84-68.56,37-129,81.34-180.75,134.8a643.68,643.68,0,0,0-43.94,50.31" transform="translate(317.7 83.21)"/><path class="cls-2" d="M1468.31,400.3c.66-67.36-35.17-124.6-92.93-193.62-4.79-5.72-9.48-11.5-14.42-17.07-16.41-18.42-34.83-36-57.24-45.18-65.13-27-133.61,11.23-192.73,36-49.82,20.85-100,45.28-153.91,68.59-18.14,7.85-36.34,15.66-54.76,23-40,16-85.74,30.07-124.5,15-39.24-15.28-57.93-53.2-77.74-86.12C677,162.53,647.81,125.49,608.25,97.76a238.25,238.25,0,0,0-45-24.75C533.2,60.51,500,54,467,56.77c-39.6,3.37-76.15,19.47-109.73,36.69-68.15,34.77-128.17,76-180.07,126.45A619.53,619.53,0,0,0,133,267.59" transform="translate(317.7 83.21)"/><path class="cls-2" d="M1470.6,396.35c.63-64.67-36.63-117.55-95.91-186.79-4.8-5.6-9.47-11.3-14.39-16.77-16.39-18.14-34.64-35.44-56.71-44.74-64.19-27.24-131.46,8.1-190.55,31.69-49.22,19.64-99,43.24-152.87,66-18,7.63-36.06,15.26-54.33,22.47-39.61,15.63-84.82,29.51-123.27,15.4-38.94-14.29-58.13-50.31-78.41-81.53-23.65-36.38-53.13-71.54-92.61-97.88a243,243,0,0,0-44.83-23.5c-29.79-11.88-62.67-18.1-95.33-15.48-39.21,3.16-75.48,18.4-108.85,34.53-67.72,32.57-127.33,70.68-179.39,118.11a595.21,595.21,0,0,0-44.51,45" transform="translate(317.7 83.21)"/><path class="cls-2" d="M1472.9,392.4c.6-62-38.07-110.51-98.89-179.95-4.8-5.49-9.46-11.1-14.36-16.49-16.37-17.86-34.46-34.92-56.17-44.29-63.26-27.49-129.31,5-188.38,27.39-48.62,18.45-98,41.22-151.83,63.52-17.88,7.4-35.79,14.85-53.9,21.91-39.28,15.29-83.9,28.95-122,15.82C748.7,267,729,232.92,708.25,203.38c-24.21-34.41-54-67.7-93.41-92.65a248.61,248.61,0,0,0-44.61-22.25c-29.58-11.25-62.13-17.17-94.47-14.72-38.82,2.95-74.8,17.33-107.95,32.37C300.5,136.5,241.3,171.48,189.09,215.91A570.84,570.84,0,0,0,144.3,258.3" transform="translate(317.7 83.21)"/><path class="cls-2" d="M1475.19,388.44c.57-59.27-39.48-103.47-101.86-173.11-4.82-5.38-9.46-10.9-14.34-16.19-16.34-17.59-34.27-34.41-55.63-43.85-62.32-27.75-127.15,1.85-186.21,23.1-48,17.26-97,39.2-150.78,61-17.75,7.19-35.51,14.46-53.47,21.35-38.95,14.95-83,28.41-120.83,16.25-38.31-12.31-58.53-44.49-79.74-72.34-24.75-32.45-54.87-63.86-94.2-87.41a254.64,254.64,0,0,0-44.39-21c-29.36-10.62-61.59-16.24-93.6-14C441.71,85,406,98.5,373.08,112.46c-66.89,28.16-125.69,60-178,101.44A547,547,0,0,0,150,253.65" transform="translate(317.7 83.21)"/><path class="cls-2" d="M1477.48,384.49c.55-56.58-40.88-96.45-104.83-166.28-4.83-5.27-9.45-10.7-14.32-15.9-16.32-17.31-34.08-33.89-55.1-43.4-61.38-28-125-1.26-184,18.8-47.38,16.09-96,37.18-149.75,58.44-17.61,7-35.23,14.06-53,20.8-38.61,14.6-82.07,27.85-119.61,16.68-38-11.33-58.72-41.59-80.4-67.76-25.31-30.48-55.74-60-95-82.17a263.21,263.21,0,0,0-44.19-19.77c-29.13-10-61-15.31-92.73-13.2-38,2.53-73.46,15.18-106.16,28.06-66.47,26-124.86,54.68-177.37,93.09A526.83,526.83,0,0,0,155.61,249" transform="translate(317.7 83.21)"/><path class="cls-2" d="M1479.77,380.54c.53-53.89-42.26-89.44-107.8-159.45-4.84-5.16-9.45-10.5-14.3-15.61-16.29-17-33.89-33.37-54.56-42.95-60.44-28.27-122.78-4.37-181.85,14.5-46.75,14.94-95,35.16-148.71,55.91-17.48,6.75-34.95,13.67-52.6,20.24-38.27,14.26-81.15,27.31-118.38,17.11C763.88,260,742.65,231.6,720.5,207.12c-25.86-28.52-56.6-56.17-95.78-76.94a273.7,273.7,0,0,0-44-18.52c-28.92-9.36-60.49-14.37-91.87-12.44-37.64,2.33-72.79,14.11-105.26,25.9-66.06,23.75-124,49.35-176.69,84.75a504.09,504.09,0,0,0-45.64,34.47" transform="translate(317.7 83.21)"/><path class="cls-2" d="M1482.06,376.59c.5-51.19-43.62-82.45-110.77-152.61-4.84-5.06-9.44-10.31-14.28-15.32-16.24-16.79-33.7-32.85-54-42.51-59.51-28.52-120.59-7.45-179.67,10.22-46.12,13.78-94,33.14-147.67,53.36C958.3,236.27,941,243,923.47,249.42c-37.93,13.91-80.23,26.75-117.15,17.53-37.38-9.35-59.12-35.79-81.74-58.58C698.17,181.82,667.11,156,628,136.67a285.89,285.89,0,0,0-43.76-17.28c-28.7-8.73-60-13.44-91-11.68-37.25,2.12-72.12,13-104.37,23.75-65.64,21.54-123.21,44-176,76.41A481.25,481.25,0,0,0,167,239.7" transform="translate(317.7 83.21)"/><path class="cls-2" d="M1484.36,372.64c.47-48.5-45-75.47-113.75-145.78-4.85-5-9.43-10.11-14.25-15-16.22-16.52-33.51-32.34-53.49-42.07-58.58-28.78-118.38-10.53-177.5,5.92-45.47,12.65-93,31.13-146.63,50.83-17.21,6.32-34.39,12.87-51.74,19.13-37.6,13.57-79.31,26.2-115.93,18-37.07-8.35-59.32-32.88-82.41-54-26.95-24.58-58.33-48.49-97.35-66.47a299.68,299.68,0,0,0-43.55-16c-28.48-8.1-59.41-12.5-90.13-10.92-36.86,1.91-71.44,12-103.48,21.59-65.22,19.34-122.38,38.69-175.34,68.06A462.57,462.57,0,0,0,172.6,235" transform="translate(317.7 83.21)"/><path class="cls-2" d="M1486.65,368.68c.44-45.8-46.3-68.5-116.73-138.94-4.84-4.84-9.42-9.91-14.22-14.73-16.19-16.25-33.32-31.82-53-41.62-57.63-29-116.17-13.59-175.32,1.63-44.82,11.53-92,29.12-145.59,48.29-17.08,6.1-34.11,12.47-51.3,18.57-37.27,13.23-78.4,25.65-114.72,18.38-36.76-7.36-59.51-30-83.07-49.4-27.5-22.62-59.2-44.65-98.14-61.23a317.42,317.42,0,0,0-43.34-14.79C563,127.37,532.4,123.27,502,124.68c-36.47,1.71-70.77,10.9-102.59,19.44-64.8,17.13-121.56,33.35-174.66,59.72a440.62,440.62,0,0,0-46.49,26.56" transform="translate(317.7 83.21)"/><path class="cls-2" d="M1488.94,364.73c.42-43.11-47.61-61.55-119.7-132.11-4.84-4.74-9.41-9.71-14.2-14.44-16.16-16-33.13-31.3-52.42-41.17-56.69-29.29-113.94-16.63-173.14-2.67-44.17,10.42-91,27.12-144.55,45.75-16.95,5.89-33.84,12.08-50.88,18-36.93,12.88-77.48,25.1-113.49,18.81-36.45-6.38-59.71-27.08-83.73-44.82-28.06-20.65-60.07-40.8-98.93-56a337.51,337.51,0,0,0-43.13-13.54c-28-6.85-58.32-10.64-88.4-9.4-36.06,1.5-70.09,9.83-101.69,17.28-64.38,14.93-120.73,28-174,51.38a420.93,420.93,0,0,0-46.77,23.92" transform="translate(317.7 83.21)"/><path class="cls-2" d="M1491.23,360.78c.39-40.41-48.9-54.63-122.67-125.27-4.84-4.64-9.42-9.52-14.18-14.15-16.14-15.7-33-30.75-51.88-40.73-55.82-29.43-111.72-19.66-171-7C1088,183,1041.59,198.79,988,216.88c-16.81,5.68-33.56,11.68-50.44,17.46C901,246.88,861,258.89,825.31,253.58c-36.14-5.39-59.91-24.18-84.4-40.23-28.61-18.68-60.93-37-99.72-50.76a365.83,365.83,0,0,0-42.91-12.29c-27.83-6.22-57.78-9.71-87.53-8.64-35.68,1.29-69.43,8.75-100.8,15.12-64,12.72-119.9,22.69-173.31,43a403.37,403.37,0,0,0-47.06,21.28" transform="translate(317.7 83.21)"/><path class="cls-2" d="M1493.53,356.83c.36-37.72-50.18-47.72-125.65-118.44-4.84-4.54-9.41-9.31-14.15-13.85-16.12-15.42-32.77-30.24-51.35-40.28-54.88-29.7-109.49-22.68-168.79-11.26-42.84,8.25-88.93,23.12-142.47,40.68-16.67,5.47-33.28,11.28-50,16.91-36.26,12.19-75.64,24-111,19.66C794.23,245.86,770,229,745,214.61c-29.16-16.72-61.8-33.12-100.51-45.52A397.31,397.31,0,0,0,601.79,158c-27.61-5.59-57.24-8.78-86.67-7.88-35.28,1.08-68.75,7.68-99.9,13-63.54,10.51-119.08,17.36-172.63,34.69a386.21,386.21,0,0,0-47.34,18.64" transform="translate(317.7 83.21)"/><path class="cls-2" d="M1495.82,352.88c.34-35-51.43-40.83-128.62-111.61-4.84-4.43-9.41-9.11-14.14-13.56-16.09-15.14-32.58-29.72-50.81-39.84-54-30-107.25-25.65-166.62-15.55-42.16,7.19-87.91,21.13-141.42,38.14-16.53,5.26-33,10.89-49.58,16.35-35.92,11.85-74.72,23.45-109.82,20.09-35.52-3.4-60.31-18.37-85.74-31.05-29.7-14.76-62.66-29.28-101.3-40.29-13.48-3.82-27.73-7.16-42.48-9.8-27.39-5-56.7-7.85-85.8-7.13-34.9.88-68.08,6.62-99,10.82-63.12,8.3-118.26,12-172,26.35a370.7,370.7,0,0,0-47.63,16" transform="translate(317.7 83.21)"/><path class="cls-2" d="M1498.11,348.92c.31-32.33-52.67-33.95-131.59-104.77-4.84-4.34-9.4-8.91-14.11-13.27-16.07-14.87-32.39-29.2-50.27-39.39-53-30.21-105-28.62-164.45-19.84-41.49,6.13-86.89,19.13-140.38,35.6-16.4,5.05-32.73,10.49-49.15,15.79-35.59,11.51-73.81,22.9-108.6,20.52-35.21-2.42-60.5-15.47-86.4-26.46C722.9,204.3,689.63,191.65,651.07,182c-13.46-3.34-27.63-6.25-42.27-8.55a483.82,483.82,0,0,0-84.93-6.36c-34.5.67-67.4,5.54-98.12,8.65-62.7,6.1-117.42,6.69-171.27,18a358.58,358.58,0,0,0-47.91,13.36" transform="translate(317.7 83.21)"/><path class="cls-2" d="M1500.4,345c.29-29.64-53.89-27.1-134.56-97.93-4.84-4.24-9.4-8.72-14.09-13-16-14.59-32.2-28.69-49.74-38.95-52.07-30.47-102.77-31.57-162.26-24.14-40.82,5.1-85.88,17.15-139.35,33.07-16.26,4.84-32.45,10.09-48.71,15.23-35.26,11.16-72.89,22.35-107.38,20.94-34.9-1.42-60.7-12.56-87.07-21.87-30.81-10.83-64.39-21.6-102.87-29.82-13.44-2.85-27.53-5.35-42.06-7.31a568,568,0,0,0-84.07-5.6c-34.1.46-66.73,4.47-97.22,6.5-62.28,3.89-116.6,1.36-170.59,9.67a346.17,346.17,0,0,0-48.2,10.71" transform="translate(317.7 83.21)"/><path class="cls-2" d="M1502.69,341c.26-26.95-55.09-20.28-137.54-91.1-4.83-4.15-9.39-8.52-14.06-12.69-16-14.31-32-28.2-49.2-38.5-51.08-30.83-100.53-34.48-160.1-28.43-40.14,4.08-84.85,15.17-138.3,30.53-16.12,4.64-32.17,9.69-48.28,14.68-34.92,10.82-72,21.79-106.15,21.37-34.59-.44-60.9-9.66-87.73-17.29C730,210.73,696.07,201.83,657.66,195c-13.41-2.36-27.43-4.44-41.85-6.06a688.29,688.29,0,0,0-83.2-4.85c-33.71.26-66.06,3.4-96.33,4.34-61.86,1.7-115.77-4-169.91,1.33a335.22,335.22,0,0,0-48.48,8.08" transform="translate(317.7 83.21)"/><path class="cls-2" d="M1505,337.07c.23-24.25-56.29-13.48-140.52-84.26-4.82-4.05-9.38-8.32-14-12.4-16-14-31.8-27.69-48.66-38-50.14-31.09-98.29-37.38-157.92-32.73-39.47,3.08-83.83,13.19-137.26,28-16,4.43-31.89,9.3-47.85,14.13-34.58,10.47-71.06,21.24-104.93,21.79-34.28.55-61.1-6.76-88.4-12.7C733.5,214,699.28,206.92,661,201.49c-13.39-1.88-27.32-3.53-41.63-4.82-26.51-2.45-54.52-4.12-82.33-4.08-33.32,0-65.38,2.33-95.44,2.18-61.44-.51-114.95-9.29-169.24-7a326.44,326.44,0,0,0-48.76,5.44" transform="translate(317.7 83.21)"/><path class="cls-2" d="M1507.28,333.12c.21-21.56-57.46-6.72-143.49-77.43-4.81-4-9.38-8.12-14-12.11-16-13.75-31.62-27.17-48.13-37.61-49.21-31.34-96.05-40.24-155.74-37-38.8,2.1-82.82,11.22-136.23,25.46-15.85,4.22-31.61,8.89-47.42,13.57-34.24,10.12-70.13,20.68-103.7,22.21-34,1.55-61.29-3.85-89.07-8.11C737,217.16,702.5,212,664.25,208c-13.37-1.4-27.22-2.63-41.42-3.58-26.3-1.82-54-3.19-81.47-3.32-32.93-.16-64.71,1.26-94.54,0-61-2.72-114.12-14.64-168.56-15.36a319.25,319.25,0,0,0-49,2.8" transform="translate(317.7 83.21)"/><path class="cls-2" d="M1509.57,329.16c.19-18.86-58.6,0-146.46-70.59-4.81-3.87-9.39-7.91-14-11.81-16-13.45-31.43-26.66-47.6-37.16-48.26-31.61-93.8-43.08-153.56-41.32-38.13,1.13-81.79,9.25-135.18,22.92-15.71,4-31.34,8.49-47,13-33.91,9.78-69.22,20.14-102.48,22.64-33.66,2.54-61.49-.95-89.74-3.52-33-3-67.85-6.23-106-8.87-13.34-.91-27.12-1.72-41.21-2.33-26.07-1.19-53.43-2.26-80.6-2.57-32.53-.36-64,.19-93.64-2.12-60.61-4.93-113.3-20-167.89-23.7a315,315,0,0,0-49.33.16" transform="translate(317.7 83.21)"/><path class="cls-2" d="M1511.86,325.21c.16-16.16-59.74,6.75-149.43-63.76-4.8-3.77-9.38-7.7-14-11.52-16-13.17-31.23-26.14-47.06-36.72-47.32-31.85-91.57-45.88-151.38-45.61-37.47.18-80.78,7.28-134.15,20.38-15.57,3.82-31.06,8.1-46.55,12.46C935.74,209.87,901,220,868.06,223.51c-33.35,3.52-61.69,2-90.4,1.06-33.57-1-68.73-2.39-106.83-3.64-13.31-.42-27-.8-41-1.08C604,219.28,577,218.52,550.1,218c-32.14-.57-63.36-.88-92.75-4.28-60.19-7.13-112.47-25.29-167.21-32a309.89,309.89,0,0,0-49.61-2.47" transform="translate(317.7 83.21)"/><path class="cls-2" d="M1514.16,321.26c.13-13.47-60.87,13.44-152.41-56.93-4.79-3.68-9.38-7.5-14-11.22-15.94-12.9-31-25.63-46.52-36.27-46.39-32.12-89.35-48.66-149.21-49.91-36.81-.76-79.75,5.32-133.1,17.84-15.44,3.62-30.78,7.71-46.13,11.9-33.24,9.1-67.38,19-100,23.5-33,4.51-61.89,4.85-91.07,5.65-34.11,1-69.59,1.45-107.61,1.6l-40.79.16c-25.64.07-52.34-.39-78.86-1-31.75-.78-62.69-2-91.86-6.44-59.77-9.34-111.64-30.63-166.53-40.38a307.73,307.73,0,0,0-49.9-5.12" transform="translate(317.7 83.21)"/><path class="cls-2" d="M1516.45,317.31c.1-10.78-62,20.09-155.39-50.09-4.78-3.59-9.37-7.31-13.92-10.94-15.91-12.62-30.85-25.1-46-35.82-45.45-32.38-87.14-51.4-147-54.2-36.15-1.68-78.72,3.37-132.06,15.3-15.29,3.43-30.5,7.31-45.69,11.35-32.91,8.75-66.46,18.48-98.81,23.92-32.73,5.5-62.09,7.76-91.74,10.25-34.66,2.93-70.46,5.29-108.4,6.83-13.26.55-26.81,1-40.57,1.4-25.42.69-51.8.54-78-.29-31.36-1-62-3-91-8.59-59.36-11.54-110.82-36-165.86-48.72A308.09,308.09,0,0,0,251.85,170" transform="translate(317.7 83.21)"/><path class="cls-2" d="M1518.74,313.36c.08-8.09-63,26.71-158.35-43.26-4.78-3.51-9.37-7.11-13.9-10.65-15.9-12.34-30.67-24.59-45.45-35.37-44.52-32.63-85-54.11-144.86-58.49-35.52-2.6-77.7,1.41-131,12.76-15.16,3.22-30.22,6.91-45.26,10.79-32.57,8.4-65.55,17.93-97.59,24.34-32.42,6.49-62.28,10.66-92.4,14.84-35.22,4.9-71.32,9.13-109.19,12.07q-19.86,1.55-40.36,2.65c-25.2,1.32-51.26,1.47-77.13.47-31-1.19-61.35-4.1-90.07-10.75C414.22,219,363.16,191.47,308,175.7a308.93,308.93,0,0,0-50.47-10.4" transform="translate(317.7 83.21)"/><path class="cls-2" d="M1521,309.4c0-5.39-64.12,33.31-161.33-36.42-4.76-3.42-9.36-6.91-13.87-10.35-15.87-12.07-30.48-24.07-44.91-34.94-43.58-32.88-82.76-56.78-142.69-62.78-34.88-3.49-76.68-.52-130,10.23-15,3-29.94,6.51-44.82,10.23-32.24,8.06-64.63,17.38-96.37,24.77C855,217.62,824.58,223.71,794,229.57c-35.76,6.86-72.19,13-110,17.3q-19.83,2.28-40.15,3.89A618.52,618.52,0,0,1,567.6,252c-30.57-1.4-60.67-5.17-89.17-12.91-58.52-16-109.17-46.62-164.51-65.4a310.94,310.94,0,0,0-50.74-13" transform="translate(317.7 83.21)"/><path class="cls-2" d="M1523.32,305.45c0-2.69-65.18,39.86-164.3-29.58-4.76-3.34-9.35-6.71-13.85-10.06-15.85-11.8-30.29-23.56-44.38-34.49-42.64-33.14-80.6-59.43-140.51-67.08-34.27-4.38-75.64-2.4-128.94,7.69-14.88,2.85-29.67,6.11-44.39,9.67-31.9,7.72-63.71,16.83-95.14,25.2-31.8,8.47-62.68,16.47-93.74,24-36.32,8.83-73.06,16.82-110.77,22.54q-19.78,3-39.94,5.14a483,483,0,0,1-75.39,2c-30.18-1.61-60-6.24-88.28-15.06-58.11-18.16-108.35-52-163.83-73.75a314.49,314.49,0,0,0-51-15.68" transform="translate(317.7 83.21)"/><path class="cls-2" d="M1525.62,301.5s-66.22,46.38-167.28-22.75-135.85-143.72-323.9-110c-130,23.28-252.55,80.38-383.56,97.5-53.9,7-110.4,3.73-161.92-14.46-57.68-20.37-107.52-57.29-163.15-82.09a318.94,318.94,0,0,0-51.32-18.32" transform="translate(317.7 83.21)"/></g></svg>