<svg width="192" height="162" viewBox="0 0 192 162" fill="none" xmlns="http://www.w3.org/2000/svg">
<g filter="url(#filter0_d_1933_1483)">
<path d="M49.2522 149.087L7.85218 80.087C6.71213 78.1869 6.71213 75.8131 7.85218 73.913L49.2522 4.91302C50.3365 3.10579 52.2896 2 54.3971 2H137.603C139.71 2 141.663 3.10579 142.748 4.91302L184.148 73.913C185.288 75.8131 185.288 78.1869 184.148 80.087L142.748 149.087C141.663 150.894 139.71 152 137.603 152H54.3971C52.2896 152 50.3365 150.894 49.2522 149.087Z" fill="white"/>
</g>
<path opacity="0.1" d="M136.821 88.5388L136.944 88.6069C138.574 89.5105 138.617 91.8214 137.024 92.7857L80.5229 127L48 106.381L102.913 71.7094C104.711 70.5747 107.002 70.551 108.821 71.6501L136.821 88.5388Z" fill="url(#paint0_linear_1933_1483)"/>
<path d="M105.86 64.4465L104.209 27.7081L105.86 27L144 49.4791V86.9271L142.348 87.6352L105.86 64.4465Z" fill="url(#paint1_linear_1933_1483)"/>
<path d="M104.209 65.1545V27.708L142.348 50.1872V87.6351L104.209 65.1545Z" fill="url(#paint2_linear_1933_1483)"/>
<path d="M105.811 64.2496L140.746 84.8415V51.0924L105.811 30.5005V64.2496Z" fill="url(#paint3_linear_1933_1483)"/>
<path d="M144 49.4792L142.348 50.1873V87.6353L144 86.9272V49.4792Z" fill="url(#paint4_linear_1933_1483)"/>
<path d="M105.811 64.2496V30.5005L106.301 30.7893V64.0155L105.811 64.2496Z" fill="url(#paint5_linear_1933_1483)"/>
<path d="M105.811 64.2494L140.746 84.8414V84.1999L106.301 64.0154L105.811 64.2494Z" fill="#7CDDCF"/>
<path d="M119.257 42.6959L110.685 37.8905C110.455 37.7616 110.267 37.4698 110.267 37.2402C110.267 37.0121 110.455 36.9306 110.685 37.0595L119.257 41.8649C119.487 41.9938 119.675 42.2856 119.675 42.5152C119.675 42.7433 119.487 42.8248 119.257 42.6959Z" fill="#FEA608"/>
<path d="M126.44 48.7205L110.685 39.8888C110.455 39.7599 110.267 39.4681 110.267 39.2385C110.267 39.0104 110.455 38.9289 110.685 39.0578L126.44 47.8894C126.67 48.0183 126.858 48.3101 126.858 48.5397C126.858 48.7679 126.67 48.8493 126.44 48.7205Z" fill="#BCBDC1"/>
<path d="M126.44 50.7188L110.685 41.8871C110.455 41.7582 110.267 41.4664 110.267 41.2368C110.267 41.0087 110.455 40.9272 110.685 41.0561L126.44 49.8877C126.67 50.0166 126.858 50.3084 126.858 50.538C126.858 50.7662 126.67 50.8476 126.44 50.7188Z" fill="#BCBDC1"/>
<path d="M126.44 52.7171L110.685 43.8854C110.455 43.7565 110.267 43.4647 110.267 43.2351C110.267 43.007 110.455 42.9255 110.685 43.0544L126.44 51.886C126.67 52.0149 126.858 52.3067 126.858 52.5363C126.858 52.7645 126.67 52.8459 126.44 52.7171Z" fill="#BCBDC1"/>
<path d="M119.257 50.6891L110.685 45.8837C110.455 45.7548 110.267 45.463 110.267 45.2334C110.267 45.0052 110.455 44.9238 110.685 45.0526L119.257 49.8581C119.487 49.9869 119.675 50.2788 119.675 50.5084C119.675 50.7365 119.487 50.818 119.257 50.6891Z" fill="#BCBDC1"/>
<path d="M113.053 50.5933L119.993 54.6314C120.478 54.9128 120.775 55.4283 120.775 55.9868V63.8038C120.775 64.6718 119.367 65.371 118.884 65.0896L112.713 60.3656C112.22 60.0797 111.919 59.5553 111.919 58.9894L110.99 51.3917C110.99 50.814 112.344 50.1918 113.053 50.5933Z" fill="#329E93"/>
<path d="M111.994 51.1695L118.934 55.2076C119.419 55.4891 119.716 56.0046 119.716 56.563V64.38C119.716 64.9355 119.109 65.2807 118.627 64.9992L111.654 60.9418C111.162 60.656 110.86 60.1316 110.86 59.5657V51.8139C110.86 51.2362 111.491 50.8762 111.994 51.1695Z" fill="url(#paint6_linear_1933_1483)"/>
<path d="M119.509 64.4807V56.6637C119.509 56.1068 119.212 55.5913 118.727 55.3083L111.787 51.2702C111.589 51.1547 111.369 51.1428 111.177 51.2036C111.405 51.0436 111.719 51.0066 111.993 51.1665L118.933 55.2046C119.418 55.4861 119.715 56.0016 119.715 56.5601V64.377C119.715 64.7133 119.491 64.9725 119.208 65.0614C119.387 64.9355 119.509 64.7296 119.509 64.4807Z" fill="url(#paint7_linear_1933_1483)"/>
<path d="M131.161 50.8655L138.101 54.9036C138.586 55.1851 138.883 55.7006 138.883 56.259V64.076C138.883 64.944 137.476 65.6432 136.992 65.3618L130.821 60.6378C130.329 60.3519 130.027 59.8275 130.027 59.2617L129.099 51.6639C129.097 51.0862 130.451 50.4641 131.161 50.8655Z" fill="#CC820D"/>
<path d="M130.102 51.4417L137.041 55.4798C137.526 55.7613 137.823 56.2768 137.823 56.8353V64.6522C137.823 65.2077 137.216 65.5529 136.734 65.2714L129.761 61.2141C129.269 60.9282 128.967 60.4038 128.967 59.8379V52.0861C128.967 51.5084 129.6 51.1484 130.102 51.4417Z" fill="#FEA608"/>
<path d="M137.617 64.7529V56.936C137.617 56.379 137.32 55.8635 136.835 55.5805L129.896 51.5425C129.697 51.4269 129.478 51.4151 129.285 51.4758C129.514 51.3158 129.827 51.2788 130.102 51.4388L137.041 55.4769C137.526 55.7583 137.823 56.2738 137.823 56.8323V64.6492C137.823 64.9855 137.599 65.2447 137.316 65.3336C137.495 65.2077 137.617 65.0018 137.617 64.7529Z" fill="url(#paint8_linear_1933_1483)"/>
<path d="M131.161 65.5531L138.101 69.5912C138.586 69.8726 138.883 70.3882 138.883 70.9466V78.7636C138.883 79.6316 137.476 80.3308 136.992 80.0494L130.821 75.3254C130.329 75.0395 130.027 74.5151 130.027 73.9493L129.099 66.3515C129.097 65.7738 130.451 65.1502 131.161 65.5531Z" fill="#329E93"/>
<path d="M130.102 66.1279L137.041 70.166C137.526 70.4474 137.823 70.963 137.823 71.5214V79.3384C137.823 79.8939 137.216 80.239 136.734 79.9576L129.761 75.9002C129.269 75.6143 128.967 75.0899 128.967 74.5241V66.7723C128.967 66.1946 129.6 65.8361 130.102 66.1279Z" fill="url(#paint9_linear_1933_1483)"/>
<path d="M137.617 79.4407V71.6237C137.617 71.0667 137.32 70.5512 136.835 70.2683L129.896 66.2302C129.697 66.1146 129.478 66.1028 129.285 66.1635C129.514 66.0036 129.827 65.9665 130.102 66.1265L137.041 70.1646C137.526 70.446 137.823 70.9616 137.823 71.52V79.337C137.823 79.6732 137.599 79.9325 137.316 80.0214C137.495 79.8954 137.617 79.6895 137.617 79.4407Z" fill="url(#paint10_linear_1933_1483)"/>
<path d="M135.586 76.9888C135.338 76.9666 134.791 76.7666 134.096 76.3503C132.263 75.2512 131.151 73.4455 131.151 71.7034C131.151 69.8177 132.469 69.4696 134.234 70.5272C134.928 70.9435 135.423 71.3849 135.638 71.6249L135.407 72.3182C135.132 72.0352 134.756 71.7064 134.277 71.419C133.104 70.7154 132.256 70.9376 132.256 72.3137C132.256 73.5714 133.001 74.8246 134.268 75.5845C134.696 75.8408 135.141 76.023 135.416 76.06L135.586 76.9888Z" fill="#FAF8F9"/>
<path d="M131.4 54.4519C131.734 54.5837 132.342 54.8978 132.933 55.2518C133.712 55.7184 134.191 56.1006 134.585 56.6087C134.945 57.0368 135.185 57.5538 135.185 58.0382C135.185 58.5655 134.851 58.8485 134.227 58.7033V58.7196C134.834 59.2366 135.391 60.0469 135.391 60.8364C135.391 61.346 135.169 61.6112 134.834 61.6837C134.424 61.7934 133.746 61.5667 132.694 60.9357C132.112 60.5861 131.667 60.2765 131.401 60.0839V54.4519H131.4ZM132.445 57.3375L132.984 57.6605C133.712 58.0975 134.122 58.0041 134.122 57.5197C134.122 56.985 133.712 56.4917 133.043 56.0917C132.736 55.9066 132.555 55.8162 132.443 55.7747V57.3375H132.445ZM132.445 59.9713C132.582 60.0706 132.761 60.1876 133.001 60.3313C133.678 60.7372 134.278 60.8409 134.278 60.1358C134.278 59.4736 133.696 58.8514 132.967 58.4159L132.445 58.1034V59.9713Z" fill="#FFFCFF"/>
<path d="M114.02 58.4514L113.523 59.7757L112.435 59.1239L114.284 54.5066L115.629 55.3124L117.504 62.1636L116.374 61.4851L115.851 59.549L114.02 58.4514ZM115.672 58.6528L115.218 56.97C115.106 56.5553 115.012 56.1079 114.927 55.7257L114.911 55.7154C114.826 55.9953 114.739 56.3434 114.636 56.6219L114.191 57.7655L115.672 58.6528Z" fill="#FCF5FC"/>
<path d="M123.279 88.41V76.4231L121.668 75.438V87.4234L123.279 88.41Z" fill="url(#paint11_linear_1933_1483)"/>
<path d="M124.331 77.0142V87.8041L123.28 88.41V76.4231L124.331 77.0142Z" fill="#0E7C7C"/>
<path d="M125.859 77.9163L128.441 91.3652L129.865 92.3755L127.204 78.7088L125.859 77.9163Z" fill="url(#paint12_linear_1933_1483)"/>
<path d="M127.203 78.7087L129.865 92.3755L130.73 91.8392L128.344 79.3798L127.203 78.7087Z" fill="#0E7C7C"/>
<path d="M120.649 74.8454L115.893 84.16L114.25 83.3009L119.162 73.9685L120.649 74.8454Z" fill="url(#paint13_linear_1933_1483)"/>
<path d="M115.893 84.16L120.649 74.8455L121.233 75.1891L116.692 83.9201L115.893 84.16Z" fill="#0E7C7C"/>
<path d="M81.2558 46.0293C81.2558 46.0293 80.0392 47.0973 80.6244 49.0216C81.2095 50.9458 82.8545 52.0464 82.8545 52.0464L84.4069 46.9596L81.2558 46.0293Z" fill="#2B2E3D"/>
<path d="M84.5723 59.0071L84.2409 61.1565C84.2409 61.1565 83.8827 63.3192 88.5668 63.4807C93.2494 63.6422 93.6733 60.124 93.6733 60.124L94.2256 53.9587L84.5723 59.0071Z" fill="url(#paint14_linear_1933_1483)"/>
<path d="M88.8701 63.5252C88.7701 63.5252 88.6685 63.5237 88.5655 63.5192C86.0742 63.4333 85.0204 62.7726 84.5756 62.2334C84.1218 61.6839 84.1994 61.1728 84.2039 61.1506L84.5383 58.9819L84.5562 58.973L94.2736 53.8921L93.7139 60.1285C93.7124 60.1389 93.5989 61.0306 92.9093 61.8883C92.2973 62.6438 91.1076 63.5252 88.8701 63.5252ZM84.6084 59.0323L84.28 61.1624C84.2785 61.1684 84.2054 61.6631 84.6383 62.186C85.0742 62.7119 86.1101 63.3563 88.5685 63.4422C88.6715 63.4452 88.7715 63.4481 88.8701 63.4481C91.0763 63.4481 92.2466 62.583 92.8451 61.8394C93.5213 60.998 93.6333 60.1285 93.6333 60.1196L94.1796 54.0269L84.6084 59.0323Z" fill="url(#paint15_linear_1933_1483)"/>
<path d="M78.5802 61.0129C78.5802 61.0129 75.8008 64.3696 74.1454 68.224C72.49 72.0785 72.5571 73.4265 72.5571 73.4265C72.5571 73.4265 74.0454 78.1623 75.4813 79.2303C76.9173 80.2983 79.4639 68.4477 79.4639 68.4477L78.5802 61.0129Z" fill="#83869B"/>
<path d="M84.4172 60.0204C84.4172 60.0204 80.0316 59.0738 78.3419 61.281C76.6507 63.4882 74.7102 78.2585 74.7102 78.2585C74.7102 78.2585 75.7133 83.9394 84.668 85.2074C93.6227 86.4754 97.035 83.6031 97.035 83.6031C97.035 83.6031 97.8799 84.4815 101.285 83.055C104.69 81.6285 105.627 79.5472 105.627 79.5472C105.627 79.5472 102.704 65.9353 101.098 64.5873C99.492 63.2408 92.7569 59.8323 92.7569 59.8323L87.8803 62.3001L85.0158 61.7669L84.4172 60.0204Z" fill="#83869B"/>
<path d="M94.0519 58.7243C94.0519 58.7243 88.7439 61.6055 88.0856 62.0114C87.4274 62.4173 88.4738 62.718 89.2246 63.2172C89.9754 63.7164 90.1978 65.0141 90.2665 65.0274C90.3352 65.0422 95.4058 61.0737 95.3581 60.8234C95.3088 60.573 94.458 58.6488 94.0519 58.7243Z" fill="#FFFEFF"/>
<path d="M84.4173 60.0204L85.0144 61.5551C85.0144 61.5551 83.4366 62.0113 82.747 62.7831C82.0589 63.5549 81.7827 63.9445 81.7827 63.9445C81.7827 63.9445 82.3261 60.4204 82.4276 60.0915C82.5291 59.7627 83.1933 59.5894 83.1933 59.5894C83.1933 59.5894 83.8845 59.9701 84.4173 60.0204Z" fill="#FFFEFF"/>
<path d="M84.9203 61.5225C84.9203 61.5225 87.9953 62.0617 87.8774 62.3002C87.7594 62.5401 87.7475 63.7 87.5788 63.9859C87.4101 64.2718 87.0384 64.4955 87.0384 64.4955C87.0384 64.4955 85.4069 75.2588 85.4069 78.9014C85.4054 82.544 85.1189 85.2667 85.1189 85.2667C85.1189 85.2667 83.4455 84.9615 81.9319 84.6238C80.4183 84.286 79.2018 83.5143 79.2018 83.5143C79.2018 83.5143 82.9052 69.5883 83.359 67.1634C83.8142 64.7369 84.28 63.7178 84.2591 63.5134C84.2382 63.3089 84.0367 63.0601 84.0367 63.0601L84.9203 61.5225Z" fill="url(#paint16_linear_1933_1483)"/>
<path d="M97.0343 83.6017C97.0343 83.6017 96.4984 77.0661 96.4566 73.9553C96.4148 70.8445 96.6641 69.9187 96.6641 69.9187C96.6641 69.9187 95.2729 73.2946 95.0042 75.9833C94.7355 78.6704 93.7339 85.0045 93.7339 85.0045C93.7339 85.0045 95.8954 84.529 97.0343 83.6017Z" fill="#72778E"/>
<path d="M74.7097 78.2571C74.7097 78.2571 75.5725 71.7111 75.868 69.5365C76.1636 67.3604 76.7591 66.3857 76.7591 66.3857C76.7591 66.3857 75.4605 68.2789 74.5395 70.969C73.6185 73.6591 72.9946 74.6886 72.9946 74.6886L74.7097 78.2571Z" fill="#72778E"/>
<path d="M84.132 44.0606C82.9184 44.7746 81.6885 46.2856 81.4661 48.0498C81.2436 49.8141 81.8467 50.7592 81.8467 50.7592C81.8467 50.7592 81.0526 52.082 81.6243 54.224C82.196 56.366 82.7035 57.8784 82.9259 58.2236C83.1483 58.5702 85.147 59.3583 86.1949 59.2309C87.2428 59.105 90.3536 57.1526 91.3044 56.5852C92.2568 56.0179 94.5107 54.7262 95.1451 53.8759C95.7795 53.0256 97.5887 48.6157 96.0975 45.4664C94.6063 42.3171 89.6236 40.8284 84.132 44.0606Z" fill="url(#paint17_linear_1933_1483)"/>
<path d="M81.2349 46.2486C81.2349 46.2486 81.9201 48.0158 84.8443 49.4097C87.767 50.8036 89.1507 50.6288 89.2313 51.3251C89.3119 52.0213 89.9149 52.0776 89.9821 52.642C90.0493 53.2063 89.3731 54.1811 90.1672 54.1811C90.9613 54.1811 90.9195 50.137 92.5734 50.7488C94.2274 51.3591 92.4749 53.91 92.7167 54.7484C92.9586 55.5868 92.7033 55.8179 93.5706 55.8179C94.4378 55.8179 96.65 52.1768 97.1053 48.4572C97.5621 44.7391 96.0171 43.9836 96.0171 43.9836C96.0171 43.9836 94.702 40.815 91.6166 40.7336C88.5312 40.6521 81.7395 42.9215 81.2349 46.2486Z" fill="#2B2E3D"/>
<path d="M103.044 105.453C102.64 105.453 102.243 105.346 101.893 105.145L88.7979 97.5929C88.5218 97.4344 88.4934 97.1708 88.4934 97.0656C88.4934 96.9604 88.5233 96.6982 88.8009 96.5397L109.118 85.0017C109.437 84.8194 109.803 84.7217 110.172 84.7217C110.544 84.7217 110.911 84.8194 111.233 85.0061L124.396 92.5964C124.679 92.7594 124.709 93.029 124.708 93.1371C124.708 93.2452 124.676 93.5148 124.393 93.6763L104.189 105.149C103.841 105.349 103.446 105.453 103.044 105.453Z" fill="#83869B"/>
<path d="M103.044 105.152C102.64 105.152 102.243 105.045 101.893 104.844L88.7979 97.2921C88.5218 97.1336 88.4934 96.87 88.4934 96.7648C88.4934 96.6596 88.5233 96.3974 88.8009 96.2389L109.118 84.7009C109.437 84.5187 109.803 84.4209 110.172 84.4209C110.544 84.4209 110.911 84.5187 111.233 84.7053L124.396 92.2956C124.679 92.4586 124.709 92.7282 124.708 92.8363C124.708 92.9445 124.676 93.2141 124.393 93.3755L104.189 104.848C103.841 105.047 103.446 105.152 103.044 105.152Z" fill="url(#paint18_linear_1933_1483)"/>
<path d="M105.268 90.8086L103.612 89.822C103.443 89.7213 103.446 89.5643 103.615 89.4695L105.29 88.5377C105.46 88.4429 105.733 88.4474 105.902 88.5481L107.557 89.5347C107.726 89.6354 107.723 89.7924 107.554 89.8872L105.88 90.819C105.709 90.9123 105.435 90.9079 105.268 90.8086Z" fill="url(#paint19_linear_1933_1483)"/>
<path d="M116.913 95.503L108.36 90.4028C108.267 90.348 108.269 90.2606 108.361 90.2087C108.454 90.1569 108.606 90.1599 108.698 90.2147L117.252 95.3149C117.344 95.3697 117.343 95.4571 117.25 95.5089C117.156 95.5608 117.005 95.5578 116.913 95.503Z" fill="#D9DBDB"/>
<path d="M115.896 96.0704L107.342 90.9702C107.25 90.9154 107.251 90.828 107.344 90.7761C107.436 90.7243 107.589 90.7272 107.681 90.782L116.234 95.8823C116.327 95.9371 116.325 96.0245 116.233 96.0763C116.139 96.1282 115.988 96.1252 115.896 96.0704Z" fill="#D9DBDB"/>
<path d="M111.104 94.3859L106.324 91.5358C106.232 91.481 106.233 91.3936 106.326 91.3418C106.42 91.2899 106.571 91.2929 106.663 91.3477L111.443 94.1978C111.535 94.2526 111.534 94.34 111.441 94.3918C111.349 94.4437 111.196 94.4407 111.104 94.3859Z" fill="#D9DBDB"/>
<path d="M104.832 89.0916C104.832 89.0916 104.981 89.3567 104.978 89.6189C104.975 89.8811 104.822 90.0544 104.822 90.0544C104.822 90.0544 105.362 89.9285 105.855 89.9063C106.32 89.8855 106.784 89.9611 106.784 89.9611L106.834 89.5211C106.834 89.5211 106.52 89.5108 106.096 89.5656C105.708 89.6145 105.447 89.6826 105.447 89.6826C105.447 89.6826 105.484 89.5197 105.486 89.3345C105.487 89.1493 105.45 89.1167 105.45 89.1167L104.832 89.0916Z" fill="white"/>
<path d="M101.678 92.8069L100.023 91.8203C99.8541 91.7196 99.8571 91.5626 100.026 91.4678L101.701 90.536C101.871 90.4412 102.144 90.4457 102.313 90.5464L103.968 91.533C104.137 91.6337 104.135 91.7907 103.965 91.8855L102.29 92.8173C102.12 92.9106 101.847 92.9061 101.678 92.8069Z" fill="url(#paint20_linear_1933_1483)"/>
<path d="M113.323 97.5028L104.77 92.4025C104.678 92.3477 104.679 92.2603 104.772 92.2085C104.866 92.1566 105.017 92.1596 105.109 92.2144L113.662 97.3146C113.755 97.3694 113.753 97.4568 113.661 97.5087C113.568 97.559 113.416 97.5576 113.323 97.5028Z" fill="#D9DBDB"/>
<path d="M112.306 98.0687L103.753 92.9685C103.66 92.9136 103.662 92.8263 103.754 92.7744C103.849 92.7226 103.999 92.7255 104.092 92.7803L112.645 97.8805C112.738 97.9354 112.736 98.0228 112.644 98.0746C112.551 98.1264 112.399 98.1235 112.306 98.0687Z" fill="#D9DBDB"/>
<path d="M107.514 96.3857L102.735 93.5356C102.642 93.4808 102.644 93.3934 102.736 93.3415C102.829 93.2897 102.981 93.2927 103.074 93.3475L107.853 96.1976C107.946 96.2524 107.944 96.3398 107.852 96.3916C107.759 96.442 107.607 96.4405 107.514 96.3857Z" fill="#D9DBDB"/>
<path d="M101.242 91.0913C101.242 91.0913 101.391 91.3565 101.388 91.6187C101.385 91.8809 101.231 92.0542 101.231 92.0542C101.231 92.0542 101.771 91.9283 102.264 91.906C102.73 91.8853 103.194 91.9608 103.194 91.9608L103.243 91.5209C103.243 91.5209 102.93 91.5105 102.506 91.5653C102.118 91.6142 101.855 91.6824 101.855 91.6824C101.855 91.6824 101.892 91.5194 101.894 91.3342C101.895 91.1491 101.858 91.1165 101.858 91.1165L101.242 91.0913Z" fill="white"/>
<path d="M98.0867 94.8052L96.4314 93.8186C96.2627 93.7179 96.2642 93.5609 96.4344 93.4661L98.1092 92.5343C98.2793 92.4395 98.5525 92.444 98.7211 92.5447L100.377 93.5312C100.545 93.632 100.542 93.789 100.374 93.8838L98.6988 94.8156C98.5286 94.9104 98.2554 94.9059 98.0867 94.8052Z" fill="url(#paint21_linear_1933_1483)"/>
<path d="M109.734 99.501L101.181 94.4008C101.088 94.346 101.09 94.2586 101.183 94.2068C101.275 94.1549 101.427 94.1579 101.52 94.2127L110.073 99.3129C110.166 99.3677 110.164 99.4551 110.072 99.507C109.978 99.5588 109.825 99.5559 109.734 99.501Z" fill="#D9DBDB"/>
<path d="M108.716 100.067L100.163 94.9668C100.07 94.9119 100.072 94.8245 100.164 94.7727C100.258 94.7209 100.409 94.7238 100.502 94.7786L109.055 99.8788C109.147 99.9336 109.146 100.021 109.053 100.073C108.959 100.125 108.807 100.122 108.716 100.067Z" fill="#D9DBDB"/>
<path d="M103.925 98.384L99.1457 95.5339C99.0531 95.4791 99.0546 95.3917 99.1472 95.3398C99.2397 95.288 99.392 95.291 99.4845 95.3458L104.264 98.1958C104.357 98.2506 104.355 98.338 104.263 98.3899C104.169 98.4417 104.018 98.4388 103.925 98.384Z" fill="#D9DBDB"/>
<path d="M97.6503 93.0898C97.6503 93.0898 97.7996 93.355 97.7966 93.6172C97.7936 93.8794 97.6398 94.0527 97.6398 94.0527C97.6398 94.0527 98.1802 93.9268 98.6728 93.9046C99.1385 93.8838 99.6028 93.9594 99.6028 93.9594L99.652 93.5194C99.652 93.5194 99.3385 93.5091 98.9146 93.5639C98.5265 93.6128 98.2653 93.6809 98.2653 93.6809C98.2653 93.6809 98.3026 93.5179 98.3041 93.3328C98.3056 93.1476 98.2683 93.115 98.2683 93.115L97.6503 93.0898Z" fill="white"/>
<path d="M94.496 96.8031L92.8406 95.8166C92.6719 95.7158 92.6749 95.5588 92.8436 95.464L94.5184 94.5322C94.6886 94.4374 94.9617 94.4419 95.1304 94.5426L96.7858 95.5292C96.9545 95.6299 96.9515 95.7869 96.7828 95.8817L95.108 96.8135C94.9378 96.9083 94.6632 96.9038 94.496 96.8031Z" fill="url(#paint22_linear_1933_1483)"/>
<path d="M106.142 101.499L97.5889 96.3988C97.4964 96.344 97.4979 96.2566 97.5904 96.2047C97.683 96.1529 97.8352 96.1558 97.9277 96.2106L106.481 101.311C106.573 101.366 106.572 101.453 106.479 101.505C106.385 101.557 106.235 101.554 106.142 101.499Z" fill="#D9DBDB"/>
<path d="M105.124 102.065L96.5708 96.9647C96.4783 96.9099 96.4798 96.8225 96.5723 96.7706C96.6648 96.7188 96.8171 96.7217 96.9096 96.7765L105.463 101.877C105.555 101.932 105.554 102.019 105.461 102.071C105.367 102.123 105.217 102.121 105.124 102.065Z" fill="#D9DBDB"/>
<path d="M100.332 100.382L95.5527 97.5318C95.4601 97.477 95.4616 97.3896 95.5542 97.3378C95.6467 97.2859 95.799 97.2889 95.8915 97.3437L100.671 100.194C100.764 100.249 100.762 100.336 100.67 100.388C100.577 100.44 100.425 100.437 100.332 100.382Z" fill="#D9DBDB"/>
<path d="M94.0599 95.0878C94.0599 95.0878 94.2092 95.3529 94.2062 95.6151C94.2032 95.8773 94.0494 96.0506 94.0494 96.0506C94.0494 96.0506 94.5898 95.9247 95.0824 95.9025C95.5481 95.8818 96.0124 95.9573 96.0124 95.9573L96.0616 95.5174C96.0616 95.5174 95.7481 95.507 95.3242 95.5618C94.9361 95.6107 94.6749 95.6788 94.6749 95.6788C94.6749 95.6788 94.7122 95.5159 94.7137 95.3307C94.7152 95.1455 94.6779 95.113 94.6779 95.113L94.0599 95.0878Z" fill="white"/>
<path d="M115.125 91.6335L110.239 88.816C110.088 88.7286 110.118 88.5805 110.306 88.4872C110.494 88.3939 110.772 88.3879 110.923 88.4753L115.808 91.2928C115.959 91.3802 115.929 91.5284 115.741 91.6217C115.553 91.7165 115.276 91.7209 115.125 91.6335Z" fill="url(#paint23_linear_1933_1483)"/>
<path d="M128.609 99.9821V99.9866C128.607 100.013 128.607 100.038 128.607 100.065C128.606 100.09 128.604 100.117 128.603 100.141C128.603 100.147 128.601 100.152 128.601 100.158C128.601 100.163 128.6 100.169 128.6 100.173C128.598 100.188 128.597 100.203 128.595 100.218C128.592 100.244 128.588 100.269 128.585 100.295C128.583 100.305 128.58 100.314 128.579 100.324C128.577 100.33 128.576 100.338 128.574 100.344C128.573 100.354 128.57 100.364 128.568 100.373C128.562 100.401 128.555 100.429 128.547 100.455C128.546 100.462 128.543 100.469 128.54 100.475C128.537 100.483 128.535 100.492 128.532 100.499C128.528 100.512 128.525 100.526 128.519 100.539C128.509 100.566 128.498 100.589 128.488 100.615C128.486 100.619 128.483 100.624 128.483 100.628C128.482 100.629 128.482 100.631 128.482 100.632C128.473 100.652 128.462 100.671 128.452 100.689C128.452 100.69 128.45 100.69 128.45 100.692C128.441 100.709 128.431 100.726 128.421 100.742C128.419 100.744 128.419 100.744 128.419 100.745C128.415 100.749 128.412 100.754 128.409 100.76C128.388 100.789 128.368 100.816 128.346 100.841C128.338 100.852 128.329 100.859 128.321 100.868C128.301 100.889 128.28 100.908 128.261 100.927C128.252 100.935 128.243 100.942 128.234 100.949C128.204 100.973 128.173 100.995 128.14 101.015L112.025 110.307C112.026 110.305 112.029 110.304 112.031 110.303C112.044 110.295 112.056 110.288 112.068 110.279C112.07 110.277 112.073 110.276 112.075 110.274C112.086 110.267 112.096 110.258 112.107 110.251C112.116 110.243 112.125 110.236 112.134 110.228C112.144 110.22 112.155 110.211 112.165 110.2C112.176 110.19 112.186 110.18 112.195 110.171C112.205 110.16 112.216 110.15 112.225 110.138C112.234 110.126 112.243 110.114 112.252 110.103C112.261 110.091 112.27 110.079 112.279 110.067C112.283 110.06 112.287 110.054 112.293 110.046C112.311 110.02 112.328 109.99 112.343 109.962C112.361 109.928 112.377 109.891 112.392 109.852C112.399 109.836 112.404 109.818 112.41 109.802C112.411 109.8 112.411 109.797 112.411 109.796C112.413 109.791 112.416 109.784 112.417 109.778C112.419 109.774 112.419 109.771 112.42 109.766C112.435 109.719 112.447 109.669 112.458 109.615C112.462 109.594 112.465 109.572 112.468 109.551C112.471 109.528 112.474 109.503 112.477 109.477C112.477 109.476 112.479 109.473 112.479 109.47C112.48 109.467 112.48 109.463 112.48 109.46C112.482 109.445 112.482 109.43 112.483 109.415C112.486 109.372 112.487 109.328 112.487 109.283C112.487 109.156 112.477 109.024 112.456 108.892V108.889C112.456 108.888 112.456 108.888 112.455 108.886C112.434 108.757 112.402 108.627 112.364 108.497C112.362 108.492 112.362 108.489 112.361 108.485C112.356 108.467 112.349 108.449 112.343 108.432C112.338 108.417 112.334 108.402 112.328 108.389C112.317 108.356 112.307 108.323 112.293 108.292C112.241 108.15 112.177 108.008 112.107 107.87C112.081 107.823 112.056 107.777 112.029 107.731C112.022 107.716 112.014 107.703 112.005 107.689C111.968 107.624 111.928 107.561 111.886 107.498C111.765 107.315 111.629 107.144 111.481 106.992C111.462 106.971 111.443 106.95 111.422 106.931C111.395 106.904 111.366 106.878 111.34 106.853C111.293 106.811 111.249 106.771 111.201 106.733C111.093 106.644 110.981 106.565 110.865 106.5C110.841 106.485 110.817 106.473 110.793 106.461C110.759 106.442 110.723 106.424 110.689 106.41C110.677 106.405 110.665 106.399 110.653 106.395C110.641 106.389 110.629 106.383 110.616 106.38C110.616 106.378 110.616 106.378 110.614 106.378C110.604 106.374 110.593 106.371 110.581 106.367C110.578 106.365 110.575 106.364 110.572 106.364C110.562 106.359 110.551 106.356 110.541 106.352C110.534 106.35 110.526 106.347 110.517 106.344C110.499 106.338 110.48 106.333 110.462 106.328C110.454 106.325 110.445 106.324 110.438 106.321C110.423 106.316 110.408 106.313 110.393 106.309H110.392C110.383 106.307 110.374 106.304 110.365 106.303C110.35 106.3 110.338 106.298 110.323 106.296C110.317 106.294 110.311 106.294 110.305 106.293C110.301 106.291 110.296 106.291 110.29 106.291C110.277 106.29 110.265 106.288 110.251 106.287C110.241 106.285 110.232 106.285 110.223 106.285C110.22 106.284 110.216 106.284 110.213 106.284C110.202 106.282 110.192 106.282 110.183 106.282C110.168 106.281 110.154 106.281 110.141 106.281C110.104 106.279 110.069 106.282 110.033 106.285C110.008 106.287 109.983 106.291 109.957 106.297C109.956 106.297 109.953 106.297 109.95 106.298C109.947 106.3 109.945 106.3 109.942 106.3C109.914 106.306 109.886 106.315 109.859 106.324C109.854 106.324 109.851 106.325 109.847 106.327C109.842 106.328 109.836 106.33 109.831 106.331C109.825 106.333 109.819 106.336 109.813 106.338C109.798 106.344 109.783 106.35 109.768 106.358C109.754 106.364 109.741 106.37 109.727 106.378C109.72 106.381 109.713 106.386 109.707 106.39L125.832 97.0906C125.852 97.0787 125.873 97.0698 125.893 97.0594C125.899 97.0565 125.907 97.0535 125.914 97.052L125.958 97.0343C125.961 97.0343 125.962 97.0328 125.965 97.0328C125.968 97.0313 125.971 97.0313 125.974 97.0298C126.008 97.018 126.041 97.0091 126.077 97.0017C126.078 97.0017 126.078 97.0017 126.078 97.0017C126.08 97.0017 126.083 97.0002 126.086 97.0002C126.11 96.9958 126.135 96.9928 126.162 96.9883C126.167 96.9883 126.17 96.9869 126.174 96.9869C126.179 96.9854 126.184 96.9854 126.189 96.9854C126.207 96.9839 126.223 96.9839 126.24 96.9839C126.246 96.9824 126.252 96.9824 126.258 96.9824H126.27C126.284 96.9824 126.296 96.9839 126.311 96.9839C126.319 96.9854 126.326 96.9854 126.335 96.9854C126.338 96.9854 126.341 96.9869 126.346 96.9869C126.358 96.9883 126.37 96.9883 126.38 96.9913C126.389 96.9928 126.398 96.9928 126.407 96.9928C126.411 96.9943 126.414 96.9943 126.419 96.9943C126.429 96.9958 126.44 96.9987 126.452 97.0002C126.461 97.0017 126.47 97.0017 126.479 97.0046C126.483 97.0061 126.489 97.0061 126.493 97.0076C126.502 97.0091 126.513 97.012 126.522 97.0135C126.529 97.015 126.537 97.018 126.546 97.018C126.553 97.0195 126.561 97.0224 126.567 97.0239C126.577 97.0269 126.586 97.0283 126.596 97.0313C126.601 97.0328 126.607 97.0343 126.611 97.0357C126.623 97.0387 126.634 97.0432 126.646 97.0461C126.653 97.0491 126.661 97.0506 126.67 97.0535C126.673 97.055 126.674 97.055 126.677 97.055C126.699 97.0624 126.72 97.0713 126.743 97.0802C126.764 97.0876 126.786 97.098 126.807 97.1068C126.81 97.1083 126.814 97.1098 126.817 97.1113C126.825 97.1157 126.832 97.1187 126.841 97.1231C126.853 97.1276 126.862 97.1335 126.874 97.138C126.882 97.1409 126.888 97.1454 126.895 97.1498C126.904 97.1543 126.913 97.1572 126.922 97.1631C126.929 97.1661 126.935 97.1705 126.941 97.1735C126.959 97.1824 126.976 97.1928 126.994 97.2017C126.998 97.2046 127.004 97.2076 127.01 97.2105C127.032 97.2254 127.056 97.2387 127.079 97.2535C127.102 97.2683 127.125 97.2831 127.147 97.2994C127.15 97.3009 127.153 97.3039 127.156 97.3054C127.159 97.3068 127.162 97.3098 127.165 97.3113C127.183 97.3231 127.2 97.335 127.217 97.3483C127.241 97.3661 127.265 97.3839 127.289 97.4016C127.297 97.4076 127.305 97.415 127.313 97.4209C127.317 97.4253 127.323 97.4298 127.328 97.4342C127.34 97.4431 127.35 97.452 127.361 97.4609C127.385 97.4816 127.41 97.5024 127.432 97.5231C127.444 97.5335 127.455 97.5438 127.467 97.5542C127.471 97.5587 127.477 97.5631 127.483 97.569C127.491 97.5764 127.498 97.5824 127.504 97.5898C127.528 97.612 127.55 97.6342 127.573 97.6579C127.588 97.6727 127.603 97.6875 127.617 97.7038C127.622 97.7083 127.625 97.7112 127.628 97.7157C127.631 97.7201 127.635 97.7231 127.638 97.7275C127.659 97.7497 127.682 97.7735 127.701 97.7972C127.722 97.8209 127.744 97.8446 127.764 97.8697C127.764 97.8697 127.764 97.8697 127.765 97.8712C127.765 97.8712 127.765 97.8712 127.767 97.8727C127.788 97.8964 127.807 97.9216 127.826 97.9468C127.85 97.9779 127.876 98.009 127.898 98.0401C127.934 98.0875 127.967 98.1364 128.001 98.1853C128.006 98.1897 128.009 98.1971 128.012 98.2016C128.035 98.2356 128.055 98.2712 128.077 98.3052C128.092 98.3289 128.107 98.3512 128.12 98.3763C128.125 98.3808 128.126 98.3882 128.131 98.3926C128.138 98.4075 128.146 98.4208 128.155 98.4341C128.17 98.4623 128.186 98.4904 128.201 98.5186C128.213 98.5408 128.225 98.563 128.235 98.5852C128.238 98.5897 128.241 98.5971 128.244 98.6015C128.246 98.606 128.249 98.6104 128.25 98.6148C128.265 98.643 128.279 98.6711 128.292 98.6993C128.304 98.7259 128.316 98.7511 128.328 98.7778C128.329 98.7822 128.331 98.7852 128.332 98.7896C128.334 98.7926 128.334 98.7956 128.337 98.7985C128.344 98.8178 128.353 98.837 128.361 98.8548C128.371 98.8815 128.382 98.9067 128.392 98.9333C128.398 98.9496 128.404 98.9674 128.412 98.9837C128.413 98.9881 128.415 98.9911 128.416 98.9955C128.418 99 128.421 99.0074 128.422 99.0118C128.432 99.0385 128.441 99.0667 128.45 99.0933C128.459 99.12 128.468 99.1496 128.477 99.1763C128.479 99.1807 128.479 99.1837 128.48 99.1881C128.482 99.1926 128.482 99.1955 128.483 99.2C128.489 99.2207 128.497 99.2429 128.501 99.2622C128.509 99.2903 128.518 99.32 128.525 99.3481C128.528 99.3599 128.529 99.3718 128.532 99.3851C128.534 99.3911 128.535 99.397 128.537 99.4029C128.538 99.4133 128.541 99.4222 128.544 99.4325C128.55 99.4607 128.556 99.4888 128.562 99.517C128.567 99.5422 128.571 99.5688 128.576 99.594C128.576 99.5955 128.576 99.5955 128.576 99.5955C128.576 99.597 128.577 99.597 128.577 99.5984C128.582 99.6251 128.585 99.6518 128.589 99.6799C128.592 99.7066 128.595 99.7318 128.598 99.7584C128.6 99.7673 128.6 99.7762 128.6 99.7851C128.6 99.7895 128.601 99.7955 128.601 99.7999C128.603 99.8118 128.603 99.8236 128.604 99.8355C128.606 99.8621 128.607 99.8873 128.609 99.914C128.607 99.9347 128.609 99.9599 128.609 99.9821Z" fill="url(#paint24_linear_1933_1483)"/>
<path d="M110.864 106.501C111.761 107.015 112.485 108.261 112.482 109.283C112.479 110.305 111.749 110.719 110.852 110.205C109.955 109.691 109.231 108.445 109.234 107.423C109.238 106.399 109.966 105.987 110.864 106.501Z" fill="#2F655F"/>
<path d="M127.57 97.6551L115.018 104.734L115.888 105.964L128.328 98.775C128.327 98.775 128.222 97.6462 127.57 97.6551Z" fill="url(#paint25_linear_1933_1483)"/>
<path d="M128.609 99.9882V99.9837C128.609 99.96 128.608 99.9363 128.608 99.9111C128.606 99.8859 128.606 99.8593 128.603 99.8326C128.602 99.8208 128.602 99.8089 128.6 99.7971C128.6 99.7926 128.599 99.7867 128.599 99.7822C128.597 99.7734 128.597 99.7645 128.597 99.7556C128.594 99.7289 128.591 99.7037 128.588 99.6771C128.585 99.6504 128.581 99.6238 128.576 99.5956C128.576 99.5941 128.575 99.5941 128.575 99.5926V99.5912C128.57 99.566 128.567 99.5393 128.561 99.5141C128.557 99.4875 128.549 99.4578 128.543 99.4297C128.542 99.4193 128.539 99.4104 128.536 99.4001C128.535 99.3941 128.533 99.3882 128.532 99.3823C128.529 99.3704 128.527 99.3586 128.524 99.3453C128.517 99.3171 128.509 99.2875 128.5 99.2593C128.496 99.2386 128.488 99.2179 128.482 99.1971C128.481 99.1942 128.481 99.1897 128.479 99.1853C128.478 99.1808 128.478 99.1779 128.476 99.1734C128.467 99.1468 128.458 99.1171 128.449 99.0905C128.44 99.0638 128.432 99.0357 128.421 99.009C128.42 99.0046 128.417 98.9971 128.415 98.9927C128.414 98.9883 128.412 98.9853 128.411 98.9809C128.403 98.9631 128.397 98.9468 128.391 98.9305C128.381 98.9038 128.37 98.8786 128.36 98.852C128.352 98.8342 128.343 98.8149 128.336 98.7957C128.335 98.7927 128.333 98.7898 128.332 98.7868C128.33 98.7824 128.329 98.7794 128.327 98.7749C128.315 98.7483 128.303 98.7231 128.291 98.6964C128.278 98.6683 128.264 98.6401 128.249 98.612C128.248 98.6076 128.245 98.6046 128.243 98.5987C128.24 98.5942 128.237 98.5868 128.234 98.5824C128.224 98.5602 128.212 98.5379 128.2 98.5157C128.185 98.4876 128.169 98.4594 128.154 98.4313C128.146 98.4179 128.139 98.4046 128.13 98.3898C128.126 98.3854 128.124 98.378 128.12 98.3735C128.106 98.3498 128.09 98.3276 128.076 98.3024C128.054 98.2683 128.033 98.2328 128.011 98.1987C128.008 98.1943 128.005 98.1869 128 98.1824C127.966 98.1335 127.933 98.0846 127.897 98.0372C127.873 98.0061 127.849 97.975 127.825 97.9439C127.806 97.9202 127.785 97.895 127.766 97.8699C127.764 97.8684 127.764 97.8684 127.764 97.8684C127.763 97.8669 127.763 97.8669 127.763 97.8669C127.742 97.8417 127.721 97.818 127.7 97.7943C127.679 97.7706 127.658 97.7469 127.637 97.7247C127.634 97.7202 127.63 97.7173 127.627 97.7128C127.622 97.7084 127.619 97.7054 127.617 97.701C127.602 97.6862 127.587 97.6714 127.572 97.6551C127.549 97.6314 127.527 97.6091 127.503 97.5869C127.496 97.5795 127.488 97.5736 127.482 97.5662C127.478 97.5617 127.47 97.5573 127.466 97.5514C127.454 97.5395 127.443 97.5306 127.431 97.5203C127.408 97.4995 127.384 97.4773 127.36 97.458C127.349 97.4492 127.339 97.4403 127.327 97.4314C127.322 97.4269 127.316 97.424 127.312 97.4181C127.305 97.4121 127.296 97.4047 127.288 97.3988C127.264 97.381 127.242 97.3618 127.216 97.3455C127.199 97.3321 127.182 97.3203 127.164 97.3084C127.161 97.307 127.158 97.304 127.155 97.3025C127.152 97.301 127.149 97.2981 127.146 97.2966C127.122 97.2803 127.1 97.2655 127.078 97.2507C127.055 97.2358 127.031 97.2225 127.009 97.2077C127.003 97.2047 126.999 97.2018 126.993 97.1988C126.975 97.1899 126.958 97.1796 126.94 97.1707C126.934 97.1677 126.928 97.1633 126.921 97.1603C126.912 97.1559 126.903 97.1514 126.894 97.147C126.887 97.1425 126.881 97.1396 126.873 97.1351C126.861 97.1307 126.852 97.1247 126.84 97.1203C126.833 97.1159 126.825 97.1129 126.816 97.1085C126.813 97.107 126.809 97.1055 126.806 97.104C126.785 97.0936 126.763 97.0848 126.742 97.0773C126.719 97.0685 126.698 97.0596 126.676 97.0522C126.673 97.0507 126.672 97.0507 126.669 97.0507C126.661 97.0477 126.654 97.0462 126.645 97.0433C126.634 97.0403 126.622 97.0359 126.61 97.0329C126.606 97.0314 126.6 97.0299 126.595 97.0285C126.585 97.0255 126.576 97.024 126.566 97.0211C126.558 97.0196 126.551 97.0166 126.545 97.0151C126.537 97.0136 126.53 97.0122 126.521 97.0107C126.512 97.0092 126.501 97.0062 126.493 97.0048C126.488 97.0033 126.482 97.0033 126.478 97.0018C126.469 97.0003 126.46 96.9988 126.451 96.9974C126.44 96.9959 126.43 96.9929 126.418 96.9914C126.413 96.9914 126.41 96.9899 126.406 96.9899C126.398 96.9885 126.388 96.9885 126.379 96.9885C126.369 96.987 126.355 96.9855 126.345 96.984C126.34 96.984 126.337 96.9825 126.334 96.9825C126.327 96.9825 126.318 96.9825 126.31 96.9811C126.295 96.9811 126.284 96.9796 126.269 96.9796H126.257C126.251 96.9796 126.245 96.9796 126.239 96.9811C126.222 96.9811 126.204 96.9825 126.188 96.9825C126.184 96.9825 126.178 96.9825 126.173 96.984C126.169 96.984 126.166 96.9855 126.161 96.9855L132.205 96.0508L128.446 100.69C128.457 100.673 128.467 100.653 128.476 100.634C128.476 100.633 128.478 100.631 128.478 100.63C128.479 100.625 128.481 100.622 128.482 100.616C128.493 100.593 128.503 100.567 128.514 100.541C128.518 100.529 128.523 100.514 128.527 100.501C128.53 100.493 128.532 100.484 128.535 100.477C128.536 100.47 128.539 100.464 128.542 100.456C128.549 100.43 128.557 100.403 128.563 100.375C128.564 100.364 128.567 100.354 128.569 100.345C128.57 100.339 128.572 100.332 128.573 100.326C128.575 100.316 128.578 100.307 128.579 100.296C128.584 100.271 128.587 100.246 128.59 100.219C128.591 100.204 128.593 100.19 128.594 100.175C128.594 100.17 128.596 100.164 128.596 100.16C128.597 100.154 128.597 100.148 128.597 100.142C128.599 100.119 128.602 100.092 128.602 100.067C128.608 100.04 128.608 100.015 128.609 99.9882Z" fill="url(#paint26_linear_1933_1483)"/>
<path d="M130.285 96.3485C130.285 96.3485 130.649 96.3841 130.855 96.6685C131.061 96.9544 131.026 97.5084 131.026 97.5084L132.206 96.0508L130.285 96.3485Z" fill="url(#paint27_linear_1933_1483)"/>
<path d="M116.171 107.107C116.169 107.081 116.169 107.056 116.168 107.029C116.168 107.017 116.166 107.005 116.165 106.993C116.165 106.987 116.163 106.983 116.163 106.978C116.162 106.97 116.162 106.961 116.162 106.95C116.159 106.924 116.156 106.897 116.153 106.87C116.15 106.844 116.145 106.816 116.141 106.789C116.141 106.787 116.141 106.787 116.141 106.786C116.141 106.784 116.141 106.784 116.141 106.783C116.136 106.758 116.132 106.733 116.127 106.706C116.121 106.678 116.117 106.65 116.109 106.621C116.108 106.611 116.105 106.601 116.102 106.592C116.1 106.586 116.099 106.58 116.097 106.574C116.094 106.562 116.091 106.549 116.088 106.537C116.081 106.509 116.074 106.479 116.066 106.451C116.06 106.43 116.054 106.41 116.048 106.387C116.047 106.383 116.047 106.38 116.045 106.376C116.044 106.371 116.044 106.368 116.042 106.364C116.033 106.336 116.024 106.307 116.015 106.279C116.006 106.251 115.996 106.224 115.987 106.196C115.985 106.192 115.982 106.186 115.981 106.182C115.98 106.177 115.978 106.173 115.977 106.17C115.971 106.152 115.963 106.136 115.957 106.118C115.947 106.091 115.936 106.065 115.926 106.039C115.918 106.02 115.909 106.001 115.902 105.983C115.9 105.98 115.899 105.977 115.897 105.973C115.896 105.97 115.894 105.965 115.893 105.962C115.881 105.936 115.869 105.91 115.857 105.884C115.844 105.856 115.83 105.826 115.815 105.798C115.814 105.793 115.811 105.789 115.808 105.785C115.805 105.779 115.802 105.773 115.799 105.768C115.787 105.746 115.775 105.724 115.763 105.7C115.748 105.672 115.732 105.644 115.715 105.616C115.708 105.602 115.7 105.588 115.691 105.574C115.688 105.568 115.685 105.564 115.682 105.558C115.668 105.534 115.653 105.51 115.638 105.487C115.615 105.451 115.594 105.416 115.572 105.382C115.569 105.376 115.565 105.37 115.562 105.365C115.529 105.315 115.493 105.268 115.459 105.219C115.435 105.186 115.411 105.155 115.385 105.124C115.365 105.099 115.345 105.073 115.324 105.048C115.324 105.048 115.324 105.047 115.323 105.047C115.323 105.047 115.323 105.047 115.321 105.045C115.3 105.02 115.279 104.996 115.259 104.971C115.238 104.948 115.217 104.924 115.194 104.902C115.191 104.897 115.187 104.894 115.184 104.89C115.181 104.885 115.176 104.882 115.173 104.878C115.159 104.862 115.144 104.847 115.129 104.831C115.106 104.807 115.082 104.785 115.06 104.762C115.053 104.755 115.045 104.749 115.038 104.742C115.032 104.737 115.027 104.731 115.021 104.727C115.009 104.716 114.999 104.706 114.987 104.696C114.963 104.674 114.939 104.653 114.914 104.632C114.903 104.623 114.891 104.614 114.881 104.605C114.875 104.601 114.87 104.597 114.864 104.592C114.857 104.586 114.848 104.579 114.841 104.573C114.817 104.554 114.793 104.536 114.769 104.518C114.751 104.505 114.733 104.493 114.717 104.481C114.714 104.479 114.711 104.477 114.708 104.475C114.705 104.474 114.702 104.471 114.699 104.469C114.676 104.453 114.652 104.438 114.629 104.423C114.606 104.408 114.582 104.395 114.56 104.382C114.554 104.379 114.549 104.376 114.544 104.373C114.526 104.362 114.509 104.354 114.491 104.343C114.485 104.34 114.478 104.337 114.472 104.333C114.463 104.328 114.454 104.324 114.445 104.319C114.438 104.317 114.432 104.312 114.424 104.309C114.414 104.303 114.402 104.299 114.391 104.294C114.384 104.291 114.375 104.287 114.367 104.282C114.364 104.281 114.361 104.279 114.357 104.278C114.335 104.268 114.314 104.259 114.291 104.251C114.269 104.242 114.246 104.235 114.226 104.226C114.223 104.225 114.22 104.225 114.217 104.223C114.209 104.22 114.2 104.219 114.193 104.216C114.182 104.213 114.17 104.208 114.16 104.205C114.154 104.204 114.149 104.202 114.143 104.201C114.133 104.198 114.124 104.195 114.115 104.194C114.108 104.192 114.1 104.189 114.093 104.188C114.085 104.186 114.078 104.185 114.07 104.183C114.061 104.182 114.051 104.179 114.042 104.177C114.038 104.176 114.032 104.174 114.027 104.174C114.018 104.173 114.009 104.171 114 104.17C113.99 104.168 113.978 104.165 113.967 104.164C113.963 104.164 113.96 104.162 113.955 104.162C113.946 104.161 113.937 104.161 113.929 104.16C113.917 104.158 113.905 104.157 113.893 104.157C113.89 104.157 113.885 104.155 113.882 104.155C113.875 104.155 113.866 104.155 113.858 104.154C113.845 104.154 113.83 104.152 113.817 104.152C113.812 104.152 113.809 104.152 113.805 104.152C113.799 104.152 113.793 104.152 113.787 104.154C113.769 104.154 113.752 104.155 113.736 104.157C113.731 104.157 113.726 104.157 113.721 104.158C113.717 104.158 113.714 104.16 113.711 104.16C113.685 104.162 113.658 104.165 113.634 104.17C113.633 104.17 113.63 104.17 113.629 104.171C113.629 104.171 113.629 104.171 113.627 104.171C113.591 104.179 113.557 104.188 113.523 104.2C113.52 104.201 113.517 104.201 113.514 104.202C113.511 104.204 113.509 104.204 113.506 104.205C113.491 104.211 113.478 104.217 113.463 104.223C113.455 104.226 113.449 104.229 113.442 104.232C113.421 104.242 113.4 104.253 113.381 104.263L109.579 106.476C109.598 106.464 109.619 106.454 109.64 106.445C109.647 106.442 109.653 106.439 109.661 106.436C109.676 106.43 109.689 106.424 109.704 106.419C109.71 106.417 109.715 106.416 109.721 106.413C109.755 106.401 109.789 106.392 109.825 106.384C109.828 106.384 109.83 106.384 109.833 106.383C109.858 106.379 109.883 106.374 109.91 106.373C109.919 106.371 109.928 106.371 109.937 106.37C109.953 106.368 109.971 106.368 109.989 106.367C110 106.367 110.009 106.367 110.019 106.367C110.033 106.367 110.048 106.367 110.061 106.368C110.073 106.368 110.083 106.37 110.095 106.37C110.107 106.371 110.119 106.373 110.131 106.373C110.145 106.374 110.156 106.376 110.17 106.377C110.18 106.379 110.192 106.38 110.203 106.383C110.216 106.386 110.231 106.387 110.245 106.39C110.253 106.392 110.264 106.395 110.273 106.396C110.288 106.399 110.303 106.404 110.319 106.408C110.328 106.411 110.339 106.413 110.348 106.416C110.364 106.42 110.38 106.426 110.398 106.43C110.406 106.433 110.413 106.435 110.422 106.438C110.448 106.447 110.471 106.456 110.497 106.464C110.522 106.475 110.546 106.485 110.571 106.497C110.579 106.5 110.588 106.504 110.595 106.509C110.613 106.518 110.631 106.525 110.649 106.534C110.658 106.539 110.667 106.543 110.676 106.547C110.7 106.559 110.724 106.573 110.748 106.586C110.803 106.617 110.858 106.653 110.912 106.69C110.915 106.691 110.918 106.694 110.921 106.697C110.971 106.733 111.021 106.77 111.069 106.808C111.074 106.813 111.079 106.817 111.085 106.821C111.133 106.86 111.179 106.9 111.224 106.941C111.23 106.946 111.234 106.952 111.24 106.956C111.286 106.999 111.331 107.044 111.376 107.091C111.379 107.096 111.383 107.098 111.386 107.103C111.434 107.153 111.481 107.205 111.525 107.258L111.527 107.26C111.615 107.365 111.697 107.476 111.775 107.592C111.797 107.626 111.819 107.661 111.84 107.697C111.858 107.727 111.878 107.755 111.894 107.784C111.901 107.798 111.91 107.812 111.918 107.826C111.946 107.876 111.975 107.927 112 107.977C112.003 107.983 112.006 107.989 112.009 107.993C112.04 108.055 112.07 108.118 112.098 108.181C112.1 108.184 112.101 108.187 112.103 108.192C112.13 108.254 112.155 108.316 112.179 108.38C112.181 108.384 112.182 108.387 112.184 108.392C112.207 108.455 112.23 108.521 112.249 108.584C112.251 108.589 112.251 108.592 112.252 108.596C112.272 108.658 112.288 108.721 112.303 108.783C112.304 108.789 112.306 108.795 112.307 108.801C112.322 108.864 112.334 108.928 112.345 108.992C112.345 108.993 112.345 108.993 112.345 108.995C112.355 109.058 112.363 109.122 112.369 109.186C112.369 109.19 112.37 109.196 112.37 109.2C112.375 109.264 112.378 109.326 112.378 109.389C112.378 109.451 112.375 109.51 112.369 109.566C112.369 109.572 112.367 109.577 112.367 109.581C112.361 109.633 112.354 109.683 112.345 109.732C112.343 109.738 112.342 109.746 112.34 109.752C112.33 109.799 112.319 109.843 112.304 109.886C112.301 109.894 112.298 109.903 112.297 109.91C112.284 109.95 112.269 109.989 112.251 110.026C112.249 110.03 112.248 110.034 112.245 110.039C112.225 110.08 112.203 110.12 112.179 110.157C112.176 110.162 112.172 110.166 112.169 110.171C112.149 110.2 112.127 110.229 112.104 110.254C112.097 110.263 112.088 110.271 112.079 110.28C112.06 110.301 112.039 110.32 112.018 110.34C112.009 110.347 112 110.356 111.991 110.362C111.961 110.386 111.93 110.408 111.897 110.427L115.699 108.214C115.732 108.195 115.763 108.172 115.793 108.149C115.802 108.141 115.811 108.134 115.82 108.127C115.841 108.109 115.862 108.088 115.881 108.067C115.89 108.058 115.897 108.049 115.906 108.041C115.929 108.014 115.95 107.987 115.971 107.958C115.974 107.953 115.978 107.949 115.981 107.944C115.981 107.943 115.982 107.943 115.984 107.941C116.006 107.907 116.027 107.87 116.045 107.83C116.045 107.829 116.047 107.827 116.047 107.826C116.048 107.821 116.05 107.817 116.053 107.812C116.065 107.787 116.075 107.764 116.085 107.737C116.09 107.724 116.094 107.71 116.099 107.697C116.102 107.69 116.105 107.681 116.106 107.673C116.109 107.666 116.111 107.66 116.114 107.652C116.121 107.626 116.129 107.598 116.136 107.57C116.139 107.559 116.141 107.549 116.142 107.538C116.144 107.532 116.145 107.525 116.147 107.519C116.148 107.509 116.151 107.5 116.153 107.49C116.157 107.464 116.162 107.438 116.165 107.413C116.166 107.398 116.168 107.383 116.169 107.368C116.169 107.364 116.171 107.358 116.171 107.353C116.171 107.347 116.172 107.341 116.172 107.335C116.174 107.31 116.175 107.285 116.177 107.258C116.178 107.233 116.178 107.207 116.178 107.18C116.178 107.178 116.178 107.177 116.178 107.175C116.171 107.158 116.171 107.133 116.171 107.107Z" fill="url(#paint28_linear_1933_1483)"/>
<path d="M110.739 106.593C111.642 107.11 112.372 108.365 112.369 109.395C112.366 110.424 111.631 110.84 110.728 110.322C109.825 109.805 109.095 108.55 109.098 107.519C109.101 106.49 109.835 106.075 110.739 106.593Z" fill="#F35825"/>
<defs>
<filter id="filter0_d_1933_1483" x="0.997131" y="0" width="190.006" height="162" filterUnits="userSpaceOnUse" color-interpolation-filters="sRGB">
<feFlood flood-opacity="0" result="BackgroundImageFix"/>
<feColorMatrix in="SourceAlpha" type="matrix" values="0 0 0 0 0 0 0 0 0 0 0 0 0 0 0 0 0 0 127 0" result="hardAlpha"/>
<feOffset dy="4"/>
<feGaussianBlur stdDeviation="3"/>
<feColorMatrix type="matrix" values="0 0 0 0 0.473611 0 0 0 0 0.516667 0 0 0 0 0.645833 0 0 0 0.45 0"/>
<feBlend mode="normal" in2="BackgroundImageFix" result="effect1_dropShadow_1933_1483"/>
<feBlend mode="normal" in="SourceGraphic" in2="effect1_dropShadow_1933_1483" result="shape"/>
</filter>
<linearGradient id="paint0_linear_1933_1483" x1="116.633" y1="81.1137" x2="72.5944" y2="115.37" gradientUnits="userSpaceOnUse">
<stop stop-color="#2B2E3D"/>
<stop offset="1" stop-color="#525575"/>
</linearGradient>
<linearGradient id="paint1_linear_1933_1483" x1="132.557" y1="71.6754" x2="122.104" y2="51.2023" gradientUnits="userSpaceOnUse">
<stop stop-color="#57BDB2"/>
<stop offset="1" stop-color="#089299"/>
</linearGradient>
<linearGradient id="paint2_linear_1933_1483" x1="118.491" y1="35.6632" x2="127.784" y2="79.0463" gradientUnits="userSpaceOnUse">
<stop stop-color="#57BDB2"/>
<stop offset="1" stop-color="#089299"/>
</linearGradient>
<linearGradient id="paint3_linear_1933_1483" x1="118.933" y1="37.6907" x2="127.37" y2="77.0774" gradientUnits="userSpaceOnUse">
<stop stop-color="#F9F9FB"/>
<stop offset="1" stop-color="#E5E8EF"/>
</linearGradient>
<linearGradient id="paint4_linear_1933_1483" x1="146.791" y1="75.5349" x2="141.852" y2="65.8605" gradientUnits="userSpaceOnUse">
<stop stop-color="#57BDB2"/>
<stop offset="1" stop-color="#089299"/>
</linearGradient>
<linearGradient id="paint5_linear_1933_1483" x1="105.811" y1="47.3756" x2="106.3" y2="47.3756" gradientUnits="userSpaceOnUse">
<stop stop-color="#1C7265"/>
<stop offset="1" stop-color="#089299"/>
</linearGradient>
<linearGradient id="paint6_linear_1933_1483" x1="119.715" y1="58.0814" x2="110.86" y2="58.0814" gradientUnits="userSpaceOnUse">
<stop stop-color="#63DBBF"/>
<stop offset="1" stop-color="#7CDAC9"/>
</linearGradient>
<linearGradient id="paint7_linear_1933_1483" x1="119.716" y1="58.0642" x2="111.177" y2="58.0642" gradientUnits="userSpaceOnUse">
<stop stop-color="#66DBC0"/>
<stop offset="1" stop-color="white"/>
</linearGradient>
<linearGradient id="paint8_linear_1933_1483" x1="137.824" y1="58.3363" x2="129.285" y2="58.3363" gradientUnits="userSpaceOnUse">
<stop stop-color="#FEA608"/>
<stop offset="1" stop-color="white"/>
</linearGradient>
<linearGradient id="paint9_linear_1933_1483" x1="137.824" y1="73.0405" x2="128.968" y2="73.0405" gradientUnits="userSpaceOnUse">
<stop stop-color="#63DBBF"/>
<stop offset="1" stop-color="#7CDAC9"/>
</linearGradient>
<linearGradient id="paint10_linear_1933_1483" x1="137.824" y1="73.0234" x2="129.285" y2="73.0234" gradientUnits="userSpaceOnUse">
<stop stop-color="#66DBC0"/>
<stop offset="1" stop-color="white"/>
</linearGradient>
<linearGradient id="paint11_linear_1933_1483" x1="122.474" y1="77.4433" x2="122.474" y2="85.1084" gradientUnits="userSpaceOnUse">
<stop stop-color="#57BDB2"/>
<stop offset="1" stop-color="#089299"/>
</linearGradient>
<linearGradient id="paint12_linear_1933_1483" x1="126.908" y1="81.1" x2="129.125" y2="90.796" gradientUnits="userSpaceOnUse">
<stop stop-color="#57BDB2"/>
<stop offset="1" stop-color="#089299"/>
</linearGradient>
<linearGradient id="paint13_linear_1933_1483" x1="116.874" y1="76.5945" x2="118.236" y2="82.5504" gradientUnits="userSpaceOnUse">
<stop stop-color="#57BDB2"/>
<stop offset="1" stop-color="#089299"/>
</linearGradient>
<linearGradient id="paint14_linear_1933_1483" x1="84.2349" y1="58.7225" x2="94.2258" y2="58.7225" gradientUnits="userSpaceOnUse">
<stop offset="0.0312" stop-color="#F0B287"/>
<stop offset="1" stop-color="#E59B68"/>
</linearGradient>
<linearGradient id="paint15_linear_1933_1483" x1="84.1955" y1="58.7081" x2="94.2715" y2="58.7081" gradientUnits="userSpaceOnUse">
<stop stop-color="#EFB084"/>
<stop offset="1" stop-color="#E59B68"/>
</linearGradient>
<linearGradient id="paint16_linear_1933_1483" x1="78.2381" y1="74.076" x2="88.9727" y2="72.9805" gradientUnits="userSpaceOnUse">
<stop stop-color="#57BDB2"/>
<stop offset="1" stop-color="#6EE3CC"/>
</linearGradient>
<linearGradient id="paint17_linear_1933_1483" x1="81.4169" y1="50.7489" x2="96.6734" y2="50.7489" gradientUnits="userSpaceOnUse">
<stop stop-color="#FFD0B0"/>
<stop offset="1" stop-color="#E59B68"/>
</linearGradient>
<linearGradient id="paint18_linear_1933_1483" x1="88.4926" y1="94.7866" x2="124.706" y2="94.7866" gradientUnits="userSpaceOnUse">
<stop stop-color="#F9F9FB"/>
<stop offset="1" stop-color="#E5E8EF"/>
</linearGradient>
<linearGradient id="paint19_linear_1933_1483" x1="107.298" y1="87.9653" x2="99.6055" y2="95.7658" gradientUnits="userSpaceOnUse">
<stop stop-color="#FFAC06"/>
<stop offset="1" stop-color="#F66C1E"/>
</linearGradient>
<linearGradient id="paint20_linear_1933_1483" x1="106.501" y1="87.1766" x2="98.8079" y2="94.9772" gradientUnits="userSpaceOnUse">
<stop stop-color="#FFAC06"/>
<stop offset="1" stop-color="#F66C1E"/>
</linearGradient>
<linearGradient id="paint21_linear_1933_1483" x1="105.701" y1="86.3879" x2="98.0082" y2="94.1884" gradientUnits="userSpaceOnUse">
<stop stop-color="#FFAC06"/>
<stop offset="1" stop-color="#F66C1E"/>
</linearGradient>
<linearGradient id="paint22_linear_1933_1483" x1="104.9" y1="85.5989" x2="97.2077" y2="93.3994" gradientUnits="userSpaceOnUse">
<stop stop-color="#FFAC06"/>
<stop offset="1" stop-color="#F66C1E"/>
</linearGradient>
<linearGradient id="paint23_linear_1933_1483" x1="110.142" y1="90.0553" x2="115.904" y2="90.0553" gradientUnits="userSpaceOnUse">
<stop stop-color="#FFAC06"/>
<stop offset="1" stop-color="#F66C1E"/>
</linearGradient>
<linearGradient id="paint24_linear_1933_1483" x1="118.382" y1="101.537" x2="120.609" y2="105.296" gradientUnits="userSpaceOnUse">
<stop stop-color="#86E2D0"/>
<stop offset="1" stop-color="#309E98"/>
</linearGradient>
<linearGradient id="paint25_linear_1933_1483" x1="115.018" y1="101.81" x2="128.327" y2="101.81" gradientUnits="userSpaceOnUse">
<stop stop-color="#52897A"/>
<stop offset="1" stop-color="#309E98"/>
</linearGradient>
<linearGradient id="paint26_linear_1933_1483" x1="128.596" y1="95.5428" x2="130.815" y2="99.288" gradientUnits="userSpaceOnUse">
<stop stop-color="#FFAC06"/>
<stop offset="1" stop-color="#F66C1E"/>
</linearGradient>
<linearGradient id="paint27_linear_1933_1483" x1="130.285" y1="96.7798" x2="132.206" y2="96.7798" gradientUnits="userSpaceOnUse">
<stop stop-color="#52897A"/>
<stop offset="1" stop-color="#309E98"/>
</linearGradient>
<linearGradient id="paint28_linear_1933_1483" x1="112.129" y1="105.244" x2="114.285" y2="108.883" gradientUnits="userSpaceOnUse">
<stop stop-color="#FFAC06"/>
<stop offset="1" stop-color="#F66C1E"/>
</linearGradient>
</defs>
</svg>
