<svg width="192" height="162" viewBox="0 0 192 162" fill="none" xmlns="http://www.w3.org/2000/svg">
<g filter="url(#filter0_d_1891_8757)">
<path d="M49.2522 149.087L7.85218 80.087C6.71213 78.1869 6.71213 75.8131 7.85218 73.913L49.2522 4.91302C50.3365 3.10579 52.2896 2 54.3971 2H137.603C139.71 2 141.663 3.10579 142.748 4.91302L184.148 73.913C185.288 75.8131 185.288 78.1869 184.148 80.087L142.748 149.087C141.663 150.894 139.71 152 137.603 152H54.3971C52.2896 152 50.3365 150.894 49.2522 149.087Z" fill="white"/>
</g>
<path opacity="0.1" d="M143.395 85.0089L143.521 85.0798C145.207 86.0194 145.251 88.4223 143.604 89.425L85.1776 125L46 100.195L105.818 62.2139L143.395 85.0089Z" fill="url(#paint0_linear_1891_8757)"/>
<path d="M117.531 99.4922V101.153C118.133 101.205 118.746 101.074 119.282 100.752L141.751 87.2267C142.433 86.8139 142.735 84.5635 142.225 84.0291C142.152 84.1045 141.848 85.5031 141.751 85.5632L119.282 99.0918C118.748 99.4137 118.133 99.5477 117.531 99.4922Z" fill="#2B2E3D"/>
<path d="M81.7186 80.6897L116.347 100.777C116.716 100.993 117.121 101.114 117.531 101.153V99.4923C118.133 99.5492 118.746 99.4137 119.282 99.0918L141.751 85.5632C141.848 85.5032 141.933 85.4354 142.004 85.3599C141.925 85.2783 141.834 85.2074 141.731 85.1473L122.281 73.8661L106.765 64.8661C105.98 64.4101 105.004 64.4163 104.225 64.8876L82.5366 77.3688C82.4054 77.4504 80.9067 77.301 81.1799 77.8709C80.689 78.4639 80.9947 80.2707 81.7186 80.6897Z" fill="#525575"/>
<path d="M106.467 32.0438V59.8079C106.467 60.6181 106.9 61.3651 107.602 61.7718L144.139 82.9033C144.26 82.9726 144.023 83.7443 144.148 83.7659C144.884 83.9214 146 82.643 146 81.8343V54.3552C146 53.8515 145.887 53.3647 145.674 52.9304L144.14 53.8715C143.858 53.3309 143.422 52.8718 142.871 52.553L107.12 31.8743C106.926 31.7619 106.719 31.6987 106.515 31.6864C106.483 31.7973 106.467 31.919 106.467 32.0438Z" fill="#2B2E3D"/>
<path d="M104.992 33.0942V60.8614C104.992 61.6716 105.424 62.4186 106.126 62.8253L142.663 83.9537C143.439 84.4035 144.404 83.9013 144.511 83.0403C144.517 82.9895 144.52 82.9371 144.52 82.8847V55.4071C144.52 54.8634 144.386 54.3351 144.137 53.8684C143.855 53.3277 143.419 52.8687 142.868 52.5498L107.117 31.8712C106.923 31.7587 106.716 31.6956 106.512 31.6833C106.29 31.6648 106.074 31.7017 105.873 31.7834L105.864 31.7865C105.648 31.8773 105.453 32.0175 105.307 32.2023L105.304 32.2054C105.112 32.4442 104.992 32.7476 104.992 33.0942Z" fill="#525575"/>
<path d="M143.189 55.4071C143.189 55.0883 143.111 54.771 142.962 54.4907C142.789 54.1579 142.527 53.8869 142.203 53.6989L106.452 33.0218L106.437 33.0203L106.404 33.0079L106.355 33.028L106.333 33.0541C106.328 33.0618 106.325 33.0726 106.325 33.0927V60.8598C106.325 61.1941 106.506 61.5052 106.796 61.6731L143.191 82.7199L143.189 55.4071Z" fill="white"/>
<path d="M105.876 31.7849C106.077 31.7032 106.293 31.6663 106.515 31.6848C106.719 31.6971 106.926 31.7602 107.12 31.8727L142.871 52.5513C143.422 52.8702 143.858 53.3292 144.14 53.8699L145.674 52.9287C145.392 52.3372 144.935 51.8351 144.35 51.4978L142.154 50.2286L108.594 30.8191C108.034 30.4941 107.386 30.6035 106.957 30.9778L106.947 30.9839L105.876 31.7849Z" fill="#83869B"/>
<path d="M81.3713 78.7351C81.4624 78.8475 81.5812 78.9477 81.7186 79.0293L116.347 99.1134C116.716 99.326 117.121 99.4538 117.531 99.4923C118.133 99.5493 118.746 99.4138 119.282 99.0918L141.751 85.5633C141.848 85.5032 141.933 85.4354 142.004 85.36C142.521 84.8193 142.43 83.8905 141.731 83.4869L125.144 73.8646L106.765 63.2057C105.98 62.7497 105.004 62.7559 104.225 63.2242L81.6954 76.7881C80.9885 77.2163 80.8789 78.1513 81.3713 78.7351Z" fill="url(#paint1_linear_1891_8757)"/>
<path d="M93.65 74.0926L122.126 90.6663C122.602 90.942 123.191 90.9374 123.664 90.654L135.439 83.5655C135.851 83.3175 135.847 82.7183 135.43 82.4765L106.778 65.7995C106.366 65.5608 105.855 65.5639 105.446 65.8103L93.6407 72.9173C93.1947 73.1853 93.2008 73.8322 93.65 74.0926Z" fill="#525575"/>
<path d="M128.552 81.1489L129.514 80.5682C129.548 80.5482 129.589 80.5482 129.622 80.5667L130.659 81.1658C130.693 81.1859 130.693 81.2336 130.659 81.2536L129.699 81.8328C129.66 81.8559 129.612 81.8559 129.574 81.8343L128.55 81.2429C128.517 81.2244 128.517 81.172 128.552 81.1489Z" fill="#3D415B"/>
<path d="M128.033 80.8608C127.995 80.8839 127.947 80.8839 127.908 80.8624L126.885 80.2709C126.848 80.2493 126.848 80.1985 126.884 80.1754L127.845 79.5947C127.879 79.5747 127.921 79.5747 127.953 79.5931L128.99 80.1923C129.024 80.2123 129.024 80.2601 128.99 80.2801L128.033 80.8608Z" fill="#3D415B"/>
<path d="M126.365 79.8873C126.326 79.9104 126.278 79.9104 126.24 79.8889L125.217 79.2974C125.179 79.2758 125.179 79.225 125.217 79.2019L126.178 78.6212C126.212 78.6012 126.254 78.6011 126.286 78.6196L127.323 79.2188C127.357 79.2388 127.357 79.2866 127.323 79.3066L126.365 79.8873Z" fill="#3D415B"/>
<path d="M124.698 78.9137C124.659 78.9368 124.611 78.9368 124.573 78.9152L123.55 78.3237C123.512 78.3022 123.512 78.2498 123.548 78.2282L124.51 77.6475C124.544 77.6275 124.585 77.6275 124.618 77.646L125.655 78.2452C125.689 78.2652 125.689 78.313 125.655 78.333L124.698 78.9137Z" fill="#3D415B"/>
<path d="M123.029 77.9403C122.991 77.9634 122.943 77.9634 122.904 77.9418L121.881 77.3503C121.844 77.3288 121.844 77.2764 121.879 77.2548L122.841 76.6741C122.875 76.6541 122.917 76.6541 122.949 76.6726L123.986 77.2718C124.02 77.2918 124.02 77.3396 123.986 77.3596L123.029 77.9403Z" fill="#3D415B"/>
<path d="M121.362 76.967C121.324 76.9901 121.276 76.9901 121.237 76.9686L120.214 76.3771C120.177 76.3555 120.177 76.3031 120.212 76.2816L121.174 75.7009C121.208 75.6809 121.25 75.6809 121.282 75.6993L122.319 76.2985C122.353 76.3185 122.353 76.3663 122.319 76.3863L121.362 76.967Z" fill="#3D415B"/>
<path d="M119.694 75.9935C119.655 76.0166 119.607 76.0182 119.569 75.9951L118.545 75.4036C118.508 75.382 118.508 75.3296 118.544 75.3081L119.506 74.7274C119.539 74.7074 119.581 74.7073 119.614 74.7258L120.651 75.325C120.685 75.345 120.685 75.3928 120.651 75.4128L119.694 75.9935Z" fill="#3D415B"/>
<path d="M118.025 75.02C117.987 75.0431 117.939 75.0447 117.9 75.0216L116.877 74.4301C116.84 74.4085 116.84 74.3561 116.875 74.3346L117.837 73.7539C117.871 73.7338 117.913 73.7338 117.945 73.7523L118.982 74.3515C119.016 74.3715 119.016 74.4193 118.982 74.4393L118.025 75.02Z" fill="#3D415B"/>
<path d="M116.358 74.0465C116.32 74.0696 116.272 74.0696 116.233 74.048L115.21 73.4566C115.173 73.435 115.173 73.3826 115.21 73.3611L116.171 72.7804C116.205 72.7603 116.247 72.7603 116.28 72.7788L117.317 73.378C117.351 73.398 117.351 73.4458 117.317 73.4658L116.358 74.0465Z" fill="#3D415B"/>
<path d="M114.69 73.073C114.651 73.0961 114.603 73.0961 114.565 73.0745L113.541 72.483C113.504 72.4615 113.504 72.4091 113.541 72.3875L114.503 71.8068C114.537 71.7868 114.579 71.7868 114.611 71.8053L115.648 72.4045C115.682 72.4245 115.682 72.4723 115.648 72.4923L114.69 73.073Z" fill="#3D415B"/>
<path d="M113.023 72.0996C112.984 72.1227 112.936 72.1227 112.898 72.1011L111.874 71.5097C111.837 71.4881 111.837 71.4373 111.874 71.4142L112.836 70.8335C112.87 70.8134 112.912 70.8134 112.944 70.8319L113.981 71.4311C114.015 71.4511 114.015 71.4989 113.981 71.5189L113.023 72.0996Z" fill="#3D415B"/>
<path d="M111.354 71.1261C111.316 71.1492 111.268 71.1492 111.229 71.1276L110.206 70.5361C110.169 70.5146 110.169 70.4637 110.204 70.4406L111.166 69.8599C111.2 69.8399 111.241 69.8399 111.274 69.8584L112.311 70.4576C112.345 70.4776 112.345 70.5254 112.311 70.5454L111.354 71.1261Z" fill="#3D415B"/>
<path d="M109.686 70.1527C109.647 70.1758 109.599 70.1758 109.561 70.1542L108.537 69.5628C108.5 69.5427 108.5 69.4904 108.536 69.4673L109.497 68.8866C109.531 68.8665 109.573 68.8665 109.605 68.885L110.643 69.4842C110.677 69.5042 110.677 69.552 110.643 69.572L109.686 70.1527Z" fill="#3D415B"/>
<path d="M108.019 69.1792C107.98 69.2023 107.932 69.2023 107.894 69.1807L106.87 68.5892C106.833 68.5677 106.833 68.5153 106.869 68.4937L107.83 67.913C107.864 67.893 107.906 67.893 107.938 67.9115L108.976 68.5107C109.01 68.5307 109.01 68.5785 108.976 68.5985L108.019 69.1792Z" fill="#3D415B"/>
<path d="M126.638 82.3012L127.6 81.7205C127.634 81.7005 127.675 81.7005 127.708 81.719L128.745 82.3182C128.779 82.3382 128.779 82.386 128.747 82.406L127.786 82.9851C127.748 83.0082 127.7 83.0082 127.661 82.9867L126.638 82.3952C126.603 82.3752 126.601 82.3228 126.638 82.3012Z" fill="#3D415B"/>
<path d="M126.041 80.7437L127.078 81.3429C127.112 81.3629 127.112 81.4107 127.08 81.4307L126.119 82.0098C126.081 82.0329 126.033 82.0329 125.994 82.0114L124.971 81.4199C124.934 81.3983 124.934 81.3475 124.97 81.3244L125.931 80.7437C125.965 80.7252 126.007 80.7252 126.041 80.7437Z" fill="#3D415B"/>
<path d="M124.326 81.0396L123.303 80.4481C123.266 80.4281 123.266 80.3757 123.301 80.3526L124.263 79.7719C124.297 79.7519 124.338 79.7519 124.371 79.7704L125.408 80.3696C125.442 80.3896 125.442 80.4373 125.409 80.4574L124.449 81.0365C124.412 81.0612 124.364 81.0612 124.326 81.0396Z" fill="#3D415B"/>
<path d="M122.704 78.7985L123.741 79.3977C123.775 79.4177 123.775 79.4654 123.741 79.4854L122.781 80.0646C122.742 80.0877 122.694 80.0877 122.656 80.0661L121.632 79.4747C121.595 79.4531 121.595 79.4007 121.632 79.3792L122.594 78.7985C122.63 78.7784 122.671 78.7784 122.704 78.7985Z" fill="#3D415B"/>
<path d="M121.037 77.8247L122.074 78.4239C122.108 78.4439 122.108 78.4917 122.074 78.5117L121.114 79.0908C121.075 79.1139 121.027 79.1139 120.989 79.0924L119.965 78.5009C119.928 78.4793 119.928 78.427 119.964 78.4054L120.926 77.8247C120.961 77.8047 121.003 77.8047 121.037 77.8247Z" fill="#3D415B"/>
<path d="M119.368 76.8499L120.405 77.4491C120.439 77.4691 120.439 77.5169 120.405 77.5369L119.445 78.1161C119.407 78.1392 119.359 78.1392 119.32 78.1176L118.297 77.5261C118.26 77.5046 118.26 77.4522 118.295 77.4306L119.257 76.8499C119.294 76.8314 119.334 76.8314 119.368 76.8499Z" fill="#3D415B"/>
<path d="M117.701 75.8764L118.738 76.4756C118.772 76.4956 118.772 76.5434 118.74 76.5634L117.78 77.1425C117.741 77.1657 117.693 77.1672 117.655 77.1441L116.631 76.5526C116.594 76.531 116.594 76.4787 116.63 76.4571L117.592 75.8764C117.625 75.8579 117.667 75.8579 117.701 75.8764Z" fill="#3D415B"/>
<path d="M116.033 74.9029L117.07 75.5021C117.104 75.5221 117.104 75.5699 117.071 75.5899L116.111 76.169C116.073 76.1922 116.025 76.1937 115.986 76.1706L114.963 75.5791C114.926 75.5575 114.926 75.5052 114.961 75.4836L115.923 74.9029C115.957 74.8844 115.999 74.8844 116.033 74.9029Z" fill="#3D415B"/>
<path d="M114.364 73.9295L115.401 74.5287C115.435 74.5487 115.435 74.5965 115.403 74.6165L114.443 75.1956C114.404 75.2187 114.356 75.2187 114.318 75.1972L113.294 74.6057C113.257 74.5841 113.257 74.5333 113.293 74.5102L114.254 73.9295C114.29 73.911 114.332 73.911 114.364 73.9295Z" fill="#3D415B"/>
<path d="M112.697 72.9559L113.734 73.555C113.768 73.5751 113.768 73.6228 113.736 73.6428L112.776 74.222C112.737 74.2451 112.689 74.2451 112.651 74.2235L111.627 73.6321C111.59 73.6105 111.59 73.5597 111.626 73.5366L112.587 72.9559C112.621 72.9374 112.663 72.9374 112.697 72.9559Z" fill="#3D415B"/>
<path d="M111.028 71.9824L112.066 72.5816C112.1 72.6016 112.1 72.6493 112.067 72.6693L111.107 73.2485C111.069 73.2716 111.021 73.2716 110.982 73.25L109.959 72.6586C109.922 72.637 109.922 72.5862 109.957 72.5631L110.919 71.9824C110.953 71.9639 110.995 71.9639 111.028 71.9824Z" fill="#3D415B"/>
<path d="M109.361 71.0105L110.399 71.6097C110.433 71.6297 110.433 71.6775 110.4 71.6975L109.44 72.2766C109.402 72.2998 109.354 72.2998 109.315 72.2782L108.292 71.6867C108.255 71.6651 108.255 71.6128 108.29 71.5912L109.252 71.0105C109.286 70.9905 109.328 70.9905 109.361 71.0105Z" fill="#3D415B"/>
<path d="M106.622 70.6178L107.583 70.0371C107.617 70.017 107.657 70.017 107.691 70.0355L108.729 70.6347C108.763 70.6547 108.763 70.7025 108.729 70.7225L107.769 71.3017C107.73 71.3248 107.682 71.3248 107.644 71.3032L106.62 70.7117C106.586 70.6932 106.586 70.6409 106.622 70.6178Z" fill="#3D415B"/>
<path d="M107.063 69.7507L106.103 70.3298C106.065 70.3529 106.017 70.3529 105.978 70.3313L104.955 69.7399C104.918 69.7183 104.918 69.6659 104.953 69.6444L105.915 69.0637C105.949 69.0437 105.989 69.0437 106.023 69.0621L107.06 69.6613C107.097 69.6813 107.097 69.7306 107.063 69.7507Z" fill="#3D415B"/>
<path d="M123.056 82.5722C123.019 82.5506 123.019 82.4982 123.056 82.4767L124.017 81.896C124.051 81.8759 124.093 81.8759 124.125 81.8944L124.517 82.1208C124.519 82.1224 124.522 82.1208 124.523 82.1224L124.929 82.3596L125.163 82.4936C125.164 82.4936 125.163 82.4951 125.164 82.4951L126.831 83.4671C126.865 83.4871 126.865 83.5349 126.833 83.5549L125.873 84.134C125.834 84.1571 125.786 84.1571 125.748 84.1356L123.867 83.0389L123.056 82.5722Z" fill="#3D415B"/>
<path d="M122.537 82.1885C122.498 82.2116 122.451 82.2116 122.412 82.19L121.389 81.5985C121.352 81.577 121.352 81.5246 121.387 81.503L122.349 80.9223C122.383 80.9023 122.424 80.9023 122.457 80.9208L123.494 81.52C123.528 81.54 123.528 81.5877 123.495 81.6078L122.537 82.1885Z" fill="#3D415B"/>
<path d="M120.79 79.949L121.827 80.5482C121.861 80.5682 121.861 80.6159 121.827 80.636L120.867 81.2151C120.828 81.2382 120.78 81.2382 120.742 81.2167L119.718 80.6252C119.681 80.6036 119.681 80.5512 119.717 80.5297L120.679 79.949C120.714 79.929 120.756 79.929 120.79 79.949Z" fill="#3D415B"/>
<path d="M119.123 78.9755L120.16 79.5747C120.194 79.5947 120.194 79.6424 120.16 79.6624L119.2 80.2416C119.161 80.2647 119.113 80.2663 119.075 80.2432L118.051 79.6517C118.014 79.6301 118.014 79.5777 118.05 79.5562L119.012 78.9755C119.047 78.9554 119.089 78.9554 119.123 78.9755Z" fill="#3D415B"/>
<path d="M117.454 78.002L118.491 78.6011C118.525 78.6212 118.525 78.6689 118.493 78.6889L117.533 79.2681C117.494 79.2912 117.446 79.2927 117.408 79.2696L116.384 78.6782C116.347 78.6566 116.347 78.6042 116.383 78.5827L117.345 78.002C117.379 77.9819 117.42 77.9819 117.454 78.002Z" fill="#3D415B"/>
<path d="M115.786 77.0284L116.823 77.6276C116.857 77.6476 116.857 77.6954 116.824 77.7154L115.864 78.2946C115.826 78.3177 115.778 78.3177 115.739 78.2961L114.716 77.7046C114.679 77.6831 114.679 77.6307 114.714 77.6091L115.676 77.0284C115.712 77.0084 115.753 77.0084 115.786 77.0284Z" fill="#3D415B"/>
<path d="M114.119 76.0551L115.156 76.6542C115.19 76.6743 115.19 76.722 115.157 76.742L114.197 77.3212C114.159 77.3443 114.111 77.3443 114.072 77.3227L113.049 76.7312C113.012 76.7097 113.012 76.6573 113.047 76.6357L114.009 76.0551C114.043 76.035 114.085 76.035 114.119 76.0551Z" fill="#3D415B"/>
<path d="M112.45 75.0817L113.487 75.6808C113.521 75.7009 113.521 75.7486 113.489 75.7686L112.529 76.3478C112.49 76.3709 112.442 76.3709 112.404 76.3493L111.38 75.7579C111.343 75.7363 111.343 75.6855 111.379 75.6624L112.34 75.0817C112.374 75.0616 112.416 75.0616 112.45 75.0817Z" fill="#3D415B"/>
<path d="M110.783 74.1065L111.82 74.7057C111.854 74.7257 111.854 74.7735 111.822 74.7935L110.862 75.3726C110.823 75.3957 110.775 75.3957 110.737 75.3742L109.713 74.7827C109.676 74.7611 109.676 74.7103 109.712 74.6872L110.673 74.1065C110.707 74.088 110.749 74.088 110.783 74.1065Z" fill="#3D415B"/>
<path d="M109.068 74.4023L108.045 73.8108C108.008 73.7908 108.008 73.7384 108.045 73.7153L109.006 73.1346C109.04 73.1146 109.082 73.1146 109.114 73.1331L110.152 73.7322C110.186 73.7523 110.186 73.8 110.153 73.82L109.193 74.3992C109.155 74.4239 109.107 74.4238 109.068 74.4023Z" fill="#3D415B"/>
<path d="M107.338 72.1612C107.372 72.1412 107.414 72.1412 107.446 72.1597L108.483 72.7588C108.517 72.7789 108.517 72.8266 108.483 72.8466L107.523 73.4258C107.485 73.4489 107.437 73.4489 107.398 73.4273L106.375 72.8359C106.338 72.8143 106.338 72.7619 106.375 72.7404L107.338 72.1612Z" fill="#3D415B"/>
<path d="M105.779 71.1875L106.816 71.7867C106.85 71.8067 106.85 71.8545 106.816 71.8745L105.856 72.4537C105.818 72.4768 105.77 72.4768 105.731 72.4552L105.373 72.2488C105.368 72.2473 105.362 72.2473 105.358 72.2442L103.041 70.8903C103.004 70.8687 103.004 70.8163 103.039 70.7948L104.001 70.2141C104.035 70.194 104.076 70.194 104.109 70.2125L105.774 71.186C105.776 71.186 105.777 71.186 105.779 71.1875Z" fill="#3D415B"/>
<path d="M122.809 84.6023L123.77 84.0216C123.804 84.0015 123.846 84.0015 123.878 84.02L124.916 84.6192C124.949 84.6392 124.949 84.687 124.916 84.707L123.955 85.2862C123.917 85.3093 123.869 85.3093 123.83 85.2877L122.807 84.6962C122.773 84.6762 122.773 84.6238 122.809 84.6023Z" fill="#3D415B"/>
<path d="M123.25 83.7336L122.29 84.3127C122.251 84.3358 122.204 84.3358 122.165 84.3143L121.142 83.7228C121.105 83.7012 121.105 83.6489 121.142 83.6273L122.103 83.0466C122.137 83.0266 122.179 83.0266 122.211 83.0451L123.249 83.6442C123.283 83.6643 123.284 83.7135 123.25 83.7336Z" fill="#3D415B"/>
<path d="M121.582 82.7601L120.621 83.3392C120.583 83.3623 120.535 83.3623 120.496 83.3408L119.473 82.7493C119.436 82.7277 119.436 82.6753 119.473 82.6538L120.435 82.0731C120.469 82.0531 120.51 82.0531 120.543 82.0715L121.58 82.6707C121.615 82.6907 121.615 82.74 121.582 82.7601Z" fill="#3D415B"/>
<path d="M118.829 82.3672L117.806 81.7757C117.769 81.7542 117.769 81.7018 117.806 81.6803L118.768 81.0996C118.802 81.0795 118.843 81.0795 118.876 81.098L119.913 81.6972C119.947 81.7172 119.947 81.765 119.913 81.785L118.953 82.3641C118.916 82.3888 118.868 82.3888 118.829 82.3672Z" fill="#3D415B"/>
<path d="M117.161 81.3937L116.138 80.8022C116.1 80.7807 116.1 80.7283 116.136 80.7067L117.098 80.1261C117.132 80.106 117.173 80.106 117.206 80.1245L118.243 80.7237C118.277 80.7437 118.277 80.7915 118.243 80.8115L117.283 81.3906C117.249 81.4153 117.201 81.4168 117.161 81.3937Z" fill="#3D415B"/>
<path d="M115.494 80.4203L114.471 79.8289C114.433 79.8073 114.434 79.7549 114.469 79.7334L115.431 79.1527C115.465 79.1326 115.506 79.1326 115.539 79.1511L116.576 79.7503C116.61 79.7703 116.61 79.8181 116.576 79.8381L115.617 80.4173C115.58 80.4419 115.532 80.4435 115.494 80.4203Z" fill="#3D415B"/>
<path d="M113.825 79.4468L112.802 78.8554C112.765 78.8338 112.765 78.783 112.8 78.7599L113.762 78.1792C113.796 78.1591 113.838 78.1591 113.87 78.1776L114.907 78.7768C114.941 78.7968 114.941 78.8446 114.907 78.8646L113.947 79.4438C113.912 79.4684 113.864 79.4699 113.825 79.4468Z" fill="#3D415B"/>
<path d="M112.158 78.4733L111.135 77.8818C111.098 77.8603 111.098 77.8095 111.133 77.7864L112.095 77.2056C112.129 77.1856 112.169 77.1856 112.203 77.2041L113.24 77.8033C113.274 77.8233 113.274 77.8711 113.24 77.8911L112.28 78.4703C112.245 78.4949 112.197 78.4964 112.158 78.4733Z" fill="#3D415B"/>
<path d="M110.49 77.4999L109.466 76.9084C109.429 76.8869 109.429 76.8361 109.465 76.813L110.427 76.2323C110.46 76.2122 110.502 76.2122 110.535 76.2307L111.572 76.8299C111.606 76.8499 111.606 76.8977 111.572 76.9177L110.612 77.4968C110.576 77.5215 110.528 77.5215 110.49 77.4999Z" fill="#3D415B"/>
<path d="M108.821 76.5264L107.798 75.9349C107.761 75.9134 107.761 75.861 107.798 75.8394L108.76 75.2587C108.793 75.2387 108.835 75.2387 108.868 75.2572L109.905 75.8564C109.939 75.8764 109.939 75.9242 109.905 75.9442L108.945 76.5233C108.909 76.548 108.861 76.548 108.821 76.5264Z" fill="#3D415B"/>
<path d="M107.154 75.5529L106.131 74.9614C106.094 74.9399 106.094 74.8875 106.131 74.8659L107.092 74.2852C107.126 74.2652 107.168 74.2652 107.201 74.2837L108.238 74.8829C108.272 74.9029 108.272 74.9506 108.238 74.9707L107.278 75.5498C107.241 75.5745 107.193 75.5745 107.154 75.5529Z" fill="#3D415B"/>
<path d="M105.532 73.3117L106.569 73.9109C106.603 73.9309 106.603 73.9786 106.569 73.9987L105.609 74.5778C105.571 74.6009 105.523 74.6009 105.484 74.5794L104.461 73.9879C104.424 73.9663 104.424 73.9139 104.461 73.8924L105.422 73.3117C105.456 73.2932 105.498 73.2917 105.532 73.3117Z" fill="#3D415B"/>
<path d="M103.819 73.6059L102.795 73.0144C102.758 72.9928 102.758 72.9405 102.794 72.9189L103.755 72.3382C103.789 72.3182 103.831 72.3182 103.863 72.3367L104.901 72.9359C104.935 72.9559 104.935 73.0036 104.901 73.0237L103.942 73.6028C103.905 73.6274 103.857 73.629 103.819 73.6059Z" fill="#3D415B"/>
<path d="M103.235 72.0518L102.275 72.631C102.237 72.6541 102.189 72.6556 102.15 72.6325L101.127 72.041C101.09 72.0195 101.09 71.9671 101.125 71.9455L102.087 71.3648C102.121 71.3448 102.163 71.3448 102.195 71.3633L103.232 71.9625C103.268 71.9825 103.268 72.0318 103.235 72.0518Z" fill="#3D415B"/>
<path d="M120.895 85.7528L121.856 85.1721C121.89 85.1521 121.932 85.1521 121.964 85.1705L123.002 85.7697C123.036 85.7897 123.036 85.8375 123.003 85.8575L122.043 86.4367C122.004 86.4598 121.957 86.4598 121.918 86.4382L120.895 85.8467C120.859 85.8267 120.859 85.7743 120.895 85.7528Z" fill="#3D415B"/>
<path d="M120.376 85.4635C120.337 85.4866 120.29 85.4866 120.251 85.465L119.228 84.8735C119.191 84.852 119.191 84.7996 119.228 84.778L120.189 84.1973C120.223 84.1773 120.265 84.1773 120.297 84.1958L121.335 84.795C121.369 84.815 121.369 84.8628 121.336 84.8828L120.376 85.4635Z" fill="#3D415B"/>
<path d="M118.582 84.4913L117.559 83.8998C117.522 83.8782 117.522 83.8259 117.558 83.8043L118.519 83.2236C118.553 83.2036 118.595 83.2036 118.627 83.222L119.664 83.8212C119.698 83.8413 119.698 83.889 119.666 83.909L118.706 84.4882C118.67 84.5128 118.623 84.5144 118.582 84.4913Z" fill="#3D415B"/>
<path d="M116.915 83.518L115.892 82.9265C115.855 82.905 115.855 82.8526 115.891 82.831L116.852 82.2503C116.886 82.2303 116.926 82.2303 116.96 82.2488L117.997 82.848C118.031 82.868 118.031 82.9157 117.997 82.9358L117.037 83.5149C117.002 83.5396 116.954 83.5411 116.915 83.518Z" fill="#3D415B"/>
<path d="M115.247 82.5444L114.224 81.9529C114.187 81.9313 114.187 81.879 114.222 81.8574L115.184 81.2767C115.218 81.2567 115.259 81.2567 115.292 81.2751L116.329 81.8743C116.363 81.8944 116.363 81.9421 116.329 81.9621L115.369 82.5413C115.333 82.5659 115.286 82.5675 115.247 82.5444Z" fill="#3D415B"/>
<path d="M113.58 81.5709L112.557 80.9794C112.52 80.9578 112.52 80.9054 112.555 80.8839L113.517 80.3032C113.551 80.2832 113.591 80.2832 113.625 80.3016L114.662 80.9008C114.696 80.9208 114.696 80.9686 114.662 80.9886L113.702 81.5678C113.666 81.5924 113.619 81.594 113.58 81.5709Z" fill="#3D415B"/>
<path d="M111.911 80.5975L110.888 80.006C110.851 79.9844 110.851 79.9336 110.886 79.9105L111.848 79.3298C111.882 79.3098 111.922 79.3098 111.956 79.3283L112.993 79.9274C113.027 79.9474 113.027 79.9952 112.993 80.0152L112.033 80.5944C111.998 80.619 111.95 80.6206 111.911 80.5975Z" fill="#3D415B"/>
<path d="M110.243 79.6241L109.219 79.0326C109.182 79.011 109.182 78.9602 109.218 78.9371L110.18 78.3564C110.213 78.3364 110.255 78.3364 110.288 78.3549L111.325 78.954C111.359 78.9741 111.359 79.0218 111.325 79.0418L110.365 79.621C110.331 79.6456 110.283 79.6472 110.243 79.6241Z" fill="#3D415B"/>
<path d="M108.576 78.6504L107.552 78.059C107.515 78.0389 107.515 77.9866 107.551 77.9635L108.513 77.3828C108.546 77.3627 108.588 77.3627 108.621 77.3812L109.658 77.9804C109.692 78.0004 109.692 78.0482 109.658 78.0682L108.698 78.6474C108.662 78.672 108.614 78.6735 108.576 78.6504Z" fill="#3D415B"/>
<path d="M106.907 77.6769L105.884 77.0855C105.847 77.0639 105.847 77.0115 105.882 76.99L106.844 76.4093C106.878 76.3892 106.92 76.3892 106.952 76.4077L107.989 77.0069C108.023 77.0269 108.023 77.0747 107.989 77.0947L107.029 77.6738C106.994 77.6985 106.946 77.7 106.907 77.6769Z" fill="#3D415B"/>
<path d="M105.24 76.7037L104.217 76.1122C104.18 76.0906 104.18 76.0383 104.215 76.0167L105.177 75.436C105.211 75.416 105.251 75.416 105.285 75.4345L106.322 76.0336C106.356 76.0537 106.356 76.1014 106.322 76.1214L105.362 76.7006C105.327 76.7252 105.279 76.7268 105.24 76.7037Z" fill="#3D415B"/>
<path d="M103.572 75.7302L102.548 75.1387C102.511 75.1171 102.511 75.0647 102.548 75.0432L103.51 74.4625C103.544 74.4425 103.584 74.4425 103.618 74.4609L104.655 75.0601C104.689 75.0801 104.689 75.1279 104.655 75.1479L103.695 75.7271C103.658 75.7517 103.61 75.7533 103.572 75.7302Z" fill="#3D415B"/>
<path d="M101.903 74.7565L100.88 74.165C100.843 74.1435 100.843 74.0911 100.878 74.0695L101.84 73.4888C101.874 73.4688 101.916 73.4688 101.948 73.4873L102.985 74.0865C103.019 74.1065 103.019 74.1543 102.985 74.1743L102.025 74.7534C101.991 74.7781 101.942 74.7796 101.903 74.7565Z" fill="#3D415B"/>
<path d="M101.32 73.2026L100.36 73.7817C100.321 73.8048 100.273 73.8064 100.235 73.7833L99.2113 73.1918C99.1742 73.1702 99.1742 73.1178 99.2097 73.0963L100.171 72.5156C100.205 72.4956 100.247 72.4956 100.279 72.514L101.317 73.1132C101.354 73.1332 101.354 73.1825 101.32 73.2026Z" fill="#3D415B"/>
<path d="M119.942 86.3227C119.976 86.3027 120.018 86.3027 120.05 86.3212L121.088 86.9203C121.122 86.9404 121.122 86.9881 121.088 87.0081L120.128 87.5873C120.089 87.6104 120.041 87.6104 120.002 87.5888L118.979 86.9974C118.942 86.9758 118.942 86.9234 118.979 86.9019L119.942 86.3227Z" fill="#3D415B"/>
<path d="M118.274 85.3492C118.308 85.3292 118.349 85.3292 118.382 85.3477L119.419 85.9468C119.453 85.9669 119.453 86.0146 119.419 86.0346L118.459 86.6138C118.42 86.6369 118.373 86.6369 118.334 86.6153L117.311 86.0239C117.274 86.0023 117.274 85.9499 117.311 85.9284L118.274 85.3492Z" fill="#3D415B"/>
<path d="M116.607 84.3759C116.641 84.3559 116.682 84.3559 116.715 84.3744L117.752 84.9736C117.786 84.9936 117.786 85.0413 117.752 85.0614L116.792 85.6405C116.753 85.6636 116.706 85.6652 116.667 85.6421L115.644 85.0506C115.607 85.029 115.607 84.9767 115.642 84.9551L116.607 84.3759Z" fill="#3D415B"/>
<path d="M114.938 83.4025C114.972 83.3825 115.014 83.3825 115.046 83.401L116.084 84.0002C116.117 84.0202 116.117 84.0679 116.084 84.088L115.123 84.6671C115.085 84.6902 115.037 84.6918 114.998 84.6687L113.975 84.0772C113.938 84.0556 113.938 84.0033 113.974 83.9817L114.938 83.4025Z" fill="#3D415B"/>
<path d="M106.599 78.535C106.633 78.515 106.674 78.515 106.707 78.5335L107.213 78.8261C107.235 78.823 107.258 78.8261 107.278 78.8369L114.416 83.0265C114.45 83.0466 114.45 83.0943 114.416 83.1143L113.456 83.6935C113.418 83.7166 113.37 83.7166 113.331 83.695L111.68 82.7262C111.675 82.7246 111.669 82.7246 111.663 82.7216L110.639 82.1301C110.63 82.1255 110.63 82.1147 110.626 82.107L110.027 81.7558C110.016 81.7527 110.004 81.7527 109.994 81.7481L108.971 81.1566C108.959 81.1504 108.957 81.1366 108.952 81.1258L108.375 80.7869C108.358 80.7854 108.341 80.7823 108.326 80.7746L107.302 80.1831C107.287 80.1739 107.282 80.1585 107.279 80.1431L106.722 79.8165C106.7 79.8165 106.677 79.8119 106.659 79.8011L105.635 79.2096C105.598 79.1881 105.598 79.1357 105.634 79.1142L106.599 78.535Z" fill="#3D415B"/>
<path d="M104.932 77.5615C104.966 77.5415 105.007 77.5415 105.04 77.5599L106.077 78.1591C106.111 78.1792 106.111 78.2269 106.078 78.2469L105.118 78.8261C105.08 78.8492 105.032 78.8492 104.993 78.8276L103.97 78.2361C103.933 78.2146 103.933 78.1622 103.97 78.1406L104.932 77.5615Z" fill="#3D415B"/>
<path d="M103.263 76.5878C103.297 76.5678 103.339 76.5678 103.371 76.5863L104.408 77.1855C104.442 77.2055 104.442 77.2533 104.408 77.2733L103.448 77.8524C103.41 77.8755 103.362 77.8771 103.323 77.854L102.3 77.2625C102.263 77.2409 102.263 77.1886 102.3 77.167L103.263 76.5878Z" fill="#3D415B"/>
<path d="M101.594 75.6145C101.628 75.5944 101.67 75.5944 101.702 75.6129L102.74 76.2121C102.774 76.2321 102.774 76.2799 102.74 76.2999L101.78 76.879C101.741 76.9021 101.693 76.9037 101.655 76.8806L100.631 76.2891C100.594 76.2675 100.594 76.2152 100.631 76.1936L101.594 75.6145Z" fill="#3D415B"/>
<path d="M99.9275 74.6411C99.9614 74.621 100.003 74.621 100.036 74.6395L101.073 75.2387C101.107 75.2587 101.107 75.3065 101.073 75.3265L100.113 75.9057C100.074 75.9288 100.026 75.9288 99.9877 75.9072L98.9643 75.3157C98.9273 75.2942 98.9273 75.2418 98.9628 75.2202L99.9275 74.6411Z" fill="#3D415B"/>
<path d="M97.2973 74.2484L98.2589 73.6677C98.2929 73.6477 98.3346 73.6477 98.367 73.6661L99.4042 74.2653C99.4382 74.2853 99.4382 74.3331 99.4042 74.3531L98.4442 74.9323C98.4056 74.9554 98.3577 74.9554 98.3191 74.9338L97.2958 74.3423C97.2618 74.3223 97.2603 74.2699 97.2973 74.2484Z" fill="#3D415B"/>
<path d="M128.554 81.0456L129.577 81.6371C129.616 81.6586 129.663 81.6586 129.702 81.6355L130.662 81.0564C130.696 81.0363 130.696 80.9871 130.662 80.9686L129.625 80.3694C129.591 80.3509 129.549 80.3509 129.517 80.3709L128.555 80.9516C128.517 80.9717 128.517 81.024 128.554 81.0456Z" fill="#83869B"/>
<path d="M126.885 80.0722L127.908 80.6637C127.947 80.6853 127.995 80.6853 128.033 80.6621L128.994 80.083C129.027 80.063 129.027 80.0137 128.994 79.9952L127.956 79.396C127.922 79.3775 127.881 79.3775 127.848 79.3975L126.887 79.9782C126.848 79.9983 126.848 80.0506 126.885 80.0722Z" fill="#83869B"/>
<path d="M125.217 79.0986L126.24 79.6901C126.278 79.7116 126.326 79.7116 126.365 79.6885L127.325 79.1094C127.359 79.0893 127.359 79.04 127.325 79.0216L126.288 78.4224C126.254 78.4039 126.212 78.4039 126.18 78.4239L125.218 79.0046C125.18 79.0246 125.181 79.077 125.217 79.0986Z" fill="#83869B"/>
<path d="M123.55 78.1249L124.573 78.7164C124.611 78.738 124.659 78.738 124.698 78.7149L125.658 78.1357C125.692 78.1157 125.692 78.0664 125.658 78.0479L124.621 77.4487C124.587 77.4303 124.545 77.4303 124.513 77.4503L123.551 78.031C123.512 78.051 123.512 78.1034 123.55 78.1249Z" fill="#83869B"/>
<path d="M121.881 77.1517L122.904 77.7431C122.943 77.7647 122.991 77.7647 123.029 77.7416L123.989 77.1624C124.023 77.1424 124.023 77.0931 123.989 77.0746L122.952 76.4755C122.918 76.457 122.877 76.457 122.844 76.477L121.883 77.0577C121.844 77.0777 121.844 77.1301 121.881 77.1517Z" fill="#83869B"/>
<path d="M120.214 76.1783L121.237 76.7698C121.276 76.7913 121.324 76.7913 121.362 76.7682L122.322 76.1891C122.356 76.169 122.356 76.1197 122.322 76.1013L121.285 75.5021C121.251 75.4836 121.21 75.4836 121.177 75.5036L120.216 76.0843C120.177 76.1043 120.177 76.1567 120.214 76.1783Z" fill="#83869B"/>
<path d="M118.545 75.2046L119.569 75.7961C119.607 75.8177 119.655 75.8177 119.694 75.7946L120.654 75.2154C120.688 75.1954 120.688 75.1461 120.654 75.1276L119.617 74.5284C119.583 74.51 119.541 74.51 119.509 74.53L118.547 75.1107C118.508 75.1307 118.508 75.1831 118.545 75.2046Z" fill="#83869B"/>
<path d="M116.877 74.2313L117.9 74.8227C117.939 74.8443 117.987 74.8443 118.025 74.8212L118.985 74.242C119.019 74.222 119.019 74.1727 118.985 74.1542L117.948 73.5551C117.914 73.5366 117.872 73.5366 117.84 73.5566L116.878 74.1373C116.84 74.1573 116.841 74.2097 116.877 74.2313Z" fill="#83869B"/>
<path d="M115.21 73.2577L116.233 73.8492C116.272 73.8708 116.32 73.8708 116.358 73.8477L117.318 73.2685C117.352 73.2485 117.352 73.1992 117.318 73.1807L116.281 72.5816C116.247 72.5631 116.206 72.5631 116.173 72.5831L115.211 73.1638C115.173 73.1838 115.173 73.2362 115.21 73.2577Z" fill="#83869B"/>
<path d="M113.541 72.2844L114.565 72.8758C114.603 72.8974 114.651 72.8974 114.69 72.8743L115.65 72.2951C115.684 72.2751 115.684 72.2258 115.65 72.2073L114.613 71.6082C114.579 71.5897 114.537 71.5897 114.505 71.6097L113.543 72.1904C113.504 72.2104 113.504 72.2628 113.541 72.2844Z" fill="#83869B"/>
<path d="M111.873 71.3107L112.896 71.9022C112.935 71.9238 112.983 71.9238 113.021 71.9007L113.981 71.3215C114.015 71.3015 114.015 71.2522 113.981 71.2337L112.944 70.6345C112.91 70.616 112.868 70.616 112.836 70.6361L111.874 71.2168C111.836 71.2368 111.837 71.2892 111.873 71.3107Z" fill="#83869B"/>
<path d="M110.206 70.3373L111.229 70.9288C111.268 70.9504 111.316 70.9504 111.354 70.9273L112.314 70.3481C112.348 70.3281 112.348 70.2788 112.314 70.2603L111.277 69.6611C111.243 69.6427 111.201 69.6427 111.169 69.6627L110.207 70.2434C110.169 70.2634 110.169 70.3158 110.206 70.3373Z" fill="#83869B"/>
<path d="M108.537 69.3639L109.561 69.9554C109.599 69.977 109.647 69.977 109.686 69.9539L110.646 69.3747C110.68 69.3547 110.68 69.3054 110.646 69.2869L109.608 68.6877C109.574 68.6693 109.533 68.6693 109.5 68.6893L108.539 69.27C108.5 69.29 108.502 69.3424 108.537 69.3639Z" fill="#83869B"/>
<path d="M106.87 68.3904L107.894 68.9819C107.932 69.0035 107.98 69.0035 108.019 68.9804L108.979 68.4012C109.013 68.3812 109.013 68.3319 108.979 68.3134L107.941 67.7142C107.907 67.6958 107.866 67.6958 107.833 67.7158L106.872 68.2965C106.833 68.3165 106.833 68.3689 106.87 68.3904Z" fill="#83869B"/>
<path d="M126.638 82.1961L127.661 82.7875C127.7 82.8091 127.748 82.8091 127.786 82.786L128.747 82.2069C128.781 82.1868 128.781 82.1376 128.747 82.1191L127.709 81.5199C127.675 81.5014 127.634 81.5014 127.601 81.5214L126.64 82.1021C126.601 82.1222 126.603 82.1745 126.638 82.1961Z" fill="#83869B"/>
<path d="M124.971 81.2227L125.994 81.8142C126.033 81.8357 126.081 81.8358 126.12 81.8127L127.08 81.2335C127.114 81.2135 127.114 81.1642 127.08 81.1457L126.042 80.5465C126.008 80.528 125.967 80.528 125.934 80.5481L124.973 81.1288C124.934 81.1488 124.934 81.2011 124.971 81.2227Z" fill="#83869B"/>
<path d="M123.303 80.2492L124.326 80.8407C124.364 80.8622 124.412 80.8622 124.451 80.8391L125.411 80.26C125.445 80.24 125.445 80.1907 125.411 80.1722L124.374 79.573C124.34 79.5545 124.298 79.5545 124.266 79.5745L123.304 80.1552C123.266 80.1753 123.266 80.2276 123.303 80.2492Z" fill="#83869B"/>
<path d="M121.634 79.2759L122.657 79.8674C122.696 79.889 122.744 79.889 122.782 79.8659L123.742 79.2867C123.776 79.2667 123.776 79.2174 123.742 79.1989L122.705 78.5997C122.671 78.5813 122.63 78.5813 122.597 78.6013L121.636 79.182C121.597 79.202 121.599 79.2544 121.634 79.2759Z" fill="#83869B"/>
<path d="M119.967 78.3023L120.99 78.8938C121.029 78.9153 121.077 78.9153 121.115 78.8922L122.075 78.3131C122.109 78.2931 122.109 78.2438 122.075 78.2253L121.038 77.6261C121.004 77.6076 120.963 77.6076 120.93 77.6276L119.969 78.2083C119.93 78.2284 119.93 78.2807 119.967 78.3023Z" fill="#83869B"/>
<path d="M118.298 77.3289L119.322 77.9204C119.36 77.942 119.408 77.942 119.447 77.9188L120.407 77.3397C120.441 77.3197 120.441 77.2704 120.407 77.2519L119.37 76.6527C119.336 76.6342 119.294 76.6342 119.262 76.6543L118.3 77.235C118.261 77.255 118.263 77.3073 118.298 77.3289Z" fill="#83869B"/>
<path d="M116.631 76.3552L117.655 76.9466C117.693 76.9682 117.741 76.9682 117.78 76.9451L118.74 76.3659C118.774 76.3459 118.774 76.2966 118.74 76.2781L117.703 75.679C117.669 75.6605 117.627 75.6605 117.595 75.6805L116.633 76.2612C116.594 76.2812 116.594 76.3336 116.631 76.3552Z" fill="#83869B"/>
<path d="M114.963 75.382L115.986 75.9735C116.025 75.995 116.073 75.995 116.111 75.9719L117.071 75.3928C117.105 75.3728 117.105 75.3235 117.071 75.305L116.034 74.7058C116 74.6873 115.958 74.6873 115.926 74.7074L114.964 75.288C114.926 75.3081 114.926 75.3604 114.963 75.382Z" fill="#83869B"/>
<path d="M113.294 74.4084L114.318 74.9998C114.356 75.0214 114.404 75.0214 114.443 74.9983L115.403 74.4192C115.437 74.3991 115.437 74.3498 115.403 74.3314L114.366 73.7322C114.332 73.7137 114.29 73.7137 114.258 73.7337L113.296 74.3144C113.257 74.3344 113.259 74.3868 113.294 74.4084Z" fill="#83869B"/>
<path d="M111.627 73.4349L112.651 74.0263C112.689 74.0479 112.737 74.0479 112.776 74.0248L113.736 73.4457C113.77 73.4256 113.77 73.3763 113.736 73.3579L112.699 72.7587C112.665 72.7402 112.623 72.7402 112.591 72.7602L111.629 73.3409C111.59 73.3609 111.59 73.4133 111.627 73.4349Z" fill="#83869B"/>
<path d="M109.959 72.4614L110.982 73.0528C111.021 73.0744 111.069 73.0744 111.107 73.0513L112.067 72.4721C112.101 72.4521 112.101 72.4028 112.067 72.3843L111.03 71.7852C110.996 71.7667 110.954 71.7667 110.922 71.7867L109.96 72.3674C109.922 72.3874 109.923 72.4398 109.959 72.4614Z" fill="#83869B"/>
<path d="M108.292 71.4881L109.315 72.0796C109.354 72.1011 109.402 72.1011 109.44 72.078L110.4 71.4989C110.434 71.4789 110.434 71.4296 110.4 71.4111L109.363 70.8119C109.329 70.7934 109.287 70.7934 109.255 70.8134L108.293 71.3941C108.255 71.4142 108.255 71.4665 108.292 71.4881Z" fill="#83869B"/>
<path d="M106.623 70.5143L107.647 71.1058C107.685 71.1274 107.733 71.1274 107.772 71.1043L108.732 70.5251C108.766 70.5051 108.766 70.4558 108.732 70.4373L107.695 69.8381C107.661 69.8197 107.619 69.8197 107.586 69.8397L106.625 70.4204C106.586 70.4404 106.586 70.4928 106.623 70.5143Z" fill="#83869B"/>
<path d="M104.955 69.5411L105.978 70.1326C106.017 70.1541 106.065 70.1541 106.103 70.131L107.063 69.5519C107.097 69.5318 107.097 69.4825 107.063 69.4641L106.026 68.8649C105.992 68.8464 105.95 68.8464 105.918 68.8664L104.956 69.4471C104.918 69.4671 104.919 69.5195 104.955 69.5411Z" fill="#83869B"/>
<path d="M123.455 82.601L125.748 83.938C125.786 83.9596 125.834 83.9596 125.873 83.9364L126.833 83.3573C126.867 83.3373 126.867 83.288 126.833 83.2695L124.527 81.9248C124.493 81.9063 124.451 81.9063 124.419 81.9263L123.457 82.507C123.418 82.5271 123.418 82.5794 123.455 82.601Z" fill="#83869B"/>
<path d="M123.056 82.3733L124.079 82.9648C124.118 82.9864 124.165 82.9864 124.204 82.9633L125.164 82.3841C125.198 82.3641 125.198 82.3148 125.164 82.2963L124.127 81.6972C124.093 81.6787 124.051 81.6787 124.019 81.6987L123.057 82.2794C123.019 82.2994 123.02 82.3518 123.056 82.3733Z" fill="#83869B"/>
<path d="M121.389 81.3997L122.412 81.9912C122.451 82.0127 122.498 82.0127 122.537 81.9896L123.497 81.4105C123.531 81.3905 123.531 81.3412 123.497 81.3227L122.46 80.7235C122.426 80.705 122.384 80.705 122.352 80.7251L121.39 81.3057C121.352 81.3258 121.352 81.3781 121.389 81.3997Z" fill="#83869B"/>
<path d="M119.72 80.4264L120.743 81.0179C120.782 81.0395 120.83 81.0395 120.868 81.0164L121.828 80.4372C121.862 80.4172 121.862 80.3679 121.828 80.3494L120.791 79.7502C120.757 79.7318 120.716 79.7318 120.683 79.7518L119.722 80.3325C119.683 80.3525 119.685 80.4049 119.72 80.4264Z" fill="#83869B"/>
<path d="M118.053 79.4528L119.076 80.0443C119.115 80.0658 119.163 80.0658 119.201 80.0427L120.161 79.4636C120.195 79.4436 120.195 79.3943 120.161 79.3758L119.124 78.7766C119.09 78.7581 119.049 78.7581 119.016 78.7782L118.055 79.3589C118.016 79.3789 118.016 79.4312 118.053 79.4528Z" fill="#83869B"/>
<path d="M116.384 78.4794L117.408 79.0709C117.446 79.0925 117.494 79.0925 117.533 79.0694L118.493 78.4902C118.527 78.4702 118.527 78.4209 118.493 78.4024L117.456 77.8032C117.422 77.7847 117.38 77.7847 117.348 77.8048L116.386 78.3855C116.347 78.4055 116.347 78.4579 116.384 78.4794Z" fill="#83869B"/>
<path d="M114.716 77.5058L115.739 78.0973C115.778 78.1188 115.826 78.1188 115.864 78.0957L116.824 77.5166C116.858 77.4966 116.858 77.4473 116.824 77.4288L115.787 76.8296C115.753 76.8111 115.712 76.8111 115.679 76.8311L114.717 77.4118C114.679 77.4319 114.68 77.4842 114.716 77.5058Z" fill="#83869B"/>
<path d="M113.049 76.5325L114.072 77.124C114.111 77.1456 114.159 77.1456 114.197 77.1225L115.157 76.5433C115.191 76.5233 115.191 76.474 115.157 76.4555L114.12 75.8563C114.086 75.8378 114.045 75.8378 114.012 75.8579L113.05 76.4386C113.012 76.4586 113.012 76.511 113.049 76.5325Z" fill="#83869B"/>
<path d="M111.38 75.5589L112.404 76.1504C112.442 76.1719 112.49 76.1719 112.529 76.1488L113.489 75.5697C113.523 75.5496 113.523 75.5004 113.489 75.4819L112.452 74.8827C112.418 74.8642 112.376 74.8642 112.344 74.8842L111.382 75.4649C111.343 75.485 111.345 75.5373 111.38 75.5589Z" fill="#83869B"/>
<path d="M109.713 74.5854L110.737 75.1768C110.775 75.1984 110.823 75.1984 110.862 75.1753L111.822 74.5962C111.856 74.5761 111.856 74.5268 111.822 74.5084L110.785 73.9092C110.751 73.8907 110.709 73.8907 110.677 73.9107L109.715 74.4914C109.676 74.5114 109.676 74.5638 109.713 74.5854Z" fill="#83869B"/>
<path d="M108.045 73.6121L109.068 74.2036C109.107 74.2251 109.155 74.2251 109.193 74.202L110.153 73.6229C110.187 73.6029 110.187 73.5536 110.153 73.5351L109.116 72.9359C109.082 72.9174 109.04 72.9174 109.008 72.9375L108.046 73.5181C108.008 73.5382 108.008 73.5905 108.045 73.6121Z" fill="#83869B"/>
<path d="M106.376 72.6385L107.4 73.2299C107.438 73.2515 107.486 73.2515 107.525 73.2284L108.485 72.6492C108.519 72.6292 108.519 72.5799 108.485 72.5615L107.448 71.9623C107.414 71.9438 107.372 71.9438 107.339 71.9638L106.378 72.5445C106.339 72.5645 106.341 72.6169 106.376 72.6385Z" fill="#83869B"/>
<path d="M104.709 71.6648L105.733 72.2563C105.771 72.2779 105.819 72.2779 105.858 72.2548L106.818 71.6756C106.852 71.6556 106.852 71.6063 106.818 71.5878L105.781 70.9887C105.747 70.9702 105.705 70.9702 105.672 70.9902L104.711 71.5709C104.672 71.5909 104.672 71.6433 104.709 71.6648Z" fill="#83869B"/>
<path d="M103.041 70.6916L105.358 72.0455C105.396 72.0671 105.444 72.0671 105.483 72.044L106.443 71.4648C106.477 71.4448 106.477 71.3955 106.443 71.377L104.11 70.0154C104.076 69.9969 104.035 69.9969 104.002 70.0169L103.041 70.5976C103.004 70.6177 103.004 70.67 103.041 70.6916Z" fill="#83869B"/>
<path d="M122.81 84.4976L123.834 85.0891C123.872 85.1107 123.92 85.1107 123.959 85.0876L124.919 84.5084C124.953 84.4884 124.953 84.4391 124.919 84.4206L123.881 83.8214C123.847 83.8029 123.806 83.8029 123.773 83.823L122.812 84.4037C122.773 84.4237 122.773 84.4761 122.81 84.4976Z" fill="#83869B"/>
<path d="M121.142 83.524L122.165 84.1155C122.204 84.137 122.251 84.137 122.29 84.1139L123.25 83.5348C123.284 83.5147 123.284 83.4655 123.25 83.447L122.213 82.8478C122.179 82.8293 122.137 82.8293 122.105 82.8493L121.143 83.43C121.105 83.4501 121.106 83.5024 121.142 83.524Z" fill="#83869B"/>
<path d="M119.475 82.5505L120.498 83.142C120.537 83.1635 120.584 83.1635 120.623 83.1404L121.583 82.5613C121.617 82.5412 121.617 82.4919 121.583 82.4735L120.546 81.8743C120.512 81.8558 120.47 81.8558 120.438 81.8758L119.476 82.4565C119.438 82.4765 119.438 82.5289 119.475 82.5505Z" fill="#83869B"/>
<path d="M117.806 81.5768L118.829 82.1683C118.868 82.1899 118.916 82.1899 118.954 82.1668L119.915 81.5876C119.948 81.5676 119.948 81.5183 119.915 81.4998L118.877 80.9006C118.843 80.8822 118.802 80.8822 118.769 80.9022L117.808 81.4829C117.769 81.5029 117.769 81.5553 117.806 81.5768Z" fill="#83869B"/>
<path d="M116.138 80.6034L117.161 81.1949C117.199 81.2165 117.247 81.2165 117.286 81.1934L118.246 80.6142C118.28 80.5942 118.28 80.5449 118.246 80.5264L117.209 79.9272C117.175 79.9088 117.133 79.9088 117.101 79.9288L116.139 80.5095C116.101 80.5295 116.102 80.5819 116.138 80.6034Z" fill="#83869B"/>
<path d="M114.471 79.6301L115.494 80.2216C115.532 80.2431 115.58 80.2431 115.619 80.22L116.579 79.6408C116.613 79.6208 116.613 79.5715 116.579 79.553L115.542 78.9539C115.508 78.9354 115.466 78.9354 115.434 78.9554L114.472 79.5361C114.433 79.5561 114.433 79.6085 114.471 79.6301Z" fill="#83869B"/>
<path d="M112.802 78.6566L113.825 79.2481C113.864 79.2697 113.912 79.2697 113.95 79.2466L114.91 78.6674C114.944 78.6474 114.944 78.5981 114.91 78.5796L113.873 77.9805C113.839 77.962 113.798 77.962 113.765 77.982L112.804 78.5627C112.765 78.5827 112.765 78.6351 112.802 78.6566Z" fill="#83869B"/>
<path d="M111.135 77.6829L112.158 78.2744C112.197 78.2959 112.245 78.2959 112.283 78.2728L113.243 77.6937C113.277 77.6737 113.277 77.6244 113.243 77.6059L112.206 77.0067C112.172 76.9882 112.131 76.9882 112.098 77.0083L111.137 77.5889C111.098 77.609 111.098 77.6613 111.135 77.6829Z" fill="#83869B"/>
<path d="M109.466 76.7096L110.49 77.3011C110.528 77.3227 110.576 77.3227 110.615 77.2996L111.575 76.7204C111.609 76.7004 111.609 76.6511 111.575 76.6326L110.538 76.0335C110.504 76.015 110.462 76.015 110.43 76.035L109.468 76.6157C109.429 76.6357 109.429 76.6881 109.466 76.7096Z" fill="#83869B"/>
<path d="M107.798 75.736L108.821 76.3275C108.86 76.3491 108.908 76.3491 108.946 76.326L109.906 75.7468C109.94 75.7268 109.94 75.6775 109.906 75.659L108.869 75.0598C108.835 75.0413 108.793 75.0413 108.761 75.0614L107.799 75.6421C107.761 75.6621 107.762 75.7145 107.798 75.736Z" fill="#83869B"/>
<path d="M106.131 74.7627L107.154 75.3542C107.193 75.3758 107.241 75.3758 107.279 75.3527L108.239 74.7735C108.273 74.7535 108.273 74.7042 108.239 74.6857L107.202 74.0866C107.168 74.0681 107.126 74.0681 107.094 74.0881L106.132 74.6688C106.094 74.6888 106.094 74.7412 106.131 74.7627Z" fill="#83869B"/>
<path d="M104.462 73.789L105.486 74.3805C105.524 74.402 105.572 74.402 105.611 74.3789L106.571 73.7998C106.605 73.7798 106.605 73.7305 106.571 73.712L105.534 73.1128C105.5 73.0943 105.458 73.0943 105.426 73.1143L104.464 73.695C104.425 73.7151 104.425 73.7674 104.462 73.789Z" fill="#83869B"/>
<path d="M102.795 72.8156L103.819 73.4071C103.857 73.4287 103.905 73.4287 103.944 73.4055L104.904 72.8264C104.938 72.8064 104.938 72.7571 104.904 72.7386L103.867 72.1394C103.833 72.1209 103.791 72.1209 103.759 72.1409L102.797 72.7217C102.758 72.7417 102.758 72.794 102.795 72.8156Z" fill="#83869B"/>
<path d="M101.127 71.8422L102.15 72.4337C102.189 72.4553 102.237 72.4553 102.275 72.4322L103.235 71.853C103.269 71.833 103.269 71.7837 103.235 71.7652L102.198 71.166C102.164 71.1475 102.122 71.1475 102.09 71.1676L101.128 71.7483C101.09 71.7683 101.09 71.8206 101.127 71.8422Z" fill="#83869B"/>
<path d="M120.896 85.648L121.92 86.2395C121.958 86.2611 122.006 86.2611 122.045 86.238L123.005 85.6588C123.039 85.6388 123.039 85.5895 123.005 85.571L121.967 84.9718C121.933 84.9533 121.892 84.9533 121.859 84.9733L120.898 85.554C120.859 85.5741 120.859 85.6264 120.896 85.648Z" fill="#83869B"/>
<path d="M119.228 84.6745L120.251 85.266C120.29 85.2875 120.337 85.2875 120.376 85.2644L121.336 84.6853C121.37 84.6652 121.37 84.616 121.336 84.5975L120.299 83.9983C120.265 83.9798 120.223 83.9798 120.191 83.9998L119.229 84.5805C119.191 84.6006 119.191 84.6529 119.228 84.6745Z" fill="#83869B"/>
<path d="M117.559 83.701L118.582 84.2925C118.621 84.314 118.669 84.314 118.708 84.2909L119.668 83.7118C119.702 83.6917 119.702 83.6424 119.668 83.624L118.63 83.0248C118.596 83.0063 118.555 83.0063 118.522 83.0263L117.561 83.607C117.522 83.627 117.524 83.6794 117.559 83.701Z" fill="#83869B"/>
<path d="M115.892 82.7275L116.915 83.3189C116.954 83.3405 117.002 83.3405 117.04 83.3174L118.001 82.7382C118.035 82.7182 118.035 82.6689 118.001 82.6505L116.963 82.0513C116.929 82.0328 116.888 82.0328 116.855 82.0528L115.894 82.6335C115.855 82.6535 115.855 82.7059 115.892 82.7275Z" fill="#83869B"/>
<path d="M114.224 81.7541L115.247 82.3455C115.285 82.3671 115.333 82.3671 115.372 82.344L116.332 81.7649C116.366 81.7448 116.366 81.6955 116.332 81.6771L115.295 81.0779C115.261 81.0594 115.219 81.0594 115.187 81.0794L114.225 81.6601C114.187 81.6801 114.187 81.7325 114.224 81.7541Z" fill="#83869B"/>
<path d="M112.557 80.7805L113.58 81.3719C113.618 81.3935 113.666 81.3935 113.705 81.3704L114.665 80.7912C114.699 80.7712 114.699 80.7219 114.665 80.7034L113.628 80.1043C113.594 80.0858 113.552 80.0858 113.52 80.1058L112.558 80.6865C112.52 80.7065 112.52 80.7589 112.557 80.7805Z" fill="#83869B"/>
<path d="M110.888 79.8069L111.911 80.3984C111.95 80.42 111.998 80.42 112.036 80.3969L112.996 79.8177C113.03 79.7977 113.03 79.7484 112.996 79.7299L111.959 79.1307C111.925 79.1123 111.884 79.1123 111.851 79.1323L110.89 79.713C110.851 79.733 110.851 79.7854 110.888 79.8069Z" fill="#83869B"/>
<path d="M109.219 78.8338L110.243 79.4253C110.281 79.4468 110.329 79.4468 110.368 79.4237L111.328 78.8446C111.362 78.8245 111.362 78.7753 111.328 78.7568L110.291 78.1576C110.257 78.1391 110.215 78.1391 110.183 78.1591L109.221 78.7398C109.182 78.7599 109.184 78.8122 109.219 78.8338Z" fill="#83869B"/>
<path d="M107.552 77.86L108.576 78.4515C108.614 78.4731 108.662 78.4731 108.701 78.45L109.661 77.8708C109.695 77.8508 109.695 77.8015 109.661 77.783L108.624 77.1838C108.59 77.1654 108.548 77.1654 108.516 77.1854L107.554 77.7661C107.515 77.7861 107.515 77.8385 107.552 77.86Z" fill="#83869B"/>
<path d="M105.884 76.8865L106.907 77.478C106.946 77.4996 106.994 77.4996 107.032 77.4765L107.992 76.8973C108.026 76.8773 108.026 76.828 107.992 76.8095L106.955 76.2103C106.921 76.1919 106.879 76.1918 106.847 76.2119L105.885 76.7926C105.847 76.8126 105.847 76.865 105.884 76.8865Z" fill="#83869B"/>
<path d="M104.217 75.913L105.24 76.5045C105.279 76.5261 105.327 76.5261 105.365 76.503L106.325 75.9238C106.359 75.9038 106.359 75.8545 106.325 75.836L105.288 75.2368C105.254 75.2183 105.212 75.2183 105.18 75.2384L104.218 75.8191C104.18 75.8391 104.18 75.8914 104.217 75.913Z" fill="#83869B"/>
<path d="M102.548 74.9396L103.572 75.5311C103.61 75.5527 103.658 75.5527 103.697 75.5296L104.657 74.9504C104.691 74.9304 104.691 74.8811 104.657 74.8626L103.62 74.2634C103.586 74.2449 103.544 74.2449 103.512 74.265L102.55 74.8457C102.511 74.8657 102.511 74.9181 102.548 74.9396Z" fill="#83869B"/>
<path d="M100.88 73.9661L101.903 74.5576C101.942 74.5792 101.99 74.5792 102.028 74.5561L102.988 73.9769C103.022 73.9569 103.022 73.9076 102.988 73.8891L101.951 73.2899C101.917 73.2714 101.875 73.2714 101.843 73.2915L100.881 73.8722C100.843 73.8922 100.844 73.9446 100.88 73.9661Z" fill="#83869B"/>
<path d="M99.2128 72.993L100.236 73.5844C100.275 73.606 100.323 73.606 100.361 73.5829L101.321 73.0038C101.355 72.9837 101.355 72.9344 101.321 72.916L100.284 72.3168C100.25 72.2983 100.208 72.2983 100.176 72.3183L99.2144 72.899C99.1758 72.919 99.1758 72.9714 99.2128 72.993Z" fill="#83869B"/>
<path d="M118.981 86.7988L120.004 87.3902C120.043 87.4118 120.09 87.4118 120.129 87.3887L121.089 86.8095C121.123 86.7895 121.123 86.7402 121.089 86.7217L120.052 86.1226C120.018 86.1041 119.976 86.1041 119.944 86.1241L118.982 86.7048C118.944 86.7264 118.945 86.7772 118.981 86.7988Z" fill="#83869B"/>
<path d="M117.314 85.8252L118.337 86.4167C118.376 86.4383 118.423 86.4383 118.462 86.4152L119.422 85.836C119.456 85.816 119.456 85.7667 119.422 85.7482L118.385 85.1491C118.351 85.1306 118.309 85.1306 118.277 85.1506L117.315 85.7313C117.277 85.7529 117.277 85.8037 117.314 85.8252Z" fill="#83869B"/>
<path d="M115.645 84.8519L116.669 85.4433C116.707 85.4649 116.755 85.4649 116.794 85.4418L117.754 84.8626C117.788 84.8426 117.788 84.7933 117.754 84.7748L116.716 84.1757C116.682 84.1572 116.641 84.1572 116.608 84.1772L115.647 84.7579C115.608 84.7795 115.608 84.8303 115.645 84.8519Z" fill="#83869B"/>
<path d="M113.978 83.8782L115.002 84.4697C115.04 84.4913 115.088 84.4913 115.127 84.4682L116.087 83.889C116.121 83.869 116.121 83.8197 116.087 83.8012L115.049 83.202C115.015 83.1835 114.974 83.1835 114.941 83.2036L113.98 83.7843C113.941 83.8058 113.941 83.8567 113.978 83.8782Z" fill="#83869B"/>
<path d="M106.208 79.3143L113.333 83.4962C113.372 83.5178 113.419 83.5178 113.458 83.4946L114.418 82.9155C114.452 82.8955 114.452 82.8462 114.418 82.8277L107.279 78.6381C107.245 78.6196 107.204 78.6196 107.171 78.6396L106.21 79.2203C106.171 79.2419 106.173 79.2942 106.208 79.3143Z" fill="#83869B"/>
<path d="M110.641 81.9313L111.664 82.5228C111.703 82.5444 111.751 82.5444 111.789 82.5213L112.75 81.9421C112.783 81.9221 112.783 81.8728 112.75 81.8543L111.712 81.2551C111.678 81.2367 111.637 81.2366 111.604 81.2567L110.643 81.8374C110.604 81.8589 110.606 81.9098 110.641 81.9313Z" fill="#83869B"/>
<path d="M108.974 80.9581L109.997 81.5496C110.036 81.5711 110.084 81.5711 110.122 81.548L111.083 80.9688C111.116 80.9488 111.116 80.8995 111.083 80.881L110.045 80.2819C110.011 80.2634 109.97 80.2634 109.937 80.2834L108.976 80.8641C108.937 80.8841 108.937 80.9365 108.974 80.9581Z" fill="#83869B"/>
<path d="M107.306 79.9842L108.329 80.5757C108.367 80.5972 108.415 80.5972 108.454 80.5741L109.414 79.995C109.448 79.9749 109.448 79.9257 109.414 79.9072L108.377 79.308C108.343 79.2895 108.301 79.2895 108.269 79.3095L107.307 79.8902C107.269 79.9102 107.269 79.9626 107.306 79.9842Z" fill="#83869B"/>
<path d="M105.639 79.0109L106.662 79.6024C106.7 79.624 106.748 79.624 106.787 79.6009L107.747 79.0217C107.781 79.0017 107.781 78.9524 107.747 78.9339L106.71 78.3347C106.676 78.3162 106.634 78.3162 106.602 78.3363L105.64 78.917C105.602 78.937 105.602 78.9894 105.639 79.0109Z" fill="#83869B"/>
<path d="M103.97 78.0374L104.993 78.6289C105.032 78.6504 105.08 78.6504 105.118 78.6273L106.078 78.0482C106.112 78.0282 106.112 77.9789 106.078 77.9604L105.041 77.3612C105.007 77.3427 104.966 77.3427 104.933 77.3628L103.972 77.9434C103.933 77.9635 103.933 78.0158 103.97 78.0374Z" fill="#83869B"/>
<path d="M102.301 77.0639L103.325 77.6554C103.363 77.6769 103.411 77.6769 103.45 77.6538L104.41 77.0747C104.444 77.0547 104.444 77.0054 104.41 76.9869L103.373 76.3877C103.339 76.3692 103.297 76.3692 103.265 76.3892L102.303 76.9699C102.264 76.99 102.266 77.0423 102.301 77.0639Z" fill="#83869B"/>
<path d="M100.634 76.0905L101.658 76.682C101.696 76.7036 101.744 76.7036 101.783 76.6805L102.743 76.1013C102.777 76.0813 102.777 76.032 102.743 76.0135L101.706 75.4143C101.672 75.3958 101.63 75.3958 101.598 75.4159L100.636 75.9966C100.597 76.0166 100.597 76.0689 100.634 76.0905Z" fill="#83869B"/>
<path d="M98.9659 75.1171L99.9892 75.7086C100.028 75.7302 100.076 75.7302 100.114 75.7071L101.074 75.1279C101.108 75.1079 101.108 75.0586 101.074 75.0401L100.037 74.4409C100.003 74.4224 99.9615 74.4224 99.929 74.4425L98.9674 75.0232C98.9288 75.0432 98.9288 75.0956 98.9659 75.1171Z" fill="#83869B"/>
<path d="M97.2973 74.1435L98.3207 74.735C98.3593 74.7565 98.4071 74.7565 98.4457 74.7334L99.4058 74.1543C99.4397 74.1342 99.4397 74.085 99.4058 74.0665L98.3685 73.4673C98.3346 73.4488 98.2929 73.4488 98.2605 73.4688L97.2989 74.0495C97.2603 74.0696 97.2618 74.1219 97.2973 74.1435Z" fill="#83869B"/>
<path d="M100.36 62.9146L120.018 74.6764V46.7536L115.426 38.0154L100.36 29V62.9146Z" fill="#D2D5D8"/>
<path d="M98.8594 63.6062L118.518 75.368V47.4453L113.926 38.7071L98.8594 29.6917V63.6062Z" fill="url(#paint2_linear_1891_8757)"/>
<path d="M99.7484 63.1024V31.2581L113.254 39.3385L117.629 47.6639V73.8014L99.7484 63.1024Z" fill="url(#paint3_linear_1891_8757)"/>
<path d="M100.36 29L98.8594 29.6916L113.926 38.707L115.426 38.0154L100.36 29Z" fill="url(#paint4_linear_1891_8757)"/>
<path d="M120.018 46.7535L118.518 47.4451V75.3679L120.018 74.6763V46.7535Z" fill="#BBBDBF"/>
<path d="M110.021 44.9683L101.454 40.1395C101.224 40.0101 101.036 39.7159 101.036 39.4864C101.036 39.2569 101.224 39.1752 101.454 39.3046L110.021 44.1335C110.251 44.2629 110.439 44.5571 110.439 44.7866C110.439 45.0161 110.251 45.0977 110.021 44.9683Z" fill="#FEA608"/>
<path d="M115.347 50.0176L101.456 42.1481C101.226 42.0188 101.037 41.7245 101.037 41.495C101.037 41.2655 101.226 41.1839 101.456 41.3133L115.347 49.1827C115.577 49.3121 115.766 49.6063 115.766 49.8358C115.764 50.0653 115.577 50.147 115.347 50.0176Z" fill="#BCBDC1"/>
<path d="M115.347 52.0245L101.456 44.1551C101.226 44.0257 101.037 43.7315 101.037 43.502C101.037 43.2725 101.226 43.1909 101.456 43.3202L115.347 51.1897C115.577 51.3191 115.766 51.6133 115.766 51.8428C115.764 52.0723 115.577 52.1555 115.347 52.0245Z" fill="#BCBDC1"/>
<path d="M110.021 60.7088L101.454 55.8799C101.224 55.7506 101.036 55.4564 101.036 55.2269C101.036 54.9973 101.224 54.9157 101.454 55.0451L110.021 59.874C110.251 60.0034 110.439 60.2976 110.439 60.5271C110.439 60.7581 110.251 60.8397 110.021 60.7088Z" fill="#FEA608"/>
<path d="M115.347 65.7579L101.456 57.8885C101.226 57.7591 101.037 57.4649 101.037 57.2354C101.037 57.0059 101.226 56.9243 101.456 57.0536L115.347 64.9231C115.577 65.0525 115.766 65.3467 115.766 65.5762C115.764 65.8072 115.577 65.8889 115.347 65.7579Z" fill="#BCBDC1"/>
<path d="M115.347 67.7666L101.456 59.8972C101.226 59.7678 101.037 59.4736 101.037 59.2441C101.037 59.0146 101.226 58.9329 101.456 59.0623L115.347 66.9317C115.577 67.0611 115.766 67.3553 115.766 67.5848C115.764 67.8144 115.577 67.896 115.347 67.7666Z" fill="#BCBDC1"/>
<path d="M104.958 49.5493V51.6796L107.008 52.8317V53.5664L104.958 52.4143V54.563L104.183 54.1271V51.9784L102.135 50.8262V50.0915L104.183 51.2437V49.1134L104.958 49.5493Z" fill="#BCBDC1"/>
<path d="M112.061 55.0558C112.061 55.9091 111.561 56.0262 111.005 55.6766C110.437 55.3192 109.974 54.5937 109.968 53.8097C109.968 53.0426 110.411 52.8162 111.036 53.209C111.681 53.6141 112.061 54.3272 112.061 55.0558ZM110.556 54.1547C110.55 54.6184 110.718 55.0666 111.025 55.2591C111.331 55.4517 111.481 55.2206 111.481 54.7293C111.481 54.281 111.356 53.8405 111.025 53.6326C110.712 53.4369 110.556 53.7003 110.556 54.1547ZM111.019 57.3878L113.375 54.6769L113.811 54.9511L111.456 57.662L111.019 57.3878ZM114.859 58.4969C114.859 59.344 114.366 59.4719 113.804 59.1176C113.242 58.7649 112.773 58.0348 112.773 57.2492C112.773 56.4883 113.216 56.2557 113.835 56.6439C114.48 57.0474 114.859 57.7668 114.859 58.4969ZM113.355 57.5942C113.348 58.0517 113.517 58.5061 113.822 58.6987C114.134 58.8943 114.278 58.6601 114.278 58.1688C114.278 57.7144 114.153 57.28 113.822 57.0721C113.51 56.8765 113.355 57.1399 113.355 57.5942Z" fill="#FEA608"/>
<path d="M113.287 39.243V46.0204L117.879 47.9828L113.287 39.243Z" fill="url(#paint5_linear_1891_8757)"/>
<path d="M142.135 88.3528C141.805 88.3528 141.476 88.2635 141.187 88.0956L123.273 77.5938C122.52 77.1563 122.051 76.3415 122.051 75.4681V44.6681C122.051 43.7562 122.795 43.0138 123.709 43.0138C123.999 43.0138 124.287 43.0923 124.54 43.2402L142.683 53.8761C143.509 54.3566 144.023 55.25 144.023 56.2066V86.469C144.024 87.5072 143.177 88.3528 142.135 88.3528Z" fill="#3A9386"/>
<path d="M141.505 88.6255C141.175 88.6255 140.846 88.5361 140.558 88.3683L122.643 77.8664C121.89 77.429 121.421 76.6141 121.421 75.7408V44.9423C121.421 44.0304 122.165 43.288 123.079 43.288C123.369 43.288 123.658 43.3665 123.911 43.5144L142.053 54.1502C142.879 54.6308 143.393 55.5242 143.393 56.4807V86.7432C143.395 87.7814 142.547 88.6255 141.505 88.6255Z" fill="url(#paint6_linear_1891_8757)"/>
<path d="M142.093 87.5612C141.791 87.78 141.368 87.8292 140.997 87.6136L123.086 77.1133C122.597 76.8284 122.298 76.3062 122.298 75.7424V44.9408C122.298 44.5188 122.619 44.2107 122.988 44.1676C122.818 44.3062 122.704 44.5173 122.704 44.7683L122.702 75.5668C122.702 76.1321 123.003 76.6543 123.492 76.9377L141.403 87.438C141.627 87.5689 141.871 87.6028 142.093 87.5612Z" fill="#3A9386"/>
<path d="M142.518 56.4792V86.7417C142.518 87.0929 142.347 87.384 142.093 87.5596C141.871 87.6012 141.627 87.5689 141.405 87.4395L123.494 76.9392C123.005 76.6558 122.704 76.1321 122.704 75.5683L122.705 44.7698C122.705 44.5203 122.819 44.3077 122.989 44.1691C123.147 44.1506 123.315 44.1799 123.471 44.2707L141.61 54.905C142.171 55.2301 142.518 55.8308 142.518 56.4792Z" fill="url(#paint7_linear_1891_8757)"/>
<path d="M137.327 60.5796L127.489 54.7557C127.254 54.617 127.061 54.3105 127.061 54.0748C127.061 53.8407 127.254 53.7622 127.489 53.9008L137.327 59.7247C137.562 59.8633 137.755 60.1699 137.755 60.4055C137.755 60.6412 137.562 60.7197 137.327 60.5796Z" fill="#CCC9C8"/>
<path d="M137.327 56.53L127.489 50.7061C127.254 50.5675 127.061 50.261 127.061 50.0253C127.061 49.7912 127.254 49.7126 127.489 49.8512L137.327 55.6751C137.562 55.8138 137.755 56.1203 137.755 56.356C137.755 56.5916 137.562 56.6686 137.327 56.53Z" fill="url(#paint8_linear_1891_8757)"/>
<path d="M138.958 63.7772L125.856 56.0202C125.621 55.8816 125.428 55.575 125.428 55.3394C125.428 55.1052 125.621 55.0267 125.856 55.1653L138.958 62.9223C139.193 63.061 139.386 63.3675 139.386 63.6031C139.388 63.8373 139.195 63.9158 138.958 63.7772Z" fill="#CCC9C8"/>
<path d="M138.958 66.0077L125.856 58.2507C125.621 58.112 125.428 57.8055 125.428 57.5698C125.428 57.3357 125.621 57.2572 125.856 57.3958L138.958 65.1528C139.193 65.2914 139.386 65.5979 139.386 65.8336C139.388 66.0693 139.195 66.1463 138.958 66.0077Z" fill="#CCC9C8"/>
<path d="M138.958 68.238L125.856 60.481C125.621 60.3424 125.428 60.0359 125.428 59.8002C125.428 59.5661 125.621 59.4875 125.856 59.6261L138.958 67.3831C139.193 67.5218 139.386 67.8283 139.386 68.064C139.388 68.2996 139.195 68.3766 138.958 68.238Z" fill="#CCC9C8"/>
<path d="M137.327 71.2665L127.489 65.4426C127.254 65.3039 127.061 64.9974 127.061 64.7617C127.061 64.5276 127.254 64.4491 127.489 64.5877L137.327 70.4116C137.562 70.5502 137.755 70.8568 137.755 71.0924C137.755 71.3281 137.562 71.4066 137.327 71.2665Z" fill="#CCC9C8"/>
<path d="M138.958 74.4641L125.856 66.7071C125.621 66.5685 125.428 66.2619 125.428 66.0263C125.428 65.7921 125.621 65.7136 125.856 65.8522L138.958 73.6092C139.193 73.7479 139.386 74.0544 139.386 74.29C139.386 74.5242 139.195 74.6027 138.958 74.4641Z" fill="#CCC9C8"/>
<path d="M138.958 76.6943L125.856 68.9373C125.621 68.7987 125.428 68.4922 125.428 68.2565C125.428 68.0224 125.621 67.9438 125.856 68.0824L138.958 75.8394C139.193 75.9781 139.386 76.2846 139.386 76.5203C139.386 76.7544 139.195 76.8329 138.958 76.6943Z" fill="#CCC9C8"/>
<path d="M138.958 78.9247L125.856 71.1676C125.621 71.029 125.428 70.7225 125.428 70.4868C125.428 70.2527 125.621 70.1742 125.856 70.3128L138.958 78.0698C139.193 78.2084 139.386 78.5149 139.386 78.7506C139.386 78.9863 139.195 79.0633 138.958 78.9247Z" fill="#CCC9C8"/>
<path d="M115.844 70.0015L123.922 82.8908C123.922 82.8908 124.184 84.351 122.16 85.7419C120.137 87.1328 118.451 86.3626 118.451 86.3626L109.343 72.8187L115.844 70.0015Z" fill="url(#paint9_linear_1891_8757)"/>
<path d="M109.556 73.3639C110.17 74.3897 112.047 74.399 113.747 73.3839C115.446 72.3689 116.324 70.7146 115.71 69.6887C115.096 68.6629 113.219 68.6536 111.519 69.6687C109.82 70.6838 108.94 72.338 109.556 73.3639Z" fill="#525575"/>
<path d="M109.65 63.5092L114.117 70.5946C114.117 70.5946 114.256 71.3632 113.189 72.0964C112.124 72.8296 111.235 72.4229 111.235 72.4229L106.225 64.994L109.65 63.5092Z" fill="url(#paint10_linear_1891_8757)"/>
<path d="M89.9764 47.5993C89.9579 53.9716 94.4495 61.7363 100.008 64.9386C103.275 66.8209 106.183 66.7069 108.029 64.9972C108.21 64.8708 108.383 64.7307 108.548 64.5782C108.729 64.4519 108.902 64.3117 109.067 64.1592C110.67 63.0363 111.649 60.8969 111.658 57.9379C111.677 51.5626 107.185 43.8009 101.628 40.5986C98.3593 38.7148 95.4497 38.8288 93.6037 40.5386C93.4231 40.6649 93.2502 40.805 93.0851 40.9575C92.9045 41.0838 92.7316 41.224 92.5664 41.3765C90.9643 42.4994 89.9841 44.6389 89.9764 47.5993ZM107.568 63.0841C105.984 63.8373 103.877 63.6417 101.565 62.3093C96.6676 59.4875 92.7115 52.6469 92.727 47.0325C92.7331 45.0732 93.2224 43.5221 94.0636 42.4532C95.6473 41.7 97.7557 41.8956 100.068 43.2295C104.964 46.0498 108.92 52.8888 108.905 58.5048C108.9 60.464 108.411 62.0151 107.568 63.0841Z" fill="#525575"/>
<path d="M89.9764 47.5994C89.9579 53.9716 94.448 61.7363 100.008 64.9386C105.564 68.1394 110.085 65.5671 110.104 59.1948C110.112 56.3052 109.193 53.1306 107.667 50.2241C107.654 50.1979 107.64 50.1732 107.627 50.147C106.923 48.8178 106.092 47.5455 105.166 46.3841C103.675 44.511 101.933 42.9276 100.073 41.8555C94.5144 38.6532 89.9934 41.224 89.9764 47.5994ZM91.1742 48.2894C91.1804 45.5785 92.1126 43.6485 93.6268 42.695C95.2475 41.6723 97.535 41.7708 100.069 43.231C104.966 46.0514 108.922 52.8903 108.906 58.5063C108.9 60.7151 108.279 62.4064 107.23 63.4723C105.614 65.1158 102.981 65.276 100.012 63.5662C95.1132 60.7428 91.1587 53.9023 91.1742 48.2894Z" fill="#C2C4C6"/>
<path opacity="0.61" d="M91.9505 47.6624C91.9351 53.2752 95.8912 60.1158 100.789 62.9376C103.32 64.3963 105.608 64.4949 107.228 63.4721C108.278 62.4062 108.898 60.715 108.905 58.5061C108.92 52.8902 104.964 46.0512 100.068 43.2309C97.5335 41.7707 95.246 41.6721 93.6253 42.6949C92.5772 43.7607 91.9567 45.452 91.9505 47.6624Z" fill="white"/>
<path d="M103.027 64.1546L99.6003 53.4248L88.8774 62.622L85.1776 51.6534" stroke="#525575" stroke-width="3" stroke-miterlimit="10"/>
<path d="M86.4804 50.8479C86.4727 50.8356 86.4649 50.8233 86.4588 50.8094C86.1532 50.2965 85.7148 49.8267 85.227 49.5356C84.6683 49.2013 84.1744 49.1782 83.8687 49.4154L83.4504 49.6988L83.6496 49.6942C83.5847 49.8344 83.5492 50.0054 83.5492 50.2056C83.5492 50.6523 83.7252 51.1637 84.0107 51.635C84.057 51.7105 84.1049 51.7844 84.1558 51.8583C84.3364 52.1171 84.551 52.3589 84.7856 52.5623C84.8905 52.6531 85.0001 52.7379 85.1128 52.8118C85.1375 52.8287 85.1637 52.8441 85.1884 52.8611C85.2008 52.8688 85.2131 52.8765 85.2255 52.8842C85.2378 52.8919 85.2517 52.8996 85.2641 52.9073C85.2888 52.9212 85.315 52.935 85.3397 52.9489C85.5851 53.0798 85.8167 53.1491 86.0219 53.1599C86.0513 53.1614 86.0806 53.1615 86.1084 53.1615C86.1732 53.1599 86.1084 53.3001 86.167 53.2862C86.218 53.2754 86.4526 53.1322 86.4989 53.1122C86.7844 52.9843 86.9033 52.6608 86.9033 52.2142C86.9048 51.7875 86.7443 51.3023 86.4804 50.8479Z" fill="#C2C4C6"/>
<path d="M86.0528 51.0837C85.7472 50.5707 85.3088 50.1009 84.8211 49.8098C83.8949 49.2553 83.1432 49.5557 83.1432 50.4799C83.1432 50.9266 83.3192 51.4379 83.6048 51.9093C83.6511 51.9847 83.6989 52.0587 83.7499 52.1326C83.9304 52.3914 84.145 52.6332 84.3796 52.8365C84.4846 52.9274 84.5942 53.0121 84.7068 53.0861C84.7315 53.103 84.7578 53.1184 84.7825 53.1354C84.7948 53.1431 84.8072 53.1508 84.8211 53.1585C84.8334 53.1662 84.8473 53.1739 84.8596 53.1816C84.8843 53.1954 84.9106 53.2093 84.9353 53.2232C85.2162 53.3726 85.4771 53.4419 85.704 53.4357C85.7688 53.4342 85.8321 53.4265 85.8923 53.4126C85.9432 53.4018 85.9926 53.3849 86.0374 53.3633C86.3229 53.2355 86.4989 52.9336 86.4989 52.4869C86.4989 52.0494 86.3306 51.5488 86.0528 51.0837Z" fill="#E2E2E2"/>
<path d="M104.481 64.2117C104.473 64.1994 104.465 64.187 104.459 64.1732C104.154 63.6602 103.715 63.1904 103.228 62.8993C102.669 62.5651 102.175 62.542 101.869 62.7792L101.451 63.0626L101.65 63.058C101.585 63.1982 101.55 63.3691 101.55 63.5694C101.55 64.0161 101.726 64.5274 102.011 64.9988C102.058 65.0742 102.105 65.1482 102.156 65.2221C102.337 65.4809 102.551 65.7227 102.786 65.926C102.891 66.0169 103.001 66.1016 103.113 66.1756C103.138 66.1925 103.164 66.2079 103.189 66.2249C103.201 66.2326 103.214 66.2403 103.228 66.248C103.24 66.2557 103.254 66.2634 103.266 66.2711C103.291 66.2849 103.317 66.2988 103.342 66.3127C103.587 66.4436 103.817 66.5129 104.024 66.5237C104.053 66.5252 104.083 66.5268 104.11 66.5252C104.175 66.5237 104.11 66.6639 104.169 66.65C104.22 66.6392 104.455 66.496 104.501 66.4759C104.786 66.3481 104.905 66.0246 104.905 65.5779C104.907 65.1513 104.746 64.6661 104.481 64.2117Z" fill="#1FA099"/>
<path d="M104.055 64.4471C103.749 63.9341 103.311 63.4644 102.823 63.1732C101.897 62.6187 101.145 62.9191 101.145 63.8433C101.145 64.29 101.321 64.8013 101.607 65.2727C101.653 65.3482 101.701 65.4221 101.752 65.496C101.933 65.7548 102.147 65.9966 102.382 66.1999C102.487 66.2908 102.596 66.3755 102.709 66.4495C102.734 66.4664 102.76 66.4818 102.785 66.4988C102.797 66.5065 102.809 66.5142 102.823 66.5219C102.835 66.5296 102.849 66.5373 102.862 66.545C102.886 66.5588 102.913 66.5727 102.937 66.5866C103.218 66.736 103.479 66.8053 103.706 66.7991C103.771 66.7976 103.834 66.7899 103.894 66.776C103.945 66.7652 103.995 66.7483 104.039 66.7267C104.325 66.5989 104.501 66.297 104.501 65.8503C104.501 65.4113 104.333 64.9107 104.055 64.4471Z" fill="#40C6C2"/>
<path d="M91.452 61.9612C91.4412 61.9412 91.4289 61.9212 91.4181 61.9027C90.9427 61.1048 90.262 60.3762 89.5056 59.9249C88.6382 59.4058 87.8695 59.3704 87.3972 59.737L86.7474 60.1775L87.0561 60.1714C86.9558 60.3886 86.9002 60.6535 86.9002 60.9662C86.9002 61.6608 87.1718 62.4541 87.6179 63.1858C87.6889 63.3028 87.7646 63.4183 87.8433 63.5323C88.1242 63.9343 88.4576 64.3086 88.8219 64.6244C88.9855 64.7661 89.1537 64.897 89.3297 65.0126C89.3698 65.0387 89.4084 65.0634 89.447 65.088C89.4671 65.1004 89.4871 65.1127 89.5056 65.1235C89.5257 65.1342 89.5458 65.1466 89.5658 65.1589C89.606 65.1805 89.6446 65.202 89.6831 65.2236C90.0644 65.4254 90.4225 65.5347 90.742 65.5517C90.7883 65.5547 90.8331 65.5547 90.8763 65.5547C90.9782 65.5532 90.8763 65.7704 90.9689 65.7488C91.0492 65.7303 91.4119 65.5101 91.4844 65.4777C91.929 65.2775 92.1127 64.7769 92.1127 64.0822C92.1127 63.4214 91.8626 62.6667 91.452 61.9612Z" fill="#1FA099"/>
<path d="M90.7899 62.326C90.3145 61.5282 89.6338 60.7996 88.8774 60.3483C87.4389 59.4872 86.272 59.954 86.272 61.3895C86.272 62.0842 86.5436 62.8775 86.9897 63.6091C87.0607 63.7262 87.1363 63.8417 87.2151 63.9557C87.496 64.3577 87.8294 64.732 88.1937 65.0478C88.3573 65.1895 88.5255 65.3204 88.7015 65.4359C88.7416 65.4621 88.7802 65.4868 88.8188 65.5114C88.8388 65.5237 88.8589 65.536 88.8774 65.5468C88.8975 65.5576 88.9176 65.5699 88.9376 65.5823C88.9778 65.6038 89.0164 65.6254 89.0549 65.647C89.4902 65.878 89.8977 65.9858 90.2481 65.9781C90.35 65.9766 90.4472 65.9643 90.5398 65.9427C90.6201 65.9242 90.6942 65.8996 90.7667 65.8672C91.2112 65.667 91.4844 65.2003 91.4844 64.5056C91.4829 63.8263 91.2205 63.0484 90.7899 62.326Z" fill="#40C6C2"/>
<path d="M101.851 52.4638C101.838 52.4438 101.826 52.4222 101.814 52.4022C101.307 51.555 100.585 50.7802 99.7809 50.2997C98.8594 49.7482 98.0429 49.7097 97.5381 50.101L96.8482 50.5692L97.1769 50.5615C97.0704 50.7926 97.0102 51.0744 97.0102 51.4056C97.0102 52.1434 97.3004 52.9875 97.7727 53.7654C97.8484 53.8901 97.9286 54.0133 98.012 54.1335C98.3114 54.5617 98.6649 54.9591 99.0523 55.2949C99.2267 55.4458 99.4058 55.5845 99.591 55.7077C99.6327 55.7354 99.6744 55.7616 99.716 55.7878C99.7361 55.8001 99.7577 55.814 99.7778 55.8263C99.7994 55.8386 99.821 55.8509 99.8411 55.8633C99.8827 55.8864 99.9244 55.9095 99.9661 55.9326C100.372 56.1482 100.752 56.2622 101.091 56.2822C101.141 56.2853 101.189 56.2853 101.235 56.2853C101.343 56.2838 101.235 56.5148 101.332 56.4917C101.417 56.4732 101.803 56.2376 101.88 56.2037C102.352 55.9911 102.548 55.4582 102.548 54.7203C102.551 54.0164 102.288 53.2139 101.851 52.4638Z" fill="#C2C4C6"/>
<path d="M101.145 52.8535C100.639 52.0064 99.9167 51.2316 99.1125 50.751C97.5829 49.8361 96.3434 50.332 96.3434 51.8585C96.3434 52.5963 96.6336 53.4404 97.1059 54.2182C97.1816 54.343 97.2618 54.4662 97.3452 54.5864C97.6446 55.0146 97.9981 55.412 98.3855 55.7478C98.5599 55.8987 98.739 56.0374 98.9242 56.1606C98.9659 56.1883 99.0076 56.2145 99.0492 56.2407C99.0693 56.253 99.0909 56.2669 99.111 56.2792C99.1326 56.2915 99.1542 56.3038 99.1743 56.3162C99.2159 56.3393 99.2576 56.3624 99.2993 56.3855C99.7623 56.6319 100.195 56.7459 100.568 56.7382C100.676 56.7367 100.78 56.7243 100.878 56.7012C100.963 56.6827 101.043 56.655 101.119 56.6211C101.591 56.4086 101.882 55.9126 101.882 55.1748C101.883 54.4478 101.604 53.6206 101.145 52.8535Z" fill="#E2E2E2"/>
<defs>
<filter id="filter0_d_1891_8757" x="0.997147" y="0" width="190.006" height="162" filterUnits="userSpaceOnUse" color-interpolation-filters="sRGB">
<feFlood flood-opacity="0" result="BackgroundImageFix"/>
<feColorMatrix in="SourceAlpha" type="matrix" values="0 0 0 0 0 0 0 0 0 0 0 0 0 0 0 0 0 0 127 0" result="hardAlpha"/>
<feOffset dy="4"/>
<feGaussianBlur stdDeviation="3"/>
<feColorMatrix type="matrix" values="0 0 0 0 0.473611 0 0 0 0 0.516667 0 0 0 0 0.645833 0 0 0 0.45 0"/>
<feBlend mode="normal" in2="BackgroundImageFix" result="effect1_dropShadow_1891_8757"/>
<feBlend mode="normal" in="SourceGraphic" in2="effect1_dropShadow_1891_8757" result="shape"/>
</filter>
<linearGradient id="paint0_linear_1891_8757" x1="120.404" y1="75.0984" x2="73.4106" y2="111.449" gradientUnits="userSpaceOnUse">
<stop stop-color="#2B2E3D"/>
<stop offset="1" stop-color="#525575"/>
</linearGradient>
<linearGradient id="paint1_linear_1891_8757" x1="81.0689" y1="81.186" x2="142.335" y2="81.186" gradientUnits="userSpaceOnUse">
<stop stop-color="#C2C4C6"/>
<stop offset="1" stop-color="#83869B"/>
</linearGradient>
<linearGradient id="paint2_linear_1891_8757" x1="104.58" y1="36.5326" x2="111.426" y2="68.3141" gradientUnits="userSpaceOnUse">
<stop stop-color="#57BDB2"/>
<stop offset="1" stop-color="#089299"/>
</linearGradient>
<linearGradient id="paint3_linear_1891_8757" x1="104.856" y1="37.6629" x2="111.219" y2="67.2048" gradientUnits="userSpaceOnUse">
<stop stop-color="#F9F9FB"/>
<stop offset="1" stop-color="#E5E8EF"/>
</linearGradient>
<linearGradient id="paint4_linear_1891_8757" x1="114.107" y1="36.633" x2="102.107" y2="31.8231" gradientUnits="userSpaceOnUse">
<stop stop-color="#F9F9FB"/>
<stop offset="1" stop-color="#E5E8EF"/>
</linearGradient>
<linearGradient id="paint5_linear_1891_8757" x1="115.767" y1="43.4963" x2="113.307" y2="45.0537" gradientUnits="userSpaceOnUse">
<stop stop-color="#57BDB2"/>
<stop offset="1" stop-color="#089299"/>
</linearGradient>
<linearGradient id="paint6_linear_1891_8757" x1="142.424" y1="52.9906" x2="131.276" y2="67.3971" gradientUnits="userSpaceOnUse">
<stop stop-color="#57BDB2"/>
<stop offset="1" stop-color="#6EE3CC"/>
</linearGradient>
<linearGradient id="paint7_linear_1891_8757" x1="141.285" y1="54.6319" x2="123.817" y2="77.207" gradientUnits="userSpaceOnUse">
<stop stop-color="white"/>
<stop offset="1" stop-color="#E9E9E9"/>
</linearGradient>
<linearGradient id="paint8_linear_1891_8757" x1="127.061" y1="53.1911" x2="137.755" y2="53.1911" gradientUnits="userSpaceOnUse">
<stop stop-color="#FFAC06"/>
<stop offset="0.9952" stop-color="#FA8A13"/>
</linearGradient>
<linearGradient id="paint9_linear_1891_8757" x1="109.342" y1="78.289" x2="123.932" y2="78.289" gradientUnits="userSpaceOnUse">
<stop stop-color="#C2C4C6"/>
<stop offset="1" stop-color="#83869B"/>
</linearGradient>
<linearGradient id="paint10_linear_1891_8757" x1="106.225" y1="68.0219" x2="114.122" y2="68.0219" gradientUnits="userSpaceOnUse">
<stop stop-color="#C2C4C6"/>
<stop offset="1" stop-color="#83869B"/>
</linearGradient>
</defs>
</svg>
