<svg width="1440" height="125" viewBox="0 0 1440 125" fill="none" xmlns="http://www.w3.org/2000/svg">
<g opacity="0.25">
<path fill-rule="evenodd" clip-rule="evenodd" d="M747.536 91.2185L737.814 89.1253C728.093 87.0321 710.27 82.8458 690.826 69.24C673.003 56.6809 653.56 34.7025 635.737 28.4229C616.293 22.1433 598.47 30.5161 579.027 22.1433C561.204 13.7706 548.682 0.16485 530.859 6.44442C511.416 12.724 486.671 38.8888 467.228 40.982C449.404 44.1218 429.961 26.3297 412.138 22.1433C392.695 17.957 374.872 26.3297 355.428 44.1218C337.605 60.8673 320.502 67.1469 300.339 67.1469C280.804 67.1469 278.972 27.5 243.629 50.4014C228.159 60.4257 195.009 75 188.539 50.4014C182.874 28.8637 170.182 15.5 141.743 27.5C121.001 36.2522 77.6427 53.5 43.3355 50.4014L4.50611e-05 44.1218V91.2185L86.4616 91.2185C94.563 91.2185 114.006 91.2185 131.829 91.2185C151.273 91.2185 169.096 91.2185 188.539 91.2185C206.362 91.2185 225.806 91.2185 243.629 91.2185C263.072 91.2185 280.895 91.2185 300.339 91.2185C318.162 91.2185 337.605 91.2185 355.428 91.2185C374.872 91.2185 392.695 91.2185 412.138 91.2185C429.961 91.2185 449.404 91.2185 467.228 91.2185C486.671 91.2185 504.494 91.2185 523.937 91.2185C541.76 91.2185 561.204 91.2185 579.027 91.2185C598.47 91.2185 616.293 91.2185 635.737 91.2185C653.56 91.2185 673.003 91.2185 690.826 91.2185C710.27 91.2185 728.093 91.2185 737.814 91.2185H747.536Z" fill="url(#paint0_linear_1935_3691)"/>
<path opacity="0.8" fill-rule="evenodd" clip-rule="evenodd" d="M1258.53 114.238L1240.96 111.806C1223.39 109.373 1191.17 104.508 1156.03 88.6954C1123.81 74.0994 1088.67 48.5564 1056.45 41.2584C1021.31 33.9604 989.091 43.691 953.947 33.9604C921.731 24.2297 886.586 -6.17867 854.37 1.11933C819.226 8.41734 787.01 53.4217 751.865 55.8544C719.649 59.5034 684.505 18.148 652.289 13.2827C617.144 8.41734 584.928 38.8257 549.784 59.5034C517.568 78.9647 482.423 88.6954 450.207 86.2627C415.063 83.8301 382.847 69.234 347.702 66.8014C315.486 64.3687 280.342 74.0994 248.126 66.8014C212.981 59.5034 180.765 33.9604 145.621 15.7153C83.4162 -17.7319 71.7745 42 46.4955 66.8014L1.35446 83.5V123.5L63.6164 114.238C78.26 114.238 113.405 114.238 145.621 114.238C180.765 114.238 212.981 114.238 248.126 114.238C280.342 114.238 315.486 114.238 347.702 114.238C382.847 114.238 415.063 114.238 450.207 114.238C482.423 114.238 517.568 114.238 549.784 114.238C584.928 114.238 617.144 114.238 652.289 114.238C684.505 114.238 719.649 114.238 751.865 114.238C787.01 114.238 819.226 114.238 854.37 114.238C886.586 114.238 921.731 114.238 953.947 114.238C989.091 114.238 1021.31 114.238 1056.45 114.238C1088.67 114.238 1123.81 114.238 1156.03 114.238C1191.17 114.238 1223.39 114.238 1240.96 114.238H1258.53Z" fill="url(#paint1_linear_1935_3691)"/>
<path opacity="0.8" fill-rule="evenodd" clip-rule="evenodd" d="M1440 72.3L1426.1 68.7345C1412.19 65.1689 1387.86 57.4437 1360.05 57.4437C1332.24 57.4437 1307.91 65.1689 1280.1 68.7345C1252.29 72.3 1227.96 72.3 1200.15 75.8655C1172.34 80.0253 1148.01 87.1563 1120.2 88.3448C1092.39 89.5333 1068.06 84.7793 1040.25 80.0253C1012.44 74.677 988.11 69.923 960.301 73.4885C932.492 77.054 908.16 89.5333 880.351 88.3448C852.542 87.1563 828.21 72.3 800.401 71.1115C772.593 69.923 748.26 82.4023 720.451 91.9103C692.643 102.013 668.31 109.144 640.502 105.578C612.693 102.013 588.36 87.1563 560.552 78.8368C532.743 69.923 508.41 67.546 480.602 67.546C452.793 67.546 428.461 69.923 400.652 74.677C372.843 80.0253 348.511 87.1563 320.702 87.1563C292.894 87.1563 268.561 80.0253 240.752 83.5908C212.944 87.1563 188.611 102.013 160.803 100.824C132.994 99.6356 108.661 82.4023 80.8527 82.4023C53.044 82.4023 28.7114 99.6356 14.8071 107.955L0.902844 116.869V124L14.8071 124C28.7114 124 53.044 124 80.8527 124C108.661 124 132.994 124 160.803 124C188.611 124 212.944 124 240.752 124C268.561 124 292.894 124 320.702 124C348.511 124 372.843 124 400.652 124C428.461 124 452.793 124 480.602 124C508.41 124 532.743 124 560.552 124C588.36 124 612.693 124 640.502 124C668.31 124 692.643 124 720.451 124C748.26 124 772.593 124 800.401 124C828.21 124 852.542 124 880.351 124C908.16 124 932.492 124 960.301 124C988.11 124 1012.44 124 1040.25 124C1068.06 124 1092.39 124 1120.2 124C1148.01 124 1172.34 124 1200.15 124C1227.96 124 1252.29 124 1280.1 124C1307.91 124 1332.24 124 1360.05 124C1387.86 124 1412.19 124 1426.1 124L1440 124V72.3Z" fill="url(#paint2_linear_1935_3691)"/>
</g>
<defs>
<linearGradient id="paint0_linear_1935_3691" x1="412.138" y1="-26.0001" x2="412.138" y2="91.2185" gradientUnits="userSpaceOnUse">
<stop stop-color="white"/>
<stop offset="1" stop-color="#B8E2C5"/>
</linearGradient>
<linearGradient id="paint1_linear_1935_3691" x1="652.288" y1="0" x2="652.288" y2="114.238" gradientUnits="userSpaceOnUse">
<stop stop-color="white"/>
<stop offset="1" stop-color="#F9D2D9"/>
</linearGradient>
<linearGradient id="paint2_linear_1935_3691" x1="720.451" y1="124" x2="720.451" y2="57.4437" gradientUnits="userSpaceOnUse">
<stop stop-color="#D9F2E1"/>
<stop offset="1" stop-color="white"/>
</linearGradient>
</defs>
</svg>
