<svg width="1154" height="1147" viewBox="0 0 1154 1147" fill="none" xmlns="http://www.w3.org/2000/svg">
<path opacity="0.6" d="M221.234 346.904C100.982 428.243 -14.0575 559.922 159.832 712.028C315.332 848.047 810.832 911.028 996.332 752.027C1157.44 590.431 1024.4 427.893 884.903 356.475C745.403 285.058 620.487 341.178 513.587 352.76C451.042 359.521 379.885 239.623 221.234 346.904Z" fill="#EAF6FC"/>
<path opacity="0.5" d="M850.341 779.739C890.981 779.739 923.927 771.653 923.927 761.678C923.927 751.703 890.981 743.616 850.341 743.616C809.7 743.616 776.755 751.703 776.755 761.678C776.755 771.653 809.7 779.739 850.341 779.739Z" fill="url(#paint0_radial_1988_3756)"/>
<path d="M844.19 687.224C843.558 695.916 831.053 723.745 821.273 731.303C821.255 731.323 821.255 731.323 821.255 731.343C819.36 732.795 817.574 733.491 816.004 733.153C808.967 731.661 805.574 694.504 805.249 673.578C805.123 665.502 805.466 659.853 806.224 659.614C812.63 657.745 844.947 676.88 844.19 687.224Z" fill="url(#paint1_linear_1988_3756)"/>
<path d="M844.189 690.068C844.189 690.068 835.545 695.24 822.048 687.781C811.492 681.953 804.454 662.976 806.241 659.615C808.027 656.253 849.079 676.582 844.189 690.068Z" fill="url(#paint2_linear_1988_3756)"/>
<path opacity="0.3" d="M844.188 687.224C843.556 695.917 831.051 723.745 821.271 731.303C828.615 721.994 828.868 702.998 824.194 694.305C820.675 687.721 810.174 677.915 805.265 673.559C805.139 665.483 805.482 659.833 806.24 659.595C812.628 657.745 844.946 676.88 844.188 687.224Z" fill="url(#paint3_linear_1988_3756)"/>
<path d="M816.942 608.016C816.942 608.016 779.824 631.229 771.09 630.295C762.357 629.36 766.236 607.479 766.236 607.479C767.391 605.967 768.69 604.416 770.08 602.804L770.098 602.785C784.046 586.553 807.865 565.866 821.543 556L821.561 555.98C827.317 551.823 831.287 549.595 831.955 550.43C837.043 556.676 816.942 608.016 816.942 608.016Z" fill="url(#paint4_linear_1988_3756)"/>
<path d="M766.254 607.499C766.254 607.499 771.108 603.003 777.117 609.05C783.126 615.097 776.937 629.598 771.108 630.314C765.28 631.03 761.779 616.888 766.254 607.499Z" fill="url(#paint5_linear_1988_3756)"/>
<path opacity="0.3" d="M816.942 608.016C816.942 608.016 779.824 631.229 771.09 630.295C762.357 629.36 766.236 607.479 766.236 607.479C767.391 605.967 768.69 604.416 770.08 602.804L770.098 602.785C770.098 602.785 779.174 608.692 795.883 605.868C812.611 603.043 821.543 556 821.543 556L821.561 555.98C827.317 551.823 831.287 549.595 831.955 550.43C837.043 556.676 816.942 608.016 816.942 608.016Z" fill="url(#paint6_linear_1988_3756)"/>
<path d="M791.119 404.148C791.119 404.148 778.596 418.729 777.206 445.662C775.817 472.595 804.111 433.687 804.111 433.687L791.119 404.148Z" fill="url(#paint7_linear_1988_3756)"/>
<path d="M782.998 433.667C782.998 433.667 788.682 400.488 798.011 393.447C807.358 386.405 824.175 392.77 824.175 392.77L782.998 433.667Z" fill="url(#paint8_linear_1988_3756)"/>
<path d="M927.248 511.284C906.027 548.043 800.99 553.891 782.945 535.511C775.763 528.191 771.162 518.564 768.888 507.683V507.644C759.198 461.097 792.003 391.915 846.444 385.152C883.327 380.577 914.165 414.213 927.031 450.097C935.097 472.555 936.144 495.868 927.248 511.284Z" fill="url(#paint9_linear_1988_3756)"/>
<path d="M906.659 528.947C893.721 535.213 874.179 541.141 861.042 543.07C836.646 546.651 818.71 546.213 808.352 543.329H808.334C801.513 541.419 797.994 538.495 798.031 534.935C798.049 532.767 802.614 530.201 809.958 527.555C831.576 519.857 877.246 511.761 902.437 512.239C904.602 512.278 906.623 512.378 908.464 512.557C908.861 512.597 909.24 512.636 909.6 512.696C909.673 512.696 909.727 512.696 909.817 512.716C914.22 513.233 917.414 514.208 918.966 515.74C919.363 516.117 919.651 516.535 919.832 516.973C921.185 520.354 915.429 524.731 906.659 528.947Z" fill="url(#paint10_linear_1988_3756)"/>
<path opacity="0.3" d="M927.249 511.284C906.028 548.043 800.991 553.891 782.946 535.512C775.764 528.192 771.163 518.564 768.889 507.683V507.644C768.889 507.644 777.659 521.588 799.096 521.309C820.515 521.031 881.614 508.559 892.874 496.524C904.116 484.51 893.668 438.64 893.668 438.64L927.05 450.098C935.098 472.555 936.145 495.868 927.249 511.284Z" fill="url(#paint11_linear_1988_3756)"/>
<path opacity="0.5" d="M906.66 528.948C895.526 525.447 863.244 516.933 839.371 526.66C810.103 538.555 808.334 543.329 808.334 543.329H808.316C801.496 541.419 797.977 538.495 798.013 534.935C798.031 532.767 802.596 530.201 809.94 527.555C831.558 519.857 877.229 511.761 902.419 512.239C905.072 512.378 907.454 512.517 909.583 512.696C909.655 512.696 909.709 512.696 909.799 512.716C914.202 513.233 917.396 514.208 918.948 515.74C919.345 516.118 919.634 516.535 919.814 516.973C921.186 520.354 915.429 524.731 906.66 528.948Z" fill="url(#paint12_linear_1988_3756)"/>
<path d="M908.464 512.577C903.43 519.499 876.435 528.828 860.664 531.155C832.406 535.273 814.65 532.906 809.958 527.575C833.417 519.221 885.295 510.369 908.464 512.577Z" fill="url(#paint13_linear_1988_3756)"/>
<path d="M768.888 509.852C775.024 523.398 865.247 515.362 885.15 487.195C905.071 459.029 873.493 379.483 827.01 393.984C782.711 407.808 757.773 485.306 768.888 509.852Z" fill="#DFE3FB"/>
<path d="M768.888 507.644C775.024 521.19 865.247 513.154 885.15 484.987C905.071 456.821 873.493 377.275 827.01 391.776C782.711 405.62 757.773 483.098 768.888 507.644Z" fill="url(#paint14_linear_1988_3756)"/>
<path d="M896.807 644.895C890.455 676.801 873.89 690.506 844.188 690.049C815.1 689.611 797.218 654.841 806.601 614.023C812.592 587.965 819.558 564.852 831.954 550.47C831.972 550.45 831.972 550.45 831.972 550.45L831.99 550.41C838.992 542.275 847.743 536.964 859.039 535.492C867.953 534.318 875.333 539.609 881.234 548.58C896.554 571.973 901.697 620.309 896.807 644.895Z" fill="url(#paint15_linear_1988_3756)"/>
<path d="M889.66 398.837C889.66 398.837 884.77 447.85 912.216 465.175C912.216 465.175 925.677 466.767 933.509 457.756C933.509 457.756 921.311 470.387 908.463 457.239C895.615 444.09 898.701 407.848 908.463 396.032C918.225 384.217 932.318 387.34 932.318 387.34L926.688 381.75C926.688 381.75 905.918 377.096 889.66 398.837Z" fill="url(#paint16_linear_1988_3756)"/>
<path opacity="0.3" d="M881.198 584.982C881.198 584.982 884.302 609.866 884.302 626.475C884.302 646.168 873.331 663.454 873.331 663.454L895.598 650.266C895.598 650.266 899.748 637.396 898.701 624.228C897.655 611.059 896.68 605.032 896.68 605.032L881.198 584.982Z" fill="url(#paint17_linear_1988_3756)"/>
<path d="M926.69 381.75C926.69 381.75 911.424 380.199 900.76 399.732C889.428 420.459 897.674 456.304 911.424 461.754C925.192 467.204 939.086 409.201 939.086 409.201L931.093 386.126C931.093 386.126 929.505 382.884 926.69 381.75Z" fill="url(#paint18_linear_1988_3756)"/>
<path d="M946.412 431.161C944.445 442.36 940.313 451.51 934.773 457.298L934.737 457.338L933.185 458.85H933.167C928.692 462.848 923.387 464.738 917.667 463.942C899.081 461.336 896.591 431.678 898.774 414.87C901.319 395.456 916.386 383.799 928.367 385.51C942.641 387.499 950.256 409.24 946.412 431.161Z" fill="url(#paint19_linear_1988_3756)"/>
<path d="M805.122 619.314C805.122 619.314 811.888 595.206 832.802 595.206C857.866 595.206 874.756 625.739 873.258 646.466C871.761 667.173 866.004 686.587 842.33 687.403C842.312 687.383 797.976 686.289 805.122 619.314Z" fill="url(#paint20_linear_1988_3756)"/>
<path d="M805.122 622C805.122 622 811.888 597.891 832.802 597.891C857.866 597.891 874.756 628.425 873.258 649.152C871.761 669.859 866.004 689.273 842.33 690.088C842.312 690.069 797.976 688.974 805.122 622Z" fill="url(#paint21_radial_1988_3756)"/>
<path d="M893.054 611.756C891.971 611.756 890.816 610.761 889.625 609.03C884.374 601.332 878.853 579.074 878.907 566.701C878.943 561.907 879.791 558.605 881.848 558.208C885.186 557.571 891.989 570.023 895.291 587.508C897.204 597.712 897.691 611.756 893.054 611.756Z" fill="url(#paint22_linear_1988_3756)"/>
<path d="M889.625 609.05C884.374 601.352 878.853 579.094 878.907 566.721C882.191 571.416 886.052 580.963 888.29 592.859C889.282 598.03 889.878 604.217 889.625 609.05Z" fill="#6340A2"/>
<path d="M942.657 657.745C939.265 669.759 926.489 671.012 922.754 668.108C919.488 665.582 910.502 653.946 901.894 632.622C901.876 632.602 901.876 632.582 901.858 632.582C900.595 629.459 899.35 626.098 898.105 622.537C888.505 594.768 881.287 543.647 891.212 545.636C891.212 545.636 891.23 545.636 891.248 545.656C920.065 551.445 946.031 645.73 942.657 657.745Z" fill="url(#paint23_linear_1988_3756)"/>
<path d="M895.959 742.323C893.992 743.378 891.267 742.283 888.146 739.757C884.753 736.992 880.91 732.517 877.084 727.325C877.066 727.305 877.048 727.285 877.048 727.285L877.012 727.246C866.366 712.784 855.972 692.734 856.496 688.238C858.318 672.703 877.481 659.197 888.868 653.249C893.307 650.922 896.573 649.748 897.132 650.047C899.171 651.121 906.1 736.893 895.959 742.323Z" fill="url(#paint24_linear_1988_3756)"/>
<path d="M916.477 660.649C916.477 660.649 916.639 649.589 925.517 645.691C934.395 641.812 942.948 654.861 942.948 654.861C942.948 654.861 943.038 667.293 931.002 667.492C918.985 667.691 916.477 660.649 916.477 660.649Z" fill="url(#paint25_linear_1988_3756)"/>
<path d="M775.62 621.304C775.62 621.304 768.294 634.034 760.408 640.26C752.523 646.466 737.022 649.152 737.022 649.152C737.022 649.152 726.033 643.562 726.033 635.228C726.033 635.228 737.87 628.604 742.382 618.121C742.382 618.121 757.756 612.074 764.45 614.043C771.109 616.013 775.62 621.304 775.62 621.304Z" fill="url(#paint26_linear_1988_3756)"/>
<path d="M753.532 617.325L766.091 626.475L750.139 618.897L753.532 617.325Z" fill="url(#paint27_linear_1988_3756)"/>
<path d="M766.091 494.655C766.091 494.655 753.911 500.562 743.751 514.009C733.61 527.475 732.762 541.459 747.414 537.103L753.532 531.175C753.532 531.175 744.888 534.438 744.329 524.213C743.769 513.989 766.091 496.524 766.091 496.524V494.655V494.655Z" fill="url(#paint28_linear_1988_3756)"/>
<path d="M743.374 529.484C739.783 535.432 749.274 538.137 756.817 537.898C765.262 537.64 779.86 533.522 777.803 524.412C775.764 515.302 751.801 515.56 743.374 529.484Z" fill="url(#paint29_linear_1988_3756)"/>
<path d="M744.058 530.38C743.986 531.931 773.759 527.814 773.741 521.906C773.723 515.998 744.563 518.385 744.058 530.38Z" fill="url(#paint30_linear_1988_3756)"/>
<path d="M779.571 475.658C781.7 483.316 796.045 481.228 799.835 469.253C803.642 457.259 799.564 442.042 792.238 441.425C784.912 440.788 775.348 460.501 779.571 475.658Z" fill="url(#paint31_linear_1988_3756)"/>
<path d="M837.619 449.938C837.15 451.032 847.869 439.734 868.818 443.931C870.876 444.349 846.822 428.396 837.619 449.938Z" fill="url(#paint32_linear_1988_3756)"/>
<path d="M816.58 491.85C816.58 491.85 836.682 486.041 845.524 468.438C845.506 468.457 842.131 492.268 816.58 491.85Z" fill="#2F95CD"/>
<path opacity="0.5" d="M782.999 442.638C785.598 445.562 800.647 432.414 819.432 430.544C838.216 428.674 861.854 444.329 876.507 438.64C888.145 434.125 864.038 390.005 832.785 392.233C801.531 394.461 780.437 439.754 782.999 442.638Z" fill="url(#paint33_linear_1988_3756)"/>
<path opacity="0.5" d="M788.773 507.882C788.773 507.882 806.962 498.195 831.142 496.087C855.322 493.958 859.635 495.928 859.635 498.474C859.635 501.02 843.286 509.712 821.109 511.801C798.933 513.85 788.773 507.882 788.773 507.882Z" fill="url(#paint34_linear_1988_3756)"/>
<path opacity="0.5" d="M768.888 503.705C768.888 503.705 763.24 485.823 773.76 456.602C773.76 456.602 776.287 451.828 778.019 452.982C779.751 454.136 767.986 476.215 768.888 503.705Z" fill="url(#paint35_linear_1988_3756)"/>
<path opacity="0.72" d="M901.805 438.521C901.805 438.521 903.772 456.721 915.898 460.64C928.024 464.579 937.876 454.911 940.98 441.266C940.98 441.266 937.172 453.042 921.383 450.018C905.612 447.014 901.805 438.521 901.805 438.521Z" fill="url(#paint36_linear_1988_3756)"/>
<path opacity="0.72" d="M904.043 404.148C904.187 407.53 926.436 400.488 933.51 401.542C940.583 402.577 943.596 412.145 944.715 411.926C945.834 411.707 942.839 389.329 929.684 387.678C916.53 385.987 903.934 401.781 904.043 404.148Z" fill="url(#paint37_linear_1988_3756)"/>
<path opacity="0.5" d="M881.215 548.6C881.215 548.6 850.576 561.331 838.829 559.859C827.424 558.446 831.701 550.907 831.954 550.47C831.972 550.45 831.972 550.45 831.972 550.45L831.99 550.41C838.991 542.275 847.743 536.964 859.039 535.492C867.935 534.358 875.333 539.629 881.215 548.6Z" fill="url(#paint38_linear_1988_3756)"/>
<path opacity="0.3" d="M942.659 657.745C939.266 669.759 926.491 671.012 922.755 668.108C919.489 665.582 910.503 653.945 901.896 632.622C902.744 634.432 909.06 647.401 914.708 647.401C920.789 647.381 932.518 628.763 920.662 589.696C909.186 551.842 892.332 545.975 891.286 545.656C920.067 551.445 946.033 645.73 942.659 657.745Z" fill="url(#paint39_linear_1988_3756)"/>
<path d="M927.195 651.34C932.23 649.848 940.169 654.304 942.948 658.779C945.709 663.275 952.62 682.191 948.668 706.618C948.668 706.618 941.144 717.598 932.699 715.191C926.275 713.361 924.741 692.296 923.009 677.338C921.295 662.38 918.895 653.806 927.195 651.34Z" fill="url(#paint40_linear_1988_3756)"/>
<path d="M933.923 715.848C933.923 715.848 937.027 666.855 918.946 658.958C918.946 658.958 918.856 666.915 922.465 685.314C926.092 703.694 929.773 714.694 933.923 715.848Z" fill="url(#paint41_linear_1988_3756)"/>
<path opacity="0.5" d="M932.696 688.994C932.696 688.994 928.943 696.593 926.038 698.105C923.133 699.596 920.661 698.642 920.661 698.642L929.791 675.528C929.773 675.528 932.606 683.982 932.696 688.994Z" fill="url(#paint42_linear_1988_3756)"/>
<path d="M929.775 675.528C929.775 675.528 926.094 662.459 918.497 660.032C918.497 660.032 912.398 668.168 916.764 696.672C916.764 696.672 921.059 701.765 925.895 695.638C925.895 695.638 929.468 685.354 929.775 675.528Z" fill="url(#paint43_linear_1988_3756)"/>
<path d="M925.173 671.291C927.663 671.012 924.992 683.544 923.675 683.405C922.358 683.265 923.098 671.529 925.173 671.291Z" fill="white"/>
<path opacity="0.72" d="M808.028 620.05C811.186 626.674 822.933 618.181 837.603 620.05C852.274 621.92 860.159 630.473 864.4 628.126C868.622 625.779 855.341 601.591 832.804 600.636C814.795 599.86 806.946 617.803 808.028 620.05Z" fill="url(#paint44_linear_1988_3756)"/>
<path opacity="0.72" d="M824.195 679.964C824.195 679.964 830.348 686.826 840.525 687.224C850.72 687.622 854.095 682.191 854.095 682.191C854.095 682.191 849.584 680.023 842.402 681.575C835.22 683.126 828.67 682.072 824.195 679.964Z" fill="url(#paint45_linear_1988_3756)"/>
<path opacity="0.3" d="M895.96 742.323C893.993 743.378 891.268 742.283 888.146 739.757L877.085 727.325C878.15 728.399 890.51 740.235 892.856 715.549C895.31 689.73 887.803 654.88 887.803 654.88L888.868 653.249C893.307 650.922 896.573 649.748 897.133 650.047C899.172 651.121 906.101 736.893 895.96 742.323Z" fill="url(#paint46_linear_1988_3756)"/>
<path d="M896.68 590.313C892.313 593.137 901.317 613.148 903.429 613.645C905.54 614.143 899.657 588.383 896.68 590.313Z" fill="white"/>
<path d="M904.71 616.947C903.79 617.067 904.8 621.721 905.486 622.358C906.171 622.994 907.597 623.114 907.994 622.676C908.409 622.238 905.756 616.828 904.71 616.947Z" fill="white"/>
<path d="M861.529 568.352C859.743 568.412 856.639 587.508 858.065 588.124C859.49 588.761 861.421 584.703 862.829 578.457C864.254 572.211 863.244 568.313 861.529 568.352Z" fill="white"/>
<path d="M783.361 592.083C783.758 593.475 792.491 589.139 792.527 584.982C792.545 580.824 782.801 590.074 783.361 592.083Z" fill="white"/>
<path d="M868.605 687.423C864.725 688.378 870.337 698.821 871.221 699.199C872.105 699.596 872.827 695.2 872.141 692.057C871.546 689.253 869.958 687.085 868.605 687.423Z" fill="white"/>
<path d="M815.426 695.638C813.279 695.101 813.838 701.824 814.199 702.262C814.56 702.699 815.877 700.671 816.202 698.9C816.509 697.349 816.184 695.837 815.426 695.638Z" fill="white"/>
<path d="M872.122 700.452C871.382 701.088 873.132 704.331 873.764 703.654C874.396 702.958 874.233 701.287 873.836 700.73C873.421 700.173 872.465 700.153 872.122 700.452Z" fill="white"/>
<path opacity="0.5" d="M723.939 621.483C723.939 621.483 728.36 629.777 741.226 629.678C754.092 629.578 757.773 622.517 757.773 622.517L750.158 618.897L730.147 615.595C730.147 615.595 724.336 621.085 723.939 621.483Z" fill="url(#paint47_linear_1988_3756)"/>
<path d="M771.017 610.363C771.017 610.363 763.114 601.213 756.491 600.656C749.869 600.099 733.051 608.095 727.963 618.558C727.963 618.558 728.721 621.065 734.495 622.557C740.269 624.048 753.514 617.325 753.514 617.325L775.583 621.443C775.619 621.443 775.619 616.012 771.017 610.363Z" fill="url(#paint48_linear_1988_3756)"/>
<path d="M753.532 617.325C753.532 617.325 764.179 613.765 765.387 605.032L767.084 606.445C767.084 606.445 765.568 615.515 753.532 617.325Z" fill="url(#paint49_linear_1988_3756)"/>
<path d="M734.748 613.645C734.856 615.475 746.585 609.488 746.585 607.32C746.585 605.152 734.55 610.562 734.748 613.645Z" fill="white"/>
<defs>
<radialGradient id="paint0_radial_1988_3756" cx="0" cy="0" r="1" gradientUnits="userSpaceOnUse" gradientTransform="translate(850.349 761.679) scale(73.5995 18.0519)">
<stop stop-color="#BE9DEA"/>
<stop offset="0.3883" stop-color="#E0BFF5"/>
<stop offset="1" stop-color="white"/>
</radialGradient>
<linearGradient id="paint1_linear_1988_3756" x1="818.18" y1="733.451" x2="828.032" y2="662.29" gradientUnits="userSpaceOnUse">
<stop stop-color="#CBC1F7"/>
<stop offset="1" stop-color="#E8DCF7"/>
</linearGradient>
<linearGradient id="paint2_linear_1988_3756" x1="805.961" y1="675.527" x2="844.596" y2="675.527" gradientUnits="userSpaceOnUse">
<stop stop-color="#8879EA"/>
<stop offset="1" stop-color="#9E8CEF"/>
</linearGradient>
<linearGradient id="paint3_linear_1988_3756" x1="824.718" y1="731.303" x2="824.718" y2="659.484" gradientUnits="userSpaceOnUse">
<stop stop-color="#9D68C2"/>
<stop offset="1" stop-color="#CCEDFF"/>
</linearGradient>
<linearGradient id="paint4_linear_1988_3756" x1="793.558" y1="633.42" x2="805.565" y2="546.693" gradientUnits="userSpaceOnUse">
<stop stop-color="#CBC1F7"/>
<stop offset="1" stop-color="#D4BEF1"/>
</linearGradient>
<linearGradient id="paint5_linear_1988_3756" x1="773.122" y1="630.078" x2="770.403" y2="605.875" gradientUnits="userSpaceOnUse">
<stop stop-color="#BE9DEA"/>
<stop offset="1" stop-color="#9E8CEF"/>
</linearGradient>
<linearGradient id="paint6_linear_1988_3756" x1="799.09" y1="630.336" x2="799.09" y2="550.294" gradientUnits="userSpaceOnUse">
<stop stop-color="#9D68C2"/>
<stop offset="1" stop-color="#CCEDFF"/>
</linearGradient>
<linearGradient id="paint7_linear_1988_3756" x1="790.619" y1="455.144" x2="790.619" y2="404.145" gradientUnits="userSpaceOnUse">
<stop stop-color="#45FFCD"/>
<stop offset="1" stop-color="#22E0FF"/>
</linearGradient>
<linearGradient id="paint8_linear_1988_3756" x1="803.598" y1="433.677" x2="803.598" y2="390.139" gradientUnits="userSpaceOnUse">
<stop stop-color="#B9ACF4"/>
<stop offset="1" stop-color="#E1D1F5"/>
</linearGradient>
<linearGradient id="paint9_linear_1988_3756" x1="843.219" y1="549.26" x2="865.826" y2="385.973" gradientUnits="userSpaceOnUse">
<stop stop-color="#CBC1F7"/>
<stop offset="1" stop-color="#E8DCF7"/>
</linearGradient>
<linearGradient id="paint10_linear_1988_3756" x1="798.023" y1="528.926" x2="920.02" y2="528.926" gradientUnits="userSpaceOnUse">
<stop stop-color="#8879EA"/>
<stop offset="1" stop-color="#9E8CEF"/>
</linearGradient>
<linearGradient id="paint11_linear_1988_3756" x1="851.197" y1="545.624" x2="851.197" y2="438.651" gradientUnits="userSpaceOnUse">
<stop stop-color="#9D68C2"/>
<stop offset="1" stop-color="#CCEDFF"/>
</linearGradient>
<linearGradient id="paint12_linear_1988_3756" x1="859.022" y1="543.335" x2="859.022" y2="512.225" gradientUnits="userSpaceOnUse">
<stop stop-color="#8DA4E5"/>
<stop offset="1" stop-color="#755CBB"/>
</linearGradient>
<linearGradient id="paint13_linear_1988_3756" x1="859.304" y1="533.015" x2="859.121" y2="512.59" gradientUnits="userSpaceOnUse">
<stop stop-color="#5E36CC"/>
<stop offset="1" stop-color="#6C4A96"/>
</linearGradient>
<linearGradient id="paint14_linear_1988_3756" x1="828.742" y1="514.076" x2="828.742" y2="390.045" gradientUnits="userSpaceOnUse">
<stop stop-color="#0665BD"/>
<stop offset="1" stop-color="#1A1F77"/>
</linearGradient>
<linearGradient id="paint15_linear_1988_3756" x1="844.573" y1="690.386" x2="865.974" y2="535.81" gradientUnits="userSpaceOnUse">
<stop stop-color="#CBC1F7"/>
<stop offset="1" stop-color="#E8DCF7"/>
</linearGradient>
<linearGradient id="paint16_linear_1988_3756" x1="911.417" y1="465.294" x2="911.417" y2="381.33" gradientUnits="userSpaceOnUse">
<stop stop-color="#B9ACF4"/>
<stop offset="1" stop-color="#E1D1F5"/>
</linearGradient>
<linearGradient id="paint17_linear_1988_3756" x1="886.103" y1="663.447" x2="886.103" y2="584.981" gradientUnits="userSpaceOnUse">
<stop stop-color="#9D68C2"/>
<stop offset="1" stop-color="#CCEDFF"/>
</linearGradient>
<linearGradient id="paint18_linear_1988_3756" x1="917.254" y1="462.106" x2="917.254" y2="381.72" gradientUnits="userSpaceOnUse">
<stop stop-color="#BE9DEA"/>
<stop offset="1" stop-color="#9E8CEF"/>
</linearGradient>
<linearGradient id="paint19_linear_1988_3756" x1="922.757" y1="464.102" x2="922.757" y2="385.309" gradientUnits="userSpaceOnUse">
<stop stop-color="#45FFCD"/>
<stop offset="1" stop-color="#22E0FF"/>
</linearGradient>
<linearGradient id="paint20_linear_1988_3756" x1="804.337" y1="641.296" x2="873.33" y2="641.296" gradientUnits="userSpaceOnUse">
<stop stop-color="#BE9DEA"/>
<stop offset="1" stop-color="#9E8CEF"/>
</linearGradient>
<radialGradient id="paint21_radial_1988_3756" cx="0" cy="0" r="1" gradientUnits="userSpaceOnUse" gradientTransform="translate(839.983 675.766) scale(52.1412 57.4778)">
<stop stop-color="#45FFCD"/>
<stop offset="1" stop-color="#22E0FF"/>
</radialGradient>
<linearGradient id="paint22_linear_1988_3756" x1="878.915" y1="584.981" x2="896.679" y2="584.981" gradientUnits="userSpaceOnUse">
<stop stop-color="#8879EA"/>
<stop offset="1" stop-color="#9E8CEF"/>
</linearGradient>
<linearGradient id="paint23_linear_1988_3756" x1="907.751" y1="666.78" x2="923.899" y2="550.148" gradientUnits="userSpaceOnUse">
<stop stop-color="#CBC1F7"/>
<stop offset="1" stop-color="#E8DCF7"/>
</linearGradient>
<linearGradient id="paint24_linear_1988_3756" x1="874.863" y1="740.067" x2="887.515" y2="648.683" gradientUnits="userSpaceOnUse">
<stop stop-color="#CBC1F7"/>
<stop offset="1" stop-color="#E8DCF7"/>
</linearGradient>
<linearGradient id="paint25_linear_1988_3756" x1="929.71" y1="667.489" x2="929.71" y2="644.966" gradientUnits="userSpaceOnUse">
<stop stop-color="#BE9DEA"/>
<stop offset="1" stop-color="#9E8CEF"/>
</linearGradient>
<linearGradient id="paint26_linear_1988_3756" x1="748.252" y1="650.691" x2="753.548" y2="612.444" gradientUnits="userSpaceOnUse">
<stop stop-color="#CBC1F7"/>
<stop offset="1" stop-color="#E8DCF7"/>
</linearGradient>
<linearGradient id="paint27_linear_1988_3756" x1="758.548" y1="627.313" x2="757.377" y2="616.888" gradientUnits="userSpaceOnUse">
<stop stop-color="#BE9DEA"/>
<stop offset="1" stop-color="#9E8CEF"/>
</linearGradient>
<linearGradient id="paint28_linear_1988_3756" x1="748.309" y1="538.794" x2="754.641" y2="493.06" gradientUnits="userSpaceOnUse">
<stop stop-color="#BE9DEA"/>
<stop offset="1" stop-color="#9E8CEF"/>
</linearGradient>
<linearGradient id="paint29_linear_1988_3756" x1="759.492" y1="538.463" x2="761.679" y2="517.652" gradientUnits="userSpaceOnUse">
<stop stop-color="#DD1A8F"/>
<stop offset="1" stop-color="#FE117E"/>
</linearGradient>
<linearGradient id="paint30_linear_1988_3756" x1="759.271" y1="529.058" x2="757.844" y2="519.606" gradientUnits="userSpaceOnUse">
<stop stop-color="#D93DE3"/>
<stop offset="1" stop-color="#FF6DBA"/>
</linearGradient>
<linearGradient id="paint31_linear_1988_3756" x1="789.913" y1="480.155" x2="789.913" y2="441.388" gradientUnits="userSpaceOnUse">
<stop stop-color="#45FFCD"/>
<stop offset="1" stop-color="#22E0FF"/>
</linearGradient>
<linearGradient id="paint32_linear_1988_3756" x1="853.267" y1="450.021" x2="853.267" y2="438.644" gradientUnits="userSpaceOnUse">
<stop stop-color="#45FFCD"/>
<stop offset="1" stop-color="#22E0FF"/>
</linearGradient>
<linearGradient id="paint33_linear_1988_3756" x1="782.792" y1="417.614" x2="879.489" y2="417.614" gradientUnits="userSpaceOnUse">
<stop/>
<stop offset="1" stop-color="#6A9BFF"/>
</linearGradient>
<linearGradient id="paint34_linear_1988_3756" x1="788.765" y1="503.705" x2="859.625" y2="503.705" gradientUnits="userSpaceOnUse">
<stop/>
<stop offset="1" stop-color="#6A9BFF"/>
</linearGradient>
<linearGradient id="paint35_linear_1988_3756" x1="772.775" y1="503.705" x2="772.775" y2="452.804" gradientUnits="userSpaceOnUse">
<stop/>
<stop offset="1" stop-color="#6A9BFF"/>
</linearGradient>
<linearGradient id="paint36_linear_1988_3756" x1="921.388" y1="461.528" x2="921.388" y2="438.516" gradientUnits="userSpaceOnUse">
<stop stop-color="#D4E2FF"/>
<stop offset="1"/>
</linearGradient>
<linearGradient id="paint37_linear_1988_3756" x1="904.034" y1="399.721" x2="944.936" y2="399.721" gradientUnits="userSpaceOnUse">
<stop/>
<stop offset="1" stop-color="#D4E2FF"/>
</linearGradient>
<linearGradient id="paint38_linear_1988_3756" x1="856.089" y1="559.98" x2="856.089" y2="535.353" gradientUnits="userSpaceOnUse">
<stop stop-color="#8DA4E5"/>
<stop offset="1" stop-color="#755CBB"/>
</linearGradient>
<linearGradient id="paint39_linear_1988_3756" x1="917.115" y1="669.423" x2="917.115" y2="545.647" gradientUnits="userSpaceOnUse">
<stop stop-color="#9D68C2"/>
<stop offset="1" stop-color="#CCEDFF"/>
</linearGradient>
<linearGradient id="paint40_linear_1988_3756" x1="942.594" y1="713.967" x2="926.721" y2="651.46" gradientUnits="userSpaceOnUse">
<stop stop-color="#CBC1F7"/>
<stop offset="1" stop-color="#E8DCF7"/>
</linearGradient>
<linearGradient id="paint41_linear_1988_3756" x1="929.859" y1="716.297" x2="923.366" y2="658.448" gradientUnits="userSpaceOnUse">
<stop stop-color="#BE9DEA"/>
<stop offset="1" stop-color="#9E8CEF"/>
</linearGradient>
<linearGradient id="paint42_linear_1988_3756" x1="927.13" y1="698.471" x2="924.619" y2="676.103" gradientUnits="userSpaceOnUse">
<stop stop-color="#8DA4E5"/>
<stop offset="1" stop-color="#755CBB"/>
</linearGradient>
<linearGradient id="paint43_linear_1988_3756" x1="925.669" y1="697.567" x2="916.279" y2="660.588" gradientUnits="userSpaceOnUse">
<stop stop-color="#CBC1F7"/>
<stop offset="1" stop-color="#E8DCF7"/>
</linearGradient>
<linearGradient id="paint44_linear_1988_3756" x1="807.927" y1="614.57" x2="865.174" y2="614.57" gradientUnits="userSpaceOnUse">
<stop/>
<stop offset="1" stop-color="#D4E2FF"/>
</linearGradient>
<linearGradient id="paint45_linear_1988_3756" x1="839.15" y1="687.249" x2="839.15" y2="679.962" gradientUnits="userSpaceOnUse">
<stop stop-color="#D4E2FF"/>
<stop offset="1"/>
</linearGradient>
<linearGradient id="paint46_linear_1988_3756" x1="889.217" y1="742.718" x2="889.217" y2="649.99" gradientUnits="userSpaceOnUse">
<stop stop-color="#9D68C2"/>
<stop offset="1" stop-color="#CCEDFF"/>
</linearGradient>
<linearGradient id="paint47_linear_1988_3756" x1="739.962" y1="629.806" x2="741.707" y2="617.201" gradientUnits="userSpaceOnUse">
<stop stop-color="#8DA4E5"/>
<stop offset="1" stop-color="#755CBB"/>
</linearGradient>
<linearGradient id="paint48_linear_1988_3756" x1="751.234" y1="624.916" x2="754.63" y2="600.388" gradientUnits="userSpaceOnUse">
<stop stop-color="#CBC1F7"/>
<stop offset="1" stop-color="#E8DCF7"/>
</linearGradient>
<linearGradient id="paint49_linear_1988_3756" x1="760.737" y1="616.511" x2="759.521" y2="605.682" gradientUnits="userSpaceOnUse">
<stop stop-color="#BE9DEA"/>
<stop offset="1" stop-color="#9E8CEF"/>
</linearGradient>
</defs>
</svg>
