<svg width="58" height="68" viewBox="0 0 58 68" fill="none" xmlns="http://www.w3.org/2000/svg">
<path d="M2.96569 15.2615L25.9657 1.77874C27.8395 0.680321 30.1606 0.680322 32.0343 1.77874L55.0343 15.2615C56.8714 16.3384 58 18.3083 58 20.4377V47.5623C58 49.6917 56.8714 51.6616 55.0343 52.7385L32.0343 66.2213C30.1605 67.3197 27.8395 67.3197 25.9657 66.2213L2.96568 52.7385C1.12864 51.6616 0 49.6917 0 47.5623V20.4377C0 18.3083 1.12864 16.3384 2.96569 15.2615Z" fill="#DF2040"/>
<path d="M41.4444 18H16.5556C14.5911 18 13 19.7358 13 21.8788V46.1212C13 48.2642 14.5911 50 16.5556 50H41.4444C43.4089 50 45 48.2642 45 46.1212V21.8788C45 19.7358 43.4089 18 41.4444 18ZM23.6667 21.3939H27.2222C27.96 21.3939 28.5556 22.0436 28.5556 22.8485C28.5556 23.6533 27.96 24.303 27.2222 24.303H23.6667C22.9289 24.303 22.3333 23.6533 22.3333 22.8485C22.3333 22.0436 22.9289 21.3939 23.6667 21.3939ZM18.3333 20.9091C19.3111 20.9091 20.1111 21.7818 20.1111 22.8485C20.1111 23.9152 19.3111 24.7879 18.3333 24.7879C17.3556 24.7879 16.5556 23.9152 16.5556 22.8485C16.5556 21.7818 17.3556 20.9091 18.3333 20.9091ZM41.4444 45.1515C41.4444 45.6848 41.0444 46.1212 40.5556 46.1212H17.4444C16.9556 46.1212 16.5556 45.6848 16.5556 45.1515V28.6667C16.5556 28.1333 16.9556 27.697 17.4444 27.697H40.5556C41.0444 27.697 41.4444 28.1333 41.4444 28.6667V45.1515Z" fill="#F9FBFE"/>
<path d="M25.8889 33.2922H33.8889C34.5022 33.2922 35 32.7491 35 32.08C35 31.411 34.5022 30.8679 33.8889 30.8679H25.8889C25.2755 30.8679 24.7778 31.411 24.7778 32.08C24.7778 32.7491 25.2755 33.2922 25.8889 33.2922ZM36.0578 38.1406H39C39.6133 38.1406 40.1111 37.5976 40.1111 36.9285C40.1111 36.2594 39.6133 35.7164 39 35.7164H36.0578C35.4444 35.7164 34.9467 36.2594 34.9467 36.9285C34.9467 37.5976 35.4444 38.1406 36.0578 38.1406ZM32.8311 35.7164H29.6133C29 35.7164 28.5022 36.2594 28.5022 36.9285C28.5022 37.5976 29 38.1406 29.6133 38.1406H32.8311C33.4444 38.1406 33.9422 37.5976 33.9422 36.9285C33.9422 36.2594 33.4444 35.7164 32.8311 35.7164ZM37.5511 33.2922H39.2222C39.8355 33.2922 40.3333 32.7491 40.3333 32.08C40.3333 31.411 39.8355 30.8679 39.2222 30.8679H37.5511C36.9378 30.8679 36.44 31.411 36.44 32.08C36.44 32.7491 36.9378 33.2922 37.5511 33.2922ZM19.6667 38.1406H25.8889C26.5022 38.1406 27 37.5976 27 36.9285C27 36.2594 26.5022 35.7164 25.8889 35.7164H19.6667C19.0533 35.7164 18.5555 36.2594 18.5555 36.9285C18.5555 37.5976 19.0533 38.1406 19.6667 38.1406ZM29.1066 40.5649H26.7778C26.1644 40.5649 25.6667 41.1079 25.6667 41.777C25.6667 42.4461 26.1644 42.9891 26.7778 42.9891H29.1066C29.72 42.9891 30.2178 42.4461 30.2178 41.777C30.2178 41.1079 29.7289 40.5649 29.1066 40.5649ZM39.2222 40.5649H33C32.3867 40.5649 31.8889 41.1079 31.8889 41.777C31.8889 42.4461 32.3867 42.9891 33 42.9891H39.2222C39.8355 42.9891 40.3333 42.4461 40.3333 41.777C40.3333 41.1079 39.8355 40.5649 39.2222 40.5649ZM22.8578 40.5649H19.8889C19.2755 40.5649 18.7778 41.1079 18.7778 41.777C18.7778 42.4461 19.2755 42.9891 19.8889 42.9891H22.8578C23.4711 42.9891 23.9689 42.4461 23.9689 41.777C23.9689 41.1079 23.4711 40.5649 22.8578 40.5649ZM19.8889 33.2922H21.9422C22.5555 33.2922 23.0533 32.7491 23.0533 32.08C23.0533 31.411 22.5555 30.8679 21.9422 30.8679H19.8889C19.2755 30.8679 18.7778 31.411 18.7778 32.08C18.7778 32.7491 19.2755 33.2922 19.8889 33.2922Z" fill="#F9FBFE"/>
</svg>
