<svg width="58" height="68" viewBox="0 0 58 68" fill="none" xmlns="http://www.w3.org/2000/svg">
<path d="M2.96569 15.2615L25.9657 1.77874C27.8395 0.680321 30.1606 0.680322 32.0343 1.77874L55.0343 15.2615C56.8714 16.3384 58 18.3083 58 20.4377V47.5623C58 49.6917 56.8714 51.6616 55.0343 52.7385L32.0343 66.2213C30.1605 67.3197 27.8395 67.3197 25.9657 66.2213L2.96568 52.7385C1.12864 51.6616 0 49.6917 0 47.5623V20.4377C0 18.3083 1.12864 16.3384 2.96569 15.2615Z" fill="#FBAB5B"/>
<path d="M34.18 19.3333C29.0042 19.3333 24.6812 23.0643 23.6109 28.0475C22.5657 27.4214 21.3533 27.0612 20.0572 27.0612C16.1607 27.0612 13 30.3033 13 34.3002C13 38.1342 15.9099 41.2648 19.589 41.5135H28.7533V37.0878C28.7533 34.103 32.098 31.9415 36.6969 31.9415C40.1335 31.9415 42.8761 33.1509 44.0301 35.0121C44.6488 33.614 45 32.0788 45 30.4405C45 24.308 40.1586 19.3333 34.18 19.3333Z" fill="#F9FBFE"/>
<path d="M36.6969 34.0854C33.4609 34.0854 30.8438 35.432 30.8438 37.0874V39.9436L31.0695 40.2352C31.7384 41.0929 33.787 42.0278 36.6969 42.0278C39.5733 42.0278 41.7306 41.0929 42.3744 40.1666L42.55 39.9093V37.0788C42.55 35.4235 39.9245 34.0854 36.6969 34.0854ZM36.6969 38.374C34.849 38.374 33.3522 37.7993 33.3522 37.0874C33.3522 36.3755 34.849 35.8009 36.6969 35.8009C38.5448 35.8009 40.0416 36.3755 40.0416 37.0874C40.0416 37.7993 38.5448 38.374 36.6969 38.374ZM30.8438 42.774V45.5787C30.8438 45.5873 30.8437 45.6044 30.8521 45.613C30.8521 45.6302 30.8438 45.6473 30.8438 45.6645C30.8438 47.3198 33.4609 48.6664 36.6969 48.6664C39.9329 48.6664 42.55 47.3198 42.55 45.6645C42.55 45.6473 42.5417 45.6302 42.5417 45.613C42.5417 45.6044 42.55 45.5873 42.55 45.5787V42.7568C41.0951 43.6403 39.0047 44.172 36.6969 44.172C34.3724 44.172 32.2987 43.6574 30.8438 42.774Z" fill="#F9FBFE"/>
</svg>
