<svg width="251" height="207" viewBox="0 0 251 207" fill="none" xmlns="http://www.w3.org/2000/svg">
<g style="mix-blend-mode:soft-light" opacity="0.6">
<path d="M250.719 64.9875H237.995V153.008H250.719V64.9875Z" fill="#FCFCFC"/>
<path d="M248.08 56.4517H246.738L245.916 58.9096L245.137 56.4517H243.579L243.06 57.9178L242.497 56.4517H241.025L241.631 54.2522L242.151 52.2683C242.151 51.9664 242.367 51.8372 242.583 51.8372H246.565C246.782 51.8372 246.825 51.8371 246.955 52.2683L247.474 54.2522L248.08 56.4517Z" fill="#FCFCFC"/>
<path d="M250.803 64.9067H238.079L241.585 54.082L241.628 54.2115L242.494 56.411L243.057 57.8771L243.576 56.411L244.441 54.082L245.134 56.411L245.913 58.869L246.735 56.411L247.47 54.2115L247.514 54.082L250.803 64.9067Z" fill="#E0E7EB"/>
<path d="M180.072 29.9016V176.53H208.117V29.9016H180.072ZM188.728 41.9337C187.703 41.9223 186.723 41.5085 186.002 40.7818C185.281 40.0552 184.876 39.0745 184.876 38.0525C184.87 37.5448 184.966 37.041 185.157 36.5703C185.348 36.0996 185.631 35.6715 185.989 35.3105C186.347 34.9495 186.774 34.663 187.244 34.4674C187.714 34.2719 188.219 34.171 188.728 34.1711C189.245 34.1594 189.759 34.2515 190.239 34.4419C190.719 34.6323 191.156 34.917 191.523 35.2792C191.891 35.6414 192.182 36.0736 192.378 36.55C192.574 37.0265 192.672 37.5375 192.667 38.0525C192.667 38.5733 192.562 39.0886 192.358 39.5681C192.154 40.0477 191.856 40.4815 191.48 40.8437C191.104 41.2059 190.66 41.489 190.172 41.6763C189.684 41.8635 189.164 41.9511 188.641 41.9337H188.728Z" fill="#FCFCFC"/>
<g style="mix-blend-mode:multiply">
<path d="M208.173 36.4609H198.565V39.7815H208.173V36.4609Z" fill="#E0E7EB"/>
</g>
<g style="mix-blend-mode:multiply">
<path d="M200.54 45.95H208.157V43.3625L200.583 43.3193L200.54 45.95Z" fill="#E0E7EB"/>
</g>
<g style="mix-blend-mode:multiply">
<path d="M208.156 49.8914H200.539V52.522H208.156V49.8914Z" fill="#E0E7EB"/>
</g>
<g style="mix-blend-mode:multiply">
<path d="M208.157 56.467H200.54V59.0977H208.157V56.467Z" fill="#E0E7EB"/>
</g>
<g style="mix-blend-mode:multiply">
<path d="M208.198 62.6223H198.547V65.9431H208.198V62.6223Z" fill="#E0E7EB"/>
</g>
<g style="mix-blend-mode:multiply">
<path d="M200.54 72.2605H208.157V69.6299H200.54V72.2605Z" fill="#E0E7EB"/>
</g>
<g style="mix-blend-mode:multiply">
<path d="M200.414 76.4349L200.411 79.0657L207.985 79.0749L207.988 76.4441L200.414 76.4349Z" fill="#E0E7EB"/>
</g>
<g style="mix-blend-mode:multiply">
<path d="M208.114 82.7656H200.54V85.3963H208.114V82.7656Z" fill="#E0E7EB"/>
</g>
<g style="mix-blend-mode:multiply">
<path d="M208.199 88.9275H198.548V92.2483H208.199V88.9275Z" fill="#E0E7EB"/>
</g>
<g style="mix-blend-mode:multiply">
<path d="M200.539 98.4346H208.113V95.8037H200.539V98.4346Z" fill="#E0E7EB"/>
</g>
<g style="mix-blend-mode:multiply">
<path d="M208.156 102.369H200.539V105H208.156V102.369Z" fill="#E0E7EB"/>
</g>
<g style="mix-blend-mode:multiply">
<path d="M202.744 105.647V108.278H210.318V105.647H202.744Z" fill="#E0E7EB"/>
</g>
<g style="mix-blend-mode:multiply">
<path d="M208.155 115.141H198.547V118.461H208.155V115.141Z" fill="#E0E7EB"/>
</g>
<g style="mix-blend-mode:multiply">
<path d="M208.094 122.076H200.521V124.707H208.094V122.076Z" fill="#E0E7EB"/>
</g>
<g style="mix-blend-mode:multiply">
<path d="M208.137 128.6H200.52V131.231H208.137V128.6Z" fill="#E0E7EB"/>
</g>
<g style="mix-blend-mode:multiply">
<path d="M200.518 137.768H208.135V135.137H200.518V137.768Z" fill="#E0E7EB"/>
</g>
<g style="mix-blend-mode:multiply">
<path d="M208.139 141.371H198.531V144.692H208.139V141.371Z" fill="#E0E7EB"/>
</g>
<g style="mix-blend-mode:multiply">
<path d="M208.182 167.564H198.531V170.885H208.182V167.564Z" fill="#E0E7EB"/>
</g>
<g style="mix-blend-mode:multiply">
<path d="M208.136 148.262H200.519V150.892H208.136V148.262Z" fill="#E0E7EB"/>
</g>
<g style="mix-blend-mode:multiply">
<path d="M208.092 154.814H200.519V157.445H208.092V154.814Z" fill="#E0E7EB"/>
</g>
<g style="mix-blend-mode:multiply">
<path d="M208.091 161.375H200.518V164.006H208.091V161.375Z" fill="#E0E7EB"/>
</g>
<path fill-rule="evenodd" clip-rule="evenodd" d="M10.1514 0.0158691L167.73 0.0158691L167.73 206.676H10.1514L10.1514 0.0158691ZM54.4991 41.0853L125.606 41.0853V95.5535H54.4991L54.4991 41.0853Z" fill="#FCFCFC"/>
<path d="M21.7076 10.9193C21.7076 11.5941 21.4385 12.2413 20.9597 12.7184C20.4808 13.1956 19.8314 13.4636 19.1542 13.4636H3.3573C2.68007 13.4636 2.0304 13.1956 1.55153 12.7184C1.07267 12.2413 0.803711 11.5941 0.803711 10.9193V10.9193C0.814849 10.2479 1.08747 9.6071 1.56395 9.13231C2.04042 8.65752 2.68355 8.38586 3.3573 8.37476L19.1542 8.37476C19.8279 8.38586 20.4709 8.65752 20.9474 9.13231C21.4238 9.6071 21.6965 10.2479 21.7076 10.9193V10.9193Z" fill="#E0E7EB"/>
<path d="M21.7066 26.3539C21.7066 27.0287 21.4375 27.6758 20.9587 28.153C20.4798 28.6302 19.8304 28.8984 19.1532 28.8984H3.35632C2.6791 28.8984 2.02943 28.6302 1.55056 28.153C1.07169 27.6758 0.802734 27.0287 0.802734 26.3539V26.3539C0.813873 25.6825 1.0865 25.0417 1.56297 24.5669C2.03945 24.0921 2.68257 23.8204 3.35632 23.8093H19.1532C19.8269 23.8204 20.4699 24.0921 20.9464 24.5669C21.4229 25.0417 21.6955 25.6825 21.7066 26.3539Z" fill="#E0E7EB"/>
<path d="M21.7076 41.9339C21.7076 42.6088 21.4385 43.2561 20.9597 43.7333C20.4808 44.2105 19.8314 44.4785 19.1542 44.4785H3.3573C2.68007 44.4785 2.0304 44.2105 1.55153 43.7333C1.07267 43.2561 0.803711 42.6088 0.803711 41.9339V41.9339C0.814849 41.2626 1.08747 40.622 1.56395 40.1472C2.04042 39.6724 2.68355 39.4007 3.3573 39.3896H19.1542C19.8279 39.4007 20.4709 39.6724 20.9474 40.1472C21.4238 40.622 21.6965 41.2626 21.7076 41.9339Z" fill="#E0E7EB"/>
<path d="M21.7076 57.3575C21.7076 58.0324 21.4385 58.6795 20.9597 59.1567C20.4808 59.6338 19.8314 59.9021 19.1542 59.9021H3.3573C2.68007 59.9021 2.0304 59.6338 1.55153 59.1567C1.07267 58.6795 0.803711 58.0324 0.803711 57.3575V57.3575C0.814849 56.6862 1.08747 56.0453 1.56395 55.5705C2.04042 55.0957 2.68355 54.8241 3.3573 54.813H19.1542C19.8279 54.8241 20.4709 55.0957 20.9474 55.5705C21.4238 56.0453 21.6965 56.6862 21.7076 57.3575V57.3575Z" fill="#E0E7EB"/>
<path d="M21.7086 72.9442C21.7086 73.2783 21.6425 73.6091 21.5142 73.9178C21.3858 74.2266 21.1977 74.5073 20.9606 74.7436C20.7235 74.9798 20.442 75.1672 20.1322 75.295C19.8224 75.4229 19.4905 75.4888 19.1551 75.4888H3.35827C3.02295 75.4888 2.69096 75.4229 2.38116 75.295C2.07136 75.1672 1.78962 74.9798 1.55251 74.7436C1.3154 74.5073 1.12743 74.2266 0.999105 73.9178C0.870782 73.6091 0.804687 73.2783 0.804687 72.9442V72.9442C0.815826 72.2728 1.08845 71.6322 1.56493 71.1575C2.0414 70.6827 2.68453 70.411 3.35827 70.3999H19.1551C19.8289 70.411 20.4719 70.6827 20.9483 71.1575C21.4248 71.6322 21.6974 72.2728 21.7086 72.9442V72.9442Z" fill="#E0E7EB"/>
<path d="M21.7076 88.5652C21.6965 89.2366 21.4238 89.8775 20.9474 90.3523C20.4709 90.827 19.8279 91.0987 19.1542 91.1098H3.3573C2.68355 91.0987 2.04042 90.827 1.56395 90.3523C1.08747 89.8775 0.81485 89.2366 0.803711 88.5652V88.5652C0.803616 87.8864 1.07123 87.2349 1.54889 86.7509C2.02656 86.2668 2.67612 85.9891 3.3573 85.9778H19.1542C19.8353 85.9891 20.4848 86.2668 20.9624 86.7509C21.4401 87.2349 21.7077 87.8864 21.7076 88.5652V88.5652Z" fill="#E0E7EB"/>
<path d="M21.7066 104.057C21.6955 104.728 21.4229 105.369 20.9464 105.844C20.4699 106.319 19.8269 106.59 19.1532 106.601H3.35632C2.68257 106.59 2.03945 106.319 1.56297 105.844C1.0865 105.369 0.813873 104.728 0.802734 104.057V104.057C0.80264 103.378 1.07025 102.726 1.54792 102.242C2.02558 101.758 2.67515 101.481 3.35632 101.469H19.1532C19.8343 101.481 20.4838 101.758 20.9614 102.242C21.4391 102.726 21.7067 103.378 21.7066 104.057V104.057Z" fill="#E0E7EB"/>
<path d="M21.7076 119.576C21.6965 120.248 21.4238 120.888 20.9474 121.363C20.4709 121.838 19.8279 122.11 19.1542 122.121H3.3573C2.68355 122.11 2.04042 121.838 1.56395 121.363C1.08747 120.888 0.814849 120.248 0.803711 119.576V119.576C0.803711 118.901 1.07267 118.254 1.55153 117.777C2.0304 117.3 2.68007 117.032 3.3573 117.032H19.1542C19.8314 117.032 20.4808 117.3 20.9597 117.777C21.4385 118.254 21.7076 118.901 21.7076 119.576V119.576Z" fill="#E0E7EB"/>
<path d="M21.7086 135.014C21.6974 135.685 21.4248 136.326 20.9483 136.801C20.4719 137.276 19.8289 137.547 19.1551 137.558H3.35827C2.68453 137.547 2.0414 137.276 1.56493 136.801C1.08845 136.326 0.815826 135.685 0.804687 135.014V135.014C0.804688 134.339 1.07364 133.692 1.55251 133.215C2.03138 132.738 2.68105 132.469 3.35827 132.469H19.1551C19.8324 132.469 20.4818 132.738 20.9606 133.215C21.4395 133.692 21.7086 134.339 21.7086 135.014V135.014Z" fill="#E0E7EB"/>
<path d="M21.7066 150.616C21.6955 151.287 21.4229 151.928 20.9464 152.403C20.4699 152.878 19.8269 153.15 19.1532 153.161H3.35632C2.68257 153.15 2.03945 152.878 1.56297 152.403C1.0865 151.928 0.813873 151.287 0.802734 150.616V150.616C0.802734 149.941 1.07169 149.294 1.55056 148.817C2.02943 148.34 2.6791 148.072 3.35632 148.072H19.1532C19.8304 148.072 20.4798 148.34 20.9587 148.817C21.4375 149.294 21.7066 149.941 21.7066 150.616V150.616Z" fill="#E0E7EB"/>
<path d="M21.7086 166.15C21.6974 166.821 21.4248 167.462 20.9483 167.937C20.4719 168.412 19.8289 168.683 19.1551 168.694H3.35827C2.68453 168.683 2.0414 168.412 1.56493 167.937C1.08845 167.462 0.815826 166.821 0.804687 166.15V166.15C0.804688 165.475 1.07364 164.828 1.55251 164.351C2.03138 163.873 2.68105 163.605 3.35827 163.605H19.1551C19.8324 163.605 20.4818 163.873 20.9606 164.351C21.4395 164.828 21.7086 165.475 21.7086 166.15V166.15Z" fill="#E0E7EB"/>
<path d="M21.7076 181.684C21.6965 182.355 21.4238 182.996 20.9474 183.471C20.4709 183.946 19.8279 184.217 19.1542 184.228H3.3573C2.68355 184.217 2.04042 183.946 1.56395 183.471C1.08747 182.996 0.814849 182.355 0.803711 181.684V181.684C0.803711 181.009 1.07267 180.362 1.55153 179.885C2.0304 179.407 2.68007 179.139 3.3573 179.139H19.1542C19.8314 179.139 20.4808 179.407 20.9597 179.885C21.4385 180.362 21.7076 181.009 21.7076 181.684V181.684Z" fill="#E0E7EB"/>
<path d="M21.7076 197.189C21.6965 197.861 21.4238 198.502 20.9474 198.976C20.4709 199.451 19.8279 199.723 19.1542 199.734H3.3573C2.68355 199.723 2.04042 199.451 1.56395 198.976C1.08747 198.502 0.814849 197.861 0.803711 197.189V197.189C0.803711 196.514 1.07267 195.867 1.55153 195.39C2.0304 194.913 2.68007 194.645 3.3573 194.645H19.1542C19.8314 194.645 20.4808 194.913 20.9597 195.39C21.4385 195.867 21.7076 196.514 21.7076 197.189V197.189Z" fill="#E0E7EB"/>
<path d="M224.587 163.179C224.859 163.023 225.083 162.796 225.235 162.522C225.388 162.249 225.463 161.939 225.452 161.626C225.458 161.39 225.416 161.156 225.33 160.936C225.243 160.717 225.113 160.517 224.948 160.348C224.783 160.179 224.585 160.045 224.367 159.954C224.149 159.862 223.914 159.815 223.678 159.815C223.196 159.815 222.733 160.006 222.392 160.345C222.051 160.685 221.86 161.146 221.86 161.626C221.862 161.937 221.943 162.241 222.094 162.513C222.245 162.784 222.462 163.013 222.726 163.179V172.494L217.965 158.737C218.47 158.487 218.914 158.13 219.266 157.69C219.617 157.25 219.868 156.739 219.999 156.192C220.345 155.046 220.506 153.853 220.475 152.656H226.75C226.741 153.851 226.901 155.042 227.227 156.192C227.373 156.738 227.634 157.247 227.992 157.686C228.35 158.124 228.797 158.483 229.304 158.737L224.543 172.494L224.587 163.179Z" fill="#E0E7EB"/>
<path d="M230.998 49.5566H216.109V110.02H230.998V49.5566Z" fill="#FCFCFC"/>
<path d="M218.274 156.197H228.965L230.999 114.58H216.11L218.274 156.197Z" fill="#FCFCFC"/>
<path d="M230.998 110.008H216.109V114.623H230.998V110.008Z" fill="#FCFCFC"/>
<path d="M230.999 44.9773H216.11V49.5918H230.999V44.9773Z" fill="#FCFCFC"/>
<path d="M215.903 44.9185H230.791C230.78 42.9433 229.988 41.0521 228.586 39.6554C227.184 38.2587 225.286 37.4691 223.304 37.4578C222.327 37.4634 221.36 37.661 220.459 38.039C219.558 38.417 218.74 38.9681 218.053 39.6609C217.366 40.3537 216.822 41.1744 216.454 42.0765C216.085 42.9786 215.898 43.9444 215.903 44.9185V44.9185Z" fill="#FCFCFC"/>
<path d="M224.084 83.0832C224.079 83.4097 224.138 83.7339 224.26 84.0371C224.381 84.3404 224.562 84.6166 224.792 84.8494C225.021 85.0823 225.295 85.267 225.597 85.3933C225.899 85.5195 226.224 85.5847 226.551 85.5846V85.5846C227.217 85.5846 227.856 85.3209 228.326 84.8518C228.797 84.3827 229.061 83.7466 229.061 83.0832V50.0917C229.062 49.7652 228.996 49.442 228.87 49.1409C228.743 48.8398 228.557 48.5669 228.324 48.3381C228.09 48.1093 227.813 47.9292 227.509 47.8082C227.204 47.6873 226.879 47.6277 226.551 47.6334C226.226 47.6276 225.902 47.6873 225.6 47.8088C225.298 47.9302 225.024 48.111 224.794 48.3405C224.564 48.5699 224.382 48.8432 224.26 49.1441C224.138 49.445 224.079 49.7672 224.084 50.0917V83.0832Z" fill="#E0E7EB"/>
<g style="mix-blend-mode:multiply">
<path d="M223.598 37.4585V159.807C223.359 159.807 223.123 159.854 222.902 159.945C222.681 160.036 222.481 160.169 222.312 160.338C222.144 160.506 222.01 160.706 221.918 160.925C221.827 161.145 221.78 161.381 221.78 161.618C221.782 161.929 221.863 162.233 222.014 162.505C222.165 162.776 222.382 163.005 222.646 163.171V172.486L217.928 158.729C218.433 158.479 218.878 158.122 219.229 157.682C219.581 157.243 219.831 156.731 219.962 156.185H218.274L216.11 114.611V44.9192C216.122 42.944 216.914 41.0529 218.316 39.6561C219.718 38.2594 221.615 37.4698 223.598 37.4585Z" fill="#F6F8F9"/>
</g>
</g>
</svg>
