<svg width="55" height="56" viewBox="0 0 55 56" fill="none" xmlns="http://www.w3.org/2000/svg">
<rect y="0.5" width="55" height="55" rx="27.5" fill="white"/>
<g clip-path="url(#clip0_4024_10872)">
<path d="M27.5 28C28.7856 28 30.0423 27.6188 31.1112 26.9046C32.1801 26.1903 33.0132 25.1752 33.5052 23.9874C33.9972 22.7997 34.1259 21.4928 33.8751 20.2319C33.6243 18.971 33.0052 17.8129 32.0962 16.9038C31.1872 15.9948 30.029 15.3757 28.7681 15.1249C27.5072 14.8741 26.2003 15.0028 25.0126 15.4948C23.8248 15.9868 22.8097 16.8199 22.0954 17.8888C21.3812 18.9577 21 20.2144 21 21.5C21.0017 23.2234 21.6871 24.8757 22.9057 26.0943C24.1243 27.3129 25.7766 27.9983 27.5 28ZM27.5 17.1667C28.3571 17.1667 29.1949 17.4208 29.9075 17.897C30.6201 18.3731 31.1755 19.0499 31.5035 19.8417C31.8315 20.6335 31.9173 21.5048 31.7501 22.3454C31.5829 23.186 31.1702 23.9581 30.5641 24.5641C29.9581 25.1702 29.186 25.5829 28.3454 25.7501C27.5048 25.9173 26.6335 25.8315 25.8417 25.5035C25.0499 25.1755 24.3731 24.6201 23.897 23.9075C23.4208 23.1949 23.1667 22.3571 23.1667 21.5C23.1667 20.3507 23.6232 19.2485 24.4359 18.4359C25.2485 17.6232 26.3507 17.1667 27.5 17.1667V17.1667Z" fill="#7B7986"/>
<path d="M27.5 30.1665C24.915 30.1694 22.4367 31.1975 20.6089 33.0254C18.781 34.8532 17.7529 37.3315 17.75 39.9165C17.75 40.2038 17.8641 40.4794 18.0673 40.6825C18.2705 40.8857 18.546 40.9998 18.8333 40.9998C19.1207 40.9998 19.3962 40.8857 19.5994 40.6825C19.8025 40.4794 19.9167 40.2038 19.9167 39.9165C19.9167 37.9053 20.7156 35.9764 22.1378 34.5543C23.5599 33.1321 25.4888 32.3332 27.5 32.3332C29.5112 32.3332 31.4401 33.1321 32.8622 34.5543C34.2844 35.9764 35.0833 37.9053 35.0833 39.9165C35.0833 40.2038 35.1975 40.4794 35.4006 40.6825C35.6038 40.8857 35.8793 40.9998 36.1667 40.9998C36.454 40.9998 36.7295 40.8857 36.9327 40.6825C37.1359 40.4794 37.25 40.2038 37.25 39.9165C37.2471 37.3315 36.219 34.8532 34.3911 33.0254C32.5633 31.1975 30.085 30.1694 27.5 30.1665V30.1665Z" fill="#7B7986"/>
</g>
<defs>
<clipPath id="clip0_4024_10872">
<rect width="26" height="26" fill="white" transform="translate(14.5 15)"/>
</clipPath>
</defs>
</svg>
