<svg width="346" height="136" viewBox="0 0 346 136" fill="none" xmlns="http://www.w3.org/2000/svg">
<ellipse opacity="0.6" cx="173" cy="118" rx="173" ry="13" fill="#E7E7E9"/>
<ellipse opacity="0.4" cx="173" cy="117" rx="173" ry="13" fill="#E0E7EB"/>
<path fill-rule="evenodd" clip-rule="evenodd" d="M331.776 13.4468C324.442 10.7791 318.959 10.6294 318.959 10.6294L295.524 85.1111C295.524 85.1111 299.376 84.6679 305.081 86.7429C310.786 88.8178 313.452 91.6323 313.452 91.6323L343.407 19.5219C343.407 19.5219 339.11 16.1146 331.776 13.4468ZM294.403 116.061C301.154 118.517 308.619 115.038 311.076 108.291C313.533 101.545 310.052 94.0846 303.301 91.629C296.55 89.1734 289.085 92.652 286.628 99.3987C284.171 106.145 287.652 113.605 294.403 116.061Z" fill="url(#paint0_linear_4257_23362)"/>
<g filter="url(#filter0_d_4257_23362)">
<path d="M44.144 118.792C32.5387 118.792 23.664 115.421 17.52 108.68C11.376 101.853 8.304 92.68 8.304 81.16C8.304 73.5653 9.62667 66.9947 12.272 61.448C14.9173 55.816 18.8853 51.464 24.176 48.392C29.552 45.2347 36.208 43.656 44.144 43.656C55.92 43.656 64.8373 47.0693 70.896 53.896C76.9547 60.6373 79.984 69.7253 79.984 81.16C79.984 88.584 78.6187 95.1547 75.888 100.872C73.1573 106.504 69.1467 110.899 63.856 114.056C58.5653 117.213 51.9947 118.792 44.144 118.792ZM44.016 106.248C51.696 106.248 57.456 103.859 61.296 99.08C65.2213 94.3013 67.184 88.328 67.184 81.16C67.184 76.296 66.3307 71.9867 64.624 68.232C62.9173 64.392 60.3573 61.4053 56.944 59.272C53.5307 57.0533 49.2213 55.944 44.016 55.944C36.5067 55.944 30.7893 58.248 26.864 62.856C22.9387 67.464 20.976 73.5653 20.976 81.16C20.976 85.8533 21.7867 90.12 23.408 93.96C25.1147 97.7147 27.6747 100.701 31.088 102.92C34.5013 105.139 38.8107 106.248 44.016 106.248ZM122.519 118.792C110.914 118.792 102.039 115.421 95.895 108.68C89.751 101.853 86.679 92.68 86.679 81.16C86.679 73.5653 88.0017 66.9947 90.647 61.448C93.2923 55.816 97.2603 51.464 102.551 48.392C107.927 45.2347 114.583 43.656 122.519 43.656C134.295 43.656 143.212 47.0693 149.271 53.896C155.33 60.6373 158.359 69.7253 158.359 81.16C158.359 88.584 156.994 95.1547 154.263 100.872C151.532 106.504 147.522 110.899 142.231 114.056C136.94 117.213 130.37 118.792 122.519 118.792ZM122.391 106.248C130.071 106.248 135.831 103.859 139.671 99.08C143.596 94.3013 145.559 88.328 145.559 81.16C145.559 76.296 144.706 71.9867 142.999 68.232C141.292 64.392 138.732 61.4053 135.319 59.272C131.906 57.0533 127.596 55.944 122.391 55.944C114.882 55.944 109.164 58.248 105.239 62.856C101.314 67.464 99.351 73.5653 99.351 81.16C99.351 85.8533 100.162 90.12 101.783 93.96C103.49 97.7147 106.05 100.701 109.463 102.92C112.876 105.139 117.186 106.248 122.391 106.248ZM183.102 117H170.046V44.936H198.974C206.995 44.936 213.225 46.9413 217.662 50.952C222.099 54.9627 224.318 61.0213 224.318 69.128C224.318 76.2107 222.014 81.7573 217.406 85.768C212.883 89.7787 206.739 91.784 198.974 91.784H183.102V117ZM197.182 55.56H183.102V82.184H197.182C201.79 82.184 205.502 81.0747 208.318 78.856C211.134 76.6373 212.542 73.3093 212.542 68.872C212.542 64.3493 211.134 61.0213 208.318 58.888C205.587 56.6693 201.875 55.56 197.182 55.56ZM261.828 118.408C257.903 118.408 254.02 117.939 250.18 117C246.425 116.061 243.012 114.611 239.94 112.648C236.868 110.685 234.436 108.125 232.644 104.968C230.852 101.725 229.913 97.8427 229.828 93.32H243.012C243.012 93.7467 243.183 94.6853 243.524 96.136C243.865 97.5013 244.633 98.9947 245.828 100.616C247.108 102.237 249.071 103.645 251.716 104.84C254.447 106.035 258.116 106.632 262.724 106.632C267.759 106.632 271.471 105.693 273.86 103.816C276.335 101.939 277.572 99.9333 277.572 97.8C277.572 95.4107 276.719 93.5333 275.012 92.168C273.391 90.7173 271.172 89.5653 268.356 88.712C265.625 87.7733 262.596 86.92 259.268 86.152C256.025 85.384 252.74 84.5307 249.412 83.592C246.169 82.568 243.183 81.2453 240.452 79.624C237.807 77.9173 235.716 75.7413 234.18 73.096C232.644 70.4507 231.961 67.08 232.132 62.984C232.559 56.9253 235.46 52.1893 240.836 48.776C246.212 45.3627 253.337 43.656 262.212 43.656C267.332 43.656 272.068 44.5947 276.42 46.472C280.857 48.264 284.399 50.9947 287.044 54.664C289.775 58.248 291.14 62.856 291.14 68.488H278.468C278.468 65.8427 277.871 63.7093 276.676 62.088C275.481 60.3813 273.945 59.1013 272.068 58.248C270.276 57.3093 268.356 56.712 266.308 56.456C264.26 56.1147 262.425 55.944 260.804 55.944C256.537 55.944 252.996 56.6693 250.18 58.12C247.449 59.5707 246.084 61.704 246.084 64.52C245.999 66.9093 246.809 68.8293 248.516 70.28C250.223 71.7307 252.484 72.8827 255.3 73.736C258.116 74.5893 261.188 75.3573 264.516 76.04C267.844 76.7227 271.172 77.576 274.5 78.6C277.828 79.5387 280.857 80.8187 283.588 82.44C286.319 83.976 288.452 86.1093 289.988 88.84C291.524 91.4853 292.164 94.9413 291.908 99.208C291.567 105.267 288.623 110.003 283.076 113.416C277.529 116.744 270.447 118.408 261.828 118.408Z" fill="url(#paint1_linear_4257_23362)" shape-rendering="crispEdges"/>
</g>
<defs>
<filter id="filter0_d_4257_23362" x="2.3042" y="41.6558" width="295.988" height="87.1362" filterUnits="userSpaceOnUse" color-interpolation-filters="sRGB">
<feFlood flood-opacity="0" result="BackgroundImageFix"/>
<feColorMatrix in="SourceAlpha" type="matrix" values="0 0 0 0 0 0 0 0 0 0 0 0 0 0 0 0 0 0 127 0" result="hardAlpha"/>
<feOffset dy="4"/>
<feGaussianBlur stdDeviation="3"/>
<feComposite in2="hardAlpha" operator="out"/>
<feColorMatrix type="matrix" values="0 0 0 0 0.113725 0 0 0 0 0.0156863 0 0 0 0 0.278431 0 0 0 0.06 0"/>
<feBlend mode="normal" in2="BackgroundImageFix" result="effect1_dropShadow_4257_23362"/>
<feBlend mode="normal" in="SourceGraphic" in2="effect1_dropShadow_4257_23362" result="shape"/>
</filter>
<linearGradient id="paint0_linear_4257_23362" x1="331.776" y1="13.4468" x2="294.446" y2="116.077" gradientUnits="userSpaceOnUse">
<stop stop-color="#A4D9FF" stop-opacity="0.9"/>
<stop offset="1" stop-color="#1A71CA"/>
<stop offset="1" stop-color="#1A71CA" stop-opacity="0.9"/>
</linearGradient>
<linearGradient id="paint1_linear_4257_23362" x1="6" y1="81.2222" x2="298.19" y2="81.2222" gradientUnits="userSpaceOnUse">
<stop stop-color="#1A71CA"/>
<stop offset="0.0001" stop-color="#1A71CA" stop-opacity="0.9"/>
<stop offset="1" stop-color="#A4D9FF"/>
</linearGradient>
</defs>
</svg>
