<svg width="192" height="162" viewBox="0 0 192 162" fill="none" xmlns="http://www.w3.org/2000/svg">
<g filter="url(#filter0_d_1933_762)">
<path d="M49.2522 149.087L7.85218 80.087C6.71213 78.1869 6.71213 75.8131 7.85218 73.913L49.2522 4.91302C50.3365 3.10579 52.2896 2 54.3971 2H137.603C139.71 2 141.663 3.10579 142.748 4.91302L184.148 73.913C185.288 75.8131 185.288 78.1869 184.148 80.087L142.748 149.087C141.663 150.894 139.71 152 137.603 152H54.3971C52.2896 152 50.3365 150.894 49.2522 149.087Z" fill="white"/>
</g>
<path opacity="0.1" d="M136.254 93.1428L136.361 93.2017C137.788 93.9968 137.828 96.031 136.431 96.8809L86.9323 127L52 104.897L100.695 76.208C102.975 74.7604 105.882 74.7316 108.192 76.1312L136.254 93.1428Z" fill="url(#paint0_linear_1933_762)"/>
<path d="M133.234 96.7337C132.715 96.7337 132.199 96.5961 131.744 96.3374L103.586 80.1832C102.403 79.5103 101.665 78.2559 101.665 76.9146V29.5434C101.665 28.1408 102.833 27 104.269 27C104.726 27 105.179 27.1196 105.577 27.3469L134.094 43.706C135.393 44.4446 136.201 45.8187 136.201 47.29V93.8359C136.203 95.4328 134.871 96.7337 133.234 96.7337Z" fill="#3A9386"/>
<path d="M132.244 97.1538C131.725 97.1538 131.209 97.0163 130.754 96.7576L102.596 80.6033C101.413 79.9305 100.675 78.676 100.675 77.3348V29.9635C100.675 28.561 101.843 27.4202 103.279 27.4202C103.736 27.4202 104.189 27.5398 104.587 27.767L133.104 44.1262C134.403 44.8648 135.211 46.2389 135.211 47.7102V94.2561C135.213 95.8545 133.881 97.1538 132.244 97.1538Z" fill="url(#paint1_linear_1933_762)"/>
<path d="M133.169 95.5151C132.693 95.8515 132.028 95.9262 131.446 95.5958L103.292 79.4445C102.523 79.0064 102.052 78.2035 102.052 77.3348V29.962C102.052 29.3131 102.555 28.8406 103.137 28.7733C102.871 28.9856 102.69 29.3116 102.69 29.6959L102.687 77.0686C102.687 77.9374 103.16 78.7418 103.93 79.1784L132.085 95.3297C132.437 95.5285 132.82 95.5794 133.169 95.5151Z" fill="#3A9386"/>
<path d="M133.836 47.7102V94.2561C133.836 94.7974 133.567 95.2429 133.17 95.5151C132.82 95.5794 132.437 95.5285 132.088 95.3297L103.933 79.1784C103.165 78.7418 102.69 77.9374 102.69 77.0686L102.693 29.6959C102.693 29.3116 102.872 28.9856 103.14 28.7733C103.388 28.7434 103.653 28.7898 103.898 28.9288L132.411 45.2849C133.291 45.7888 133.836 46.7114 133.836 47.7102Z" fill="url(#paint2_linear_1933_762)"/>
<path d="M125.677 54.0168L110.214 45.059C109.843 44.8452 109.541 44.3742 109.541 44.0124C109.541 43.6505 109.845 43.5309 110.214 43.7447L125.677 52.7025C126.048 52.9164 126.35 53.3873 126.35 53.7492C126.35 54.111 126.046 54.2307 125.677 54.0168Z" fill="#CCC9C8"/>
<path d="M125.677 47.7864L110.214 38.8285C109.843 38.6147 109.541 38.1437 109.541 37.7819C109.541 37.4201 109.845 37.3004 110.214 37.5143L125.677 46.4721C126.048 46.6859 126.35 47.1569 126.35 47.5187C126.35 47.8805 126.046 48.0017 125.677 47.7864Z" fill="url(#paint3_linear_1933_762)"/>
<path d="M125.677 68.9525L110.214 59.9947C109.843 59.7809 109.541 59.3099 109.541 58.948C109.541 58.5862 109.845 58.4666 110.214 58.6804L125.677 67.6382C126.048 67.852 126.35 68.323 126.35 68.6849C126.35 69.0467 126.046 69.1663 125.677 68.9525Z" fill="url(#paint4_linear_1933_762)"/>
<path d="M128.242 58.9332L107.647 47.0029C107.276 46.7891 106.974 46.3181 106.974 45.9562C106.974 45.5944 107.278 45.4748 107.647 45.6886L128.242 57.6189C128.612 57.8327 128.914 58.3037 128.914 58.6655C128.914 59.0274 128.612 59.1485 128.242 58.9332Z" fill="#CCC9C8"/>
<path d="M128.242 62.3645L107.647 50.4343C107.276 50.2204 106.974 49.7494 106.974 49.3876C106.974 49.0258 107.278 48.9062 107.647 49.12L128.242 61.0503C128.612 61.2641 128.914 61.7351 128.914 62.0969C128.914 62.4587 128.612 62.5784 128.242 62.3645Z" fill="#CCC9C8"/>
<path d="M128.242 65.7945L107.647 53.8642C107.276 53.6504 106.974 53.1794 106.974 52.8176C106.974 52.4572 107.278 52.3361 107.647 52.5499L128.242 64.4802C128.612 64.694 128.914 65.165 128.914 65.5269C128.914 65.8887 128.612 66.0098 128.242 65.7945Z" fill="#CCC9C8"/>
<path d="M128.242 75.37L107.647 63.4398C107.276 63.2259 106.974 62.755 106.974 62.3931C106.974 62.0313 107.278 61.9116 107.647 62.1255L128.242 74.0558C128.612 74.2696 128.914 74.7406 128.914 75.1024C128.914 75.4642 128.612 75.5839 128.242 75.37Z" fill="#CCC9C8"/>
<path d="M128.242 78.8015L107.647 66.8712C107.276 66.6573 106.974 66.1863 106.974 65.8245C106.974 65.4627 107.278 65.343 107.647 65.5569L128.242 77.4872C128.612 77.701 128.914 78.172 128.914 78.5338C128.914 78.8956 128.612 79.0153 128.242 78.8015Z" fill="#CCC9C8"/>
<path d="M128.242 82.2315L107.647 70.3012C107.276 70.0874 106.974 69.6164 106.974 69.2546C106.974 68.8927 107.278 68.7731 107.647 68.9869L128.242 80.9172C128.612 81.131 128.914 81.602 128.914 81.9639C128.914 82.3257 128.612 82.4468 128.242 82.2315Z" fill="#CCC9C8"/>
<path d="M131.347 81.925L140 103.224L135.059 100.581L133.305 105.431L125.332 86.4825L131.347 81.925Z" fill="url(#paint5_linear_1933_762)"/>
<path d="M133.305 102.327L126.686 86.2073L127.078 85.992L133.313 100.947L134.296 98.2019L136.836 99.6956L130.739 84.9797L131.176 84.8362L137.835 100.916L134.468 98.9226L133.305 102.327Z" fill="url(#paint6_linear_1933_762)"/>
<path d="M122.653 79.9138L113.16 91.8127L117.527 92.6112L117.907 99.1557L127.4 87.2568L122.653 79.9138Z" fill="url(#paint7_linear_1933_762)"/>
<path d="M118.819 95.8318L126.746 86.24L126.52 85.9066L119.037 94.9601L118.799 91.0531L116.302 90.5851L123.623 81.406L123.394 81.0756L115.617 90.8258L118.548 91.3746L118.819 95.8318Z" fill="url(#paint8_linear_1933_762)"/>
<path d="M133.055 84.2619C133.052 84.3322 133.051 84.4025 133.046 84.4712C133.032 84.6372 133.013 84.7987 132.985 84.9557C132.979 84.9886 132.977 85.0245 132.971 85.0559C132.936 85.2428 132.888 85.4222 132.833 85.5942C132.818 85.642 132.797 85.6869 132.78 85.7347C132.735 85.8558 132.688 85.9724 132.633 86.0831C132.605 86.1384 132.576 86.1908 132.545 86.2431C132.49 86.3403 132.432 86.433 132.368 86.5212C132.333 86.5705 132.297 86.6184 132.259 86.6647C132.187 86.7515 132.111 86.8322 132.029 86.9084C131.991 86.9443 131.958 86.9817 131.918 87.0161C131.794 87.1208 131.662 87.215 131.518 87.2957L129.312 88.5487C129.456 88.4694 129.587 88.3738 129.711 88.2691C129.751 88.2362 129.786 88.1973 129.823 88.1614C129.904 88.0852 129.981 88.0044 130.053 87.9177C130.091 87.8714 130.126 87.822 130.161 87.7742C130.224 87.686 130.282 87.5932 130.337 87.4976C130.368 87.4452 130.397 87.3929 130.425 87.3361C130.48 87.2254 130.527 87.1088 130.572 86.9877C130.589 86.9399 130.61 86.895 130.625 86.8471C130.68 86.6752 130.728 86.4973 130.763 86.3104C130.769 86.2775 130.772 86.2401 130.778 86.2072C130.804 86.0502 130.826 85.8902 130.838 85.7242C130.843 85.6555 130.844 85.5852 130.847 85.5149C130.854 85.3774 130.857 85.2368 130.853 85.0948C130.852 85.017 130.849 84.9378 130.844 84.8585C130.837 84.7135 130.823 84.5669 130.806 84.4189C130.797 84.3412 130.789 84.2634 130.778 84.1842C130.757 84.0302 130.728 83.8717 130.696 83.7147C130.682 83.6444 130.671 83.5741 130.656 83.5024C130.638 83.4231 130.616 83.3424 130.596 83.2616C130.566 83.136 130.533 83.0104 130.497 82.8848C130.478 82.822 130.457 82.7592 130.437 82.6964C130.394 82.5574 130.348 82.4168 130.298 82.2778C130.276 82.2195 130.255 82.1597 130.233 82.1013C130.169 81.9324 130.102 81.7634 130.028 81.5945C130.017 81.5705 130.008 81.5451 129.998 81.5212C129.913 81.3298 129.82 81.1369 129.723 80.9455C129.7 80.8992 129.674 80.8514 129.65 80.805C129.55 80.6136 129.446 80.4237 129.335 80.2338C129.218 80.038 129.097 79.8481 128.973 79.6627C128.939 79.6118 128.904 79.5625 128.871 79.5131C128.78 79.3816 128.687 79.253 128.593 79.1274C128.549 79.0676 128.505 79.0078 128.46 78.9494C128.376 78.8418 128.29 78.7371 128.203 78.634C128.142 78.5607 128.082 78.4874 128.021 78.4171C127.963 78.3514 127.903 78.2886 127.843 78.2258C127.725 78.0972 127.606 77.9716 127.485 77.852C127.433 77.7996 127.379 77.7503 127.326 77.6994C127.076 77.4632 126.82 77.2419 126.562 77.0445C126.526 77.0176 126.491 76.9952 126.457 76.9683C126.185 76.7664 125.909 76.5795 125.634 76.424C125.413 76.2999 125.193 76.1968 124.974 76.1041C124.911 76.0771 124.85 76.0532 124.788 76.0293C124.658 75.9799 124.528 75.9366 124.399 75.8992C124.335 75.8798 124.269 75.8588 124.205 75.8424C124.133 75.8244 124.061 75.811 123.989 75.7975C123.9 75.7796 123.811 75.7631 123.724 75.7527C123.672 75.7467 123.62 75.7422 123.568 75.7377C123.467 75.7288 123.369 75.7243 123.271 75.7243C123.23 75.7243 123.19 75.7243 123.148 75.7258C123.014 75.7317 122.882 75.7422 122.753 75.7646C122.741 75.7661 122.73 75.7706 122.72 75.7721C122.6 75.7945 122.485 75.8259 122.372 75.8618C122.341 75.8723 122.311 75.8828 122.282 75.8932C122.159 75.9381 122.038 75.9904 121.923 76.0532L124.13 74.8002C124.133 74.7987 124.138 74.7957 124.141 74.7942C124.226 74.7464 124.315 74.7045 124.406 74.6687C124.433 74.6582 124.461 74.6507 124.488 74.6402C124.519 74.6283 124.549 74.6193 124.58 74.6088C124.614 74.5984 124.647 74.5834 124.681 74.5745C124.762 74.552 124.843 74.5341 124.928 74.5191C124.94 74.5176 124.951 74.5131 124.963 74.5116C124.966 74.5116 124.971 74.5102 124.974 74.5087C125.076 74.4907 125.18 74.4788 125.286 74.4728C125.309 74.4713 125.333 74.4728 125.356 74.4728C125.398 74.4713 125.438 74.4713 125.479 74.4713C125.529 74.4713 125.578 74.4683 125.629 74.4698C125.676 74.4713 125.727 74.4803 125.774 74.4832C125.827 74.4877 125.879 74.4922 125.932 74.4982C125.961 74.5012 125.989 74.5027 126.018 74.5072C126.076 74.5161 126.136 74.5326 126.196 74.5445C126.268 74.558 126.339 74.5715 126.413 74.5894C126.436 74.5954 126.457 74.5969 126.48 74.6029C126.522 74.6133 126.563 74.6328 126.604 74.6447C126.733 74.6821 126.863 74.7255 126.995 74.7748C127.029 74.7883 127.062 74.7957 127.097 74.8092C127.125 74.8197 127.153 74.8376 127.18 74.8496C127.399 74.9423 127.62 75.0454 127.84 75.1695C128.116 75.325 128.391 75.5105 128.664 75.7123C128.699 75.7377 128.734 75.7617 128.77 75.7886C129.028 75.9859 129.282 76.2072 129.534 76.4435C129.558 76.4659 129.584 76.4838 129.607 76.5063C129.636 76.5347 129.664 76.5661 129.691 76.5945C129.812 76.7141 129.932 76.8397 130.05 76.9668C130.091 77.0116 130.134 77.052 130.175 77.0984C130.194 77.1178 130.21 77.1402 130.227 77.1612C130.288 77.2314 130.348 77.3047 130.409 77.378C130.471 77.4512 130.532 77.52 130.592 77.5948C130.616 77.6262 130.641 77.6606 130.665 77.692C130.711 77.7518 130.755 77.8116 130.801 77.8714C130.847 77.9312 130.893 77.9895 130.938 78.0523C130.985 78.1181 131.031 78.1884 131.077 78.2557C131.112 78.3065 131.146 78.3558 131.18 78.4067C131.2 78.4366 131.219 78.4635 131.239 78.4934C131.333 78.6354 131.423 78.7805 131.512 78.9285C131.521 78.945 131.532 78.9614 131.541 78.9778C131.618 79.1064 131.69 79.235 131.76 79.3651C131.794 79.4264 131.823 79.4877 131.855 79.549C131.879 79.5969 131.904 79.6432 131.928 79.6911C131.947 79.7284 131.968 79.7643 131.987 79.8017C132.06 79.9497 132.129 80.0978 132.195 80.2443C132.198 80.2518 132.201 80.2592 132.204 80.2652C132.215 80.2891 132.224 80.3146 132.235 80.3385C132.287 80.4596 132.339 80.5792 132.386 80.7003C132.405 80.7482 132.421 80.796 132.44 80.8454C132.463 80.9052 132.484 80.9635 132.506 81.0233C132.524 81.0756 132.545 81.128 132.564 81.1818C132.593 81.2685 132.617 81.3552 132.645 81.4419C132.665 81.5047 132.686 81.5675 132.703 81.6303C132.711 81.6543 132.719 81.6782 132.726 81.7021C132.755 81.8038 132.777 81.904 132.803 82.0056C132.823 82.0864 132.846 82.1686 132.864 82.2494C132.867 82.2643 132.872 82.2793 132.875 82.2942C132.887 82.3496 132.893 82.4034 132.904 82.4587C132.936 82.6172 132.965 82.7742 132.986 82.9297C132.991 82.9566 132.997 82.985 133.002 83.0134C133.008 83.0657 133.009 83.1151 133.016 83.1659C133.032 83.314 133.045 83.4605 133.054 83.604C133.058 83.6848 133.062 83.7625 133.063 83.8418C133.065 83.9853 133.062 84.1244 133.055 84.2619Z" fill="#D7A65B"/>
<path d="M129.351 88.5562C128.325 89.1304 126.983 88.948 125.641 88.1914C124.3 87.4348 122.96 86.1041 121.94 84.3771C119.898 80.9276 119.908 77.2061 121.965 76.0607C122.991 75.4896 124.334 75.6735 125.675 76.4301C127.016 77.1866 128.356 78.5159 129.376 80.2399C131.418 83.6953 131.408 87.4184 129.351 88.5562Z" fill="url(#paint9_linear_1933_762)"/>
<path d="M121.828 76.2431C122.854 75.6719 124.197 75.8558 125.538 76.6124C126.88 77.369 128.22 78.6982 129.239 80.4222C130.925 83.2751 131.212 86.3088 130.103 87.9207C131.368 86.3627 131.127 83.2048 129.376 80.2413C128.357 78.5188 127.018 77.1881 125.675 76.4315C124.333 75.6749 122.989 75.4925 121.965 76.0622C121.606 76.261 121.312 76.5391 121.08 76.88C121.288 76.6214 121.537 76.4061 121.828 76.2431Z" fill="url(#paint10_linear_1933_762)"/>
<path d="M123.999 80.3744L124.896 79.866L122.569 78.933L121.672 79.4428L123.999 80.3744Z" fill="#D7A65B"/>
<path d="M127.107 86.9549L128.004 86.4451L127.614 83.6206L126.718 84.1305L127.107 86.9549Z" fill="#DCB274"/>
<path d="M126.081 81.5466L126.978 81.0382L125.945 78.0867L125.048 78.5965L126.081 81.5466Z" fill="#DCB274"/>
<path d="M128.405 83.2392L129.302 82.7293L126.978 81.0382L126.08 81.5466L128.405 83.2392Z" fill="#D7A65B"/>
<path d="M125.046 78.5966L123.999 80.3744L121.672 79.4428L123.35 82.2314L122.946 84.6088L125.03 84.5535L127.106 86.9548L126.717 84.1303L128.404 83.2392L126.08 81.5466L125.046 78.5966Z" fill="url(#paint11_linear_1933_762)"/>
<path d="M123.938 80.4297L123.976 80.3654L121.672 79.4429L121.734 79.5475L123.938 80.4297Z" fill="url(#paint12_linear_1933_762)"/>
<path d="M126.018 81.6019L128.325 83.2796L128.403 83.2392L126.079 81.5466L125.045 78.5966L124.995 78.6818L126.018 81.6019Z" fill="url(#paint13_linear_1933_762)"/>
<path d="M126.656 84.1842L127.025 86.8606L127.106 86.9548L126.719 84.1512L126.656 84.1842Z" fill="url(#paint14_linear_1933_762)"/>
<defs>
<filter id="filter0_d_1933_762" x="0.997192" y="0" width="190.006" height="162" filterUnits="userSpaceOnUse" color-interpolation-filters="sRGB">
<feFlood flood-opacity="0" result="BackgroundImageFix"/>
<feColorMatrix in="SourceAlpha" type="matrix" values="0 0 0 0 0 0 0 0 0 0 0 0 0 0 0 0 0 0 127 0" result="hardAlpha"/>
<feOffset dy="4"/>
<feGaussianBlur stdDeviation="3"/>
<feColorMatrix type="matrix" values="0 0 0 0 0.473611 0 0 0 0 0.516667 0 0 0 0 0.645833 0 0 0 0.45 0"/>
<feBlend mode="normal" in2="BackgroundImageFix" result="effect1_dropShadow_1933_762"/>
<feBlend mode="normal" in="SourceGraphic" in2="effect1_dropShadow_1933_762" result="shape"/>
</filter>
<linearGradient id="paint0_linear_1933_762" x1="116.104" y1="84.0474" x2="75.931" y2="115.144" gradientUnits="userSpaceOnUse">
<stop stop-color="#2B2E3D"/>
<stop offset="1" stop-color="#525575"/>
</linearGradient>
<linearGradient id="paint1_linear_1933_762" x1="133.687" y1="42.3432" x2="116.639" y2="64.8602" gradientUnits="userSpaceOnUse">
<stop stop-color="#57BDB2"/>
<stop offset="1" stop-color="#6EE3CC"/>
</linearGradient>
<linearGradient id="paint2_linear_1933_762" x1="131.897" y1="44.8676" x2="105.182" y2="80.1519" gradientUnits="userSpaceOnUse">
<stop stop-color="white"/>
<stop offset="1" stop-color="#E9E9E9"/>
</linearGradient>
<linearGradient id="paint3_linear_1933_762" x1="109.541" y1="42.6515" x2="126.35" y2="42.6515" gradientUnits="userSpaceOnUse">
<stop stop-color="#FFAC06"/>
<stop offset="0.9952" stop-color="#FA8A13"/>
</linearGradient>
<linearGradient id="paint4_linear_1933_762" x1="109.541" y1="63.8168" x2="126.35" y2="63.8168" gradientUnits="userSpaceOnUse">
<stop stop-color="#FFAC06"/>
<stop offset="0.9952" stop-color="#FA8A13"/>
</linearGradient>
<linearGradient id="paint5_linear_1933_762" x1="137.104" y1="103.735" x2="128.964" y2="85.7647" gradientUnits="userSpaceOnUse">
<stop stop-color="#FFAC06"/>
<stop offset="1" stop-color="#F46022"/>
</linearGradient>
<linearGradient id="paint6_linear_1933_762" x1="126.686" y1="90.4753" x2="137.835" y2="90.4753" gradientUnits="userSpaceOnUse">
<stop stop-color="#FFF1D3"/>
<stop offset="1" stop-color="#FFDC96"/>
</linearGradient>
<linearGradient id="paint7_linear_1933_762" x1="123.116" y1="93.0448" x2="117.547" y2="85.8178" gradientUnits="userSpaceOnUse">
<stop stop-color="#FFAC06"/>
<stop offset="1" stop-color="#F46022"/>
</linearGradient>
<linearGradient id="paint8_linear_1933_762" x1="126.746" y1="91.6074" x2="115.617" y2="91.6074" gradientUnits="userSpaceOnUse">
<stop stop-color="#FFF1D3"/>
<stop offset="1" stop-color="#FFDC96"/>
</linearGradient>
<linearGradient id="paint9_linear_1933_762" x1="123.371" y1="85.4577" x2="128.954" y2="77.3993" gradientUnits="userSpaceOnUse">
<stop stop-color="#DCB274"/>
<stop offset="1" stop-color="#FFDC96"/>
</linearGradient>
<linearGradient id="paint10_linear_1933_762" x1="129.465" y1="86.2496" x2="123.419" y2="74.7338" gradientUnits="userSpaceOnUse">
<stop stop-color="#FFDF9F"/>
<stop offset="1" stop-color="#FFDC96"/>
</linearGradient>
<linearGradient id="paint11_linear_1933_762" x1="121.672" y1="82.7751" x2="128.405" y2="82.7751" gradientUnits="userSpaceOnUse">
<stop stop-color="#FFF1D3"/>
<stop offset="1" stop-color="#FFDC96"/>
</linearGradient>
<linearGradient id="paint12_linear_1933_762" x1="121.672" y1="79.9359" x2="123.976" y2="79.9359" gradientUnits="userSpaceOnUse">
<stop stop-color="#FFF1D3"/>
<stop offset="1" stop-color="white"/>
</linearGradient>
<linearGradient id="paint13_linear_1933_762" x1="124.995" y1="80.9382" x2="128.404" y2="80.9382" gradientUnits="userSpaceOnUse">
<stop stop-color="#FFF1D3"/>
<stop offset="1" stop-color="white"/>
</linearGradient>
<linearGradient id="paint14_linear_1933_762" x1="126.656" y1="85.5525" x2="127.107" y2="85.5525" gradientUnits="userSpaceOnUse">
<stop stop-color="#FFF1D3"/>
<stop offset="1" stop-color="white"/>
</linearGradient>
</defs>
</svg>
