<svg width="333" height="398" viewBox="0 0 333 398" fill="none" xmlns="http://www.w3.org/2000/svg">
<path opacity="0.5" d="M166.987 398C205.875 398 237.401 389.922 237.401 379.957C237.401 369.992 205.875 361.914 166.987 361.914C128.098 361.914 96.5726 369.992 96.5726 379.957C96.5726 389.922 128.098 398 166.987 398Z" fill="url(#paint0_radial_2187_8591)"/>
<path d="M161.101 305.579C160.497 314.263 148.531 342.063 139.172 349.614C139.155 349.634 139.155 349.634 139.155 349.653C137.342 351.104 135.632 351.8 134.13 351.462C127.396 349.971 124.15 312.852 123.839 291.948C123.718 283.88 124.046 278.237 124.771 277.998C130.901 276.13 161.826 295.246 161.101 305.579Z" fill="url(#paint1_linear_2187_8591)"/>
<path d="M161.1 308.421C161.1 308.421 152.829 313.587 139.913 306.136C129.812 300.313 123.078 281.356 124.788 277.998C126.497 274.64 165.779 294.948 161.1 308.421Z" fill="url(#paint2_linear_2187_8591)"/>
<path opacity="0.3" d="M161.099 305.579C160.494 314.263 148.529 342.063 139.17 349.614C146.198 340.314 146.439 321.337 141.967 312.654C138.6 306.076 128.551 296.28 123.854 291.928C123.733 283.86 124.061 278.217 124.787 277.978C130.899 276.13 161.824 295.246 161.099 305.579Z" fill="url(#paint3_linear_2187_8591)"/>
<path d="M135.027 226.452C135.027 226.452 99.509 249.642 91.1519 248.708C82.7947 247.774 86.5071 225.916 86.5071 225.916C87.6122 224.405 88.8554 222.855 90.1849 221.246L90.2022 221.226C103.549 205.011 126.342 184.345 139.43 174.489L139.447 174.469C144.955 170.316 148.754 168.091 149.393 168.925C154.262 175.165 135.027 226.452 135.027 226.452Z" fill="url(#paint4_linear_2187_8591)"/>
<path d="M86.5249 225.936C86.5249 225.936 91.1696 221.445 96.9195 227.486C102.669 233.527 96.7468 248.013 91.1696 248.728C85.5925 249.443 82.2427 235.315 86.5249 225.936Z" fill="url(#paint5_linear_2187_8591)"/>
<path opacity="0.3" d="M135.027 226.452C135.027 226.452 99.509 249.642 91.1519 248.708C82.7947 247.774 86.5071 225.916 86.5071 225.916C87.6122 224.405 88.8554 222.855 90.1849 221.246L90.2022 221.226C90.2022 221.226 98.8874 227.128 114.877 224.306C130.883 221.484 139.43 174.489 139.43 174.489L139.447 174.469C144.955 170.316 148.754 168.091 149.393 168.925C154.262 175.165 135.027 226.452 135.027 226.452Z" fill="url(#paint6_linear_2187_8591)"/>
<path d="M110.317 22.793C110.317 22.793 98.3341 37.3585 97.0046 64.2641C95.675 91.1696 122.749 52.3016 122.749 52.3016L110.317 22.793Z" fill="url(#paint7_linear_2187_8591)"/>
<path d="M102.546 52.2817C102.546 52.2817 107.985 19.1366 116.912 12.1022C125.857 5.06785 141.949 11.4266 141.949 11.4266L102.546 52.2817Z" fill="url(#paint8_linear_2187_8591)"/>
<path d="M240.579 129.819C220.273 166.541 119.763 172.383 102.496 154.022C95.6235 146.709 91.2205 137.092 89.0449 126.222V126.183C79.7726 79.684 111.164 10.5721 163.258 3.81592C198.551 -0.754447 228.06 32.8477 240.371 68.6953C248.09 91.1298 249.091 114.419 240.579 129.819Z" fill="url(#paint9_linear_2187_8591)"/>
<path d="M220.878 147.464C208.497 153.724 189.797 159.645 177.227 161.573C153.882 165.15 136.719 164.712 126.808 161.831H126.791C120.264 159.924 116.897 157.002 116.931 153.446C116.949 151.28 121.317 148.716 128.345 146.073C149.03 138.383 192.733 130.296 216.837 130.773C218.909 130.812 220.843 130.912 222.604 131.091C222.984 131.13 223.347 131.17 223.692 131.23C223.761 131.23 223.813 131.23 223.899 131.249C228.113 131.766 231.169 132.74 232.654 134.27C233.034 134.647 233.31 135.065 233.483 135.502C234.778 138.88 229.269 143.252 220.878 147.464Z" fill="url(#paint10_linear_2187_8591)"/>
<path opacity="0.3" d="M240.58 129.819C220.274 166.541 119.763 172.383 102.497 154.022C95.6245 146.709 91.2214 137.092 89.0458 126.222V126.183C89.0458 126.183 97.4375 140.112 117.95 139.834C138.446 139.556 196.912 127.097 207.686 115.075C218.443 103.072 208.446 57.2495 208.446 57.2495L240.39 68.6953C248.091 91.1298 249.092 114.419 240.58 129.819Z" fill="url(#paint11_linear_2187_8591)"/>
<path opacity="0.5" d="M220.878 147.464C210.224 143.967 179.334 135.462 156.49 145.179C128.483 157.062 126.791 161.831 126.791 161.831H126.774C120.247 159.924 116.88 157.002 116.915 153.446C116.932 151.28 121.3 148.716 128.328 146.073C149.014 138.383 192.716 130.296 216.82 130.773C219.359 130.912 221.638 131.051 223.675 131.23C223.744 131.23 223.796 131.23 223.883 131.249C228.096 131.766 231.152 132.74 232.637 134.27C233.017 134.647 233.293 135.065 233.466 135.502C234.778 138.88 229.27 143.252 220.878 147.464Z" fill="url(#paint12_linear_2187_8591)"/>
<path d="M222.605 131.11C217.787 138.025 191.956 147.345 176.865 149.67C149.825 153.783 132.835 151.419 128.345 146.093C150.792 137.747 200.434 128.905 222.605 131.11Z" fill="url(#paint13_linear_2187_8591)"/>
<path d="M89.0451 128.388C94.9159 141.92 181.25 133.892 200.295 105.755C219.358 77.6174 189.141 -1.84741 144.662 12.6387C102.272 26.4491 78.4088 103.867 89.0451 128.388Z" fill="#DFE3FB"/>
<path d="M89.0451 126.183C94.9159 139.715 181.25 131.687 200.295 103.549C219.358 75.4118 189.141 -4.05298 144.662 10.4331C102.272 24.2634 78.4088 101.662 89.0451 126.183Z" fill="url(#paint14_linear_2187_8591)"/>
<path d="M211.45 263.293C205.372 295.167 189.521 308.858 161.1 308.401C133.266 307.964 116.154 273.229 125.133 232.453C130.865 206.422 137.53 183.332 149.393 168.965C149.41 168.945 149.41 168.945 149.41 168.945L149.427 168.905C156.127 160.778 164.501 155.473 175.31 154.002C183.84 152.83 190.902 158.115 196.549 167.077C211.208 190.446 216.129 238.733 211.45 263.293Z" fill="url(#paint15_linear_2187_8591)"/>
<path d="M204.611 17.4873C204.611 17.4873 199.932 66.4498 226.195 83.7576C226.195 83.7576 239.076 85.3473 246.57 76.3456C246.57 76.3456 234.897 88.9638 222.603 75.829C210.309 62.6942 213.262 26.4889 222.603 14.6854C231.945 2.88197 245.43 6.00175 245.43 6.00175L240.043 0.417949C240.043 0.417949 220.169 -4.2319 204.611 17.4873Z" fill="url(#paint16_linear_2187_8591)"/>
<path opacity="0.3" d="M196.514 203.441C196.514 203.441 199.484 228.3 199.484 244.893C199.484 264.565 188.985 281.833 188.985 281.833L210.293 268.659C210.293 268.659 214.264 255.802 213.263 242.647C212.261 229.492 211.329 223.472 211.329 223.472L196.514 203.441Z" fill="url(#paint17_linear_2187_8591)"/>
<path d="M240.044 0.417798C240.044 0.417798 225.437 -1.13215 215.232 18.3813C204.388 39.0871 212.279 74.8949 225.437 80.3396C238.611 85.7843 251.907 27.84 251.907 27.84L244.258 4.78946C244.258 4.78946 242.738 1.55045 240.044 0.417798Z" fill="url(#paint18_linear_2187_8591)"/>
<path d="M258.917 49.7781C257.035 60.9656 253.081 70.1063 247.78 75.8888L247.745 75.9286L246.26 77.4388H246.243C241.961 81.4329 236.884 83.3206 231.411 82.5258C213.626 79.9227 211.243 50.2948 213.333 33.5037C215.767 14.1094 230.185 2.46491 241.65 4.17383C255.308 6.16094 262.595 27.8801 258.917 49.7781Z" fill="url(#paint19_linear_2187_8591)"/>
<path d="M123.717 237.739C123.717 237.739 130.192 213.655 150.204 213.655C174.188 213.655 190.35 244.158 188.916 264.863C187.483 285.549 181.975 304.943 159.321 305.758C159.304 305.738 116.879 304.645 123.717 237.739Z" fill="url(#paint20_linear_2187_8591)"/>
<path d="M123.717 240.422C123.717 240.422 130.192 216.338 150.204 216.338C174.188 216.338 190.35 246.84 188.916 267.546C187.483 288.232 181.975 307.626 159.321 308.441C159.304 308.421 116.879 307.328 123.717 240.422Z" fill="url(#paint21_radial_2187_8591)"/>
<path d="M207.858 230.188C206.822 230.188 205.717 229.195 204.578 227.466C199.553 219.776 194.269 197.54 194.321 185.18C194.356 180.391 195.167 177.093 197.136 176.695C200.33 176.059 206.84 188.499 209.999 205.965C211.83 216.159 212.296 230.188 207.858 230.188Z" fill="url(#paint22_linear_2187_8591)"/>
<path d="M204.578 227.486C199.553 219.795 194.269 197.56 194.321 185.2C197.464 189.889 201.159 199.427 203.3 211.31C204.25 216.477 204.819 222.657 204.578 227.486Z" fill="#6340A2"/>
<path d="M255.324 276.13C252.077 288.132 239.853 289.384 236.278 286.483C233.153 283.959 224.554 272.335 216.318 251.033C216.301 251.013 216.301 250.993 216.283 250.993C215.075 247.873 213.883 244.515 212.692 240.958C203.506 213.218 196.599 162.149 206.096 164.136C206.096 164.136 206.113 164.136 206.13 164.156C233.706 169.939 258.553 264.128 255.324 276.13Z" fill="url(#paint23_linear_2187_8591)"/>
<path d="M210.639 360.622C208.757 361.676 206.149 360.583 203.162 358.059C199.916 355.297 196.238 350.826 192.578 345.64C192.56 345.62 192.543 345.6 192.543 345.6L192.508 345.56C182.321 331.114 172.375 311.084 172.876 306.593C174.62 291.073 192.957 277.581 203.853 271.639C208.1 269.315 211.226 268.142 211.761 268.44C213.712 269.513 220.343 355.198 210.639 360.622Z" fill="url(#paint24_linear_2187_8591)"/>
<path d="M230.272 279.031C230.272 279.031 230.427 267.983 238.922 264.088C247.418 260.213 255.602 273.249 255.602 273.249C255.602 273.249 255.688 285.668 244.171 285.867C232.672 286.066 230.272 279.031 230.272 279.031Z" fill="url(#paint25_linear_2187_8591)"/>
<path d="M95.4866 239.726C95.4866 239.726 88.4763 252.444 80.9307 258.664C73.3851 264.863 58.5529 267.546 58.5529 267.546C58.5529 267.546 48.0374 261.962 48.0374 253.636C48.0374 253.636 59.3644 247.019 63.6811 236.547C63.6811 236.547 78.3925 230.506 84.7985 232.474C91.1699 234.441 95.4866 239.726 95.4866 239.726Z" fill="url(#paint26_linear_2187_8591)"/>
<path d="M74.3503 235.752L86.368 244.893L71.1041 237.322L74.3503 235.752Z" fill="url(#paint27_linear_2187_8591)"/>
<path d="M86.3679 113.207C86.3679 113.207 74.7128 119.108 64.9916 132.541C55.2876 145.994 54.4761 159.963 68.4967 155.612L74.3502 149.69C74.3502 149.69 66.0794 152.949 65.5441 142.735C65.0088 132.521 86.3679 115.074 86.3679 115.074V113.207V113.207Z" fill="url(#paint28_linear_2187_8591)"/>
<path d="M64.6302 148.001C61.1941 153.943 70.2765 156.645 77.494 156.407C85.5749 156.148 99.5437 152.035 97.5753 142.934C95.6242 133.833 72.6938 134.091 64.6302 148.001Z" fill="url(#paint29_linear_2187_8591)"/>
<path d="M65.2847 148.895C65.2156 150.445 93.7059 146.332 93.6886 140.43C93.6713 134.528 65.7681 136.913 65.2847 148.895Z" fill="url(#paint30_linear_2187_8591)"/>
<path d="M99.2671 94.2299C101.305 101.88 115.032 99.7938 118.658 87.8314C122.301 75.8491 118.399 60.6476 111.388 60.0316C104.378 59.3957 95.2266 79.088 99.2671 94.2299Z" fill="url(#paint31_linear_2187_8591)"/>
<path d="M154.814 68.5364C154.365 69.6293 164.621 58.3425 184.668 62.5353C186.636 62.9526 163.62 47.016 154.814 68.5364Z" fill="url(#paint32_linear_2187_8591)"/>
<path d="M134.681 110.405C134.681 110.405 153.917 104.603 162.377 87.0166C162.36 87.0365 159.131 110.822 134.681 110.405Z" fill="#2F95CD"/>
<path opacity="0.5" d="M102.548 61.2436C105.034 64.1646 119.435 51.0298 137.41 49.1619C155.384 47.294 178.004 62.9326 192.025 57.2495C203.162 52.7387 180.093 8.66449 150.187 10.8901C120.281 13.1156 100.096 58.3623 102.548 61.2436Z" fill="url(#paint33_linear_2187_8591)"/>
<path opacity="0.5" d="M108.073 126.421C108.073 126.421 125.478 116.744 148.615 114.637C171.753 112.511 175.88 114.478 175.88 117.022C175.88 119.565 160.236 128.249 139.015 130.335C117.794 132.382 108.073 126.421 108.073 126.421Z" fill="url(#paint34_linear_2187_8591)"/>
<path opacity="0.5" d="M89.0449 122.248C89.0449 122.248 83.6404 104.384 93.707 75.1932C93.707 75.1932 96.1243 70.4241 97.7819 71.5767C99.4395 72.7292 88.1815 94.7862 89.0449 122.248Z" fill="url(#paint35_linear_2187_8591)"/>
<path opacity="0.72" d="M216.232 57.1304C216.232 57.1304 218.115 75.3125 229.718 79.2271C241.321 83.1616 250.749 73.5042 253.719 59.8726C253.719 59.8726 250.075 71.6363 234.967 68.6159C219.876 65.6154 216.232 57.1304 216.232 57.1304Z" fill="url(#paint36_linear_2187_8591)"/>
<path opacity="0.72" d="M218.374 22.7929C218.512 26.171 239.802 19.1366 246.571 20.1898C253.339 21.2231 256.223 30.7811 257.293 30.5626C258.364 30.344 255.498 7.98892 242.91 6.33961C230.323 4.65057 218.27 20.4283 218.374 22.7929Z" fill="url(#paint37_linear_2187_8591)"/>
<path opacity="0.5" d="M196.531 167.097C196.531 167.097 167.212 179.815 155.971 178.344C145.058 176.933 149.15 169.402 149.392 168.965C149.409 168.945 149.41 168.945 149.41 168.945L149.427 168.905C156.126 160.778 164.501 155.472 175.31 154.002C183.822 152.869 190.902 158.135 196.531 167.097Z" fill="url(#paint38_linear_2187_8591)"/>
<path opacity="0.3" d="M255.325 276.13C252.079 288.132 239.854 289.384 236.28 286.483C233.155 283.959 224.556 272.335 216.32 251.033C217.131 252.841 223.174 265.797 228.579 265.797C234.398 265.777 245.621 247.178 234.277 208.151C223.295 170.336 207.168 164.474 206.167 164.156C233.707 169.939 258.554 264.128 255.325 276.13Z" fill="url(#paint39_linear_2187_8591)"/>
<path d="M240.529 269.732C245.346 268.241 252.943 272.693 255.603 277.164C258.244 281.654 264.858 300.552 261.076 324.954C261.076 324.954 253.876 335.923 245.795 333.518C239.648 331.69 238.18 310.646 236.523 295.703C234.882 280.76 232.586 272.196 240.529 269.732Z" fill="url(#paint40_linear_2187_8591)"/>
<path d="M246.966 334.174C246.966 334.174 249.936 285.231 232.635 277.342C232.635 277.342 232.548 285.291 236.002 303.672C239.472 322.033 242.995 333.021 246.966 334.174Z" fill="url(#paint41_linear_2187_8591)"/>
<path opacity="0.5" d="M245.793 307.348C245.793 307.348 242.201 314.939 239.421 316.449C236.641 317.939 234.276 316.985 234.276 316.985L243.013 293.895C242.995 293.895 245.706 302.34 245.793 307.348Z" fill="url(#paint42_linear_2187_8591)"/>
<path d="M242.997 293.895C242.997 293.895 239.474 280.84 232.205 278.416C232.205 278.416 226.369 286.543 230.547 315.018C230.547 315.018 234.657 320.105 239.284 313.985C239.284 313.985 242.703 303.712 242.997 293.895Z" fill="url(#paint43_linear_2187_8591)"/>
<path d="M238.593 289.663C240.976 289.385 238.421 301.903 237.16 301.764C235.9 301.625 236.608 289.901 238.593 289.663Z" fill="white"/>
<path opacity="0.72" d="M126.498 238.474C129.52 245.091 140.761 236.606 154.798 238.474C168.836 240.342 176.382 248.887 180.44 246.542C184.48 244.197 171.772 220.034 150.205 219.08C132.973 218.305 125.462 236.229 126.498 238.474Z" fill="url(#paint44_linear_2187_8591)"/>
<path opacity="0.72" d="M141.968 298.326C141.968 298.326 147.856 305.182 157.594 305.579C167.35 305.977 170.579 300.552 170.579 300.552C170.579 300.552 166.262 298.386 159.39 299.936C152.518 301.486 146.25 300.433 141.968 298.326Z" fill="url(#paint45_linear_2187_8591)"/>
<path opacity="0.3" d="M210.639 360.622C208.757 361.676 206.15 360.583 203.162 358.059L192.578 345.64C193.597 346.713 205.424 358.536 207.669 333.876C210.017 308.083 202.834 273.269 202.834 273.269L203.853 271.639C208.101 269.315 211.226 268.142 211.761 268.44C213.712 269.513 220.343 355.198 210.639 360.622Z" fill="url(#paint46_linear_2187_8591)"/>
<path d="M211.328 208.767C207.15 211.589 215.766 231.579 217.786 232.076C219.806 232.573 214.178 206.84 211.328 208.767Z" fill="white"/>
<path d="M219.012 235.375C218.132 235.494 219.098 240.144 219.755 240.779C220.411 241.415 221.775 241.535 222.155 241.097C222.552 240.66 220.014 235.255 219.012 235.375Z" fill="white"/>
<path d="M177.693 186.829C175.984 186.889 173.014 205.965 174.378 206.581C175.742 207.217 177.59 203.163 178.936 196.924C180.3 190.684 179.333 186.79 177.693 186.829Z" fill="white"/>
<path d="M102.894 210.535C103.274 211.926 111.631 207.595 111.665 203.442C111.683 199.288 102.359 208.529 102.894 210.535Z" fill="white"/>
<path d="M184.463 305.778C180.751 306.732 186.121 317.164 186.967 317.542C187.813 317.939 188.504 313.548 187.847 310.408C187.278 307.606 185.758 305.44 184.463 305.778Z" fill="white"/>
<path d="M133.577 313.985C131.522 313.448 132.058 320.165 132.403 320.602C132.748 321.039 134.009 319.012 134.319 317.243C134.613 315.694 134.302 314.183 133.577 313.985Z" fill="white"/>
<path d="M187.829 318.794C187.121 319.43 188.796 322.669 189.4 321.993C190.005 321.298 189.849 319.628 189.469 319.072C189.072 318.516 188.157 318.496 187.829 318.794Z" fill="white"/>
<path opacity="0.5" d="M46.0337 239.905C46.0337 239.905 50.2641 248.192 62.5753 248.092C74.8866 247.993 78.409 240.939 78.409 240.939L71.1224 237.322L51.9735 234.023C51.9735 234.023 46.4136 239.508 46.0337 239.905Z" fill="url(#paint47_linear_2187_8591)"/>
<path d="M91.0822 228.797C91.0822 228.797 83.5193 219.657 77.1824 219.1C70.8455 218.544 54.7528 226.532 49.8835 236.984C49.8835 236.984 50.6087 239.488 56.1341 240.978C61.6595 242.469 74.3334 235.752 74.3334 235.752L95.4508 239.866C95.4853 239.866 95.4853 234.441 91.0822 228.797Z" fill="url(#paint48_linear_2187_8591)"/>
<path d="M74.351 235.752C74.351 235.752 84.5384 232.195 85.6953 223.472L87.3184 224.883C87.3184 224.883 85.868 233.944 74.351 235.752Z" fill="url(#paint49_linear_2187_8591)"/>
<path d="M56.3762 232.076C56.4798 233.904 67.7032 227.923 67.7032 225.757C67.7032 223.591 56.1862 228.996 56.3762 232.076Z" fill="white"/>
<defs>
<radialGradient id="paint0_radial_2187_8591" cx="0" cy="0" r="1" gradientUnits="userSpaceOnUse" gradientTransform="translate(166.995 379.959) scale(70.4271 18.0335)">
<stop stop-color="#BE9DEA"/>
<stop offset="0.3883" stop-color="#E0BFF5"/>
<stop offset="1" stop-color="white"/>
</radialGradient>
<linearGradient id="paint1_linear_2187_8591" x1="136.212" y1="351.759" x2="146.47" y2="280.791" gradientUnits="userSpaceOnUse">
<stop stop-color="#CBC1F7"/>
<stop offset="1" stop-color="#E8DCF7"/>
</linearGradient>
<linearGradient id="paint2_linear_2187_8591" x1="124.52" y1="293.894" x2="161.49" y2="293.894" gradientUnits="userSpaceOnUse">
<stop stop-color="#8879EA"/>
<stop offset="1" stop-color="#9E8CEF"/>
</linearGradient>
<linearGradient id="paint3_linear_2187_8591" x1="142.469" y1="349.613" x2="142.469" y2="277.868" gradientUnits="userSpaceOnUse">
<stop stop-color="#9D68C2"/>
<stop offset="1" stop-color="#CCEDFF"/>
</linearGradient>
<linearGradient id="paint4_linear_2187_8591" x1="112.651" y1="251.83" x2="125.153" y2="165.338" gradientUnits="userSpaceOnUse">
<stop stop-color="#CBC1F7"/>
<stop offset="1" stop-color="#D4BEF1"/>
</linearGradient>
<linearGradient id="paint5_linear_2187_8591" x1="93.0959" y1="248.492" x2="90.2644" y2="224.341" gradientUnits="userSpaceOnUse">
<stop stop-color="#BE9DEA"/>
<stop offset="1" stop-color="#9E8CEF"/>
</linearGradient>
<linearGradient id="paint6_linear_2187_8591" x1="117.945" y1="248.749" x2="117.945" y2="168.789" gradientUnits="userSpaceOnUse">
<stop stop-color="#9D68C2"/>
<stop offset="1" stop-color="#CCEDFF"/>
</linearGradient>
<linearGradient id="paint7_linear_2187_8591" x1="109.84" y1="73.7365" x2="109.84" y2="22.7896" gradientUnits="userSpaceOnUse">
<stop stop-color="#45FFCD"/>
<stop offset="1" stop-color="#22E0FF"/>
</linearGradient>
<linearGradient id="paint8_linear_2187_8591" x1="122.259" y1="52.2911" x2="122.259" y2="8.79806" gradientUnits="userSpaceOnUse">
<stop stop-color="#B9ACF4"/>
<stop offset="1" stop-color="#E1D1F5"/>
</linearGradient>
<linearGradient id="paint9_linear_2187_8591" x1="160.171" y1="167.757" x2="183.709" y2="4.91172" gradientUnits="userSpaceOnUse">
<stop stop-color="#CBC1F7"/>
<stop offset="1" stop-color="#E8DCF7"/>
</linearGradient>
<linearGradient id="paint10_linear_2187_8591" x1="116.925" y1="147.442" x2="233.663" y2="147.442" gradientUnits="userSpaceOnUse">
<stop stop-color="#8879EA"/>
<stop offset="1" stop-color="#9E8CEF"/>
</linearGradient>
<linearGradient id="paint11_linear_2187_8591" x1="167.806" y1="164.124" x2="167.806" y2="57.2606" gradientUnits="userSpaceOnUse">
<stop stop-color="#9D68C2"/>
<stop offset="1" stop-color="#CCEDFF"/>
</linearGradient>
<linearGradient id="paint12_linear_2187_8591" x1="175.294" y1="161.837" x2="175.294" y2="130.759" gradientUnits="userSpaceOnUse">
<stop stop-color="#8DA4E5"/>
<stop offset="1" stop-color="#755CBB"/>
</linearGradient>
<linearGradient id="paint13_linear_2187_8591" x1="175.564" y1="151.528" x2="175.373" y2="131.124" gradientUnits="userSpaceOnUse">
<stop stop-color="#5E36CC"/>
<stop offset="1" stop-color="#6C4A96"/>
</linearGradient>
<linearGradient id="paint14_linear_2187_8591" x1="146.319" y1="132.608" x2="146.319" y2="8.70411" gradientUnits="userSpaceOnUse">
<stop stop-color="#0665BD"/>
<stop offset="1" stop-color="#1A1F77"/>
</linearGradient>
<linearGradient id="paint15_linear_2187_8591" x1="161.468" y1="308.738" x2="183.75" y2="154.58" gradientUnits="userSpaceOnUse">
<stop stop-color="#CBC1F7"/>
<stop offset="1" stop-color="#E8DCF7"/>
</linearGradient>
<linearGradient id="paint16_linear_2187_8591" x1="225.43" y1="83.8762" x2="225.43" y2="-0.00232479" gradientUnits="userSpaceOnUse">
<stop stop-color="#B9ACF4"/>
<stop offset="1" stop-color="#E1D1F5"/>
</linearGradient>
<linearGradient id="paint17_linear_2187_8591" x1="201.207" y1="281.827" x2="201.207" y2="203.441" gradientUnits="userSpaceOnUse">
<stop stop-color="#9D68C2"/>
<stop offset="1" stop-color="#CCEDFF"/>
</linearGradient>
<linearGradient id="paint18_linear_2187_8591" x1="231.015" y1="80.6909" x2="231.015" y2="0.387394" gradientUnits="userSpaceOnUse">
<stop stop-color="#BE9DEA"/>
<stop offset="1" stop-color="#9E8CEF"/>
</linearGradient>
<linearGradient id="paint19_linear_2187_8591" x1="236.281" y1="82.686" x2="236.281" y2="3.97273" gradientUnits="userSpaceOnUse">
<stop stop-color="#45FFCD"/>
<stop offset="1" stop-color="#22E0FF"/>
</linearGradient>
<linearGradient id="paint20_linear_2187_8591" x1="122.966" y1="259.699" x2="188.985" y2="259.699" gradientUnits="userSpaceOnUse">
<stop stop-color="#BE9DEA"/>
<stop offset="1" stop-color="#9E8CEF"/>
</linearGradient>
<radialGradient id="paint21_radial_2187_8591" cx="0" cy="0" r="1" gradientUnits="userSpaceOnUse" gradientTransform="translate(157.075 294.133) scale(49.8937 57.4191)">
<stop stop-color="#45FFCD"/>
<stop offset="1" stop-color="#22E0FF"/>
</radialGradient>
<linearGradient id="paint22_linear_2187_8591" x1="194.329" y1="203.442" x2="211.327" y2="203.442" gradientUnits="userSpaceOnUse">
<stop stop-color="#8879EA"/>
<stop offset="1" stop-color="#9E8CEF"/>
</linearGradient>
<linearGradient id="paint23_linear_2187_8591" x1="221.922" y1="285.156" x2="238.735" y2="168.84" gradientUnits="userSpaceOnUse">
<stop stop-color="#CBC1F7"/>
<stop offset="1" stop-color="#E8DCF7"/>
</linearGradient>
<linearGradient id="paint24_linear_2187_8591" x1="190.451" y1="358.368" x2="203.624" y2="267.232" gradientUnits="userSpaceOnUse">
<stop stop-color="#CBC1F7"/>
<stop offset="1" stop-color="#E8DCF7"/>
</linearGradient>
<linearGradient id="paint25_linear_2187_8591" x1="242.934" y1="285.865" x2="242.934" y2="263.364" gradientUnits="userSpaceOnUse">
<stop stop-color="#BE9DEA"/>
<stop offset="1" stop-color="#9E8CEF"/>
</linearGradient>
<linearGradient id="paint26_linear_2187_8591" x1="69.2987" y1="269.084" x2="74.8119" y2="230.94" gradientUnits="userSpaceOnUse">
<stop stop-color="#CBC1F7"/>
<stop offset="1" stop-color="#E8DCF7"/>
</linearGradient>
<linearGradient id="paint27_linear_2187_8591" x1="79.1506" y1="245.73" x2="77.931" y2="235.327" gradientUnits="userSpaceOnUse">
<stop stop-color="#BE9DEA"/>
<stop offset="1" stop-color="#9E8CEF"/>
</linearGradient>
<linearGradient id="paint28_linear_2187_8591" x1="69.3528" y1="157.301" x2="75.9455" y2="111.69" gradientUnits="userSpaceOnUse">
<stop stop-color="#BE9DEA"/>
<stop offset="1" stop-color="#9E8CEF"/>
</linearGradient>
<linearGradient id="paint29_linear_2187_8591" x1="80.054" y1="156.97" x2="82.3324" y2="136.202" gradientUnits="userSpaceOnUse">
<stop stop-color="#DD1A8F"/>
<stop offset="1" stop-color="#FE117E"/>
</linearGradient>
<linearGradient id="paint30_linear_2187_8591" x1="79.8425" y1="147.575" x2="78.3571" y2="138.152" gradientUnits="userSpaceOnUse">
<stop stop-color="#D93DE3"/>
<stop offset="1" stop-color="#FF6DBA"/>
</linearGradient>
<linearGradient id="paint31_linear_2187_8591" x1="109.164" y1="98.7219" x2="109.164" y2="59.9951" gradientUnits="userSpaceOnUse">
<stop stop-color="#45FFCD"/>
<stop offset="1" stop-color="#22E0FF"/>
</linearGradient>
<linearGradient id="paint32_linear_2187_8591" x1="169.787" y1="68.6195" x2="169.787" y2="57.254" gradientUnits="userSpaceOnUse">
<stop stop-color="#45FFCD"/>
<stop offset="1" stop-color="#22E0FF"/>
</linearGradient>
<linearGradient id="paint33_linear_2187_8591" x1="102.35" y1="36.2451" x2="194.878" y2="36.2451" gradientUnits="userSpaceOnUse">
<stop/>
<stop offset="1" stop-color="#6A9BFF"/>
</linearGradient>
<linearGradient id="paint34_linear_2187_8591" x1="108.065" y1="122.248" x2="175.871" y2="122.248" gradientUnits="userSpaceOnUse">
<stop/>
<stop offset="1" stop-color="#6A9BFF"/>
</linearGradient>
<linearGradient id="paint35_linear_2187_8591" x1="92.7645" y1="122.248" x2="92.7645" y2="71.3992" gradientUnits="userSpaceOnUse">
<stop/>
<stop offset="1" stop-color="#6A9BFF"/>
</linearGradient>
<linearGradient id="paint36_linear_2187_8591" x1="234.971" y1="80.114" x2="234.971" y2="57.1252" gradientUnits="userSpaceOnUse">
<stop stop-color="#D4E2FF"/>
<stop offset="1"/>
</linearGradient>
<linearGradient id="paint37_linear_2187_8591" x1="218.366" y1="18.3706" x2="257.505" y2="18.3706" gradientUnits="userSpaceOnUse">
<stop/>
<stop offset="1" stop-color="#D4E2FF"/>
</linearGradient>
<linearGradient id="paint38_linear_2187_8591" x1="172.488" y1="178.466" x2="172.488" y2="153.863" gradientUnits="userSpaceOnUse">
<stop stop-color="#8DA4E5"/>
<stop offset="1" stop-color="#755CBB"/>
</linearGradient>
<linearGradient id="paint39_linear_2187_8591" x1="230.883" y1="287.796" x2="230.883" y2="164.147" gradientUnits="userSpaceOnUse">
<stop stop-color="#9D68C2"/>
<stop offset="1" stop-color="#CCEDFF"/>
</linearGradient>
<linearGradient id="paint40_linear_2187_8591" x1="255.264" y1="332.295" x2="238.799" y2="270.19" gradientUnits="userSpaceOnUse">
<stop stop-color="#CBC1F7"/>
<stop offset="1" stop-color="#E8DCF7"/>
</linearGradient>
<linearGradient id="paint41_linear_2187_8591" x1="243.077" y1="334.622" x2="236.313" y2="276.898" gradientUnits="userSpaceOnUse">
<stop stop-color="#BE9DEA"/>
<stop offset="1" stop-color="#9E8CEF"/>
</linearGradient>
<linearGradient id="paint42_linear_2187_8591" x1="240.466" y1="316.815" x2="237.85" y2="294.494" gradientUnits="userSpaceOnUse">
<stop stop-color="#8DA4E5"/>
<stop offset="1" stop-color="#755CBB"/>
</linearGradient>
<linearGradient id="paint43_linear_2187_8591" x1="239.068" y1="315.912" x2="229.328" y2="279.171" gradientUnits="userSpaceOnUse">
<stop stop-color="#CBC1F7"/>
<stop offset="1" stop-color="#E8DCF7"/>
</linearGradient>
<linearGradient id="paint44_linear_2187_8591" x1="126.401" y1="233" x2="181.181" y2="233" gradientUnits="userSpaceOnUse">
<stop/>
<stop offset="1" stop-color="#D4E2FF"/>
</linearGradient>
<linearGradient id="paint45_linear_2187_8591" x1="156.278" y1="305.604" x2="156.278" y2="298.324" gradientUnits="userSpaceOnUse">
<stop stop-color="#D4E2FF"/>
<stop offset="1"/>
</linearGradient>
<linearGradient id="paint46_linear_2187_8591" x1="204.187" y1="361.016" x2="204.187" y2="268.384" gradientUnits="userSpaceOnUse">
<stop stop-color="#9D68C2"/>
<stop offset="1" stop-color="#CCEDFF"/>
</linearGradient>
<linearGradient id="paint47_linear_2187_8591" x1="61.3654" y1="248.221" x2="63.1825" y2="235.649" gradientUnits="userSpaceOnUse">
<stop stop-color="#8DA4E5"/>
<stop offset="1" stop-color="#755CBB"/>
</linearGradient>
<linearGradient id="paint48_linear_2187_8591" x1="72.1512" y1="243.335" x2="75.6869" y2="218.874" gradientUnits="userSpaceOnUse">
<stop stop-color="#CBC1F7"/>
<stop offset="1" stop-color="#E8DCF7"/>
</linearGradient>
<linearGradient id="paint49_linear_2187_8591" x1="81.2453" y1="234.938" x2="79.9787" y2="224.133" gradientUnits="userSpaceOnUse">
<stop stop-color="#BE9DEA"/>
<stop offset="1" stop-color="#9E8CEF"/>
</linearGradient>
</defs>
</svg>
