<svg width="18" height="18" viewBox="0 0 18 18" fill="none" xmlns="http://www.w3.org/2000/svg">
<g clip-path="url(#clip0_3536_3929)">
<path d="M16.65 1.62249C16.2284 1.26994 15.7343 1.01453 15.2029 0.874412C14.6714 0.734293 14.1156 0.712895 13.575 0.811739L10.7085 1.33224C10.0467 1.45377 9.44497 1.79426 9 2.29899C8.55387 1.79339 7.95042 1.45282 7.287 1.33224L4.425 0.811739C3.88437 0.712809 3.3286 0.733926 2.79703 0.873595C2.26547 1.01326 1.7711 1.26807 1.34892 1.61998C0.92675 1.97189 0.58709 2.41229 0.353987 2.91002C0.120884 3.40775 3.66093e-05 3.95063 0 4.50024L0 12.595C4.30919e-05 13.4731 0.308232 14.3233 0.87085 14.9975C1.43347 15.6717 2.21483 16.1271 3.07875 16.2842L7.79325 17.1415C8.59122 17.2865 9.40878 17.2865 10.2067 17.1415L14.925 16.2842C15.7882 16.1263 16.5687 15.6706 17.1306 14.9965C17.6925 14.3224 18.0001 13.4725 18 12.595V4.50024C18.0003 3.95082 17.8795 3.40809 17.6462 2.91068C17.4129 2.41328 17.0727 1.97344 16.65 1.62249ZM8.25 15.6962C8.187 15.6872 8.124 15.6767 8.061 15.6655L3.34725 14.809C2.82882 14.7147 2.35995 14.4414 2.02237 14.0368C1.68479 13.6322 1.49992 13.1219 1.5 12.595V4.50024C1.5 3.9035 1.73705 3.3312 2.15901 2.90925C2.58097 2.48729 3.15326 2.25024 3.75 2.25024C3.88582 2.25056 4.02134 2.26286 4.155 2.28699L7.02 2.81199C7.36471 2.87507 7.67645 3.05684 7.90113 3.32577C8.12581 3.5947 8.24924 3.93381 8.25 4.28424V15.6962ZM16.5 12.595C16.5001 13.1219 16.3152 13.6322 15.9776 14.0368C15.6401 14.4414 15.1712 14.7147 14.6528 14.809L9.939 15.6655C9.876 15.6767 9.813 15.6872 9.75 15.6962V4.28424C9.74995 3.93295 9.87319 3.59278 10.0982 3.32304C10.3233 3.05331 10.6359 2.87112 10.9815 2.80824L13.8472 2.28324C14.1718 2.22419 14.5053 2.23723 14.8243 2.32142C15.1432 2.40562 15.4398 2.55891 15.6929 2.77044C15.946 2.98198 16.1495 3.24658 16.289 3.54551C16.4284 3.84443 16.5005 4.17037 16.5 4.50024V12.595Z" fill="#22438C"/>
</g>
<defs>
<clipPath id="clip0_3536_3929">
<rect width="18" height="18" fill="white"/>
</clipPath>
</defs>
</svg>
