<svg width="18" height="18" viewBox="0 0 18 18" fill="none" xmlns="http://www.w3.org/2000/svg">
<path d="M8.25 9C8.44891 9 8.63968 9.07902 8.78033 9.21967C8.92098 9.36032 9 9.55109 9 9.75C9 9.94891 8.92098 10.1397 8.78033 10.2803C8.63968 10.421 8.44891 10.5 8.25 10.5H6C5.80109 10.5 5.61032 10.421 5.46967 10.2803C5.32902 10.1397 5.25 9.94891 5.25 9.75C5.25 9.55109 5.32902 9.36032 5.46967 9.21967C5.61032 9.07902 5.80109 9 6 9H8.25ZM12.75 6.75C12.75 6.55109 12.671 6.36032 12.5303 6.21967C12.3897 6.07902 12.1989 6 12 6H6C5.80109 6 5.61032 6.07902 5.46967 6.21967C5.32902 6.36032 5.25 6.55109 5.25 6.75C5.25 6.94891 5.32902 7.13968 5.46967 7.28033C5.61032 7.42098 5.80109 7.5 6 7.5H12C12.1989 7.5 12.3897 7.42098 12.5303 7.28033C12.671 7.13968 12.75 6.94891 12.75 6.75ZM6 4.5H12C12.1989 4.5 12.3897 4.42098 12.5303 4.28033C12.671 4.13968 12.75 3.94891 12.75 3.75C12.75 3.55109 12.671 3.36032 12.5303 3.21967C12.3897 3.07902 12.1989 3 12 3H6C5.80109 3 5.61032 3.07902 5.46967 3.21967C5.32902 3.36032 5.25 3.55109 5.25 3.75C5.25 3.94891 5.32902 4.13968 5.46967 4.28033C5.61032 4.42098 5.80109 4.5 6 4.5ZM15 14.583V17.4578C15.0001 17.5647 14.9684 17.6693 14.909 17.7583C14.8495 17.8473 14.7651 17.9166 14.6662 17.9576C14.5674 17.9985 14.4586 18.0092 14.3537 17.9884C14.2488 17.9675 14.1524 17.9159 14.0767 17.8403L13.5 17.2642L12.9233 17.8403C12.8476 17.9159 12.7512 17.9675 12.6463 17.9884C12.5414 18.0092 12.4326 17.9985 12.3338 17.9576C12.2349 17.9166 12.1505 17.8473 12.091 17.7583C12.0316 17.6693 11.9999 17.5647 12 17.4578V14.583C11.428 14.2544 10.9807 13.7458 10.7279 13.1365C10.475 12.5272 10.4307 11.8514 10.6018 11.2143C10.773 10.5773 11.15 10.0147 11.6742 9.61416C12.1984 9.21365 12.8403 8.99772 13.5 9C13.7535 9.00317 14.0056 9.03896 14.25 9.1065V3.75C14.25 3.15326 14.0129 2.58097 13.591 2.15901C13.169 1.73705 12.5967 1.5 12 1.5H6C5.40326 1.5 4.83097 1.73705 4.40901 2.15901C3.98705 2.58097 3.75 3.15326 3.75 3.75V12.75C3.75 13.3467 3.98705 13.919 4.40901 14.341C4.83097 14.7629 5.40326 15 6 15H9.75C9.94891 15 10.1397 15.079 10.2803 15.2197C10.421 15.3603 10.5 15.5511 10.5 15.75C10.5 15.9489 10.421 16.1397 10.2803 16.2803C10.1397 16.421 9.94891 16.5 9.75 16.5H6C5.0058 16.4988 4.05267 16.1033 3.34966 15.4003C2.64666 14.6973 2.25119 13.7442 2.25 12.75V3.75C2.25119 2.7558 2.64666 1.80267 3.34966 1.09966C4.05267 0.396661 5.0058 0.00119089 6 0L12 0C12.9942 0.00119089 13.9473 0.396661 14.6503 1.09966C15.3533 1.80267 15.7488 2.7558 15.75 3.75V10.0365C16.0438 10.3664 16.2601 10.7579 16.383 11.1822C16.506 11.6065 16.5324 12.0529 16.4605 12.4888C16.3886 12.9247 16.2202 13.339 15.9675 13.7013C15.7147 14.0637 15.3842 14.3649 15 14.583ZM15 12C15 11.7033 14.912 11.4133 14.7472 11.1666C14.5824 10.92 14.3481 10.7277 14.074 10.6142C13.7999 10.5006 13.4983 10.4709 13.2074 10.5288C12.9164 10.5867 12.6491 10.7296 12.4393 10.9393C12.2296 11.1491 12.0867 11.4164 12.0288 11.7074C11.9709 11.9983 12.0006 12.2999 12.1142 12.574C12.2277 12.8481 12.42 13.0824 12.6666 13.2472C12.9133 13.412 13.2033 13.5 13.5 13.5C13.8978 13.5 14.2794 13.342 14.5607 13.0607C14.842 12.7794 15 12.3978 15 12Z" fill="#22438C"/>
</svg>
