<svg width="100" height="100" viewBox="0 0 100 100" fill="none" xmlns="http://www.w3.org/2000/svg">
<path opacity="0.1" d="M97.3946 58.0089L97.5211 58.0798C99.2067 59.0194 99.2514 61.4223 97.6045 62.425L39.1776 98L0 73.1949L59.8176 35.2139L97.3946 58.0089Z" fill="url(#paint0_linear_65_17684)"/>
<path d="M71.5312 72.4922V74.1527C72.1332 74.2051 72.746 74.0741 73.2816 73.7522L95.7506 60.2267C96.4329 59.8139 96.7354 57.5635 96.2245 57.0291C96.1519 57.1045 95.8479 58.5031 95.7506 58.5632L73.2816 72.0918C72.7475 72.4137 72.1332 72.5477 71.5312 72.4922Z" fill="#2B2E3D"/>
<path d="M35.7185 53.6897L70.3474 73.7769C70.7163 73.9925 71.1207 74.1142 71.5312 74.1527V72.4923C72.1332 72.5492 72.746 72.4137 73.2816 72.0918L95.7506 58.5632C95.8479 58.5032 95.9327 58.4354 96.0037 58.3599C95.925 58.2783 95.834 58.2074 95.7306 58.1473L76.2807 46.8661L60.7652 37.8661C59.9795 37.4101 59.004 37.4163 58.2246 37.8876L36.5365 50.3688C36.4053 50.4504 34.9066 50.301 35.1798 50.8709C34.689 51.4639 34.9946 53.2707 35.7185 53.6897Z" fill="#525575"/>
<path d="M60.4668 5.04375V32.8079C60.4668 33.6181 60.899 34.3651 61.6013 34.7718L98.138 55.9033C98.2599 55.9726 98.0222 56.7443 98.1472 56.7659C98.8835 56.9214 99.9994 55.643 99.9994 54.8343V27.3552C99.9994 26.8515 99.8868 26.3647 99.6738 25.9304L98.1395 26.8715C97.857 26.3309 97.4218 25.8718 96.8707 25.553L61.1197 4.87432C60.9252 4.76188 60.7184 4.69872 60.5147 4.6864C60.4822 4.7973 60.4668 4.91899 60.4668 5.04375Z" fill="#2B2E3D"/>
<path d="M58.9912 6.09419V33.8614C58.9912 34.6716 59.4234 35.4186 60.1257 35.8253L96.6624 56.9537C97.4387 57.4035 98.4035 56.9013 98.51 56.0403C98.5161 55.9895 98.5192 55.9371 98.5192 55.8847V28.4071C98.5192 27.8634 98.3849 27.3351 98.1364 26.8684C97.854 26.3277 97.4187 25.8687 96.8677 25.5498L61.1166 4.87118C60.9222 4.75874 60.7153 4.69558 60.5116 4.68326C60.2893 4.66478 60.0732 4.70174 59.8726 4.78338L59.8633 4.78646C59.6472 4.87734 59.4527 5.01751 59.3061 5.20234L59.303 5.20542C59.1116 5.44417 58.9912 5.74762 58.9912 6.09419Z" fill="#525575"/>
<path d="M97.1891 28.4071C97.1891 28.0883 97.1104 27.771 96.9622 27.4907C96.7893 27.1579 96.5269 26.8869 96.2028 26.6989L60.4518 6.0218L60.4363 6.02026L60.4039 6.00793L60.3545 6.02796L60.3329 6.05415C60.3283 6.06185 60.3252 6.07263 60.3252 6.09265V33.8598C60.3252 34.1941 60.5058 34.5052 60.796 34.6731L97.1906 55.7199L97.1891 28.4071Z" fill="white"/>
<path d="M59.876 4.78488C60.0766 4.70325 60.2927 4.66628 60.515 4.68476C60.7187 4.69708 60.9256 4.76024 61.12 4.87268L96.871 25.5513C97.4221 25.8702 97.8574 26.3292 98.1398 26.8699L99.6741 25.9287C99.3916 25.3372 98.9347 24.8351 98.3497 24.4978L96.1533 23.2286L62.5941 3.81911C62.0338 3.4941 61.3855 3.60346 60.9564 3.97776L60.9472 3.98392L59.876 4.78488Z" fill="#83869B"/>
<path d="M35.3707 51.7351C35.4618 51.8475 35.5807 51.9477 35.718 52.0293L70.3469 72.1134C70.7158 72.326 71.1202 72.4538 71.5308 72.4923C72.1328 72.5493 72.7455 72.4138 73.2811 72.0918L95.7502 58.5633C95.8474 58.5032 95.9323 58.4354 96.0033 58.36C96.5204 57.8193 96.4293 56.8905 95.7301 56.4869L79.1434 46.8646L60.7647 36.2057C59.9791 35.7497 59.0036 35.7559 58.2241 36.2242L35.6949 49.7881C34.9879 50.2163 34.8784 51.1513 35.3707 51.7351Z" fill="url(#paint1_linear_65_17684)"/>
<path d="M47.6499 47.0926L76.1263 63.6663C76.6017 63.942 77.1914 63.9374 77.6637 63.654L89.4392 56.5655C89.8513 56.3175 89.8467 55.7183 89.4299 55.4765L60.7776 38.7995C60.3655 38.5608 59.8545 38.5639 59.4455 38.8103L47.6407 45.9173C47.1946 46.1853 47.2008 46.8322 47.6499 47.0926Z" fill="#525575"/>
<path d="M82.5512 54.1489L83.5128 53.5682C83.5468 53.5482 83.5885 53.5482 83.6209 53.5667L84.6581 54.1658C84.6921 54.1859 84.6921 54.2336 84.6581 54.2536L83.6981 54.8328C83.6595 54.8559 83.6116 54.8559 83.573 54.8343L82.5497 54.2429C82.5157 54.2244 82.5157 54.172 82.5512 54.1489Z" fill="#3D415B"/>
<path d="M82.0328 53.8608C81.9942 53.8839 81.9464 53.8839 81.9078 53.8624L80.8844 53.2709C80.8474 53.2493 80.8474 53.1985 80.8829 53.1754L81.8445 52.5947C81.8784 52.5747 81.9201 52.5747 81.9525 52.5931L82.9898 53.1923C83.0237 53.2123 83.0237 53.2601 82.9898 53.2801L82.0328 53.8608Z" fill="#3D415B"/>
<path d="M80.3646 52.8873C80.326 52.9104 80.2782 52.9104 80.2396 52.8889L79.2163 52.2974C79.1792 52.2758 79.1792 52.225 79.2163 52.2019L80.1779 51.6212C80.2118 51.6012 80.2535 51.6011 80.2859 51.6196L81.3231 52.2188C81.3571 52.2388 81.3571 52.2866 81.3231 52.3066L80.3646 52.8873Z" fill="#3D415B"/>
<path d="M78.6978 51.9137C78.6592 51.9368 78.6114 51.9368 78.5728 51.9152L77.5495 51.3237C77.5124 51.3022 77.5124 51.2498 77.5479 51.2282L78.5095 50.6475C78.5435 50.6275 78.5852 50.6275 78.6176 50.646L79.6548 51.2452C79.6888 51.2652 79.6888 51.313 79.6548 51.333L78.6978 51.9137Z" fill="#3D415B"/>
<path d="M77.0289 50.9403C76.9903 50.9634 76.9425 50.9634 76.9039 50.9418L75.8805 50.3503C75.8435 50.3288 75.8435 50.2764 75.879 50.2548L76.8406 49.6741C76.8746 49.6541 76.9162 49.6541 76.9486 49.6726L77.9859 50.2718C78.0198 50.2918 78.0198 50.3396 77.9859 50.3596L77.0289 50.9403Z" fill="#3D415B"/>
<path d="M75.3619 49.967C75.3233 49.9901 75.2755 49.9901 75.2369 49.9686L74.2135 49.3771C74.1765 49.3555 74.1765 49.3031 74.212 49.2816L75.1736 48.7009C75.2076 48.6809 75.2492 48.6809 75.2816 48.6993L76.3189 49.2985C76.3528 49.3185 76.3528 49.3663 76.3189 49.3863L75.3619 49.967Z" fill="#3D415B"/>
<path d="M73.693 48.9935C73.6544 49.0166 73.6065 49.0182 73.5679 48.9951L72.5446 48.4036C72.5075 48.382 72.5075 48.3296 72.543 48.3081L73.5047 47.7274C73.5386 47.7074 73.5803 47.7073 73.6127 47.7258L74.6499 48.325C74.6839 48.345 74.6839 48.3928 74.6499 48.4128L73.693 48.9935Z" fill="#3D415B"/>
<path d="M72.025 48.02C71.9864 48.0431 71.9386 48.0447 71.9 48.0216L70.8766 47.4301C70.8396 47.4085 70.8396 47.3561 70.8751 47.3346L71.8367 46.7539C71.8706 46.7338 71.9123 46.7338 71.9447 46.7523L72.982 47.3515C73.0159 47.3715 73.0159 47.4193 72.982 47.4393L72.025 48.02Z" fill="#3D415B"/>
<path d="M70.3578 47.0465C70.3192 47.0696 70.2714 47.0696 70.2328 47.048L69.2094 46.4566C69.1724 46.435 69.1724 46.3826 69.2094 46.3611L70.171 45.7804C70.205 45.7603 70.2467 45.7603 70.2791 45.7788L71.3163 46.378C71.3503 46.398 71.3503 46.4458 71.3163 46.4658L70.3578 47.0465Z" fill="#3D415B"/>
<path d="M68.6888 46.073C68.6503 46.0961 68.6024 46.0961 68.5638 46.0745L67.5405 45.483C67.5034 45.4615 67.5034 45.4091 67.5405 45.3875L68.5021 44.8068C68.536 44.7868 68.5777 44.7868 68.6101 44.8053L69.6474 45.4045C69.6813 45.4245 69.6813 45.4723 69.6474 45.4923L68.6888 46.073Z" fill="#3D415B"/>
<path d="M67.0219 45.0996C66.9833 45.1227 66.9354 45.1227 66.8968 45.1011L65.8735 44.5097C65.8364 44.4881 65.8364 44.4373 65.8735 44.4142L66.8351 43.8335C66.8691 43.8134 66.9107 43.8134 66.9432 43.8319L67.9804 44.4311C68.0143 44.4511 68.0143 44.4989 67.9804 44.5189L67.0219 45.0996Z" fill="#3D415B"/>
<path d="M65.3541 44.1261C65.3155 44.1492 65.2676 44.1492 65.229 44.1276L64.2057 43.5361C64.1687 43.5146 64.1687 43.4637 64.2042 43.4406L65.1658 42.8599C65.1997 42.8399 65.2414 42.8399 65.2738 42.8584L66.3111 43.4576C66.345 43.4776 66.345 43.5254 66.3111 43.5454L65.3541 44.1261Z" fill="#3D415B"/>
<path d="M63.6851 43.1527C63.6466 43.1758 63.5987 43.1758 63.5601 43.1542L62.5368 42.5628C62.4997 42.5427 62.4997 42.4904 62.5352 42.4673L63.4968 41.8866C63.5308 41.8665 63.5725 41.8665 63.6049 41.885L64.6421 42.4842C64.6761 42.5042 64.6761 42.552 64.6421 42.572L63.6851 43.1527Z" fill="#3D415B"/>
<path d="M62.0182 42.1792C61.9796 42.2023 61.9317 42.2023 61.8931 42.1807L60.8698 41.5892C60.8327 41.5677 60.8327 41.5153 60.8682 41.4937L61.8299 40.913C61.8638 40.893 61.9055 40.893 61.9379 40.9115L62.9751 41.5107C63.0091 41.5307 63.0091 41.5785 62.9751 41.5985L62.0182 42.1792Z" fill="#3D415B"/>
<path d="M80.6376 55.3012L81.5992 54.7205C81.6331 54.7005 81.6748 54.7005 81.7072 54.719L82.7445 55.3182C82.7784 55.3382 82.7784 55.386 82.746 55.406L81.7859 55.9851C81.7473 56.0082 81.6995 56.0082 81.6609 55.9867L80.6376 55.3952C80.6021 55.3752 80.6005 55.3228 80.6376 55.3012Z" fill="#3D415B"/>
<path d="M80.04 53.7437L81.0773 54.3429C81.1112 54.3629 81.1112 54.4107 81.0788 54.4307L80.1188 55.0098C80.0802 55.0329 80.0323 55.0329 79.9937 55.0114L78.9704 54.4199C78.9333 54.3983 78.9333 54.3475 78.9688 54.3244L79.9304 53.7437C79.9644 53.7252 80.0061 53.7252 80.04 53.7437Z" fill="#3D415B"/>
<path d="M78.3257 54.0396L77.3024 53.4481C77.2653 53.4281 77.2653 53.3757 77.3008 53.3526L78.2625 52.7719C78.2964 52.7519 78.3381 52.7519 78.3705 52.7704L79.4078 53.3696C79.4417 53.3896 79.4417 53.4373 79.4093 53.4574L78.4492 54.0365C78.4122 54.0612 78.3643 54.0612 78.3257 54.0396Z" fill="#3D415B"/>
<path d="M76.7035 51.7985L77.7407 52.3977C77.7747 52.4177 77.7747 52.4654 77.7407 52.4854L76.7807 53.0646C76.7421 53.0877 76.6942 53.0877 76.6556 53.0661L75.6323 52.4747C75.5952 52.4531 75.5952 52.4007 75.6323 52.3792L76.5939 51.7985C76.6294 51.7784 76.6711 51.7784 76.7035 51.7985Z" fill="#3D415B"/>
<path d="M75.0367 50.8247L76.0739 51.4239C76.1079 51.4439 76.1079 51.4917 76.0739 51.5117L75.1138 52.0908C75.0753 52.1139 75.0274 52.1139 74.9888 52.0924L73.9655 51.5009C73.9284 51.4793 73.9284 51.427 73.9639 51.4054L74.9255 50.8247C74.961 50.8047 75.0027 50.8047 75.0367 50.8247Z" fill="#3D415B"/>
<path d="M73.3677 49.8499L74.405 50.4491C74.4389 50.4691 74.4389 50.5169 74.405 50.5369L73.4449 51.1161C73.4063 51.1392 73.3585 51.1392 73.3199 51.1176L72.2965 50.5261C72.2595 50.5046 72.2595 50.4522 72.295 50.4306L73.2566 49.8499C73.2936 49.8314 73.3338 49.8314 73.3677 49.8499Z" fill="#3D415B"/>
<path d="M71.7012 48.8764L72.7384 49.4756C72.7724 49.4956 72.7724 49.5434 72.7399 49.5634L71.7799 50.1425C71.7413 50.1657 71.6934 50.1672 71.6548 50.1441L70.6315 49.5526C70.5944 49.531 70.5945 49.4787 70.63 49.4571L71.5916 48.8764C71.6255 48.8579 71.6672 48.8579 71.7012 48.8764Z" fill="#3D415B"/>
<path d="M70.0322 47.9029L71.0695 48.5021C71.1034 48.5221 71.1034 48.5699 71.071 48.5899L70.1109 49.169C70.0723 49.1922 70.0245 49.1937 69.9859 49.1706L68.9626 48.5791C68.9255 48.5575 68.9255 48.5052 68.961 48.4836L69.9226 47.9029C69.9566 47.8844 69.9983 47.8844 70.0322 47.9029Z" fill="#3D415B"/>
<path d="M68.3633 46.9295L69.4005 47.5287C69.4345 47.5487 69.4345 47.5965 69.4021 47.6165L68.442 48.1956C68.4034 48.2187 68.3555 48.2187 68.317 48.1972L67.2936 47.6057C67.2566 47.5841 67.2566 47.5333 67.2921 47.5102L68.2537 46.9295C68.2892 46.911 68.3308 46.911 68.3633 46.9295Z" fill="#3D415B"/>
<path d="M66.6963 45.9559L67.7335 46.555C67.7675 46.5751 67.7675 46.6228 67.7351 46.6428L66.775 47.222C66.7364 47.2451 66.6886 47.2451 66.65 47.2235L65.6266 46.6321C65.5896 46.6105 65.5896 46.5597 65.6251 46.5366L66.5867 45.9559C66.6206 45.9374 66.6623 45.9374 66.6963 45.9559Z" fill="#3D415B"/>
<path d="M65.0283 44.9824L66.0655 45.5816C66.0995 45.6016 66.0995 45.6493 66.0671 45.6693L65.107 46.2485C65.0684 46.2716 65.0206 46.2716 64.982 46.25L63.9586 45.6586C63.9216 45.637 63.9216 45.5862 63.9571 45.5631L64.9187 44.9824C64.9527 44.9639 64.9944 44.9639 65.0283 44.9824Z" fill="#3D415B"/>
<path d="M63.3613 44.0105L64.3986 44.6097C64.4325 44.6297 64.4325 44.6775 64.4001 44.6975L63.44 45.2766C63.4014 45.2998 63.3536 45.2998 63.315 45.2782L62.2917 44.6867C62.2546 44.6651 62.2546 44.6128 62.2901 44.5912L63.2517 44.0105C63.2857 43.9905 63.3273 43.9905 63.3613 44.0105Z" fill="#3D415B"/>
<path d="M60.6215 43.6178L61.5832 43.0371C61.6171 43.017 61.6573 43.017 61.6912 43.0355L62.7284 43.6347C62.7624 43.6547 62.7624 43.7025 62.7284 43.7225L61.7684 44.3017C61.7298 44.3248 61.6819 44.3248 61.6434 44.3032L60.62 43.7117C60.586 43.6932 60.586 43.6409 60.6215 43.6178Z" fill="#3D415B"/>
<path d="M61.0632 42.7507L60.1031 43.3298C60.0645 43.3529 60.0167 43.3529 59.9781 43.3313L58.9547 42.7399C58.9177 42.7183 58.9177 42.6659 58.9532 42.6444L59.9148 42.0637C59.9488 42.0437 59.9889 42.0437 60.0228 42.0621L61.0601 42.6613C61.0971 42.6813 61.0971 42.7306 61.0632 42.7507Z" fill="#3D415B"/>
<path d="M77.0551 55.5722C77.0181 55.5506 77.0181 55.4982 77.0551 55.4767L78.0167 54.896C78.0507 54.8759 78.0924 54.8759 78.1248 54.8944L78.5168 55.1208C78.5184 55.1224 78.5215 55.1208 78.523 55.1224L78.9289 55.3596L79.162 55.4936C79.1636 55.4936 79.162 55.4951 79.1636 55.4951L80.8306 56.4671C80.8645 56.4871 80.8645 56.5349 80.8321 56.5549L79.8721 57.134C79.8335 57.1571 79.7856 57.1571 79.747 57.1356L77.867 56.0389L77.0551 55.5722Z" fill="#3D415B"/>
<path d="M76.5367 55.1885C76.4981 55.2116 76.4503 55.2116 76.4117 55.19L75.3883 54.5985C75.3513 54.577 75.3513 54.5246 75.3868 54.503L76.3484 53.9223C76.3824 53.9023 76.424 53.9023 76.4565 53.9208L77.4937 54.52C77.5277 54.54 77.5277 54.5877 77.4952 54.6078L76.5367 55.1885Z" fill="#3D415B"/>
<path d="M74.7896 52.949L75.8269 53.5482C75.8608 53.5682 75.8608 53.6159 75.8269 53.636L74.8668 54.2151C74.8282 54.2382 74.7803 54.2382 74.7418 54.2167L73.7184 53.6252C73.6814 53.6036 73.6814 53.5512 73.7169 53.5297L74.6785 52.949C74.714 52.929 74.7557 52.929 74.7896 52.949Z" fill="#3D415B"/>
<path d="M73.1226 51.9755L74.1599 52.5747C74.1938 52.5947 74.1938 52.6424 74.1599 52.6624L73.1998 53.2416C73.1612 53.2647 73.1134 53.2663 73.0748 53.2432L72.0514 52.6517C72.0144 52.6301 72.0144 52.5777 72.0499 52.5562L73.0115 51.9755C73.047 51.9554 73.0887 51.9554 73.1226 51.9755Z" fill="#3D415B"/>
<path d="M71.4541 51.002L72.4913 51.6011C72.5253 51.6212 72.5253 51.6689 72.4929 51.6889L71.5328 52.2681C71.4942 52.2912 71.4464 52.2927 71.4078 52.2696L70.3844 51.6782C70.3474 51.6566 70.3474 51.6042 70.3829 51.5827L71.3445 51.002C71.3785 50.9819 71.4201 50.9819 71.4541 51.002Z" fill="#3D415B"/>
<path d="M69.7851 50.0284L70.8224 50.6276C70.8563 50.6476 70.8563 50.6954 70.8239 50.7154L69.8639 51.2946C69.8253 51.3177 69.7774 51.3177 69.7388 51.2961L68.7155 50.7046C68.6784 50.6831 68.6784 50.6307 68.7139 50.6091L69.6755 50.0284C69.711 50.0084 69.7527 50.0084 69.7851 50.0284Z" fill="#3D415B"/>
<path d="M68.1182 49.0551L69.1554 49.6542C69.1894 49.6743 69.1894 49.722 69.1569 49.742L68.1969 50.3212C68.1583 50.3443 68.1104 50.3443 68.0718 50.3227L67.0485 49.7312C67.0114 49.7097 67.0114 49.6573 67.0469 49.6357L68.0086 49.0551C68.0425 49.035 68.0842 49.035 68.1182 49.0551Z" fill="#3D415B"/>
<path d="M66.4492 48.0817L67.4864 48.6808C67.5204 48.7009 67.5204 48.7486 67.488 48.7686L66.5279 49.3478C66.4893 49.3709 66.4415 49.3709 66.4029 49.3493L65.3795 48.7579C65.3425 48.7363 65.3425 48.6855 65.378 48.6624L66.3396 48.0817C66.3736 48.0616 66.4152 48.0616 66.4492 48.0817Z" fill="#3D415B"/>
<path d="M64.7822 47.1065L65.8195 47.7057C65.8534 47.7257 65.8534 47.7735 65.821 47.7935L64.8609 48.3726C64.8224 48.3957 64.7745 48.3957 64.7359 48.3742L63.7126 47.7827C63.6755 47.7611 63.6755 47.7103 63.711 47.6872L64.6726 47.1065C64.7066 47.088 64.7483 47.088 64.7822 47.1065Z" fill="#3D415B"/>
<path d="M63.0677 47.4023L62.0444 46.8108C62.0073 46.7908 62.0073 46.7384 62.0444 46.7153L63.006 46.1346C63.04 46.1146 63.0816 46.1146 63.114 46.1331L64.1513 46.7322C64.1852 46.7523 64.1852 46.8 64.1528 46.82L63.1928 47.3992C63.1542 47.4239 63.1063 47.4238 63.0677 47.4023Z" fill="#3D415B"/>
<path d="M61.3376 45.1612C61.3716 45.1412 61.4133 45.1412 61.4457 45.1597L62.4829 45.7588C62.5169 45.7789 62.5169 45.8266 62.4829 45.8466L61.5229 46.4258C61.4843 46.4489 61.4364 46.4489 61.3978 46.4273L60.3745 45.8359C60.3374 45.8143 60.3374 45.7619 60.3745 45.7404L61.3376 45.1612Z" fill="#3D415B"/>
<path d="M59.7789 44.1875L60.8161 44.7867C60.8501 44.8067 60.8501 44.8545 60.8161 44.8745L59.856 45.4537C59.8175 45.4768 59.7696 45.4768 59.731 45.4552L59.3729 45.2488C59.3683 45.2473 59.3621 45.2473 59.3575 45.2442L57.0407 43.8903C57.0036 43.8687 57.0036 43.8163 57.0391 43.7948L58.0007 43.2141C58.0347 43.194 58.0764 43.194 58.1088 43.2125L59.7742 44.186C59.7758 44.186 59.7773 44.186 59.7789 44.1875Z" fill="#3D415B"/>
<path d="M76.8081 57.6023L77.7697 57.0216C77.8036 57.0015 77.8453 57.0015 77.8777 57.02L78.915 57.6192C78.9489 57.6392 78.9489 57.687 78.915 57.707L77.9549 58.2862C77.9163 58.3093 77.8685 58.3093 77.8299 58.2877L76.8065 57.6962C76.7726 57.6762 76.7726 57.6238 76.8081 57.6023Z" fill="#3D415B"/>
<path d="M77.2495 56.7336L76.2894 57.3127C76.2508 57.3358 76.203 57.3358 76.1644 57.3143L75.1411 56.7228C75.104 56.7012 75.104 56.6489 75.1411 56.6273L76.1027 56.0466C76.1366 56.0266 76.1783 56.0266 76.2107 56.0451L77.248 56.6442C77.2819 56.6643 77.2835 56.7135 77.2495 56.7336Z" fill="#3D415B"/>
<path d="M75.5815 55.7601L74.6215 56.3392C74.5829 56.3623 74.535 56.3623 74.4965 56.3408L73.4731 55.7493C73.4361 55.7277 73.4361 55.6753 73.4731 55.6538L74.4347 55.0731C74.4687 55.0531 74.5103 55.0531 74.5428 55.0715L75.58 55.6707C75.6155 55.6907 75.6155 55.74 75.5815 55.7601Z" fill="#3D415B"/>
<path d="M72.8295 55.3672L71.8061 54.7757C71.7691 54.7542 71.7691 54.7018 71.8061 54.6803L72.7677 54.0996C72.8017 54.0795 72.8433 54.0795 72.8758 54.098L73.913 54.6972C73.947 54.7172 73.947 54.765 73.913 54.785L72.9529 55.3641C72.9159 55.3888 72.868 55.3888 72.8295 55.3672Z" fill="#3D415B"/>
<path d="M71.1607 54.3937L70.1374 53.8022C70.1003 53.7807 70.1003 53.7283 70.1358 53.7067L71.0974 53.1261C71.1314 53.106 71.1731 53.106 71.2055 53.1245L72.2427 53.7237C72.2767 53.7437 72.2767 53.7915 72.2427 53.8115L71.2827 54.3906C71.2487 54.4153 71.2008 54.4168 71.1607 54.3937Z" fill="#3D415B"/>
<path d="M69.4937 53.4203L68.4704 52.8289C68.4333 52.8073 68.4333 52.7549 68.4688 52.7334L69.4304 52.1527C69.4644 52.1326 69.5061 52.1326 69.5385 52.1511L70.5757 52.7503C70.6097 52.7703 70.6097 52.8181 70.5757 52.8381L69.6172 53.4173C69.5802 53.4419 69.5323 53.4435 69.4937 53.4203Z" fill="#3D415B"/>
<path d="M67.8248 52.4468L66.8014 51.8554C66.7644 51.8338 66.7644 51.783 66.7999 51.7599L67.7615 51.1792C67.7954 51.1591 67.8371 51.1591 67.8695 51.1776L68.9068 51.7768C68.9407 51.7968 68.9407 51.8446 68.9068 51.8646L67.9467 52.4438C67.9112 52.4684 67.8634 52.4699 67.8248 52.4468Z" fill="#3D415B"/>
<path d="M66.1578 51.4733L65.1344 50.8818C65.0974 50.8603 65.0974 50.8095 65.1329 50.7864L66.0945 50.2056C66.1285 50.1856 66.1686 50.1856 66.2025 50.2041L67.2398 50.8033C67.2737 50.8233 67.2737 50.8711 67.2398 50.8911L66.2797 51.4703C66.2442 51.4949 66.1964 51.4964 66.1578 51.4733Z" fill="#3D415B"/>
<path d="M64.4898 50.4999L63.4665 49.9084C63.4294 49.8869 63.4294 49.8361 63.4649 49.813L64.4265 49.2323C64.4605 49.2122 64.5021 49.2122 64.5346 49.2307L65.5718 49.8299C65.6058 49.8499 65.6058 49.8977 65.5718 49.9177L64.6117 50.4968C64.5762 50.5215 64.5284 50.5215 64.4898 50.4999Z" fill="#3D415B"/>
<path d="M62.8207 49.5264L61.7973 48.9349C61.7603 48.9134 61.7603 48.861 61.7973 48.8394L62.7589 48.2587C62.7929 48.2387 62.8346 48.2387 62.867 48.2572L63.9042 48.8564C63.9382 48.8764 63.9382 48.9242 63.9042 48.9442L62.9442 49.5233C62.9087 49.548 62.8608 49.548 62.8207 49.5264Z" fill="#3D415B"/>
<path d="M61.1537 48.5529L60.1303 47.9614C60.0933 47.9399 60.0933 47.8875 60.1303 47.8659L61.0919 47.2852C61.1259 47.2652 61.1676 47.2652 61.2 47.2837L62.2372 47.8829C62.2712 47.9029 62.2712 47.9506 62.2372 47.9707L61.2771 48.5498C61.2401 48.5745 61.1923 48.5745 61.1537 48.5529Z" fill="#3D415B"/>
<path d="M59.5316 46.3117L60.5688 46.9109C60.6028 46.9309 60.6028 46.9786 60.5688 46.9987L59.6088 47.5778C59.5702 47.6009 59.5223 47.6009 59.4837 47.5794L58.4604 46.9879C58.4234 46.9663 58.4234 46.9139 58.4604 46.8924L59.422 46.3117C59.456 46.2932 59.4976 46.2917 59.5316 46.3117Z" fill="#3D415B"/>
<path d="M57.8179 46.6059L56.7946 46.0144C56.7575 45.9928 56.7575 45.9405 56.793 45.9189L57.7547 45.3382C57.7886 45.3182 57.8303 45.3182 57.8627 45.3367L58.8999 45.9359C58.9339 45.9559 58.9339 46.0036 58.8999 46.0237L57.9414 46.6028C57.9044 46.6274 57.8565 46.629 57.8179 46.6059Z" fill="#3D415B"/>
<path d="M57.2351 45.0518L56.275 45.631C56.2364 45.6541 56.1886 45.6556 56.15 45.6325L55.1266 45.041C55.0896 45.0195 55.0896 44.9671 55.1251 44.9455L56.0867 44.3648C56.1206 44.3448 56.1623 44.3448 56.1947 44.3633L57.232 44.9625C57.2675 44.9825 57.2675 45.0318 57.2351 45.0518Z" fill="#3D415B"/>
<path d="M74.8938 58.7528L75.8554 58.1721C75.8894 58.1521 75.931 58.1521 75.9635 58.1705L77.0007 58.7697C77.0347 58.7897 77.0347 58.8375 77.0022 58.8575L76.0422 59.4367C76.0036 59.4598 75.9557 59.4598 75.9171 59.4382L74.8938 58.8467C74.8583 58.8267 74.8583 58.7743 74.8938 58.7528Z" fill="#3D415B"/>
<path d="M74.3754 58.4635C74.3368 58.4866 74.2889 58.4866 74.2504 58.465L73.227 57.8735C73.19 57.852 73.19 57.7996 73.227 57.778L74.1886 57.1973C74.2226 57.1773 74.2642 57.1773 74.2966 57.1958L75.3339 57.795C75.3679 57.815 75.3679 57.8628 75.3355 57.8828L74.3754 58.4635Z" fill="#3D415B"/>
<path d="M72.5816 57.4913L71.5583 56.8998C71.5212 56.8782 71.5212 56.8259 71.5567 56.8043L72.5183 56.2236C72.5523 56.2036 72.594 56.2036 72.6264 56.222L73.6636 56.8212C73.6976 56.8413 73.6976 56.889 73.6652 56.909L72.7051 57.4882C72.6696 57.5128 72.6217 57.5144 72.5816 57.4913Z" fill="#3D415B"/>
<path d="M70.9146 56.518L69.8913 55.9265C69.8542 55.905 69.8542 55.8526 69.8897 55.831L70.8513 55.2503C70.8853 55.2303 70.9254 55.2303 70.9594 55.2488L71.9966 55.848C72.0306 55.868 72.0306 55.9157 71.9966 55.9358L71.0365 56.5149C71.001 56.5396 70.9532 56.5411 70.9146 56.518Z" fill="#3D415B"/>
<path d="M69.2466 55.5444L68.2233 54.9529C68.1862 54.9313 68.1862 54.879 68.2217 54.8574L69.1834 54.2767C69.2173 54.2567 69.259 54.2567 69.2914 54.2751L70.3287 54.8743C70.3626 54.8944 70.3626 54.9421 70.3287 54.9621L69.3686 55.5413C69.3331 55.5659 69.2852 55.5675 69.2466 55.5444Z" fill="#3D415B"/>
<path d="M67.5797 54.5709L66.5563 53.9794C66.5193 53.9578 66.5193 53.9054 66.5548 53.8839L67.5164 53.3032C67.5503 53.2832 67.5904 53.2832 67.6244 53.3016L68.6617 53.9008C68.6956 53.9208 68.6956 53.9686 68.6617 53.9886L67.7016 54.5678C67.6661 54.5924 67.6182 54.594 67.5797 54.5709Z" fill="#3D415B"/>
<path d="M65.9107 53.5975L64.8874 53.006C64.8503 52.9844 64.8503 52.9336 64.8858 52.9105L65.8474 52.3298C65.8814 52.3098 65.9215 52.3098 65.9555 52.3283L66.9927 52.9274C67.0267 52.9474 67.0267 52.9952 66.9927 53.0152L66.0327 53.5944C65.9972 53.619 65.9493 53.6206 65.9107 53.5975Z" fill="#3D415B"/>
<path d="M64.2427 52.6241L63.2194 52.0326C63.1823 52.011 63.1823 51.9602 63.2178 51.9371L64.1794 51.3564C64.2134 51.3364 64.2551 51.3364 64.2875 51.3549L65.3247 51.954C65.3587 51.9741 65.3587 52.0218 65.3247 52.0418L64.3647 52.621C64.3307 52.6456 64.2829 52.6472 64.2427 52.6241Z" fill="#3D415B"/>
<path d="M62.5757 51.6504L61.5524 51.059C61.5153 51.0389 61.5153 50.9866 61.5508 50.9635L62.5125 50.3828C62.5464 50.3627 62.5881 50.3627 62.6205 50.3812L63.6578 50.9804C63.6917 51.0004 63.6917 51.0482 63.6578 51.0682L62.6977 51.6474C62.6622 51.672 62.6143 51.6735 62.5757 51.6504Z" fill="#3D415B"/>
<path d="M60.9068 50.6769L59.8834 50.0855C59.8464 50.0639 59.8464 50.0115 59.8819 49.99L60.8435 49.4093C60.8775 49.3892 60.9191 49.3892 60.9515 49.4077L61.9888 50.0069C62.0227 50.0269 62.0227 50.0747 61.9888 50.0947L61.0287 50.6738C60.9932 50.6985 60.9454 50.7 60.9068 50.6769Z" fill="#3D415B"/>
<path d="M59.2398 49.7037L58.2165 49.1122C58.1794 49.0906 58.1794 49.0383 58.2149 49.0167L59.1765 48.436C59.2105 48.416 59.2506 48.416 59.2846 48.4345L60.3218 49.0336C60.3558 49.0537 60.3558 49.1014 60.3218 49.1214L59.3618 49.7006C59.3263 49.7252 59.2784 49.7268 59.2398 49.7037Z" fill="#3D415B"/>
<path d="M57.5716 48.7302L56.5483 48.1387C56.5112 48.1171 56.5112 48.0647 56.5483 48.0432L57.5099 47.4625C57.5439 47.4425 57.584 47.4425 57.618 47.4609L58.6552 48.0601C58.6892 48.0801 58.6892 48.1279 58.6552 48.1479L57.6951 48.7271C57.6581 48.7517 57.6102 48.7533 57.5716 48.7302Z" fill="#3D415B"/>
<path d="M55.9029 47.7565L54.8795 47.165C54.8425 47.1435 54.8425 47.0911 54.878 47.0695L55.8396 46.4888C55.8736 46.4688 55.9153 46.4688 55.9477 46.4873L56.9849 47.0865C57.0189 47.1065 57.0189 47.1543 56.9849 47.1743L56.0248 47.7534C55.9909 47.7781 55.9415 47.7796 55.9029 47.7565Z" fill="#3D415B"/>
<path d="M55.3191 46.2026L54.359 46.7817C54.3204 46.8048 54.2725 46.8064 54.234 46.7833L53.2106 46.1918C53.1736 46.1702 53.1736 46.1178 53.2091 46.0963L54.1707 45.5156C54.2046 45.4956 54.2463 45.4956 54.2787 45.514L55.316 46.1132C55.353 46.1332 55.353 46.1825 55.3191 46.2026Z" fill="#3D415B"/>
<path d="M73.9421 59.3227C73.9761 59.3027 74.0177 59.3027 74.0501 59.3212L75.0874 59.9203C75.1214 59.9404 75.1214 59.9881 75.0874 60.0081L74.1273 60.5873C74.0887 60.6104 74.0409 60.6104 74.0023 60.5888L72.979 59.9974C72.9419 59.9758 72.9419 59.9234 72.979 59.9019L73.9421 59.3227Z" fill="#3D415B"/>
<path d="M72.2732 58.3492C72.3071 58.3292 72.3488 58.3292 72.3812 58.3477L73.4185 58.9468C73.4524 58.9669 73.4524 59.0146 73.4185 59.0346L72.4584 59.6138C72.4198 59.6369 72.372 59.6369 72.3334 59.6153L71.31 59.0239C71.273 59.0023 71.273 58.9499 71.31 58.9284L72.2732 58.3492Z" fill="#3D415B"/>
<path d="M70.6064 57.3759C70.6403 57.3559 70.682 57.3559 70.7144 57.3744L71.7516 57.9736C71.7856 57.9936 71.7856 58.0413 71.7516 58.0614L70.7916 58.6405C70.753 58.6636 70.7052 58.6652 70.6666 58.6421L69.6432 58.0506C69.6062 58.029 69.6062 57.9767 69.6417 57.9551L70.6064 57.3759Z" fill="#3D415B"/>
<path d="M68.9374 56.4025C68.9714 56.3825 69.0131 56.3825 69.0455 56.401L70.0827 57.0002C70.1167 57.0202 70.1167 57.0679 70.0827 57.088L69.1227 57.6671C69.0841 57.6902 69.0362 57.6918 68.9976 57.6687L67.9743 57.0772C67.9372 57.0556 67.9372 57.0033 67.9727 56.9817L68.9374 56.4025Z" fill="#3D415B"/>
<path d="M60.5986 51.535C60.6325 51.515 60.6742 51.515 60.7066 51.5335L61.2129 51.8261C61.2345 51.823 61.2576 51.8261 61.2777 51.8369L68.4165 56.0265C68.4504 56.0466 68.4504 56.0943 68.4165 56.1143L67.4564 56.6935C67.4178 56.7166 67.37 56.7166 67.3314 56.695L65.6798 55.7262C65.6752 55.7246 65.669 55.7246 65.6629 55.7216L64.6395 55.1301C64.6302 55.1255 64.6302 55.1147 64.6256 55.107L64.0267 54.7558C64.0159 54.7527 64.0036 54.7527 63.9943 54.7481L62.971 54.1566C62.9586 54.1504 62.9571 54.1366 62.9524 54.1258L62.3751 53.7869C62.3582 53.7854 62.3412 53.7823 62.3258 53.7746L61.3024 53.1831C61.287 53.1739 61.2823 53.1585 61.2793 53.1431L60.722 52.8165C60.7004 52.8165 60.6773 52.8119 60.6588 52.8011L59.6354 52.2096C59.5984 52.1881 59.5984 52.1357 59.6339 52.1142L60.5986 51.535Z" fill="#3D415B"/>
<path d="M58.9308 50.5615C58.9648 50.5415 59.0064 50.5415 59.0388 50.5599L60.0761 51.1591C60.1101 51.1792 60.11 51.2269 60.0776 51.2469L59.1176 51.8261C59.079 51.8492 59.0311 51.8492 58.9925 51.8276L57.9692 51.2361C57.9321 51.2146 57.9321 51.1622 57.9692 51.1406L58.9308 50.5615Z" fill="#3D415B"/>
<path d="M57.2624 49.5878C57.2964 49.5678 57.3381 49.5678 57.3705 49.5863L58.4077 50.1855C58.4417 50.2055 58.4417 50.2533 58.4077 50.2733L57.4477 50.8524C57.4091 50.8755 57.3612 50.8771 57.3226 50.854L56.2993 50.2625C56.2622 50.2409 56.2622 50.1886 56.2993 50.167L57.2624 49.5878Z" fill="#3D415B"/>
<path d="M55.5945 48.6145C55.6284 48.5944 55.6701 48.5944 55.7025 48.6129L56.7397 49.2121C56.7737 49.2321 56.7737 49.2799 56.7397 49.2999L55.7797 49.879C55.7411 49.9021 55.6932 49.9037 55.6547 49.8806L54.6313 49.2891C54.5943 49.2675 54.5943 49.2152 54.6313 49.1936L55.5945 48.6145Z" fill="#3D415B"/>
<path d="M53.9267 47.6411C53.9606 47.621 54.0023 47.621 54.0347 47.6395L55.072 48.2387C55.1059 48.2587 55.1059 48.3065 55.072 48.3265L54.1119 48.9057C54.0733 48.9288 54.0255 48.9288 53.9869 48.9072L52.9635 48.3157C52.9265 48.2942 52.9265 48.2418 52.962 48.2202L53.9267 47.6411Z" fill="#3D415B"/>
<path d="M51.2969 47.2484L52.2585 46.6677C52.2925 46.6477 52.3342 46.6477 52.3666 46.6661L53.4038 47.2653C53.4378 47.2853 53.4378 47.3331 53.4038 47.3531L52.4438 47.9323C52.4052 47.9554 52.3573 47.9554 52.3187 47.9338L51.2954 47.3423C51.2614 47.3223 51.2599 47.2699 51.2969 47.2484Z" fill="#3D415B"/>
<path d="M82.554 54.0456L83.5773 54.6371C83.6159 54.6586 83.6638 54.6586 83.7023 54.6355L84.6624 54.0564C84.6964 54.0363 84.6964 53.9871 84.6624 53.9686L83.6252 53.3694C83.5912 53.3509 83.5495 53.3509 83.5171 53.3709L82.5555 53.9516C82.5169 53.9717 82.5169 54.024 82.554 54.0456Z" fill="#83869B"/>
<path d="M80.885 53.0722L81.9084 53.6637C81.947 53.6853 81.9948 53.6853 82.0334 53.6621L82.9935 53.083C83.0274 53.063 83.0274 53.0137 82.9935 52.9952L81.9562 52.396C81.9223 52.3775 81.8806 52.3775 81.8482 52.3975L80.8866 52.9782C80.848 52.9983 80.848 53.0506 80.885 53.0722Z" fill="#83869B"/>
<path d="M79.2165 52.0986L80.2398 52.6901C80.2784 52.7116 80.3262 52.7116 80.3648 52.6885L81.3249 52.1094C81.3588 52.0893 81.3588 52.04 81.3249 52.0216L80.2877 51.4224C80.2537 51.4039 80.212 51.4039 80.1796 51.4239L79.218 52.0046C79.1794 52.0246 79.181 52.077 79.2165 52.0986Z" fill="#83869B"/>
<path d="M77.5501 51.1249L78.5734 51.7164C78.612 51.738 78.6598 51.738 78.6984 51.7149L79.6585 51.1357C79.6925 51.1157 79.6925 51.0664 79.6585 51.0479L78.6212 50.4487C78.5873 50.4303 78.5456 50.4303 78.5132 50.4503L77.5516 51.031C77.513 51.051 77.513 51.1034 77.5501 51.1249Z" fill="#83869B"/>
<path d="M75.8811 50.1517L76.9045 50.7431C76.943 50.7647 76.9909 50.7647 77.0295 50.7416L77.9896 50.1624C78.0235 50.1424 78.0235 50.0931 77.9896 50.0746L76.9523 49.4755C76.9184 49.457 76.8767 49.457 76.8443 49.477L75.8827 50.0577C75.8441 50.0777 75.8441 50.1301 75.8811 50.1517Z" fill="#83869B"/>
<path d="M74.2141 49.1783L75.2375 49.7698C75.2761 49.7913 75.3239 49.7913 75.3625 49.7682L76.3226 49.1891C76.3565 49.169 76.3565 49.1197 76.3226 49.1013L75.2853 48.5021C75.2513 48.4836 75.2097 48.4836 75.1773 48.5036L74.2157 49.0843C74.1771 49.1043 74.1771 49.1567 74.2141 49.1783Z" fill="#83869B"/>
<path d="M72.5452 48.2046L73.5685 48.7961C73.6071 48.8177 73.655 48.8177 73.6936 48.7946L74.6536 48.2154C74.6876 48.1954 74.6876 48.1461 74.6536 48.1276L73.6164 47.5284C73.5824 47.51 73.5407 47.51 73.5083 47.53L72.5467 48.1107C72.5081 48.1307 72.5081 48.1831 72.5452 48.2046Z" fill="#83869B"/>
<path d="M70.8766 47.2313L71.9 47.8227C71.9385 47.8443 71.9864 47.8443 72.025 47.8212L72.985 47.242C73.019 47.222 73.019 47.1727 72.985 47.1542L71.9478 46.5551C71.9138 46.5366 71.8722 46.5366 71.8398 46.5566L70.8782 47.1373C70.8396 47.1573 70.8411 47.2097 70.8766 47.2313Z" fill="#83869B"/>
<path d="M69.2102 46.2577L70.2336 46.8492C70.2722 46.8708 70.32 46.8708 70.3586 46.8477L71.3187 46.2685C71.3526 46.2485 71.3526 46.1992 71.3187 46.1807L70.2814 45.5816C70.2475 45.5631 70.2058 45.5631 70.1734 45.5831L69.2118 46.1638C69.1732 46.1838 69.1732 46.2362 69.2102 46.2577Z" fill="#83869B"/>
<path d="M67.5413 45.2844L68.5646 45.8758C68.6032 45.8974 68.651 45.8974 68.6896 45.8743L69.6497 45.2951C69.6837 45.2751 69.6837 45.2258 69.6497 45.2073L68.6125 44.6082C68.5785 44.5897 68.5368 44.5897 68.5044 44.6097L67.5428 45.1904C67.5042 45.2104 67.5042 45.2628 67.5413 45.2844Z" fill="#83869B"/>
<path d="M65.8727 44.3107L66.8961 44.9022C66.9346 44.9238 66.9825 44.9238 67.0211 44.9007L67.9811 44.3215C68.0151 44.3015 68.0151 44.2522 67.9811 44.2337L66.9439 43.6345C66.91 43.616 66.8683 43.616 66.8359 43.6361L65.8743 44.2168C65.8357 44.2368 65.8372 44.2892 65.8727 44.3107Z" fill="#83869B"/>
<path d="M64.2063 43.3373L65.2296 43.9288C65.2682 43.9504 65.3161 43.9504 65.3547 43.9273L66.3147 43.3481C66.3487 43.3281 66.3487 43.2788 66.3147 43.2603L65.2775 42.6611C65.2436 42.6427 65.2019 42.6427 65.1695 42.6627L64.2078 43.2434C64.1693 43.2634 64.1693 43.3158 64.2063 43.3373Z" fill="#83869B"/>
<path d="M62.5378 42.3639L63.5611 42.9554C63.5997 42.977 63.6475 42.977 63.6861 42.9539L64.6462 42.3747C64.6802 42.3547 64.6802 42.3054 64.6462 42.2869L63.6089 41.6877C63.575 41.6693 63.5333 41.6693 63.5009 41.6893L62.5393 42.27C62.5007 42.29 62.5023 42.3424 62.5378 42.3639Z" fill="#83869B"/>
<path d="M60.8704 41.3904L61.8937 41.9819C61.9323 42.0035 61.9802 42.0035 62.0188 41.9804L62.9788 41.4012C63.0128 41.3812 63.0128 41.3319 62.9788 41.3134L61.9416 40.7142C61.9076 40.6958 61.8659 40.6958 61.8335 40.7158L60.8719 41.2965C60.8333 41.3165 60.8333 41.3689 60.8704 41.3904Z" fill="#83869B"/>
<path d="M80.6383 55.1961L81.6617 55.7875C81.7003 55.8091 81.7481 55.8091 81.7867 55.786L82.7468 55.2069C82.7808 55.1868 82.7808 55.1376 82.7468 55.1191L81.7095 54.5199C81.6756 54.5014 81.6339 54.5014 81.6015 54.5214L80.6399 55.1021C80.6013 55.1222 80.6028 55.1745 80.6383 55.1961Z" fill="#83869B"/>
<path d="M78.971 54.2227L79.9943 54.8142C80.0329 54.8357 80.0808 54.8358 80.1193 54.8127L81.0794 54.2335C81.1134 54.2135 81.1134 54.1642 81.0794 54.1457L80.0422 53.5465C80.0082 53.528 79.9665 53.528 79.9341 53.5481L78.9725 54.1288C78.9339 54.1488 78.9339 54.2011 78.971 54.2227Z" fill="#83869B"/>
<path d="M77.303 53.2492L78.3263 53.8407C78.3649 53.8622 78.4128 53.8622 78.4513 53.8391L79.4114 53.26C79.4454 53.24 79.4454 53.1907 79.4114 53.1722L78.3742 52.573C78.3402 52.5545 78.2985 52.5545 78.2661 52.5745L77.3045 53.1552C77.2659 53.1753 77.2659 53.2276 77.303 53.2492Z" fill="#83869B"/>
<path d="M75.6344 52.2759L76.6578 52.8674C76.6964 52.889 76.7442 52.889 76.7828 52.8659L77.7429 52.2867C77.7768 52.2667 77.7768 52.2174 77.7429 52.1989L76.7056 51.5997C76.6717 51.5813 76.63 51.5813 76.5976 51.6013L75.636 52.182C75.5974 52.202 75.5989 52.2544 75.6344 52.2759Z" fill="#83869B"/>
<path d="M73.967 51.3023L74.9904 51.8938C75.029 51.9153 75.0768 51.9153 75.1154 51.8922L76.0755 51.3131C76.1094 51.2931 76.1094 51.2438 76.0755 51.2253L75.0382 50.6261C75.0043 50.6076 74.9626 50.6076 74.9302 50.6276L73.9686 51.2083C73.93 51.2284 73.93 51.2807 73.967 51.3023Z" fill="#83869B"/>
<path d="M72.2985 50.3289L73.3219 50.9204C73.3604 50.942 73.4083 50.942 73.4469 50.9188L74.407 50.3397C74.4409 50.3197 74.4409 50.2704 74.407 50.2519L73.3697 49.6527C73.3358 49.6342 73.2941 49.6342 73.2617 49.6543L72.3 50.235C72.2615 50.255 72.263 50.3073 72.2985 50.3289Z" fill="#83869B"/>
<path d="M70.6311 49.3552L71.6545 49.9466C71.6931 49.9682 71.7409 49.9682 71.7795 49.9451L72.7396 49.3659C72.7735 49.3459 72.7735 49.2966 72.7396 49.2781L71.7023 48.679C71.6684 48.6605 71.6267 48.6605 71.5943 48.6805L70.6327 49.2612C70.5941 49.2812 70.5941 49.3336 70.6311 49.3552Z" fill="#83869B"/>
<path d="M68.9631 48.382L69.9865 48.9735C70.0251 48.995 70.0729 48.995 70.1115 48.9719L71.0716 48.3928C71.1056 48.3728 71.1056 48.3235 71.0716 48.305L70.0343 47.7058C70.0004 47.6873 69.9587 47.6873 69.9263 47.7074L68.9647 48.288C68.9261 48.3081 68.9261 48.3604 68.9631 48.382Z" fill="#83869B"/>
<path d="M67.2946 47.4084L68.3179 47.9998C68.3565 48.0214 68.4044 48.0214 68.443 47.9983L69.403 47.4192C69.437 47.3991 69.437 47.3498 69.403 47.3314L68.3658 46.7322C68.3318 46.7137 68.2902 46.7137 68.2578 46.7337L67.2961 47.3144C67.2575 47.3344 67.2591 47.3868 67.2946 47.4084Z" fill="#83869B"/>
<path d="M65.6272 46.4349L66.6506 47.0263C66.6891 47.0479 66.737 47.0479 66.7756 47.0248L67.7357 46.4457C67.7696 46.4256 67.7696 46.3763 67.7357 46.3579L66.6984 45.7587C66.6644 45.7402 66.6228 45.7402 66.5904 45.7602L65.6287 46.3409C65.5902 46.3609 65.5902 46.4133 65.6272 46.4349Z" fill="#83869B"/>
<path d="M63.9587 45.4614L64.982 46.0528C65.0206 46.0744 65.0685 46.0744 65.107 46.0513L66.0671 45.4721C66.1011 45.4521 66.1011 45.4028 66.0671 45.3843L65.0299 44.7852C64.9959 44.7667 64.9542 44.7667 64.9218 44.7867L63.9602 45.3674C63.9216 45.3874 63.9232 45.4398 63.9587 45.4614Z" fill="#83869B"/>
<path d="M62.2922 44.4881L63.3156 45.0796C63.3542 45.1011 63.402 45.1011 63.4406 45.078L64.4007 44.4989C64.4346 44.4789 64.4346 44.4296 64.4007 44.4111L63.3634 43.8119C63.3295 43.7934 63.2878 43.7934 63.2554 43.8134L62.2938 44.3941C62.2552 44.4142 62.2552 44.4665 62.2922 44.4881Z" fill="#83869B"/>
<path d="M60.6233 43.5143L61.6466 44.1058C61.6852 44.1274 61.7331 44.1274 61.7717 44.1043L62.7317 43.5251C62.7657 43.5051 62.7657 43.4558 62.7317 43.4373L61.6945 42.8381C61.6605 42.8197 61.6189 42.8197 61.5864 42.8397L60.6248 43.4204C60.5863 43.4404 60.5863 43.4928 60.6233 43.5143Z" fill="#83869B"/>
<path d="M58.9547 42.5411L59.9781 43.1326C60.0167 43.1541 60.0645 43.1541 60.1031 43.131L61.0632 42.5519C61.0971 42.5318 61.0971 42.4825 61.0632 42.4641L60.0259 41.8649C59.992 41.8464 59.9503 41.8464 59.9179 41.8664L58.9563 42.4471C58.9177 42.4671 58.9192 42.5195 58.9547 42.5411Z" fill="#83869B"/>
<path d="M77.4563 55.601L79.7484 56.938C79.787 56.9596 79.8349 56.9596 79.8735 56.9364L80.8335 56.3573C80.8675 56.3373 80.8675 56.288 80.8335 56.2695L78.5275 54.9248C78.4935 54.9063 78.4519 54.9063 78.4195 54.9263L77.4578 55.507C77.4193 55.5271 77.4193 55.5794 77.4563 55.601Z" fill="#83869B"/>
<path d="M77.0563 55.3733L78.0797 55.9648C78.1182 55.9864 78.1661 55.9864 78.2047 55.9633L79.1648 55.3841C79.1987 55.3641 79.1987 55.3148 79.1648 55.2963L78.1275 54.6972C78.0936 54.6787 78.0519 54.6787 78.0195 54.6987L77.0578 55.2794C77.0193 55.2994 77.0208 55.3518 77.0563 55.3733Z" fill="#83869B"/>
<path d="M75.3889 54.3997L76.4123 54.9912C76.4509 55.0127 76.4987 55.0127 76.5373 54.9896L77.4974 54.4105C77.5313 54.3905 77.5313 54.3412 77.4974 54.3227L76.4601 53.7235C76.4262 53.705 76.3845 53.705 76.3521 53.7251L75.3905 54.3057C75.3519 54.3258 75.3519 54.3781 75.3889 54.3997Z" fill="#83869B"/>
<path d="M73.7204 53.4264L74.7437 54.0179C74.7823 54.0395 74.8302 54.0395 74.8688 54.0164L75.8288 53.4372C75.8628 53.4172 75.8628 53.3679 75.8288 53.3494L74.7916 52.7502C74.7576 52.7318 74.7159 52.7318 74.6835 52.7518L73.7219 53.3325C73.6833 53.3525 73.6849 53.4049 73.7204 53.4264Z" fill="#83869B"/>
<path d="M72.054 52.4528L73.0773 53.0443C73.1159 53.0658 73.1637 53.0658 73.2023 53.0427L74.1624 52.4636C74.1964 52.4436 74.1964 52.3943 74.1624 52.3758L73.1252 51.7766C73.0912 51.7581 73.0495 51.7581 73.0171 51.7782L72.0555 52.3589C72.0169 52.3789 72.0169 52.4312 72.054 52.4528Z" fill="#83869B"/>
<path d="M70.385 51.4794L71.4084 52.0709C71.447 52.0925 71.4948 52.0925 71.5334 52.0694L72.4935 51.4902C72.5274 51.4702 72.5274 51.4209 72.4935 51.4024L71.4562 50.8032C71.4223 50.7847 71.3806 50.7847 71.3482 50.8048L70.3866 51.3855C70.348 51.4055 70.348 51.4579 70.385 51.4794Z" fill="#83869B"/>
<path d="M68.7165 50.5058L69.7398 51.0973C69.7784 51.1188 69.8262 51.1188 69.8648 51.0957L70.8249 50.5166C70.8589 50.4966 70.8589 50.4473 70.8249 50.4288L69.7877 49.8296C69.7537 49.8111 69.712 49.8111 69.6796 49.8311L68.718 50.4118C68.6794 50.4319 68.681 50.4842 68.7165 50.5058Z" fill="#83869B"/>
<path d="M67.0501 49.5325L68.0734 50.124C68.112 50.1456 68.1599 50.1456 68.1984 50.1225L69.1585 49.5433C69.1925 49.5233 69.1925 49.474 69.1585 49.4555L68.1213 48.8563C68.0873 48.8378 68.0456 48.8378 68.0132 48.8579L67.0516 49.4386C67.013 49.4586 67.013 49.511 67.0501 49.5325Z" fill="#83869B"/>
<path d="M65.3815 48.5589L66.4049 49.1504C66.4434 49.1719 66.4913 49.1719 66.5299 49.1488L67.4899 48.5697C67.5239 48.5496 67.5239 48.5004 67.4899 48.4819L66.4527 47.8827C66.4187 47.8642 66.3771 47.8642 66.3447 47.8842L65.383 48.4649C65.3445 48.485 65.346 48.5373 65.3815 48.5589Z" fill="#83869B"/>
<path d="M63.7141 47.5854L64.7375 48.1768C64.7761 48.1984 64.8239 48.1984 64.8625 48.1753L65.8226 47.5962C65.8565 47.5761 65.8565 47.5268 65.8226 47.5084L64.7853 46.9092C64.7514 46.8907 64.7097 46.8907 64.6773 46.9107L63.7157 47.4914C63.6771 47.5114 63.6771 47.5638 63.7141 47.5854Z" fill="#83869B"/>
<path d="M62.0452 46.6121L63.0685 47.2036C63.1071 47.2251 63.155 47.2251 63.1936 47.202L64.1536 46.6229C64.1876 46.6029 64.1876 46.5536 64.1536 46.5351L63.1164 45.9359C63.0824 45.9174 63.0408 45.9174 63.0083 45.9375L62.0467 46.5181C62.0081 46.5382 62.0081 46.5905 62.0452 46.6121Z" fill="#83869B"/>
<path d="M60.3766 45.6385L61.4 46.2299C61.4386 46.2515 61.4864 46.2515 61.525 46.2284L62.4851 45.6492C62.519 45.6292 62.519 45.5799 62.4851 45.5615L61.4478 44.9623C61.4138 44.9438 61.3722 44.9438 61.3398 44.9638L60.3782 45.5445C60.3396 45.5645 60.3411 45.6169 60.3766 45.6385Z" fill="#83869B"/>
<path d="M58.7102 44.6648L59.7336 45.2563C59.7721 45.2779 59.82 45.2779 59.8586 45.2548L60.8186 44.6756C60.8526 44.6556 60.8526 44.6063 60.8186 44.5878L59.7814 43.9887C59.7475 43.9702 59.7058 43.9702 59.6734 43.9902L58.7118 44.5709C58.6732 44.5909 58.6732 44.6433 58.7102 44.6648Z" fill="#83869B"/>
<path d="M57.0415 43.6916L59.3583 45.0455C59.3969 45.0671 59.4447 45.0671 59.4833 45.044L60.4434 44.4648C60.4773 44.4448 60.4773 44.3955 60.4434 44.377L58.1111 43.0154C58.0772 42.9969 58.0355 42.9969 58.0031 43.0169L57.0415 43.5976C57.0044 43.6177 57.0044 43.67 57.0415 43.6916Z" fill="#83869B"/>
<path d="M76.8108 57.4976L77.8342 58.0891C77.8727 58.1107 77.9206 58.1107 77.9592 58.0876L78.9192 57.5084C78.9532 57.4884 78.9532 57.4391 78.9192 57.4206L77.882 56.8214C77.8481 56.8029 77.8064 56.8029 77.774 56.823L76.8123 57.4037C76.7738 57.4237 76.7738 57.4761 76.8108 57.4976Z" fill="#83869B"/>
<path d="M75.1422 56.524L76.1656 57.1155C76.2042 57.137 76.252 57.137 76.2906 57.1139L77.2507 56.5348C77.2846 56.5147 77.2846 56.4655 77.2507 56.447L76.2134 55.8478C76.1795 55.8293 76.1378 55.8293 76.1054 55.8493L75.1438 56.43C75.1052 56.4501 75.1067 56.5024 75.1422 56.524Z" fill="#83869B"/>
<path d="M73.4749 55.5505L74.4982 56.142C74.5368 56.1635 74.5847 56.1635 74.6232 56.1404L75.5833 55.5613C75.6173 55.5412 75.6173 55.4919 75.5833 55.4735L74.5461 54.8743C74.5121 54.8558 74.4704 54.8558 74.438 54.8758L73.4764 55.4565C73.4378 55.4765 73.4378 55.5289 73.4749 55.5505Z" fill="#83869B"/>
<path d="M71.8069 54.5768L72.8302 55.1683C72.8688 55.1899 72.9167 55.1899 72.9553 55.1668L73.9153 54.5876C73.9493 54.5676 73.9493 54.5183 73.9153 54.4998L72.8781 53.9006C72.8441 53.8822 72.8025 53.8822 72.77 53.9022L71.8084 54.4829C71.7698 54.5029 71.7698 54.5553 71.8069 54.5768Z" fill="#83869B"/>
<path d="M70.1383 53.6034L71.1617 54.1949C71.2003 54.2165 71.2481 54.2165 71.2867 54.1934L72.2468 53.6142C72.2808 53.5942 72.2808 53.5449 72.2468 53.5264L71.2096 52.9272C71.1756 52.9088 71.1339 52.9088 71.1015 52.9288L70.1399 53.5095C70.1013 53.5295 70.1028 53.5819 70.1383 53.6034Z" fill="#83869B"/>
<path d="M68.471 52.6301L69.4943 53.2216C69.5329 53.2431 69.5808 53.2431 69.6193 53.22L70.5794 52.6408C70.6134 52.6208 70.6134 52.5715 70.5794 52.553L69.5422 51.9539C69.5082 51.9354 69.4665 51.9354 69.4341 51.9554L68.4725 52.5361C68.4339 52.5561 68.4339 52.6085 68.471 52.6301Z" fill="#83869B"/>
<path d="M66.802 51.6566L67.8254 52.2481C67.8639 52.2697 67.9118 52.2697 67.9504 52.2466L68.9105 51.6674C68.9444 51.6474 68.9444 51.5981 68.9105 51.5796L67.8732 50.9805C67.8392 50.962 67.7976 50.962 67.7652 50.982L66.8036 51.5627C66.765 51.5827 66.765 51.6351 66.802 51.6566Z" fill="#83869B"/>
<path d="M65.135 50.6829L66.1584 51.2744C66.197 51.2959 66.2448 51.2959 66.2834 51.2728L67.2435 50.6937C67.2774 50.6737 67.2774 50.6244 67.2435 50.6059L66.2062 50.0067C66.1723 49.9882 66.1306 49.9882 66.0982 50.0083L65.1366 50.5889C65.098 50.609 65.098 50.6613 65.135 50.6829Z" fill="#83869B"/>
<path d="M63.467 49.7096L64.4904 50.3011C64.529 50.3227 64.5768 50.3227 64.6154 50.2996L65.5755 49.7204C65.6095 49.7004 65.6095 49.6511 65.5755 49.6326L64.5382 49.0335C64.5043 49.015 64.4626 49.015 64.4302 49.035L63.4686 49.6157C63.43 49.6357 63.43 49.6881 63.467 49.7096Z" fill="#83869B"/>
<path d="M61.7985 48.736L62.8218 49.3275C62.8604 49.3491 62.9083 49.3491 62.9469 49.326L63.9069 48.7468C63.9409 48.7268 63.9409 48.6775 63.9069 48.659L62.8697 48.0598C62.8357 48.0413 62.7941 48.0413 62.7616 48.0614L61.8 48.6421C61.7615 48.6621 61.763 48.7145 61.7985 48.736Z" fill="#83869B"/>
<path d="M60.1311 47.7627L61.1545 48.3542C61.1931 48.3758 61.2409 48.3758 61.2795 48.3527L62.2395 47.7735C62.2735 47.7535 62.2735 47.7042 62.2395 47.6857L61.2023 47.0866C61.1683 47.0681 61.1267 47.0681 61.0943 47.0881L60.1327 47.6688C60.0941 47.6888 60.0941 47.7412 60.1311 47.7627Z" fill="#83869B"/>
<path d="M58.4631 46.789L59.4865 47.3805C59.5251 47.402 59.5729 47.402 59.6115 47.3789L60.5716 46.7998C60.6056 46.7798 60.6056 46.7305 60.5716 46.712L59.5344 46.1128C59.5004 46.0943 59.4587 46.0943 59.4263 46.1143L58.4647 46.695C58.4261 46.7151 58.4261 46.7674 58.4631 46.789Z" fill="#83869B"/>
<path d="M56.7961 45.8156L57.8195 46.4071C57.8581 46.4287 57.9059 46.4287 57.9445 46.4055L58.9046 45.8264C58.9385 45.8064 58.9385 45.7571 58.9046 45.7386L57.8673 45.1394C57.8334 45.1209 57.7917 45.1209 57.7593 45.1409L56.7977 45.7217C56.7591 45.7417 56.7591 45.794 56.7961 45.8156Z" fill="#83869B"/>
<path d="M55.1272 44.8422L56.1506 45.4337C56.1891 45.4553 56.237 45.4553 56.2756 45.4322L57.2357 44.853C57.2696 44.833 57.2696 44.7837 57.2357 44.7652L56.1984 44.166C56.1645 44.1475 56.1228 44.1475 56.0904 44.1676L55.1287 44.7483C55.0902 44.7683 55.0902 44.8206 55.1272 44.8422Z" fill="#83869B"/>
<path d="M74.8967 58.648L75.9201 59.2395C75.9587 59.2611 76.0065 59.2611 76.0451 59.238L77.0052 58.6588C77.0391 58.6388 77.0391 58.5895 77.0052 58.571L75.9679 57.9718C75.934 57.9533 75.8923 57.9533 75.8599 57.9733L74.8983 58.554C74.8597 58.5741 74.8597 58.6264 74.8967 58.648Z" fill="#83869B"/>
<path d="M73.2278 57.6745L74.2511 58.266C74.2897 58.2875 74.3376 58.2875 74.3762 58.2644L75.3362 57.6853C75.3702 57.6652 75.3702 57.616 75.3362 57.5975L74.299 56.9983C74.265 56.9798 74.2234 56.9798 74.1909 56.9998L73.2293 57.5805C73.1907 57.6006 73.1907 57.6529 73.2278 57.6745Z" fill="#83869B"/>
<path d="M71.5592 56.701L72.5826 57.2925C72.6212 57.314 72.669 57.314 72.7076 57.2909L73.6677 56.7118C73.7017 56.6917 73.7017 56.6424 73.6677 56.624L72.6305 56.0248C72.5965 56.0063 72.5548 56.0063 72.5224 56.0263L71.5608 56.607C71.5222 56.627 71.5237 56.6794 71.5592 56.701Z" fill="#83869B"/>
<path d="M69.8928 55.7275L70.9162 56.3189C70.9548 56.3405 71.0026 56.3405 71.0412 56.3174L72.0013 55.7382C72.0352 55.7182 72.0352 55.6689 72.0013 55.6505L70.964 55.0513C70.9301 55.0328 70.8884 55.0328 70.856 55.0528L69.8944 55.6335C69.8558 55.6535 69.8558 55.7059 69.8928 55.7275Z" fill="#83869B"/>
<path d="M68.2239 54.7541L69.2472 55.3455C69.2858 55.3671 69.3337 55.3671 69.3723 55.344L70.3323 54.7649C70.3663 54.7448 70.3663 54.6955 70.3323 54.6771L69.2951 54.0779C69.2611 54.0594 69.2194 54.0594 69.187 54.0794L68.2254 54.6601C68.1868 54.6801 68.1868 54.7325 68.2239 54.7541Z" fill="#83869B"/>
<path d="M66.5569 53.7805L67.5802 54.3719C67.6188 54.3935 67.6667 54.3935 67.7053 54.3704L68.6653 53.7912C68.6993 53.7712 68.6993 53.7219 68.6653 53.7034L67.6281 53.1043C67.5941 53.0858 67.5525 53.0858 67.52 53.1058L66.5584 53.6865C66.5198 53.7065 66.5198 53.7589 66.5569 53.7805Z" fill="#83869B"/>
<path d="M64.8879 52.8069L65.9113 53.3984C65.9499 53.42 65.9977 53.42 66.0363 53.3969L66.9964 52.8177C67.0304 52.7977 67.0304 52.7484 66.9964 52.7299L65.9592 52.1307C65.9252 52.1123 65.8835 52.1123 65.8511 52.1323L64.8895 52.713C64.8509 52.733 64.8509 52.7854 64.8879 52.8069Z" fill="#83869B"/>
<path d="M63.2194 51.8338L64.2428 52.4253C64.2813 52.4468 64.3292 52.4468 64.3678 52.4237L65.3278 51.8446C65.3618 51.8245 65.3618 51.7753 65.3278 51.7568L64.2906 51.1576C64.2566 51.1391 64.215 51.1391 64.1826 51.1591L63.2209 51.7398C63.1824 51.7599 63.1839 51.8122 63.2194 51.8338Z" fill="#83869B"/>
<path d="M61.553 50.86L62.5763 51.4515C62.6149 51.4731 62.6628 51.4731 62.7014 51.45L63.6614 50.8708C63.6954 50.8508 63.6954 50.8015 63.6614 50.783L62.6242 50.1838C62.5902 50.1654 62.5486 50.1654 62.5161 50.1854L61.5545 50.7661C61.5159 50.7861 61.5159 50.8385 61.553 50.86Z" fill="#83869B"/>
<path d="M59.884 49.8865L60.9074 50.478C60.946 50.4996 60.9938 50.4996 61.0324 50.4765L61.9925 49.8973C62.0264 49.8773 62.0264 49.828 61.9925 49.8095L60.9552 49.2103C60.9213 49.1919 60.8796 49.1918 60.8472 49.2119L59.8856 49.7926C59.847 49.8126 59.847 49.865 59.884 49.8865Z" fill="#83869B"/>
<path d="M58.217 48.913L59.2404 49.5045C59.279 49.5261 59.3268 49.5261 59.3654 49.503L60.3255 48.9238C60.3595 48.9038 60.3595 48.8545 60.3255 48.836L59.2882 48.2368C59.2543 48.2183 59.2126 48.2183 59.1802 48.2384L58.2186 48.8191C58.18 48.8391 58.18 48.8914 58.217 48.913Z" fill="#83869B"/>
<path d="M56.5491 47.9396L57.5724 48.5311C57.611 48.5527 57.6589 48.5527 57.6975 48.5296L58.6575 47.9504C58.6915 47.9304 58.6915 47.8811 58.6575 47.8626L57.6203 47.2634C57.5863 47.2449 57.5446 47.2449 57.5122 47.265L56.5506 47.8457C56.512 47.8657 56.512 47.9181 56.5491 47.9396Z" fill="#83869B"/>
<path d="M54.8805 46.9661L55.9039 47.5576C55.9425 47.5792 55.9903 47.5792 56.0289 47.5561L56.989 46.9769C57.0229 46.9569 57.0229 46.9076 56.989 46.8891L55.9517 46.2899C55.9178 46.2714 55.8761 46.2714 55.8437 46.2915L54.8821 46.8722C54.8435 46.8922 54.845 46.9446 54.8805 46.9661Z" fill="#83869B"/>
<path d="M53.2131 45.993L54.2365 46.5844C54.2751 46.606 54.3229 46.606 54.3615 46.5829L55.3216 46.0038C55.3556 45.9837 55.3556 45.9344 55.3216 45.916L54.2844 45.3168C54.2504 45.2983 54.2087 45.2983 54.1763 45.3183L53.2147 45.899C53.1761 45.919 53.1761 45.9714 53.2131 45.993Z" fill="#83869B"/>
<path d="M72.9811 59.7988L74.0045 60.3902C74.0431 60.4118 74.0909 60.4118 74.1295 60.3887L75.0895 59.8095C75.1235 59.7895 75.1235 59.7402 75.0895 59.7217L74.0523 59.1226C74.0183 59.1041 73.9767 59.1041 73.9443 59.1241L72.9827 59.7048C72.9441 59.7264 72.9456 59.7772 72.9811 59.7988Z" fill="#83869B"/>
<path d="M71.3137 58.8252L72.3371 59.4167C72.3757 59.4383 72.4235 59.4383 72.4621 59.4152L73.4222 58.836C73.4561 58.816 73.4561 58.7667 73.4222 58.7482L72.3849 58.1491C72.351 58.1306 72.3093 58.1306 72.2769 58.1506L71.3153 58.7313C71.2767 58.7529 71.2767 58.8037 71.3137 58.8252Z" fill="#83869B"/>
<path d="M69.6458 57.8519L70.6691 58.4433C70.7077 58.4649 70.7555 58.4649 70.7941 58.4418L71.7542 57.8626C71.7881 57.8426 71.7881 57.7933 71.7542 57.7748L70.7169 57.1757C70.683 57.1572 70.6413 57.1572 70.6089 57.1772L69.6473 57.7579C69.6087 57.7795 69.6087 57.8303 69.6458 57.8519Z" fill="#83869B"/>
<path d="M67.9788 56.8782L69.0021 57.4697C69.0407 57.4913 69.0886 57.4913 69.1271 57.4682L70.0872 56.889C70.1212 56.869 70.1212 56.8197 70.0872 56.8012L69.05 56.202C69.016 56.1835 68.9743 56.1835 68.9419 56.2036L67.9803 56.7843C67.9417 56.8058 67.9417 56.8567 67.9788 56.8782Z" fill="#83869B"/>
<path d="M60.2087 52.3143L67.3335 56.4962C67.3721 56.5178 67.42 56.5178 67.4586 56.4946L68.4186 55.9155C68.4526 55.8955 68.4526 55.8462 68.4186 55.8277L61.2798 51.6381C61.2459 51.6196 61.2042 51.6196 61.1718 51.6396L60.2102 52.2203C60.1716 52.2419 60.1732 52.2942 60.2087 52.3143Z" fill="#83869B"/>
<path d="M64.6413 54.9313L65.6646 55.5228C65.7032 55.5444 65.7511 55.5444 65.7896 55.5213L66.7497 54.9421C66.7837 54.9221 66.7837 54.8728 66.7497 54.8543L65.7125 54.2551C65.6785 54.2367 65.6368 54.2366 65.6044 54.2567L64.6428 54.8374C64.6042 54.8589 64.6058 54.9098 64.6413 54.9313Z" fill="#83869B"/>
<path d="M62.9739 53.9581L63.9972 54.5496C64.0358 54.5711 64.0837 54.5711 64.1223 54.548L65.0823 53.9688C65.1163 53.9488 65.1163 53.8995 65.0823 53.881L64.0451 53.2819C64.0111 53.2634 63.9695 53.2634 63.937 53.2834L62.9754 53.8641C62.9368 53.8841 62.9368 53.9365 62.9739 53.9581Z" fill="#83869B"/>
<path d="M61.3059 52.9842L62.3293 53.5757C62.3679 53.5972 62.4157 53.5972 62.4543 53.5741L63.4144 52.995C63.4483 52.9749 63.4483 52.9257 63.4144 52.9072L62.3771 52.308C62.3432 52.2895 62.3015 52.2895 62.2691 52.3095L61.3075 52.8902C61.2689 52.9102 61.2689 52.9626 61.3059 52.9842Z" fill="#83869B"/>
<path d="M59.6389 52.0109L60.6623 52.6024C60.7009 52.624 60.7487 52.624 60.7873 52.6009L61.7474 52.0217C61.7813 52.0017 61.7813 51.9524 61.7474 51.9339L60.7101 51.3347C60.6762 51.3162 60.6345 51.3162 60.6021 51.3363L59.6405 51.917C59.6019 51.937 59.6019 51.9894 59.6389 52.0109Z" fill="#83869B"/>
<path d="M57.97 51.0374L58.9933 51.6289C59.0319 51.6504 59.0798 51.6504 59.1183 51.6273L60.0784 51.0482C60.1124 51.0282 60.1124 50.9789 60.0784 50.9604L59.0412 50.3612C59.0072 50.3427 58.9655 50.3427 58.9331 50.3628L57.9715 50.9434C57.9329 50.9635 57.9329 51.0158 57.97 51.0374Z" fill="#83869B"/>
<path d="M56.3014 50.0639L57.3248 50.6554C57.3634 50.6769 57.4112 50.6769 57.4498 50.6538L58.4099 50.0747C58.4439 50.0547 58.4439 50.0054 58.4099 49.9869L57.3726 49.3877C57.3387 49.3692 57.297 49.3692 57.2646 49.3892L56.303 49.9699C56.2644 49.99 56.2659 50.0423 56.3014 50.0639Z" fill="#83869B"/>
<path d="M54.635 49.0905L55.6584 49.682C55.697 49.7036 55.7448 49.7036 55.7834 49.6805L56.7435 49.1013C56.7774 49.0813 56.7774 49.032 56.7435 49.0135L55.7062 48.4143C55.6723 48.3958 55.6306 48.3958 55.5982 48.4159L54.6366 48.9966C54.598 49.0166 54.598 49.0689 54.635 49.0905Z" fill="#83869B"/>
<path d="M52.9661 48.1171L53.9894 48.7086C54.028 48.7302 54.0759 48.7302 54.1145 48.7071L55.0745 48.1279C55.1085 48.1079 55.1085 48.0586 55.0745 48.0401L54.0373 47.4409C54.0033 47.4224 53.9616 47.4224 53.9292 47.4425L52.9676 48.0232C52.929 48.0432 52.929 48.0956 52.9661 48.1171Z" fill="#83869B"/>
<path d="M51.2975 47.1435L52.3209 47.735C52.3595 47.7565 52.4073 47.7565 52.4459 47.7334L53.406 47.1543C53.4399 47.1342 53.4399 47.085 53.406 47.0665L52.3687 46.4673C52.3348 46.4488 52.2931 46.4488 52.2607 46.4688L51.2991 47.0495C51.2605 47.0696 51.262 47.1219 51.2975 47.1435Z" fill="#83869B"/>
<path d="M54.3594 35.9146L74.0177 47.6764V19.7536L69.4257 11.0154L54.3594 2V35.9146Z" fill="#D2D5D8"/>
<path d="M52.8594 36.6062L72.5176 48.368V20.4453L67.9257 11.7071L52.8594 2.69165V36.6062Z" fill="url(#paint2_linear_65_17684)"/>
<path d="M53.748 36.1024V4.25806L67.2538 12.3385L71.6282 20.6639V46.8014L53.748 36.1024Z" fill="url(#paint3_linear_65_17684)"/>
<path d="M54.3597 2L52.8594 2.6916L67.9257 11.707L69.426 11.0154L54.3597 2Z" fill="url(#paint4_linear_65_17684)"/>
<path d="M74.0179 19.7535L72.5176 20.4451V48.3679L74.0179 47.6763V19.7535Z" fill="#BBBDBF"/>
<path d="M64.0209 17.9683L55.4544 13.1395C55.2244 13.0101 55.0361 12.7159 55.0361 12.4864C55.0361 12.2569 55.2244 12.1752 55.4544 12.3046L64.0209 17.1335C64.2509 17.2629 64.4392 17.5571 64.4392 17.7866C64.4392 18.0161 64.2509 18.0977 64.0209 17.9683Z" fill="#FEA608"/>
<path d="M69.3481 23.0176L55.4564 15.1481C55.2264 15.0188 55.0381 14.7245 55.0381 14.495C55.0381 14.2655 55.2264 14.1839 55.4564 14.3133L69.3481 22.1827C69.5781 22.3121 69.7664 22.6063 69.7664 22.8358C69.7648 23.0653 69.5781 23.147 69.3481 23.0176Z" fill="#BCBDC1"/>
<path d="M69.3481 25.0245L55.4564 17.1551C55.2264 17.0257 55.0381 16.7315 55.0381 16.502C55.0381 16.2725 55.2264 16.1909 55.4564 16.3202L69.3481 24.1897C69.5781 24.3191 69.7664 24.6133 69.7664 24.8428C69.7648 25.0723 69.5781 25.1555 69.3481 25.0245Z" fill="#BCBDC1"/>
<path d="M64.0209 33.7088L55.4544 28.8799C55.2244 28.7506 55.0361 28.4564 55.0361 28.2269C55.0361 27.9973 55.2244 27.9157 55.4544 28.0451L64.0209 32.874C64.2509 33.0034 64.4392 33.2976 64.4392 33.5271C64.4392 33.7581 64.2509 33.8397 64.0209 33.7088Z" fill="#FEA608"/>
<path d="M69.3481 38.7579L55.4564 30.8885C55.2264 30.7591 55.0381 30.4649 55.0381 30.2354C55.0381 30.0059 55.2264 29.9243 55.4564 30.0536L69.3481 37.9231C69.5781 38.0525 69.7664 38.3467 69.7664 38.5762C69.7648 38.8072 69.5781 38.8889 69.3481 38.7579Z" fill="#BCBDC1"/>
<path d="M69.3481 40.7666L55.4564 32.8972C55.2264 32.7678 55.0381 32.4736 55.0381 32.2441C55.0381 32.0146 55.2264 31.9329 55.4564 32.0623L69.3481 39.9317C69.5781 40.0611 69.7664 40.3553 69.7664 40.5848C69.7648 40.8144 69.5781 40.896 69.3481 40.7666Z" fill="#BCBDC1"/>
<path d="M58.9579 22.5493V24.6796L61.0076 25.8317V26.5664L58.9579 25.4143V27.563L58.183 27.1271V24.9784L56.1348 23.8262V23.0915L58.183 24.2437V22.1134L58.9579 22.5493Z" fill="#BCBDC1"/>
<path d="M66.0608 28.0558C66.0608 28.9091 65.5607 29.0262 65.005 28.6766C64.437 28.3192 63.9739 27.5937 63.9678 26.8097C63.9678 26.0426 64.4108 25.8162 65.0359 26.209C65.6811 26.6141 66.0608 27.3272 66.0608 28.0558ZM64.5558 27.1547C64.5497 27.6184 64.7179 28.0666 65.0251 28.2591C65.3307 28.4517 65.4804 28.2206 65.4804 27.7293C65.4804 27.281 65.3554 26.8405 65.0251 26.6326C64.7117 26.4369 64.5558 26.7003 64.5558 27.1547ZM65.0189 30.3878L67.3743 27.6769L67.8111 27.9511L65.4557 30.662L65.0189 30.3878ZM68.8592 31.4969C68.8592 32.344 68.3653 32.4719 67.8034 32.1176C67.2416 31.7649 66.7723 31.0348 66.7723 30.2492C66.7723 29.4883 67.2153 29.2557 67.8343 29.6439C68.4795 30.0474 68.8592 30.7668 68.8592 31.4969ZM67.3542 30.5942C67.3481 31.0517 67.5163 31.5061 67.8219 31.6987C68.1337 31.8943 68.2773 31.6601 68.2773 31.1688C68.2773 30.7144 68.1522 30.28 67.8219 30.0721C67.5101 29.8765 67.3542 30.1399 67.3542 30.5942Z" fill="#FEA608"/>
<path d="M67.2871 12.243V19.0204L71.8791 20.9828L67.2871 12.243Z" fill="url(#paint5_linear_65_17684)"/>
<path d="M96.1351 61.3528C95.8047 61.3528 95.476 61.2635 95.1873 61.0956L77.2732 50.5938C76.52 50.1563 76.0508 49.3415 76.0508 48.4681V17.6681C76.0508 16.7562 76.7948 16.0138 77.7085 16.0138C77.9987 16.0138 78.2873 16.0923 78.5405 16.2402L96.683 26.8761C97.5088 27.3566 98.0228 28.25 98.0228 29.2066V59.469C98.0243 60.5072 97.1769 61.3528 96.1351 61.3528Z" fill="#3A9386"/>
<path d="M95.5052 61.6255C95.1749 61.6255 94.8461 61.5361 94.5575 61.3683L76.6434 50.8664C75.8901 50.429 75.4209 49.6141 75.4209 48.7408V17.9423C75.4209 17.0304 76.1649 16.288 77.0786 16.288C77.3688 16.288 77.6575 16.3665 77.9106 16.5144L96.0531 27.1502C96.8789 27.6308 97.3929 28.5242 97.3929 29.4807V59.7432C97.3944 60.7814 96.5471 61.6255 95.5052 61.6255Z" fill="url(#paint6_linear_65_17684)"/>
<path d="M96.0935 60.5612C95.791 60.78 95.368 60.8292 94.9976 60.6136L77.0866 50.1133C76.5973 49.8284 76.2979 49.3062 76.2979 48.7424V17.9408C76.2979 17.5188 76.6189 17.2107 76.9878 17.1676C76.818 17.3062 76.7038 17.5173 76.7038 17.7683L76.7023 48.5668C76.7023 49.1321 77.0032 49.6543 77.4925 49.9377L95.4035 60.438C95.6274 60.5689 95.8712 60.6028 96.0935 60.5612Z" fill="#3A9386"/>
<path d="M96.5173 29.4792V59.7417C96.5173 60.0929 96.346 60.384 96.0928 60.5596C95.8706 60.6012 95.6267 60.5689 95.4044 60.4395L77.4934 49.9392C77.0041 49.6558 76.7031 49.1321 76.7031 48.5683L76.7047 17.7698C76.7047 17.5203 76.8189 17.3077 76.9887 17.1691C77.1461 17.1506 77.3144 17.1799 77.4703 17.2707L95.6097 27.905C96.17 28.2301 96.5173 28.8308 96.5173 29.4792Z" fill="url(#paint7_linear_65_17684)"/>
<path d="M91.3265 33.5796L81.4881 27.7557C81.2535 27.617 81.0605 27.3105 81.0605 27.0748C81.0605 26.8407 81.2535 26.7622 81.4881 26.9008L91.3265 32.7247C91.5611 32.8633 91.7541 33.1699 91.7541 33.4055C91.7541 33.6412 91.5611 33.7197 91.3265 33.5796Z" fill="#CCC9C8"/>
<path d="M91.3265 29.53L81.4881 23.7061C81.2535 23.5675 81.0605 23.261 81.0605 23.0253C81.0605 22.7912 81.2535 22.7126 81.4881 22.8512L91.3265 28.6751C91.5611 28.8138 91.7541 29.1203 91.7541 29.356C91.7541 29.5916 91.5611 29.6686 91.3265 29.53Z" fill="url(#paint8_linear_65_17684)"/>
<path d="M92.9582 36.7772L79.8553 29.0202C79.6207 28.8816 79.4277 28.575 79.4277 28.3394C79.4277 28.1052 79.6207 28.0267 79.8553 28.1653L92.9582 35.9223C93.1928 36.061 93.3858 36.3675 93.3858 36.6031C93.3873 36.8373 93.1944 36.9158 92.9582 36.7772Z" fill="#CCC9C8"/>
<path d="M92.9582 39.0077L79.8553 31.2507C79.6207 31.112 79.4277 30.8055 79.4277 30.5698C79.4277 30.3357 79.6207 30.2572 79.8553 30.3958L92.9582 38.1528C93.1928 38.2914 93.3858 38.5979 93.3858 38.8336C93.3873 39.0693 93.1944 39.1463 92.9582 39.0077Z" fill="#CCC9C8"/>
<path d="M92.9582 41.238L79.8553 33.481C79.6207 33.3424 79.4277 33.0359 79.4277 32.8002C79.4277 32.5661 79.6207 32.4875 79.8553 32.6261L92.9582 40.3831C93.1928 40.5218 93.3858 40.8283 93.3858 41.064C93.3873 41.2996 93.1944 41.3766 92.9582 41.238Z" fill="#CCC9C8"/>
<path d="M91.3265 44.2665L81.4881 38.4426C81.2535 38.3039 81.0605 37.9974 81.0605 37.7617C81.0605 37.5276 81.2535 37.4491 81.4881 37.5877L91.3265 43.4116C91.5611 43.5502 91.7541 43.8568 91.7541 44.0924C91.7541 44.3281 91.5611 44.4066 91.3265 44.2665Z" fill="#CCC9C8"/>
<path d="M92.9582 47.4641L79.8553 39.7071C79.6207 39.5685 79.4277 39.2619 79.4277 39.0263C79.4277 38.7921 79.6207 38.7136 79.8553 38.8522L92.9582 46.6092C93.1928 46.7479 93.3858 47.0544 93.3858 47.29C93.3858 47.5242 93.1944 47.6027 92.9582 47.4641Z" fill="#CCC9C8"/>
<path d="M92.9582 49.6943L79.8553 41.9373C79.6207 41.7987 79.4277 41.4922 79.4277 41.2565C79.4277 41.0224 79.6207 40.9438 79.8553 41.0824L92.9582 48.8394C93.1928 48.9781 93.3858 49.2846 93.3858 49.5203C93.3858 49.7544 93.1944 49.8329 92.9582 49.6943Z" fill="#CCC9C8"/>
<path d="M92.9582 51.9247L79.8553 44.1676C79.6207 44.029 79.4277 43.7225 79.4277 43.4868C79.4277 43.2527 79.6207 43.1742 79.8553 43.3128L92.9582 51.0698C93.1928 51.2084 93.3858 51.5149 93.3858 51.7506C93.3858 51.9863 93.1944 52.0633 92.9582 51.9247Z" fill="#CCC9C8"/>
<path d="M69.8441 43.0015L77.9213 55.8908C77.9213 55.8908 78.1837 57.351 76.1602 58.7419C74.1366 60.1328 72.4511 59.3626 72.4511 59.3626L63.3428 45.8187L69.8441 43.0015Z" fill="url(#paint9_linear_65_17684)"/>
<path d="M63.5559 46.3639C64.1702 47.3897 66.0472 47.399 67.7466 46.3839C69.446 45.3689 70.3243 43.7146 69.7099 42.6887C69.0956 41.6629 67.2187 41.6536 65.5193 42.6687C63.8199 43.6838 62.9401 45.338 63.5559 46.3639Z" fill="#525575"/>
<path d="M63.6506 36.5092L68.1176 43.5946C68.1176 43.5946 68.2565 44.3632 67.1899 45.0964C66.1249 45.8296 65.2358 45.4229 65.2358 45.4229L60.2256 37.994L63.6506 36.5092Z" fill="url(#paint10_linear_65_17684)"/>
<path d="M43.9766 20.5993C43.9581 26.9716 48.4497 34.7363 54.008 37.9386C57.2756 39.8209 60.1836 39.7069 62.0296 37.9972C62.2102 37.8708 62.3831 37.7307 62.5482 37.5782C62.7288 37.4519 62.9017 37.3117 63.0669 37.1592C64.6706 36.0363 65.6492 33.8969 65.6584 30.9379C65.677 24.5626 61.1853 16.8009 55.6286 13.5986C52.3595 11.7148 49.4499 11.8288 47.6039 13.5386C47.4233 13.6649 47.2504 13.805 47.0853 13.9575C46.9047 14.0838 46.7318 14.224 46.5666 14.3765C44.9645 15.4994 43.9843 17.6389 43.9766 20.5993ZM61.5681 36.0841C59.9845 36.8373 57.8775 36.6417 55.5654 35.3093C50.6678 32.4875 46.7117 25.6469 46.7272 20.0325C46.7333 18.0732 47.2226 16.5221 48.0639 15.4532C49.6475 14.7 51.756 14.8956 54.0682 16.2295C58.9642 19.0498 62.9202 25.8888 62.9048 31.5048C62.9002 33.464 62.4109 35.0151 61.5681 36.0841Z" fill="#525575"/>
<path d="M43.9766 20.5994C43.9581 26.9716 48.4482 34.7363 54.008 37.9386C59.5646 41.1394 64.0856 38.5671 64.1041 32.1948C64.1118 29.3052 63.1934 26.1306 61.6669 23.2241C61.6545 23.1979 61.6407 23.1732 61.6268 23.147C60.9229 21.8178 60.0925 20.5455 59.1664 19.3841C57.6754 17.511 55.9327 15.9276 54.0728 14.8555C48.5146 11.6532 43.9936 14.224 43.9766 20.5994ZM45.1744 21.2894C45.1806 18.5785 46.1129 16.6485 47.627 15.695C49.2477 14.6723 51.5352 14.7708 54.0697 16.231C58.9657 19.0514 62.9218 25.8903 62.9063 31.5063C62.9002 33.7151 62.2797 35.4064 61.2301 36.4723C59.614 38.1158 56.9808 38.276 54.0126 36.5662C49.1135 33.7428 45.159 26.9023 45.1744 21.2894Z" fill="#C2C4C6"/>
<path opacity="0.61" d="M45.9512 20.6624C45.9358 26.2752 49.8918 33.1158 54.7894 35.9376C57.3208 37.3963 59.6083 37.4949 61.229 36.4721C62.2786 35.4062 62.8991 33.715 62.9052 31.5061C62.9207 25.8902 58.9646 19.0512 54.0686 16.2309C51.5341 14.7707 49.2466 14.6721 47.6259 15.6949C46.5779 16.7607 45.9574 18.452 45.9512 20.6624Z" fill="white"/>
<path d="M57.027 37.1546L53.6004 26.4248L42.8776 35.622L39.1777 24.6534" stroke="#525575" stroke-width="3" stroke-miterlimit="10"/>
<path d="M40.4811 23.8479C40.4734 23.8356 40.4657 23.8233 40.4595 23.8094C40.1539 23.2965 39.7155 22.8267 39.2278 22.5356C38.669 22.2013 38.1751 22.1782 37.8695 22.4154L37.4512 22.6988L37.6503 22.6942C37.5855 22.8344 37.55 23.0054 37.55 23.2056C37.55 23.6523 37.7259 24.1637 38.0115 24.635C38.0578 24.7105 38.1056 24.7844 38.1566 24.8583C38.3372 25.1171 38.5517 25.3589 38.7863 25.5623C38.8913 25.6531 39.0009 25.7379 39.1135 25.8118C39.1382 25.8287 39.1645 25.8441 39.1892 25.8611C39.2015 25.8688 39.2139 25.8765 39.2262 25.8842C39.2386 25.8919 39.2525 25.8996 39.2648 25.9073C39.2895 25.9212 39.3158 25.935 39.3404 25.9489C39.5859 26.0798 39.8174 26.1491 40.0227 26.1599C40.052 26.1614 40.0813 26.1615 40.1091 26.1615C40.1739 26.1599 40.1091 26.3001 40.1678 26.2862C40.2187 26.2754 40.4533 26.1322 40.4996 26.1122C40.7852 25.9843 40.904 25.6608 40.904 25.2142C40.9056 24.7875 40.745 24.3023 40.4811 23.8479Z" fill="#C2C4C6"/>
<path d="M40.0531 24.0837C39.7475 23.5707 39.3091 23.1009 38.8214 22.8098C37.8952 22.2553 37.1436 22.5557 37.1436 23.4799C37.1436 23.9266 37.3195 24.4379 37.6051 24.9093C37.6514 24.9847 37.6992 25.0587 37.7502 25.1326C37.9307 25.3914 38.1453 25.6332 38.3799 25.8365C38.4849 25.9274 38.5945 26.0121 38.7071 26.0861C38.7318 26.103 38.7581 26.1184 38.7828 26.1354C38.7951 26.1431 38.8075 26.1508 38.8214 26.1585C38.8337 26.1662 38.8476 26.1739 38.8599 26.1816C38.8846 26.1954 38.9109 26.2093 38.9356 26.2232C39.2165 26.3726 39.4774 26.4419 39.7043 26.4357C39.7691 26.4342 39.8324 26.4265 39.8926 26.4126C39.9435 26.4018 39.9929 26.3849 40.0377 26.3633C40.3232 26.2355 40.4992 25.9336 40.4992 25.4869C40.4992 25.0494 40.3309 24.5488 40.0531 24.0837Z" fill="#E2E2E2"/>
<path d="M58.4811 37.2117C58.4734 37.1994 58.4657 37.187 58.4595 37.1732C58.1539 36.6602 57.7155 36.1904 57.2278 35.8993C56.669 35.5651 56.1751 35.542 55.8695 35.7792L55.4512 36.0626L55.6503 36.058C55.5855 36.1982 55.55 36.3691 55.55 36.5694C55.55 37.0161 55.7259 37.5274 56.0115 37.9988C56.0578 38.0742 56.1056 38.1482 56.1566 38.2221C56.3372 38.4809 56.5517 38.7227 56.7863 38.926C56.8913 39.0169 57.0009 39.1016 57.1135 39.1756C57.1382 39.1925 57.1645 39.2079 57.1892 39.2249C57.2015 39.2326 57.2139 39.2403 57.2278 39.248C57.2401 39.2557 57.254 39.2634 57.2664 39.2711C57.2911 39.2849 57.3173 39.2988 57.342 39.3127C57.5874 39.4436 57.8174 39.5129 58.0242 39.5237C58.0536 39.5252 58.0829 39.5268 58.1107 39.5252C58.1755 39.5237 58.1107 39.6639 58.1693 39.65C58.2202 39.6392 58.4549 39.496 58.5012 39.4759C58.7867 39.3481 58.9056 39.0246 58.9056 38.5779C58.9071 38.1513 58.7466 37.6661 58.4811 37.2117Z" fill="#1FA099"/>
<path d="M58.0551 37.4471C57.7494 36.9341 57.3111 36.4644 56.8233 36.1732C55.8972 35.6187 55.1455 35.9191 55.1455 36.8433C55.1455 37.29 55.3215 37.8013 55.607 38.2727C55.6533 38.3482 55.7012 38.4221 55.7521 38.496C55.9327 38.7548 56.1473 38.9966 56.3819 39.1999C56.4868 39.2908 56.5964 39.3755 56.7091 39.4495C56.7338 39.4664 56.76 39.4818 56.7847 39.4988C56.7971 39.5065 56.8094 39.5142 56.8233 39.5219C56.8357 39.5296 56.8496 39.5373 56.8619 39.545C56.8866 39.5588 56.9128 39.5727 56.9375 39.5866C57.2185 39.736 57.4793 39.8053 57.7062 39.7991C57.771 39.7976 57.8343 39.7899 57.8945 39.776C57.9455 39.7652 57.9949 39.7483 58.0396 39.7267C58.3252 39.5989 58.5011 39.297 58.5011 38.8503C58.5011 38.4113 58.3329 37.9107 58.0551 37.4471Z" fill="#40C6C2"/>
<path d="M45.4527 34.9612C45.4419 34.9412 45.4295 34.9212 45.4187 34.9027C44.9433 34.1048 44.2626 33.3762 43.5063 32.9249C42.6389 32.4058 41.8702 32.3704 41.3979 32.737L40.748 33.1775L41.0568 33.1714C40.9564 33.3886 40.9009 33.6535 40.9009 33.9662C40.9009 34.6608 41.1725 35.4541 41.6186 36.1858C41.6896 36.3028 41.7652 36.4183 41.8439 36.5323C42.1249 36.9343 42.4583 37.3086 42.8225 37.6244C42.9862 37.7661 43.1544 37.897 43.3304 38.0126C43.3705 38.0387 43.4091 38.0634 43.4477 38.088C43.4677 38.1004 43.4878 38.1127 43.5063 38.1235C43.5264 38.1342 43.5464 38.1466 43.5665 38.1589C43.6066 38.1805 43.6452 38.202 43.6838 38.2236C44.0651 38.4254 44.4232 38.5347 44.7427 38.5517C44.789 38.5547 44.8337 38.5547 44.877 38.5547C44.9788 38.5532 44.877 38.7704 44.9696 38.7488C45.0498 38.7303 45.4126 38.5101 45.4851 38.4777C45.9296 38.2775 46.1133 37.7769 46.1133 37.0822C46.1133 36.4214 45.8633 35.6667 45.4527 34.9612Z" fill="#1FA099"/>
<path d="M44.7903 35.326C44.3149 34.5282 43.6342 33.7996 42.8779 33.3483C41.4394 32.4872 40.2725 32.954 40.2725 34.3895C40.2725 35.0842 40.5441 35.8775 40.9902 36.6091C41.0612 36.7262 41.1368 36.8417 41.2155 36.9557C41.4965 37.3577 41.8299 37.732 42.1941 38.0478C42.3578 38.1895 42.526 38.3204 42.702 38.4359C42.7421 38.4621 42.7807 38.4868 42.8193 38.5114C42.8393 38.5237 42.8594 38.536 42.8779 38.5468C42.898 38.5576 42.9181 38.5699 42.9381 38.5823C42.9783 38.6038 43.0168 38.6254 43.0554 38.647C43.4907 38.878 43.8982 38.9858 44.2486 38.9781C44.3504 38.9766 44.4477 38.9643 44.5403 38.9427C44.6206 38.9242 44.6946 38.8996 44.7672 38.8672C45.2117 38.667 45.4849 38.2003 45.4849 37.5056C45.4834 36.8263 45.221 36.0484 44.7903 35.326Z" fill="#40C6C2"/>
<path d="M55.8512 25.4638C55.8389 25.4438 55.8265 25.4222 55.8141 25.4022C55.3079 24.555 54.5855 23.7802 53.7813 23.2997C52.8598 22.7482 52.0433 22.7097 51.5386 23.101L50.8486 23.5692L51.1774 23.5615C51.0709 23.7926 51.0107 24.0744 51.0107 24.4056C51.0107 25.1434 51.3009 25.9875 51.7732 26.7654C51.8488 26.8901 51.9291 27.0133 52.0124 27.1335C52.3119 27.5617 52.6654 27.9591 53.0528 28.2949C53.2272 28.4458 53.4063 28.5845 53.5915 28.7077C53.6332 28.7354 53.6748 28.7616 53.7165 28.7878C53.7366 28.8001 53.7582 28.814 53.7782 28.8263C53.7998 28.8386 53.8215 28.8509 53.8415 28.8633C53.8832 28.8864 53.9249 28.9095 53.9665 28.9326C54.3725 29.1482 54.7522 29.2622 55.0918 29.2822C55.1412 29.2853 55.189 29.2853 55.2353 29.2853C55.3434 29.2838 55.2353 29.5148 55.3326 29.4917C55.4175 29.4732 55.8033 29.2376 55.8805 29.2037C56.3528 28.9911 56.5489 28.4582 56.5489 27.7203C56.5519 27.0164 56.288 26.2139 55.8512 25.4638Z" fill="#C2C4C6"/>
<path d="M55.1456 25.8535C54.6394 25.0064 53.917 24.2316 53.1128 23.751C51.5832 22.8361 50.3438 23.332 50.3438 24.8585C50.3438 25.5963 50.6339 26.4404 51.1062 27.2182C51.1819 27.343 51.2621 27.4662 51.3455 27.5864C51.6449 28.0146 51.9984 28.412 52.3858 28.7478C52.5602 28.8987 52.7393 29.0374 52.9245 29.1606C52.9662 29.1883 53.0079 29.2145 53.0495 29.2407C53.0696 29.253 53.0912 29.2669 53.1113 29.2792C53.1329 29.2915 53.1545 29.3038 53.1746 29.3162C53.2162 29.3393 53.2579 29.3624 53.2996 29.3855C53.7627 29.6319 54.1948 29.7459 54.5684 29.7382C54.6764 29.7367 54.7798 29.7243 54.8786 29.7012C54.9635 29.6827 55.0438 29.655 55.1194 29.6211C55.5917 29.4086 55.8819 28.9126 55.8819 28.1748C55.8834 27.4478 55.6041 26.6206 55.1456 25.8535Z" fill="#E2E2E2"/>
<defs>
<linearGradient id="paint0_linear_65_17684" x1="74.4036" y1="48.0984" x2="27.4106" y2="84.4492" gradientUnits="userSpaceOnUse">
<stop stop-color="#2B2E3D"/>
<stop offset="1" stop-color="#525575"/>
</linearGradient>
<linearGradient id="paint1_linear_65_17684" x1="35.0684" y1="54.186" x2="96.3347" y2="54.186" gradientUnits="userSpaceOnUse">
<stop stop-color="#C2C4C6"/>
<stop offset="1" stop-color="#83869B"/>
</linearGradient>
<linearGradient id="paint2_linear_65_17684" x1="58.5804" y1="9.53257" x2="65.4261" y2="41.3141" gradientUnits="userSpaceOnUse">
<stop stop-color="#57BDB2"/>
<stop offset="1" stop-color="#089299"/>
</linearGradient>
<linearGradient id="paint3_linear_65_17684" x1="58.8551" y1="10.6629" x2="65.2185" y2="40.2048" gradientUnits="userSpaceOnUse">
<stop stop-color="#F9F9FB"/>
<stop offset="1" stop-color="#E5E8EF"/>
</linearGradient>
<linearGradient id="paint4_linear_65_17684" x1="68.1065" y1="9.63304" x2="56.1066" y2="4.82305" gradientUnits="userSpaceOnUse">
<stop stop-color="#F9F9FB"/>
<stop offset="1" stop-color="#E5E8EF"/>
</linearGradient>
<linearGradient id="paint5_linear_65_17684" x1="69.7678" y1="16.4963" x2="67.307" y2="18.0537" gradientUnits="userSpaceOnUse">
<stop stop-color="#57BDB2"/>
<stop offset="1" stop-color="#089299"/>
</linearGradient>
<linearGradient id="paint6_linear_65_17684" x1="96.4234" y1="25.9906" x2="85.2764" y2="40.3971" gradientUnits="userSpaceOnUse">
<stop stop-color="#57BDB2"/>
<stop offset="1" stop-color="#6EE3CC"/>
</linearGradient>
<linearGradient id="paint7_linear_65_17684" x1="95.2842" y1="27.6319" x2="77.8167" y2="50.207" gradientUnits="userSpaceOnUse">
<stop stop-color="white"/>
<stop offset="1" stop-color="#E9E9E9"/>
</linearGradient>
<linearGradient id="paint8_linear_65_17684" x1="81.0608" y1="26.1911" x2="91.7544" y2="26.1911" gradientUnits="userSpaceOnUse">
<stop stop-color="#FFAC06"/>
<stop offset="0.9952" stop-color="#FA8A13"/>
</linearGradient>
<linearGradient id="paint9_linear_65_17684" x1="63.3417" y1="51.289" x2="77.9322" y2="51.289" gradientUnits="userSpaceOnUse">
<stop stop-color="#C2C4C6"/>
<stop offset="1" stop-color="#83869B"/>
</linearGradient>
<linearGradient id="paint10_linear_65_17684" x1="60.2251" y1="41.0219" x2="68.1221" y2="41.0219" gradientUnits="userSpaceOnUse">
<stop stop-color="#C2C4C6"/>
<stop offset="1" stop-color="#83869B"/>
</linearGradient>
</defs>
</svg>
