<svg width="100" height="100" viewBox="0 0 100 100" fill="none" xmlns="http://www.w3.org/2000/svg">
<path opacity="0.1" d="M90.8214 61.5388L90.9438 61.6069C92.5739 62.5105 92.6172 64.8214 91.0245 65.7857L34.5229 100L2 79.3814L56.9133 44.7094C58.7106 43.5747 61.0019 43.551 62.8214 44.6501L90.8214 61.5388Z" fill="url(#paint0_linear_65_18285)"/>
<path d="M59.8599 37.4465L58.209 0.708074L59.8599 0L97.9998 22.4791V59.9271L96.3474 60.6352L59.8599 37.4465Z" fill="url(#paint1_linear_65_18285)"/>
<path d="M58.209 38.1545V0.708008L96.3474 23.1872V60.6351L58.209 38.1545Z" fill="url(#paint2_linear_65_18285)"/>
<path d="M59.8115 37.2496L94.7466 57.8415V24.0924L59.8115 3.50049V37.2496Z" fill="url(#paint3_linear_65_18285)"/>
<path d="M98.0001 22.4792L96.3477 23.1873V60.6353L98.0001 59.9272V22.4792Z" fill="url(#paint4_linear_65_18285)"/>
<path d="M59.8115 37.2496V3.50049L60.3011 3.78935V37.0155L59.8115 37.2496Z" fill="url(#paint5_linear_65_18285)"/>
<path d="M59.8115 37.2494L94.7466 57.8414V57.1999L60.3011 37.0154L59.8115 37.2494Z" fill="#7CDDCF"/>
<path d="M73.2571 15.6959L64.6846 10.8905C64.4547 10.7616 64.2666 10.4698 64.2666 10.2402C64.2666 10.0121 64.4547 9.93061 64.6846 10.0595L73.2571 14.8649C73.487 14.9938 73.6751 15.2856 73.6751 15.5152C73.6751 15.7433 73.487 15.8248 73.2571 15.6959Z" fill="#FEA608"/>
<path d="M80.44 21.7205L64.6846 12.8888C64.4547 12.7599 64.2666 12.4681 64.2666 12.2385C64.2666 12.0104 64.4547 11.9289 64.6846 12.0578L80.44 20.8894C80.6698 21.0183 80.8579 21.3101 80.8579 21.5397C80.8579 21.7679 80.6698 21.8493 80.44 21.7205Z" fill="#BCBDC1"/>
<path d="M80.44 23.7188L64.6846 14.8871C64.4547 14.7582 64.2666 14.4664 64.2666 14.2368C64.2666 14.0087 64.4547 13.9272 64.6846 14.0561L80.44 22.8877C80.6698 23.0166 80.8579 23.3084 80.8579 23.538C80.8579 23.7662 80.6698 23.8476 80.44 23.7188Z" fill="#BCBDC1"/>
<path d="M80.44 25.7171L64.6846 16.8854C64.4547 16.7565 64.2666 16.4647 64.2666 16.2351C64.2666 16.007 64.4547 15.9255 64.6846 16.0544L80.44 24.886C80.6698 25.0149 80.8579 25.3067 80.8579 25.5363C80.8579 25.7645 80.6698 25.8459 80.44 25.7171Z" fill="#BCBDC1"/>
<path d="M73.2571 23.6891L64.6846 18.8837C64.4547 18.7548 64.2666 18.463 64.2666 18.2334C64.2666 18.0052 64.4547 17.9238 64.6846 18.0526L73.2571 22.8581C73.487 22.9869 73.6751 23.2788 73.6751 23.5084C73.6751 23.7365 73.487 23.818 73.2571 23.6891Z" fill="#BCBDC1"/>
<path d="M67.0532 23.5933L73.9927 27.6314C74.4778 27.9128 74.7749 28.4283 74.7749 28.9868V36.8038C74.7749 37.6718 73.3673 38.371 72.8836 38.0896L66.7128 33.3656C66.2202 33.0797 65.9187 32.5553 65.9187 31.9894L64.9902 24.3917C64.9902 23.814 66.3441 23.1918 67.0532 23.5933Z" fill="#329E93"/>
<path d="M65.9948 24.1695L72.9344 28.2076C73.4195 28.4891 73.7165 29.0046 73.7165 29.563V37.38C73.7165 37.9355 73.109 38.2807 72.6269 37.9992L65.6545 33.9418C65.1619 33.656 64.8604 33.1316 64.8604 32.5657V24.8139C64.8604 24.2362 65.4917 23.8762 65.9948 24.1695Z" fill="url(#paint6_linear_65_18285)"/>
<path d="M73.509 37.4807V29.6637C73.509 29.1068 73.212 28.5913 72.7268 28.3083L65.7873 24.2702C65.5888 24.1547 65.3693 24.1428 65.1768 24.2036C65.4051 24.0436 65.7186 24.0066 65.9933 24.1665L72.9328 28.2046C73.418 28.4861 73.715 29.0016 73.715 29.5601V37.377C73.715 37.7133 73.4911 37.9725 73.2075 38.0614C73.3866 37.9355 73.509 37.7296 73.509 37.4807Z" fill="url(#paint7_linear_65_18285)"/>
<path d="M85.1606 23.8655L92.1001 27.9036C92.5853 28.1851 92.8823 28.7006 92.8823 29.259V37.076C92.8823 37.944 91.4747 38.6432 90.9911 38.3618L84.8202 33.6378C84.3276 33.3519 84.0261 32.8275 84.0261 32.2617L83.0977 24.6639C83.0962 24.0862 84.4501 23.4641 85.1606 23.8655Z" fill="#CC820D"/>
<path d="M84.1012 24.4417L91.0408 28.4798C91.5259 28.7613 91.8229 29.2768 91.8229 29.8353V37.6522C91.8229 38.2077 91.2154 38.5529 90.7333 38.2714L83.7609 34.2141C83.2683 33.9282 82.9668 33.4038 82.9668 32.8379V25.0861C82.9668 24.5084 83.5997 24.1484 84.1012 24.4417Z" fill="#FEA608"/>
<path d="M91.6164 37.7529V29.936C91.6164 29.379 91.3194 28.8635 90.8343 28.5805L83.8947 24.5425C83.6962 24.4269 83.4767 24.4151 83.2842 24.4758C83.5126 24.3158 83.826 24.2788 84.1007 24.4388L91.0402 28.4769C91.5254 28.7583 91.8224 29.2738 91.8224 29.8323V37.6492C91.8224 37.9855 91.5985 38.2447 91.3149 38.3336C91.494 38.2077 91.6164 38.0018 91.6164 37.7529Z" fill="url(#paint8_linear_65_18285)"/>
<path d="M85.1606 38.5531L92.1001 42.5912C92.5853 42.8726 92.8823 43.3882 92.8823 43.9466V51.7636C92.8823 52.6316 91.4747 53.3308 90.9911 53.0494L84.8202 48.3254C84.3276 48.0395 84.0261 47.5151 84.0261 46.9493L83.0977 39.3515C83.0962 38.7738 84.4501 38.1502 85.1606 38.5531Z" fill="#329E93"/>
<path d="M84.1012 39.1279L91.0408 43.166C91.5259 43.4474 91.8229 43.963 91.8229 44.5214V52.3384C91.8229 52.8939 91.2154 53.239 90.7333 52.9576L83.7609 48.9002C83.2683 48.6143 82.9668 48.0899 82.9668 47.5241V39.7723C82.9668 39.1946 83.5997 38.8361 84.1012 39.1279Z" fill="url(#paint9_linear_65_18285)"/>
<path d="M91.6164 52.4407V44.6237C91.6164 44.0667 91.3194 43.5512 90.8343 43.2683L83.8947 39.2302C83.6962 39.1146 83.4767 39.1028 83.2842 39.1635C83.5126 39.0036 83.826 38.9665 84.1007 39.1265L91.0402 43.1646C91.5254 43.446 91.8224 43.9616 91.8224 44.52V52.337C91.8224 52.6732 91.5985 52.9325 91.3149 53.0214C91.494 52.8954 91.6164 52.6895 91.6164 52.4407Z" fill="url(#paint10_linear_65_18285)"/>
<path d="M89.5862 49.9888C89.3384 49.9666 88.7906 49.7666 88.0965 49.3503C86.2634 48.2512 85.1514 46.4455 85.1514 44.7034C85.1514 42.8177 86.4694 42.4696 88.2338 43.5272C88.9279 43.9435 89.4235 44.3849 89.6384 44.6249L89.4071 45.3182C89.1324 45.0352 88.7562 44.7064 88.2771 44.419C87.1038 43.7154 86.256 43.9376 86.256 45.3137C86.256 46.5714 87.0008 47.8246 88.2681 48.5845C88.6965 48.8408 89.1414 49.023 89.416 49.06L89.5862 49.9888Z" fill="#FAF8F9"/>
<path d="M85.3994 27.4519C85.7338 27.5837 86.3413 27.8978 86.9324 28.2518C87.7116 28.7184 88.1908 29.1006 88.5848 29.6087C88.9446 30.0368 89.1849 30.5538 89.1849 31.0382C89.1849 31.5655 88.8506 31.8485 88.2266 31.7033V31.7196C88.8341 32.2366 89.3909 33.0469 89.3909 33.8364C89.3909 34.346 89.1685 34.6112 88.8341 34.6837C88.4236 34.7934 87.746 34.5667 86.6936 33.9357C86.1115 33.5861 85.6666 33.2765 85.4009 33.0839V27.4519H85.3994ZM86.4443 30.3375L86.9832 30.6605C87.7116 31.0975 88.1221 31.0041 88.1221 30.5197C88.1221 29.985 87.7116 29.4917 87.0429 29.0917C86.7354 28.9066 86.5548 28.8162 86.4428 28.7747V30.3375H86.4443ZM86.4443 32.9713C86.5816 33.0706 86.7608 33.1876 87.0011 33.3313C87.6773 33.7372 88.2773 33.8409 88.2773 33.1358C88.2773 32.4736 87.6952 31.8514 86.9667 31.4159L86.4443 31.1034V32.9713Z" fill="#FFFCFF"/>
<path d="M68.0198 31.4514L67.5227 32.7757L66.4346 32.1239L68.284 27.5066L69.6289 28.3124L71.5038 35.1636L70.3738 34.4851L69.8513 32.549L68.0198 31.4514ZM69.6722 31.6528L69.2184 29.97C69.1065 29.5553 69.0125 29.1079 68.9274 28.7257L68.9109 28.7154C68.8259 28.9953 68.7393 29.3434 68.6363 29.6219L68.1915 30.7655L69.6722 31.6528Z" fill="#FCF5FC"/>
<path d="M77.2786 61.41V49.4231L75.668 48.438V60.4234L77.2786 61.41Z" fill="url(#paint11_linear_65_18285)"/>
<path d="M78.3311 50.0142V60.8041L77.2803 61.41V49.4231L78.3311 50.0142Z" fill="#0E7C7C"/>
<path d="M79.8594 50.9163L82.4417 64.3652L83.8658 65.3755L81.2043 51.7088L79.8594 50.9163Z" fill="url(#paint12_linear_65_18285)"/>
<path d="M81.2031 51.7087L83.8646 65.3755L84.7304 64.8392L82.3435 52.3798L81.2031 51.7087Z" fill="#0E7C7C"/>
<path d="M74.6492 47.8454L69.8935 57.16L68.25 56.3009L73.1625 46.9685L74.6492 47.8454Z" fill="url(#paint13_linear_65_18285)"/>
<path d="M69.8936 57.16L74.6493 47.8455L75.2329 48.1891L70.6922 56.9201L69.8936 57.16Z" fill="#0E7C7C"/>
<path d="M35.2554 19.0293C35.2554 19.0293 34.0389 20.0973 34.624 22.0216C35.2091 23.9458 36.8541 25.0464 36.8541 25.0464L38.4065 19.9596L35.2554 19.0293Z" fill="#2B2E3D"/>
<path d="M38.5721 32.0071L38.2407 34.1565C38.2407 34.1565 37.8824 36.3192 42.5665 36.4807C47.2491 36.6422 47.673 33.124 47.673 33.124L48.2254 26.9587L38.5721 32.0071Z" fill="url(#paint14_linear_65_18285)"/>
<path d="M42.8702 36.5252C42.7702 36.5252 42.6687 36.5237 42.5657 36.5192C40.0744 36.4333 39.0205 35.7726 38.5757 35.2334C38.1219 34.6839 38.1995 34.1728 38.204 34.1506L38.5384 31.9819L38.5563 31.973L48.2737 26.8921L47.714 33.1285C47.7125 33.1389 47.5991 34.0306 46.9094 34.8883C46.2974 35.6438 45.1077 36.5252 42.8702 36.5252ZM38.6085 32.0323L38.2801 34.1624C38.2786 34.1684 38.2055 34.6631 38.6384 35.186C39.0743 35.7119 40.1102 36.3563 42.5687 36.4422C42.6717 36.4452 42.7717 36.4481 42.8702 36.4481C45.0764 36.4481 46.2467 35.583 46.8453 34.8394C47.5215 33.998 47.6334 33.1285 47.6334 33.1196L48.1797 27.0269L38.6085 32.0323Z" fill="url(#paint15_linear_65_18285)"/>
<path d="M32.5801 34.0129C32.5801 34.0129 29.8007 37.3696 28.1453 41.224C26.4899 45.0785 26.557 46.4265 26.557 46.4265C26.557 46.4265 28.0453 51.1623 29.4812 52.2303C30.9172 53.2983 33.4637 41.4477 33.4637 41.4477L32.5801 34.0129Z" fill="#83869B"/>
<path d="M38.417 33.0204C38.417 33.0204 34.0314 32.0738 32.3417 34.281C30.6504 36.4882 28.71 51.2585 28.71 51.2585C28.71 51.2585 29.713 56.9394 38.6677 58.2074C47.6224 59.4754 51.0347 56.6031 51.0347 56.6031C51.0347 56.6031 51.8796 57.4815 55.2845 56.055C58.6893 54.6285 59.6267 52.5472 59.6267 52.5472C59.6267 52.5472 56.704 38.9353 55.0979 37.5873C53.4917 36.2408 46.7567 32.8323 46.7567 32.8323L41.88 35.3001L39.0155 34.7669L38.417 33.0204Z" fill="#83869B"/>
<path d="M48.0515 31.7243C48.0515 31.7243 42.7435 34.6055 42.0852 35.0114C41.4269 35.4173 42.4733 35.718 43.2242 36.2172C43.975 36.7164 44.1974 38.0141 44.2661 38.0274C44.3347 38.0422 49.4054 34.0737 49.3576 33.8234C49.3084 33.573 48.4575 31.6488 48.0515 31.7243Z" fill="#FFFEFF"/>
<path d="M38.4169 33.0204L39.0139 34.5551C39.0139 34.5551 37.4361 35.0113 36.7465 35.7831C36.0584 36.5549 35.7822 36.9445 35.7822 36.9445C35.7822 36.9445 36.3256 33.4204 36.4271 33.0915C36.5286 32.7627 37.1928 32.5894 37.1928 32.5894C37.1928 32.5894 37.884 32.9701 38.4169 33.0204Z" fill="#FFFEFF"/>
<path d="M38.9197 34.5225C38.9197 34.5225 41.9947 35.0617 41.8767 35.3002C41.7588 35.5401 41.7469 36.7 41.5782 36.9859C41.4095 37.2718 41.0378 37.4955 41.0378 37.4955C41.0378 37.4955 39.4063 48.2588 39.4063 51.9014C39.4048 55.544 39.1182 58.2667 39.1182 58.2667C39.1182 58.2667 37.4449 57.9615 35.9313 57.6238C34.4177 57.286 33.2012 56.5143 33.2012 56.5143C33.2012 56.5143 36.9046 42.5883 37.3584 40.1634C37.8136 37.7369 38.2793 36.7178 38.2585 36.5134C38.2376 36.3089 38.036 36.0601 38.036 36.0601L38.9197 34.5225Z" fill="url(#paint16_linear_65_18285)"/>
<path d="M51.0337 56.6017C51.0337 56.6017 50.4979 50.0661 50.4561 46.9553C50.4143 43.8445 50.6635 42.9187 50.6635 42.9187C50.6635 42.9187 49.2724 46.2946 49.0037 48.9833C48.735 51.6704 47.7334 58.0045 47.7334 58.0045C47.7334 58.0045 49.8948 57.529 51.0337 56.6017Z" fill="#72778E"/>
<path d="M28.7092 51.2571C28.7092 51.2571 29.572 44.7111 29.8676 42.5365C30.1631 40.3604 30.7587 39.3857 30.7587 39.3857C30.7587 39.3857 29.4601 41.2789 28.5391 43.969C27.6181 46.6591 26.9941 47.6886 26.9941 47.6886L28.7092 51.2571Z" fill="#72778E"/>
<path d="M38.1322 17.0606C36.9186 17.7746 35.6887 19.2856 35.4662 21.0498C35.2438 22.8141 35.8468 23.7592 35.8468 23.7592C35.8468 23.7592 35.0527 25.082 35.6244 27.224C36.1961 29.366 36.7037 30.8784 36.9261 31.2236C37.1485 31.5702 39.1472 32.3583 40.1951 32.2309C41.243 32.105 44.3537 30.1526 45.3046 29.5852C46.2569 29.0179 48.5109 27.7262 49.1453 26.8759C49.7797 26.0256 51.5889 21.6157 50.0977 18.4664C48.6065 15.3171 43.6238 13.8284 38.1322 17.0606Z" fill="url(#paint17_linear_65_18285)"/>
<path d="M35.2344 19.2486C35.2344 19.2486 35.9195 21.0158 38.8437 22.4097C41.7664 23.8036 43.1502 23.6288 43.2308 24.3251C43.3114 25.0213 43.9144 25.0776 43.9816 25.642C44.0487 26.2063 43.3725 27.1811 44.1667 27.1811C44.9608 27.1811 44.919 23.137 46.5729 23.7488C48.2268 24.3591 46.4744 26.91 46.7162 27.7484C46.958 28.5868 46.7028 28.8179 47.57 28.8179C48.4373 28.8179 50.6495 25.1768 51.1047 21.4572C51.5615 17.7391 50.0166 16.9836 50.0166 16.9836C50.0166 16.9836 48.7015 13.815 45.6161 13.7336C42.5307 13.6521 35.7389 15.9215 35.2344 19.2486Z" fill="#2B2E3D"/>
<path d="M57.044 78.4529C56.6395 78.4529 56.2424 78.3462 55.8931 78.1447L42.7977 70.5929C42.5215 70.4344 42.4932 70.1708 42.4932 70.0656C42.4932 69.9604 42.523 69.6982 42.8007 69.5397L63.1178 58.0017C63.4372 57.8194 63.8029 57.7217 64.1716 57.7217C64.5433 57.7217 64.9105 57.8194 65.2329 58.0061L78.3955 65.5964C78.6791 65.7594 78.709 66.029 78.7075 66.1371C78.7075 66.2452 78.6761 66.5148 78.3925 66.6763L58.1889 78.1492C57.8411 78.3492 57.4455 78.4529 57.044 78.4529Z" fill="#83869B"/>
<path d="M57.044 78.1521C56.6395 78.1521 56.2424 78.0454 55.8931 77.844L42.7977 70.2921C42.5215 70.1336 42.4932 69.87 42.4932 69.7648C42.4932 69.6596 42.523 69.3974 42.8007 69.2389L63.1178 57.7009C63.4372 57.5187 63.8029 57.4209 64.1716 57.4209C64.5433 57.4209 64.9105 57.5187 65.2329 57.7053L78.3955 65.2956C78.6791 65.4586 78.709 65.7282 78.7075 65.8363C78.7075 65.9445 78.6761 66.2141 78.3925 66.3755L58.1889 77.8484C57.8411 78.0469 57.4455 78.1521 57.044 78.1521Z" fill="url(#paint18_linear_65_18285)"/>
<path d="M59.2668 63.8086L57.6113 62.822C57.4427 62.7213 57.4457 62.5643 57.6143 62.4695L59.2891 61.5377C59.4593 61.4429 59.7325 61.4474 59.9012 61.5481L61.5565 62.5347C61.7252 62.6354 61.7222 62.7924 61.5535 62.8872L59.8787 63.819C59.7086 63.9123 59.4339 63.9079 59.2668 63.8086Z" fill="url(#paint19_linear_65_18285)"/>
<path d="M70.9119 68.503L62.3587 63.4028C62.2662 63.348 62.2677 63.2606 62.3602 63.2087C62.4527 63.1569 62.605 63.1599 62.6976 63.2147L71.2507 68.3149C71.3433 68.3697 71.3418 68.4571 71.2492 68.5089C71.1552 68.5608 71.0044 68.5578 70.9119 68.503Z" fill="#D9DBDB"/>
<path d="M69.8943 69.0704L61.3411 63.9702C61.2486 63.9154 61.2501 63.828 61.3426 63.7761C61.4352 63.7243 61.5874 63.7272 61.68 63.782L70.2331 68.8823C70.3257 68.9371 70.3242 69.0245 70.2316 69.0763C70.1376 69.1282 69.9868 69.1252 69.8943 69.0704Z" fill="#D9DBDB"/>
<path d="M65.1032 67.3859L60.3236 64.5358C60.231 64.481 60.2325 64.3936 60.325 64.3418C60.4191 64.2899 60.5698 64.2929 60.6624 64.3477L65.442 67.1978C65.5346 67.2526 65.5331 67.34 65.4405 67.3918C65.348 67.4437 65.1957 67.4407 65.1032 67.3859Z" fill="#D9DBDB"/>
<path d="M58.8317 62.0916C58.8317 62.0916 58.981 62.3567 58.978 62.6189C58.975 62.8811 58.8213 63.0544 58.8213 63.0544C58.8213 63.0544 59.3616 62.9285 59.8542 62.9063C60.3199 62.8855 60.7842 62.9611 60.7842 62.9611L60.8334 62.5211C60.8334 62.5211 60.52 62.5108 60.0961 62.5656C59.708 62.6145 59.4467 62.6826 59.4467 62.6826C59.4467 62.6826 59.484 62.5197 59.4855 62.3345C59.487 62.1493 59.4497 62.1167 59.4497 62.1167L58.8317 62.0916Z" fill="white"/>
<path d="M55.6779 65.8069L54.0225 64.8203C53.8538 64.7196 53.8568 64.5626 54.0255 64.4678L55.7003 63.536C55.8704 63.4412 56.1436 63.4457 56.3123 63.5464L57.9677 64.533C58.1364 64.6337 58.1349 64.7907 57.9647 64.8855L56.2899 65.8173C56.1197 65.9106 55.8466 65.9061 55.6779 65.8069Z" fill="url(#paint20_linear_65_18285)"/>
<path d="M67.323 70.5028L58.7698 65.4025C58.6773 65.3477 58.6788 65.2603 58.7713 65.2085C58.8654 65.1566 59.0161 65.1596 59.1087 65.2144L67.6619 70.3146C67.7544 70.3694 67.7529 70.4568 67.6604 70.5087C67.5678 70.559 67.4156 70.5576 67.323 70.5028Z" fill="#D9DBDB"/>
<path d="M66.3054 71.0687L57.7523 65.9685C57.6597 65.9136 57.6612 65.8263 57.7538 65.7744C57.8478 65.7226 57.9986 65.7255 58.0911 65.7803L66.6443 70.8805C66.7368 70.9354 66.7353 71.0228 66.6428 71.0746C66.5502 71.1264 66.398 71.1235 66.3054 71.0687Z" fill="#D9DBDB"/>
<path d="M61.5143 69.3857L56.7347 66.5356C56.6421 66.4808 56.6436 66.3934 56.7362 66.3415C56.8287 66.2897 56.981 66.2927 57.0735 66.3475L61.8532 69.1976C61.9457 69.2524 61.9442 69.3398 61.8517 69.3916C61.7591 69.442 61.6069 69.4405 61.5143 69.3857Z" fill="#D9DBDB"/>
<path d="M55.2409 64.0913C55.2409 64.0913 55.3902 64.3565 55.3872 64.6187C55.3842 64.8809 55.2305 65.0542 55.2305 65.0542C55.2305 65.0542 55.7708 64.9283 56.2634 64.906C56.7291 64.8853 57.1934 64.9608 57.1934 64.9608L57.2426 64.5209C57.2426 64.5209 56.9292 64.5105 56.5052 64.5653C56.1171 64.6142 55.8544 64.6824 55.8544 64.6824C55.8544 64.6824 55.8917 64.5194 55.8932 64.3342C55.8947 64.1491 55.8574 64.1165 55.8574 64.1165L55.2409 64.0913Z" fill="white"/>
<path d="M52.0856 67.8052L50.4303 66.8186C50.2616 66.7179 50.2631 66.5609 50.4333 66.4661L52.1081 65.5343C52.2782 65.4395 52.5514 65.444 52.72 65.5447L54.3755 66.5312C54.5441 66.632 54.5411 66.789 54.3725 66.8838L52.6977 67.8156C52.5275 67.9104 52.2543 67.9059 52.0856 67.8052Z" fill="url(#paint21_linear_65_18285)"/>
<path d="M63.7332 72.501L55.18 67.4008C55.0874 67.346 55.0889 67.2586 55.1815 67.2068C55.274 67.1549 55.4263 67.1579 55.5188 67.2127L64.072 72.3129C64.1646 72.3677 64.1631 72.4551 64.0705 72.507C63.9765 72.5588 63.8242 72.5559 63.7332 72.501Z" fill="#D9DBDB"/>
<path d="M62.7146 73.067L54.1614 67.9668C54.0689 67.9119 54.0704 67.8245 54.1629 67.7727C54.257 67.7209 54.4077 67.7238 54.5003 67.7786L63.0534 72.8788C63.146 72.9336 63.1445 73.021 63.0519 73.0729C62.9579 73.1247 62.8056 73.1218 62.7146 73.067Z" fill="#D9DBDB"/>
<path d="M57.9245 71.384L53.1448 68.5339C53.0523 68.4791 53.0538 68.3917 53.1463 68.3398C53.2389 68.288 53.3911 68.291 53.4837 68.3458L58.2633 71.1958C58.3559 71.2506 58.3544 71.338 58.2618 71.3899C58.1678 71.4417 58.017 71.4388 57.9245 71.384Z" fill="#D9DBDB"/>
<path d="M51.6491 66.0898C51.6491 66.0898 51.7984 66.355 51.7954 66.6172C51.7924 66.8794 51.6387 67.0527 51.6387 67.0527C51.6387 67.0527 52.1791 66.9268 52.6716 66.9046C53.1374 66.8838 53.6016 66.9594 53.6016 66.9594L53.6508 66.5194C53.6508 66.5194 53.3374 66.5091 52.9134 66.5639C52.5253 66.6128 52.2641 66.6809 52.2641 66.6809C52.2641 66.6809 52.3014 66.5179 52.3029 66.3328C52.3044 66.1476 52.2671 66.115 52.2671 66.115L51.6491 66.0898Z" fill="white"/>
<path d="M48.4952 69.8031L46.8399 68.8166C46.6712 68.7158 46.6742 68.5588 46.8429 68.464L48.5177 67.5322C48.6878 67.4374 48.961 67.4419 49.1296 67.5426L50.7851 68.5292C50.9537 68.6299 50.9507 68.7869 50.7821 68.8817L49.1073 69.8135C48.9371 69.9083 48.6624 69.9038 48.4952 69.8031Z" fill="url(#paint22_linear_65_18285)"/>
<path d="M60.1413 74.499L51.5882 69.3988C51.4957 69.344 51.4971 69.2566 51.5897 69.2047C51.6822 69.1529 51.8345 69.1558 51.927 69.2106L60.4802 74.3108C60.5727 74.3657 60.5712 74.453 60.4787 74.5049C60.3846 74.5567 60.2339 74.5538 60.1413 74.499Z" fill="#D9DBDB"/>
<path d="M59.1228 75.0649L50.5696 69.9647C50.4771 69.9099 50.4786 69.8225 50.5711 69.7706C50.6637 69.7188 50.8159 69.7217 50.9085 69.7765L59.4616 74.8768C59.5542 74.9316 59.5527 75.019 59.4602 75.0708C59.3661 75.1227 59.2154 75.1212 59.1228 75.0649Z" fill="#D9DBDB"/>
<path d="M54.3317 73.3819L49.5521 70.5318C49.4595 70.477 49.461 70.3896 49.5536 70.3378C49.6461 70.2859 49.7984 70.2889 49.8909 70.3437L54.6705 73.1938C54.7631 73.2486 54.7616 73.336 54.669 73.3878C54.5765 73.4397 54.4242 73.4367 54.3317 73.3819Z" fill="#D9DBDB"/>
<path d="M48.0593 68.0878C48.0593 68.0878 48.2086 68.3529 48.2056 68.6151C48.2026 68.8773 48.0488 69.0506 48.0488 69.0506C48.0488 69.0506 48.5892 68.9247 49.0818 68.9025C49.5475 68.8818 50.0117 68.9573 50.0117 68.9573L50.061 68.5174C50.061 68.5174 49.7475 68.507 49.3236 68.5618C48.9355 68.6107 48.6743 68.6788 48.6743 68.6788C48.6743 68.6788 48.7116 68.5159 48.7131 68.3307C48.7146 68.1455 48.6773 68.113 48.6773 68.113L48.0593 68.0878Z" fill="white"/>
<path d="M69.1243 64.6335L64.2387 61.816C64.0879 61.7286 64.1177 61.5805 64.3058 61.4872C64.4939 61.3939 64.7715 61.3879 64.9223 61.4753L69.8079 64.2928C69.9586 64.3802 69.9288 64.5284 69.7407 64.6217C69.5526 64.7165 69.275 64.7209 69.1243 64.6335Z" fill="url(#paint23_linear_65_18285)"/>
<path d="M82.6081 72.9821V72.9866C82.6066 73.0132 82.6066 73.0384 82.6066 73.0651C82.6051 73.0902 82.6036 73.1169 82.6021 73.1406C82.6021 73.1465 82.6006 73.1525 82.6006 73.1584C82.6006 73.1628 82.5991 73.1688 82.5991 73.1732C82.5976 73.188 82.5961 73.2028 82.5947 73.2176C82.5917 73.2443 82.5872 73.2695 82.5842 73.2947C82.5827 73.305 82.5797 73.3139 82.5782 73.3243C82.5767 73.3302 82.5752 73.3376 82.5737 73.3436C82.5722 73.3539 82.5692 73.3643 82.5678 73.3732C82.5618 73.4013 82.5543 73.4295 82.5469 73.4547C82.5454 73.4621 82.5424 73.4695 82.5394 73.4754C82.5364 73.4828 82.5349 73.4917 82.5319 73.4991C82.5275 73.5124 82.5245 73.5258 82.5185 73.5391C82.5081 73.5658 82.4976 73.5894 82.4872 73.6146C82.4857 73.6191 82.4827 73.6235 82.4827 73.628C82.4812 73.6294 82.4812 73.6309 82.4812 73.6324C82.4722 73.6517 82.4618 73.6709 82.4514 73.6887C82.4514 73.6902 82.4499 73.6902 82.4499 73.6917C82.4409 73.7094 82.4304 73.7257 82.42 73.742C82.4185 73.7435 82.4185 73.7435 82.4185 73.745C82.414 73.7494 82.411 73.7539 82.4081 73.7598C82.3872 73.7894 82.3677 73.8161 82.3453 73.8413C82.3379 73.8516 82.3289 73.8591 82.32 73.8679C82.3006 73.8887 82.2797 73.9079 82.2603 73.9272C82.2513 73.9346 82.2423 73.942 82.2334 73.9494C82.2035 73.9731 82.1722 73.9953 82.1394 74.0146L66.0242 83.307C66.0257 83.3055 66.0287 83.304 66.0302 83.3025C66.0436 83.2951 66.0556 83.2877 66.0675 83.2788C66.069 83.2773 66.072 83.2759 66.0749 83.2744C66.0854 83.267 66.0959 83.2581 66.1063 83.2507C66.1153 83.2433 66.1242 83.2359 66.1332 83.2285C66.1436 83.2196 66.1541 83.2107 66.1645 83.2003C66.175 83.1899 66.1854 83.1796 66.1944 83.1707C66.2048 83.1603 66.2153 83.1499 66.2242 83.1381C66.2332 83.1262 66.2422 83.1144 66.2511 83.1025C66.2601 83.0907 66.269 83.0788 66.278 83.067C66.2824 83.0596 66.2869 83.0537 66.2929 83.0463C66.3108 83.0196 66.3272 82.99 66.3421 82.9618C66.3601 82.9277 66.3765 82.8907 66.3914 82.8522C66.3989 82.8359 66.4033 82.8181 66.4093 82.8018C66.4108 82.8004 66.4108 82.7974 66.4108 82.7959C66.4123 82.7915 66.4153 82.7841 66.4168 82.7781C66.4183 82.7737 66.4183 82.7707 66.4198 82.7663C66.4347 82.7189 66.4466 82.6685 66.4571 82.6152C66.4616 82.5944 66.4646 82.5722 66.4675 82.5515C66.4705 82.5278 66.4735 82.5026 66.4765 82.4774C66.4765 82.4759 66.478 82.473 66.478 82.47C66.4795 82.4671 66.4795 82.4626 66.4795 82.4596C66.481 82.4448 66.481 82.43 66.4824 82.4152C66.4854 82.3722 66.4869 82.3278 66.4869 82.2834C66.4869 82.156 66.4765 82.0241 66.4556 81.8923V81.8893C66.4556 81.8879 66.4556 81.8879 66.4541 81.8864C66.4332 81.7575 66.4019 81.6271 66.3631 81.4968C66.3616 81.4923 66.3616 81.4894 66.3601 81.4849C66.3556 81.4672 66.3481 81.4494 66.3421 81.4316C66.3377 81.4168 66.3332 81.402 66.3272 81.3886C66.3168 81.3561 66.3063 81.3235 66.2929 81.2924C66.2407 81.1502 66.1765 81.0079 66.1063 80.8702C66.0809 80.8228 66.0556 80.7769 66.0287 80.7309C66.0212 80.7161 66.0137 80.7028 66.0048 80.6895C65.9675 80.6243 65.9272 80.5606 65.8854 80.4984C65.7645 80.3147 65.6286 80.1443 65.4809 79.9918C65.4615 79.971 65.4421 79.9503 65.4212 79.931C65.3943 79.9044 65.3659 79.8777 65.3391 79.8525C65.2928 79.811 65.248 79.771 65.2002 79.7325C65.0928 79.6436 64.9808 79.5651 64.8644 79.5C64.8405 79.4851 64.8166 79.4733 64.7927 79.4614C64.7584 79.4422 64.7226 79.4244 64.6883 79.4096C64.6763 79.4052 64.6643 79.3992 64.6524 79.3948C64.6405 79.3889 64.6285 79.3829 64.6151 79.38C64.6151 79.3785 64.6151 79.3785 64.6136 79.3785C64.6032 79.374 64.5927 79.3711 64.5808 79.3666C64.5778 79.3651 64.5748 79.3637 64.5718 79.3637C64.5614 79.3592 64.5509 79.3563 64.5404 79.3518C64.533 79.3503 64.5255 79.3474 64.5166 79.3444C64.4987 79.3385 64.4793 79.3326 64.4614 79.3281C64.4539 79.3252 64.4449 79.3237 64.4375 79.3207C64.4225 79.3163 64.4076 79.3133 64.3927 79.3089H64.3912C64.3822 79.3074 64.3733 79.3044 64.3643 79.3029C64.3494 79.3 64.3374 79.2985 64.3225 79.2955C64.3166 79.294 64.3106 79.294 64.3046 79.2926C64.3001 79.2911 64.2957 79.2911 64.2897 79.2911C64.2763 79.2896 64.2643 79.2881 64.2509 79.2866C64.2404 79.2852 64.2315 79.2852 64.2225 79.2852C64.2195 79.2837 64.215 79.2837 64.2121 79.2837C64.2016 79.2822 64.1912 79.2822 64.1822 79.2822C64.1673 79.2807 64.1539 79.2807 64.1404 79.2807C64.1031 79.2792 64.0688 79.2822 64.0329 79.2852C64.0076 79.2866 63.9822 79.2911 63.9568 79.297C63.9553 79.297 63.9523 79.297 63.9493 79.2985C63.9464 79.3 63.9449 79.3 63.9419 79.3C63.9136 79.3059 63.8852 79.3148 63.8583 79.3237C63.8538 79.3237 63.8508 79.3252 63.8464 79.3266C63.8419 79.3281 63.8359 79.3296 63.83 79.3311C63.824 79.3326 63.818 79.3355 63.812 79.3385C63.7971 79.3444 63.7822 79.3503 63.7672 79.3577C63.7538 79.3637 63.7404 79.3696 63.7269 79.3785C63.7195 79.3814 63.712 79.3859 63.7061 79.3903L79.8317 70.0906C79.8511 70.0787 79.872 70.0698 79.8929 70.0594C79.8988 70.0565 79.9063 70.0535 79.9138 70.052L79.957 70.0343C79.96 70.0343 79.9615 70.0328 79.9645 70.0328C79.9675 70.0313 79.9705 70.0313 79.9735 70.0298C80.0078 70.018 80.0406 70.0091 80.0765 70.0017C80.0779 70.0017 80.0779 70.0017 80.0779 70.0017C80.0794 70.0017 80.0824 70.0002 80.0854 70.0002C80.1093 69.9958 80.1347 69.9928 80.1615 69.9883C80.166 69.9883 80.169 69.9869 80.1735 69.9869C80.178 69.9854 80.1839 69.9854 80.1884 69.9854C80.2063 69.9839 80.2227 69.9839 80.2392 69.9839C80.2451 69.9824 80.2511 69.9824 80.2571 69.9824H80.269C80.2839 69.9824 80.2959 69.9839 80.3108 69.9839C80.3183 69.9854 80.3257 69.9854 80.3347 69.9854C80.3377 69.9854 80.3407 69.9869 80.3451 69.9869C80.3571 69.9883 80.369 69.9883 80.3795 69.9913C80.3884 69.9928 80.3974 69.9928 80.4063 69.9928C80.4108 69.9943 80.4138 69.9943 80.4183 69.9943C80.4287 69.9958 80.4392 69.9987 80.4511 70.0002C80.4601 70.0017 80.469 70.0017 80.478 70.0046C80.4825 70.0061 80.4884 70.0061 80.4929 70.0076C80.5019 70.0091 80.5123 70.012 80.5213 70.0135C80.5287 70.015 80.5362 70.018 80.5452 70.018C80.5526 70.0195 80.5601 70.0224 80.5661 70.0239C80.5765 70.0269 80.5855 70.0283 80.5959 70.0313C80.6004 70.0328 80.6064 70.0343 80.6108 70.0357C80.6228 70.0387 80.6332 70.0432 80.6452 70.0461C80.6526 70.0491 80.6601 70.0506 80.669 70.0535C80.672 70.055 80.6735 70.055 80.6765 70.055C80.6989 70.0624 80.7198 70.0713 80.7422 70.0802C80.7631 70.0876 80.7855 70.098 80.8064 70.1068C80.8094 70.1083 80.8138 70.1098 80.8168 70.1113C80.8243 70.1157 80.8318 70.1187 80.8407 70.1231C80.8527 70.1276 80.8616 70.1335 80.8736 70.138C80.881 70.1409 80.887 70.1454 80.8944 70.1498C80.9034 70.1543 80.9124 70.1572 80.9213 70.1631C80.9288 70.1661 80.9348 70.1705 80.9407 70.1735C80.9586 70.1824 80.9751 70.1928 80.993 70.2017C80.9975 70.2046 81.0034 70.2076 81.0094 70.2105C81.0318 70.2254 81.0557 70.2387 81.078 70.2535C81.1019 70.2683 81.1243 70.2831 81.1467 70.2994C81.1497 70.3009 81.1527 70.3039 81.1557 70.3054C81.1587 70.3068 81.1616 70.3098 81.1646 70.3113C81.1825 70.3231 81.199 70.335 81.2169 70.3483C81.2408 70.3661 81.2647 70.3839 81.2885 70.4016C81.296 70.4076 81.3049 70.415 81.3124 70.4209C81.3169 70.4253 81.3229 70.4298 81.3274 70.4342C81.3393 70.4431 81.3497 70.452 81.3602 70.4609C81.3841 70.4816 81.4094 70.5024 81.4318 70.5231C81.4438 70.5335 81.4542 70.5438 81.4662 70.5542C81.4706 70.5587 81.4766 70.5631 81.4826 70.569C81.49 70.5764 81.4975 70.5824 81.5035 70.5898C81.5274 70.612 81.5497 70.6342 81.5721 70.6579C81.5871 70.6727 81.602 70.6875 81.6169 70.7038C81.6214 70.7083 81.6244 70.7112 81.6274 70.7157C81.6304 70.7201 81.6348 70.7231 81.6378 70.7275C81.6587 70.7497 81.6811 70.7735 81.7005 70.7972C81.7214 70.8209 81.7438 70.8446 81.7632 70.8697C81.7632 70.8697 81.7632 70.8697 81.7647 70.8712C81.7647 70.8712 81.7647 70.8712 81.7662 70.8727C81.7871 70.8964 81.8065 70.9216 81.8259 70.9468C81.8498 70.9779 81.8751 71.009 81.8975 71.0401C81.9334 71.0875 81.9662 71.1364 82.0006 71.1853C82.005 71.1897 82.008 71.1971 82.011 71.2016C82.0349 71.2356 82.0543 71.2712 82.0767 71.3052C82.0916 71.3289 82.1065 71.3512 82.1199 71.3763C82.1244 71.3808 82.1259 71.3882 82.1304 71.3926C82.1379 71.4075 82.1453 71.4208 82.1543 71.4341C82.1692 71.4623 82.1856 71.4904 82.2006 71.5186C82.2125 71.5408 82.2244 71.563 82.2349 71.5852C82.2379 71.5897 82.2409 71.5971 82.2439 71.6015C82.2453 71.606 82.2483 71.6104 82.2498 71.6148C82.2648 71.643 82.2782 71.6711 82.2916 71.6993C82.3036 71.7259 82.3155 71.7511 82.3275 71.7778C82.3289 71.7822 82.3304 71.7852 82.3319 71.7896C82.3334 71.7926 82.3334 71.7956 82.3364 71.7985C82.3439 71.8178 82.3528 71.837 82.3603 71.8548C82.3707 71.8815 82.3812 71.9067 82.3916 71.9333C82.3976 71.9496 82.4036 71.9674 82.4111 71.9837C82.4125 71.9881 82.414 71.9911 82.4155 71.9955C82.417 72 82.42 72.0074 82.4215 72.0118C82.4319 72.0385 82.4409 72.0667 82.4499 72.0933C82.4588 72.12 82.4678 72.1496 82.4767 72.1763C82.4782 72.1807 82.4782 72.1837 82.4797 72.1881C82.4812 72.1926 82.4812 72.1955 82.4827 72.2C82.4887 72.2207 82.4961 72.2429 82.5006 72.2622C82.5081 72.2903 82.517 72.32 82.5245 72.3481C82.5275 72.3599 82.5289 72.3718 82.5319 72.3851C82.5334 72.3911 82.5349 72.397 82.5364 72.4029C82.5379 72.4133 82.5409 72.4222 82.5439 72.4325C82.5499 72.4607 82.5558 72.4888 82.5618 72.517C82.5663 72.5422 82.5707 72.5688 82.5752 72.594C82.5752 72.5955 82.5752 72.5955 82.5752 72.5955C82.5752 72.597 82.5767 72.597 82.5767 72.5984C82.5812 72.6251 82.5842 72.6518 82.5887 72.6799C82.5917 72.7066 82.5947 72.7318 82.5976 72.7584C82.5991 72.7673 82.5991 72.7762 82.5991 72.7851C82.5991 72.7895 82.6006 72.7955 82.6006 72.7999C82.6021 72.8118 82.6021 72.8236 82.6036 72.8355C82.6051 72.8621 82.6066 72.8873 82.6081 72.914C82.6066 72.9347 82.6081 72.9599 82.6081 72.9821Z" fill="url(#paint24_linear_65_18285)"/>
<path d="M64.8634 79.5013C65.7605 80.0153 66.4845 81.2611 66.4815 82.2832C66.4785 83.3054 65.7486 83.7187 64.8515 83.2046C63.9544 82.6906 63.2304 81.4448 63.2334 80.4227C63.2379 79.3991 63.9663 78.9873 64.8634 79.5013Z" fill="#2F655F"/>
<path d="M81.5696 70.6551L69.0176 77.7344L69.8878 78.9639L82.3279 71.775C82.3265 71.775 82.222 70.6462 81.5696 70.6551Z" fill="url(#paint25_linear_65_18285)"/>
<path d="M82.6091 72.9882V72.9837C82.6091 72.96 82.6076 72.9363 82.6076 72.9111C82.6062 72.8859 82.6061 72.8593 82.6032 72.8326C82.6017 72.8208 82.6017 72.8089 82.6002 72.7971C82.6002 72.7926 82.5987 72.7867 82.5987 72.7822C82.5972 72.7734 82.5972 72.7645 82.5972 72.7556C82.5942 72.7289 82.5912 72.7037 82.5883 72.6771C82.5853 72.6504 82.5808 72.6238 82.5763 72.5956C82.5763 72.5941 82.5748 72.5941 82.5748 72.5926V72.5912C82.5703 72.566 82.5674 72.5393 82.5614 72.5141C82.5569 72.4875 82.5494 72.4578 82.5435 72.4297C82.542 72.4193 82.539 72.4104 82.536 72.4001C82.5345 72.3941 82.533 72.3882 82.5315 72.3823C82.5285 72.3704 82.5271 72.3586 82.5241 72.3453C82.5166 72.3171 82.5091 72.2875 82.5002 72.2593C82.4957 72.2386 82.4883 72.2179 82.4823 72.1971C82.4808 72.1942 82.4808 72.1897 82.4793 72.1853C82.4778 72.1808 82.4778 72.1779 82.4763 72.1734C82.4673 72.1468 82.4584 72.1171 82.4494 72.0905C82.4405 72.0638 82.4315 72.0357 82.4211 72.009C82.4196 72.0046 82.4166 71.9971 82.4151 71.9927C82.4136 71.9883 82.4121 71.9853 82.4106 71.9809C82.4032 71.9631 82.3972 71.9468 82.3912 71.9305C82.3808 71.9038 82.3703 71.8786 82.3599 71.852C82.3524 71.8342 82.3435 71.8149 82.336 71.7957C82.3345 71.7927 82.333 71.7898 82.3315 71.7868C82.33 71.7824 82.3285 71.7794 82.327 71.7749C82.3151 71.7483 82.3032 71.7231 82.2912 71.6964C82.2778 71.6683 82.2643 71.6401 82.2494 71.612C82.2479 71.6076 82.2449 71.6046 82.2434 71.5987C82.2405 71.5942 82.2375 71.5868 82.2345 71.5824C82.224 71.5602 82.2121 71.5379 82.2001 71.5157C82.1852 71.4876 82.1688 71.4594 82.1539 71.4313C82.1464 71.4179 82.1389 71.4046 82.13 71.3898C82.1255 71.3854 82.124 71.378 82.1195 71.3735C82.1061 71.3498 82.0897 71.3276 82.0763 71.3024C82.0539 71.2683 82.033 71.2328 82.0106 71.1987C82.0076 71.1943 82.0046 71.1869 82.0001 71.1824C81.9658 71.1335 81.9329 71.0846 81.8971 71.0372C81.8732 71.0061 81.8494 70.975 81.8255 70.9439C81.8061 70.9202 81.7852 70.895 81.7658 70.8699C81.7643 70.8684 81.7643 70.8684 81.7643 70.8684C81.7628 70.8669 81.7628 70.8669 81.7628 70.8669C81.7419 70.8417 81.721 70.818 81.7001 70.7943C81.6792 70.7706 81.6583 70.7469 81.6374 70.7247C81.6344 70.7202 81.63 70.7173 81.627 70.7128C81.6225 70.7084 81.6195 70.7054 81.6165 70.701C81.6016 70.6862 81.5866 70.6714 81.5717 70.6551C81.5493 70.6314 81.5269 70.6091 81.5031 70.5869C81.4956 70.5795 81.4882 70.5736 81.4822 70.5662C81.4777 70.5617 81.4702 70.5573 81.4657 70.5514C81.4538 70.5395 81.4434 70.5306 81.4314 70.5203C81.4075 70.4995 81.3837 70.4773 81.3598 70.458C81.3493 70.4492 81.3389 70.4403 81.3269 70.4314C81.3225 70.4269 81.3165 70.424 81.312 70.4181C81.3045 70.4121 81.2956 70.4047 81.2881 70.3988C81.2642 70.381 81.2419 70.3618 81.2165 70.3455C81.1986 70.3321 81.1821 70.3203 81.1642 70.3084C81.1612 70.307 81.1582 70.304 81.1553 70.3025C81.1523 70.301 81.1493 70.2981 81.1463 70.2966C81.1224 70.2803 81.1 70.2655 81.0776 70.2507C81.0552 70.2358 81.0314 70.2225 81.009 70.2077C81.003 70.2047 80.9985 70.2018 80.9926 70.1988C80.9747 70.1899 80.9582 70.1796 80.9403 70.1707C80.9343 70.1677 80.9284 70.1633 80.9209 70.1603C80.912 70.1559 80.903 70.1514 80.894 70.147C80.8866 70.1425 80.8806 70.1396 80.8732 70.1351C80.8612 70.1307 80.8523 70.1247 80.8403 70.1203C80.8329 70.1159 80.8254 70.1129 80.8164 70.1085C80.8134 70.107 80.809 70.1055 80.806 70.104C80.7851 70.0936 80.7627 70.0848 80.7418 70.0773C80.7194 70.0685 80.6985 70.0596 80.6761 70.0522C80.6731 70.0507 80.6716 70.0507 80.6686 70.0507C80.6612 70.0477 80.6537 70.0462 80.6448 70.0433C80.6343 70.0403 80.6224 70.0359 80.6104 70.0329C80.606 70.0314 80.6 70.0299 80.5955 70.0285C80.585 70.0255 80.5761 70.024 80.5656 70.0211C80.5582 70.0196 80.5507 70.0166 80.5448 70.0151C80.5373 70.0136 80.5298 70.0122 80.5209 70.0107C80.5119 70.0092 80.5015 70.0062 80.4925 70.0048C80.488 70.0033 80.482 70.0033 80.4776 70.0018C80.4686 70.0003 80.4597 69.9988 80.4507 69.9974C80.4403 69.9959 80.4298 69.9929 80.4179 69.9914C80.4134 69.9914 80.4104 69.9899 80.4059 69.9899C80.3985 69.9885 80.388 69.9885 80.3791 69.9885C80.3686 69.987 80.3552 69.9855 80.3447 69.984C80.3403 69.984 80.3373 69.9825 80.3343 69.9825C80.3268 69.9825 80.3179 69.9825 80.3104 69.9811C80.2955 69.9811 80.2835 69.9796 80.2686 69.9796H80.2566C80.2507 69.9796 80.2447 69.9796 80.2388 69.9811C80.2223 69.9811 80.2044 69.9825 80.188 69.9825C80.1835 69.9825 80.1776 69.9825 80.1731 69.984C80.1686 69.984 80.1656 69.9855 80.1611 69.9855L86.2051 69.0508L82.4465 73.6903C82.4569 73.6725 82.4673 73.6533 82.4763 73.634C82.4763 73.6325 82.4778 73.6311 82.4778 73.6296C82.4793 73.6251 82.4808 73.6222 82.4823 73.6162C82.4927 73.5925 82.5032 73.5673 82.5136 73.5407C82.5181 73.5288 82.5226 73.514 82.5271 73.5007C82.5301 73.4933 82.5315 73.4844 82.5345 73.477C82.536 73.4696 82.539 73.4637 82.542 73.4563C82.5494 73.4296 82.5569 73.4029 82.5629 73.3748C82.5644 73.3644 82.5673 73.354 82.5688 73.3452C82.5703 73.3392 82.5718 73.3318 82.5733 73.3259C82.5748 73.3155 82.5778 73.3066 82.5793 73.2963C82.5838 73.2711 82.5868 73.2459 82.5898 73.2192C82.5912 73.2044 82.5927 73.1896 82.5942 73.1748C82.5942 73.1704 82.5957 73.1644 82.5957 73.16C82.5972 73.1541 82.5972 73.1481 82.5972 73.1422C82.5987 73.1185 82.6017 73.0918 82.6017 73.0667C82.6077 73.04 82.6076 73.0148 82.6091 72.9882Z" fill="url(#paint26_linear_65_18285)"/>
<path d="M84.2852 69.3485C84.2852 69.3485 84.6494 69.3841 84.8554 69.6685C85.0614 69.9544 85.0256 70.5084 85.0256 70.5084L86.2063 69.0508L84.2852 69.3485Z" fill="url(#paint27_linear_65_18285)"/>
<path d="M70.1699 80.1073C70.1684 80.0807 70.1684 80.0555 70.1669 80.0288C70.1669 80.017 70.1654 80.0051 70.1639 79.9933C70.1639 79.9874 70.1624 79.9829 70.1624 79.9785C70.1609 79.9696 70.1609 79.9607 70.1609 79.9503C70.158 79.9237 70.155 79.897 70.152 79.8703C70.149 79.8437 70.1445 79.8155 70.14 79.7889C70.14 79.7874 70.14 79.7874 70.14 79.7859C70.14 79.7844 70.14 79.7844 70.14 79.7829C70.1355 79.7578 70.1311 79.7326 70.1266 79.7059C70.1206 79.6778 70.1161 79.6496 70.1087 79.6215C70.1072 79.6111 70.1042 79.6007 70.1012 79.5919C70.0997 79.5859 70.0983 79.58 70.0968 79.5741C70.0938 79.5622 70.0908 79.5489 70.0878 79.537C70.0803 79.5089 70.0729 79.4793 70.0654 79.4511C70.0594 79.4304 70.0535 79.4096 70.0475 79.3874C70.046 79.383 70.046 79.38 70.0445 79.3756C70.043 79.3711 70.043 79.3682 70.0415 79.3637C70.0326 79.3356 70.0236 79.3074 70.0147 79.2793C70.0057 79.2511 69.9953 79.2245 69.9863 79.1963C69.9848 79.1919 69.9818 79.186 69.9803 79.1815C69.9788 79.1771 69.9773 79.1726 69.9758 79.1697C69.9699 79.1519 69.9624 79.1356 69.9564 79.1178C69.946 79.0912 69.9355 79.0645 69.9251 79.0393C69.9176 79.0201 69.9087 79.0008 69.9012 78.983C69.8997 78.9801 69.8982 78.9771 69.8967 78.9727C69.8952 78.9697 69.8937 78.9652 69.8922 78.9623C69.8803 78.9356 69.8684 78.9104 69.8564 78.8838C69.843 78.8556 69.8296 78.826 69.8146 78.7979C69.8131 78.7934 69.8101 78.789 69.8072 78.7845C69.8042 78.7786 69.8012 78.7727 69.7982 78.7682C69.7863 78.746 69.7743 78.7238 69.7624 78.7001C69.7475 78.6719 69.731 78.6438 69.7146 78.6157C69.7072 78.6023 69.6997 78.5875 69.6907 78.5742C69.6877 78.5683 69.6848 78.5638 69.6818 78.5579C69.6669 78.5342 69.6519 78.5105 69.637 78.4868C69.6146 78.4512 69.5937 78.4157 69.5713 78.3816C69.5683 78.3757 69.5639 78.3698 69.5609 78.3653C69.528 78.3149 69.4922 78.2675 69.4579 78.2187C69.434 78.1861 69.4101 78.155 69.3847 78.1239C69.3638 78.0987 69.3444 78.0735 69.3235 78.0483C69.3235 78.0483 69.3235 78.0468 69.322 78.0468C69.322 78.0468 69.322 78.0468 69.3205 78.0453C69.2996 78.0202 69.2787 77.9965 69.2579 77.9713C69.237 77.9476 69.2161 77.9239 69.1937 77.9017C69.1907 77.8972 69.1862 77.8943 69.1832 77.8898C69.1802 77.8854 69.1757 77.8824 69.1728 77.878C69.1578 77.8617 69.1429 77.8468 69.128 77.8306C69.1056 77.8068 69.0817 77.7846 69.0593 77.7624C69.0518 77.755 69.0444 77.7491 69.0369 77.7417C69.031 77.7372 69.0265 77.7313 69.0205 77.7269C69.0086 77.7165 68.9981 77.7061 68.9862 77.6958C68.9623 77.6735 68.9384 77.6528 68.913 77.6321C68.9026 77.6232 68.8906 77.6143 68.8802 77.6054C68.8742 77.6009 68.8698 77.5965 68.8638 77.5921C68.8563 77.5861 68.8474 77.5787 68.8399 77.5728C68.816 77.5535 68.7921 77.5358 68.7682 77.518C68.7503 77.5047 68.7324 77.4928 68.716 77.481C68.713 77.4795 68.71 77.4765 68.7071 77.475C68.7041 77.4736 68.7011 77.4706 68.6981 77.4691C68.6757 77.4528 68.6518 77.438 68.6279 77.4232C68.6055 77.4084 68.5817 77.395 68.5593 77.3817C68.5533 77.3787 68.5488 77.3758 68.5428 77.3728C68.5249 77.3625 68.5085 77.3536 68.4906 77.3432C68.4846 77.3402 68.4772 77.3373 68.4712 77.3328C68.4622 77.3284 68.4533 77.3239 68.4443 77.3195C68.4369 77.3165 68.4309 77.3121 68.4234 77.3091C68.413 77.3032 68.401 77.2988 68.3906 77.2943C68.3831 77.2913 68.3742 77.2869 68.3667 77.2825C68.3637 77.281 68.3607 77.2795 68.3563 77.278C68.3339 77.2676 68.313 77.2588 68.2906 77.2514C68.2682 77.2425 68.2458 77.2351 68.2249 77.2262C68.2219 77.2247 68.2189 77.2247 68.216 77.2232C68.2085 77.2202 68.1995 77.2188 68.1921 77.2158C68.1816 77.2128 68.1697 77.2084 68.1592 77.2054C68.1533 77.204 68.1488 77.2025 68.1428 77.201C68.1324 77.198 68.1234 77.1951 68.1145 77.1936C68.107 77.1921 68.0995 77.1891 68.092 77.1877C68.0846 77.1862 68.0771 77.1847 68.0697 77.1832C68.0607 77.1817 68.0503 77.1788 68.0413 77.1773C68.0368 77.1758 68.0309 77.1743 68.0264 77.1743C68.0174 77.1728 68.0085 77.1714 67.9995 77.1699C67.9891 77.1684 67.9771 77.1654 67.9667 77.164C67.9622 77.164 67.9592 77.1625 67.9547 77.1625C67.9458 77.161 67.9368 77.161 67.9279 77.1595C67.9159 77.158 67.904 77.1565 67.892 77.1565C67.8891 77.1565 67.8846 77.1551 67.8816 77.1551C67.8741 77.1551 67.8652 77.1551 67.8577 77.1536C67.8443 77.1536 67.8294 77.1521 67.8159 77.1521C67.8114 77.1521 67.8084 77.1521 67.804 77.1521C67.798 77.1521 67.792 77.1521 67.7861 77.1536C67.7682 77.1536 67.7517 77.1551 67.7353 77.1565C67.7308 77.1565 67.7248 77.1565 67.7204 77.158C67.7159 77.158 67.7129 77.1595 67.7099 77.1595C67.6846 77.1625 67.6577 77.1654 67.6338 77.1699C67.6323 77.1699 67.6293 77.1699 67.6278 77.1714C67.6278 77.1714 67.6278 77.1714 67.6263 77.1714C67.5905 77.1788 67.5562 77.1877 67.5219 77.1995C67.5189 77.201 67.5159 77.201 67.5129 77.2025C67.5099 77.204 67.5084 77.204 67.5054 77.2054C67.4905 77.2114 67.4771 77.2173 67.4621 77.2232C67.4547 77.2262 67.4487 77.2291 67.4412 77.2321C67.4204 77.2425 67.3994 77.2528 67.38 77.2632L63.5781 79.4763C63.5975 79.4645 63.6185 79.4541 63.6393 79.4452C63.6468 79.4422 63.6528 79.4393 63.6602 79.4363C63.6752 79.4304 63.6886 79.4245 63.7035 79.4185C63.7095 79.4171 63.714 79.4156 63.7199 79.4126C63.7543 79.4008 63.7886 79.3919 63.8244 79.3845C63.8274 79.3845 63.8289 79.3845 63.8319 79.383C63.8573 79.3785 63.8826 79.3741 63.9095 79.3726C63.9185 79.3711 63.9274 79.3711 63.9364 79.3697C63.9528 79.3682 63.9707 79.3682 63.9886 79.3667C63.9991 79.3667 64.008 79.3667 64.0185 79.3667C64.0319 79.3667 64.0468 79.3667 64.0603 79.3682C64.0722 79.3682 64.0827 79.3697 64.0946 79.3697C64.1065 79.3711 64.1185 79.3726 64.1304 79.3726C64.1439 79.3741 64.1558 79.3756 64.1692 79.3771C64.1797 79.3785 64.1917 79.38 64.2021 79.383C64.2155 79.3859 64.2304 79.3874 64.2439 79.3904C64.2528 79.3919 64.2633 79.3948 64.2723 79.3963C64.2872 79.3993 64.3021 79.4037 64.3185 79.4082C64.3275 79.4111 64.3379 79.4126 64.3469 79.4156C64.3633 79.42 64.3797 79.4259 64.3976 79.4304C64.4051 79.4333 64.4126 79.4348 64.4215 79.4378C64.4469 79.4467 64.4708 79.4556 64.4962 79.4645C64.5215 79.4748 64.5454 79.4852 64.5708 79.497C64.5783 79.5 64.5872 79.5045 64.5947 79.5089C64.6126 79.5178 64.6305 79.5252 64.6484 79.5341C64.6574 79.5385 64.6663 79.543 64.6753 79.5474C64.6992 79.5593 64.723 79.5726 64.7469 79.5859C64.8021 79.617 64.8574 79.6526 64.9111 79.6896C64.9141 79.6911 64.9171 79.6941 64.9201 79.697C64.9708 79.7326 65.0201 79.7696 65.0678 79.8081C65.0738 79.8126 65.0783 79.817 65.0843 79.8215C65.132 79.86 65.1783 79.9 65.2231 79.9414C65.2291 79.9459 65.2335 79.9518 65.2395 79.9563C65.2858 79.9992 65.3306 80.0437 65.3753 80.0911C65.3783 80.0955 65.3828 80.0985 65.3858 80.1029C65.4336 80.1533 65.4798 80.2051 65.5246 80.2584L65.5261 80.2599C65.6142 80.3651 65.6963 80.4762 65.7739 80.5917C65.7963 80.6258 65.8187 80.6614 65.8396 80.6969C65.8575 80.7266 65.8769 80.7547 65.8933 80.7843C65.9008 80.7976 65.9097 80.8125 65.9172 80.8258C65.9456 80.8762 65.9739 80.9265 65.9993 80.9769C66.0023 80.9828 66.0053 80.9887 66.0082 80.9932C66.0396 81.0554 66.0695 81.1176 66.0978 81.1813C66.0993 81.1843 66.1008 81.1872 66.1023 81.1917C66.1292 81.2539 66.1545 81.3161 66.1784 81.3798C66.1799 81.3843 66.1814 81.3872 66.1829 81.3917C66.2068 81.4554 66.2292 81.5205 66.2486 81.5842C66.2501 81.5887 66.2501 81.5916 66.2516 81.5961C66.271 81.6583 66.2874 81.7205 66.3023 81.7827C66.3038 81.7887 66.3053 81.7946 66.3068 81.8005C66.3217 81.8642 66.3337 81.9279 66.3441 81.9916C66.3441 81.9931 66.3441 81.9931 66.3441 81.9946C66.3545 82.0583 66.362 82.122 66.368 82.1857C66.368 82.1901 66.3695 82.196 66.3695 82.2005C66.3739 82.2642 66.3769 82.3264 66.3769 82.3886C66.3769 82.4508 66.374 82.5101 66.368 82.5664C66.368 82.5723 66.3665 82.5767 66.3665 82.5812C66.3605 82.633 66.3531 82.6834 66.3441 82.7323C66.3426 82.7382 66.3411 82.7456 66.3396 82.7515C66.3292 82.7989 66.3187 82.8434 66.3038 82.8863C66.3008 82.8937 66.2978 82.9026 66.2963 82.91C66.2829 82.95 66.268 82.9885 66.2501 83.0256C66.2486 83.03 66.2471 83.0345 66.2441 83.0389C66.2247 83.0804 66.2023 83.1204 66.1784 83.1574C66.1754 83.1619 66.171 83.1663 66.168 83.1707C66.1486 83.2004 66.1262 83.2285 66.1038 83.2537C66.0963 83.2626 66.0874 83.2715 66.0784 83.2804C66.059 83.3011 66.0381 83.3203 66.0172 83.3396C66.0083 83.347 65.9993 83.3559 65.9903 83.3618C65.9605 83.3855 65.9291 83.4078 65.8963 83.427L69.6982 81.2139C69.731 81.1946 69.7624 81.1724 69.7922 81.1487C69.8012 81.1413 69.8102 81.1339 69.8191 81.1265C69.84 81.1087 69.8609 81.088 69.8803 81.0673C69.8893 81.0584 69.8967 81.0495 69.9057 81.0406C69.9281 81.0139 69.949 80.9873 69.9699 80.9576C69.9729 80.9532 69.9773 80.9487 69.9803 80.9443C69.9803 80.9428 69.9818 80.9428 69.9833 80.9413C70.0057 80.9073 70.0266 80.8702 70.0445 80.8302C70.0445 80.8288 70.046 80.8273 70.046 80.8258C70.0475 80.8214 70.049 80.8169 70.052 80.8125C70.0639 80.7873 70.0744 80.7636 70.0848 80.7369C70.0893 80.7236 70.0938 80.7103 70.0983 80.6969C70.1012 80.6895 70.1042 80.6806 70.1057 80.6732C70.1087 80.6658 70.1102 80.6599 70.1132 80.6525C70.1206 80.6258 70.1281 80.5977 70.1356 80.5695C70.1386 80.5592 70.14 80.5488 70.1415 80.5384C70.143 80.5325 70.1445 80.5251 70.146 80.5192C70.1475 80.5088 70.1505 80.4999 70.152 80.4895C70.1565 80.4644 70.1609 80.4377 70.1639 80.4125C70.1654 80.3977 70.1669 80.3829 70.1684 80.3681C70.1684 80.3636 70.1699 80.3577 70.1699 80.3533C70.1699 80.3473 70.1714 80.3414 70.1714 80.3355C70.1729 80.3103 70.1744 80.2851 70.1758 80.2584C70.1773 80.2333 70.1773 80.2066 70.1773 80.1799C70.1773 80.1785 70.1773 80.177 70.1773 80.1755C70.1699 80.1577 70.1699 80.1325 70.1699 80.1073Z" fill="url(#paint28_linear_65_18285)"/>
<path d="M64.7381 79.5934C65.6412 80.1104 66.3712 81.365 66.3682 82.3946C66.3652 83.4241 65.6308 83.8403 64.7277 83.3219C63.8246 82.8049 63.0947 81.5502 63.0977 80.5192C63.1007 79.4897 63.8351 79.0749 64.7381 79.5934Z" fill="#F35825"/>
<defs>
<linearGradient id="paint0_linear_65_18285" x1="70.6332" y1="54.1137" x2="26.5944" y2="88.3695" gradientUnits="userSpaceOnUse">
<stop stop-color="#2B2E3D"/>
<stop offset="1" stop-color="#525575"/>
</linearGradient>
<linearGradient id="paint1_linear_65_18285" x1="86.5565" y1="44.6754" x2="76.1043" y2="24.2023" gradientUnits="userSpaceOnUse">
<stop stop-color="#57BDB2"/>
<stop offset="1" stop-color="#089299"/>
</linearGradient>
<linearGradient id="paint2_linear_65_18285" x1="72.4912" y1="8.66315" x2="81.784" y2="52.0463" gradientUnits="userSpaceOnUse">
<stop stop-color="#57BDB2"/>
<stop offset="1" stop-color="#089299"/>
</linearGradient>
<linearGradient id="paint3_linear_65_18285" x1="72.9331" y1="10.6907" x2="81.3699" y2="50.0774" gradientUnits="userSpaceOnUse">
<stop stop-color="#F9F9FB"/>
<stop offset="1" stop-color="#E5E8EF"/>
</linearGradient>
<linearGradient id="paint4_linear_65_18285" x1="100.791" y1="48.5349" x2="95.8517" y2="38.8605" gradientUnits="userSpaceOnUse">
<stop stop-color="#57BDB2"/>
<stop offset="1" stop-color="#089299"/>
</linearGradient>
<linearGradient id="paint5_linear_65_18285" x1="59.8115" y1="20.3756" x2="60.3006" y2="20.3756" gradientUnits="userSpaceOnUse">
<stop stop-color="#1C7265"/>
<stop offset="1" stop-color="#089299"/>
</linearGradient>
<linearGradient id="paint6_linear_65_18285" x1="73.7157" y1="31.0814" x2="64.8598" y2="31.0814" gradientUnits="userSpaceOnUse">
<stop stop-color="#63DBBF"/>
<stop offset="1" stop-color="#7CDAC9"/>
</linearGradient>
<linearGradient id="paint7_linear_65_18285" x1="73.7157" y1="31.0642" x2="65.1773" y2="31.0642" gradientUnits="userSpaceOnUse">
<stop stop-color="#66DBC0"/>
<stop offset="1" stop-color="white"/>
</linearGradient>
<linearGradient id="paint8_linear_65_18285" x1="91.8227" y1="31.3363" x2="83.2842" y2="31.3363" gradientUnits="userSpaceOnUse">
<stop stop-color="#FEA608"/>
<stop offset="1" stop-color="white"/>
</linearGradient>
<linearGradient id="paint9_linear_65_18285" x1="91.8232" y1="46.0405" x2="82.9672" y2="46.0405" gradientUnits="userSpaceOnUse">
<stop stop-color="#63DBBF"/>
<stop offset="1" stop-color="#7CDAC9"/>
</linearGradient>
<linearGradient id="paint10_linear_65_18285" x1="91.8227" y1="46.0234" x2="83.2842" y2="46.0234" gradientUnits="userSpaceOnUse">
<stop stop-color="#66DBC0"/>
<stop offset="1" stop-color="white"/>
</linearGradient>
<linearGradient id="paint11_linear_65_18285" x1="76.4733" y1="50.4433" x2="76.4733" y2="58.1084" gradientUnits="userSpaceOnUse">
<stop stop-color="#57BDB2"/>
<stop offset="1" stop-color="#089299"/>
</linearGradient>
<linearGradient id="paint12_linear_65_18285" x1="80.909" y1="54.1" x2="83.1257" y2="63.796" gradientUnits="userSpaceOnUse">
<stop stop-color="#57BDB2"/>
<stop offset="1" stop-color="#089299"/>
</linearGradient>
<linearGradient id="paint13_linear_65_18285" x1="70.8745" y1="49.5945" x2="72.2362" y2="55.5504" gradientUnits="userSpaceOnUse">
<stop stop-color="#57BDB2"/>
<stop offset="1" stop-color="#089299"/>
</linearGradient>
<linearGradient id="paint14_linear_65_18285" x1="38.2347" y1="31.7225" x2="48.2255" y2="31.7225" gradientUnits="userSpaceOnUse">
<stop offset="0.0312" stop-color="#F0B287"/>
<stop offset="1" stop-color="#E59B68"/>
</linearGradient>
<linearGradient id="paint15_linear_65_18285" x1="38.1957" y1="31.7081" x2="48.2716" y2="31.7081" gradientUnits="userSpaceOnUse">
<stop stop-color="#EFB084"/>
<stop offset="1" stop-color="#E59B68"/>
</linearGradient>
<linearGradient id="paint16_linear_65_18285" x1="32.2375" y1="47.076" x2="42.9721" y2="45.9805" gradientUnits="userSpaceOnUse">
<stop stop-color="#57BDB2"/>
<stop offset="1" stop-color="#6EE3CC"/>
</linearGradient>
<linearGradient id="paint17_linear_65_18285" x1="35.4171" y1="23.7489" x2="50.6735" y2="23.7489" gradientUnits="userSpaceOnUse">
<stop stop-color="#FFD0B0"/>
<stop offset="1" stop-color="#E59B68"/>
</linearGradient>
<linearGradient id="paint18_linear_65_18285" x1="42.4923" y1="67.7866" x2="78.706" y2="67.7866" gradientUnits="userSpaceOnUse">
<stop stop-color="#F9F9FB"/>
<stop offset="1" stop-color="#E5E8EF"/>
</linearGradient>
<linearGradient id="paint19_linear_65_18285" x1="61.2974" y1="60.9653" x2="53.6047" y2="68.7658" gradientUnits="userSpaceOnUse">
<stop stop-color="#FFAC06"/>
<stop offset="1" stop-color="#F66C1E"/>
</linearGradient>
<linearGradient id="paint20_linear_65_18285" x1="60.5004" y1="60.1766" x2="52.8076" y2="67.9772" gradientUnits="userSpaceOnUse">
<stop stop-color="#FFAC06"/>
<stop offset="1" stop-color="#F66C1E"/>
</linearGradient>
<linearGradient id="paint21_linear_65_18285" x1="59.6998" y1="59.3879" x2="52.0071" y2="67.1884" gradientUnits="userSpaceOnUse">
<stop stop-color="#FFAC06"/>
<stop offset="1" stop-color="#F66C1E"/>
</linearGradient>
<linearGradient id="paint22_linear_65_18285" x1="58.8997" y1="58.5989" x2="51.2069" y2="66.3994" gradientUnits="userSpaceOnUse">
<stop stop-color="#FFAC06"/>
<stop offset="1" stop-color="#F66C1E"/>
</linearGradient>
<linearGradient id="paint23_linear_65_18285" x1="64.1413" y1="63.0553" x2="69.904" y2="63.0553" gradientUnits="userSpaceOnUse">
<stop stop-color="#FFAC06"/>
<stop offset="1" stop-color="#F66C1E"/>
</linearGradient>
<linearGradient id="paint24_linear_65_18285" x1="72.3814" y1="74.5372" x2="74.6083" y2="78.2959" gradientUnits="userSpaceOnUse">
<stop stop-color="#86E2D0"/>
<stop offset="1" stop-color="#309E98"/>
</linearGradient>
<linearGradient id="paint25_linear_65_18285" x1="69.0172" y1="74.8099" x2="82.3269" y2="74.8099" gradientUnits="userSpaceOnUse">
<stop stop-color="#52897A"/>
<stop offset="1" stop-color="#309E98"/>
</linearGradient>
<linearGradient id="paint26_linear_65_18285" x1="82.5965" y1="68.5428" x2="84.8154" y2="72.288" gradientUnits="userSpaceOnUse">
<stop stop-color="#FFAC06"/>
<stop offset="1" stop-color="#F66C1E"/>
</linearGradient>
<linearGradient id="paint27_linear_65_18285" x1="84.2852" y1="69.7798" x2="86.2055" y2="69.7798" gradientUnits="userSpaceOnUse">
<stop stop-color="#52897A"/>
<stop offset="1" stop-color="#309E98"/>
</linearGradient>
<linearGradient id="paint28_linear_65_18285" x1="66.1281" y1="78.2442" x2="68.284" y2="81.8831" gradientUnits="userSpaceOnUse">
<stop stop-color="#FFAC06"/>
<stop offset="1" stop-color="#F66C1E"/>
</linearGradient>
</defs>
</svg>
