<svg width="100" height="100" viewBox="0 0 100 100" fill="none" xmlns="http://www.w3.org/2000/svg">
<path opacity="0.1" d="M90.2537 66.1428L90.3609 66.2017C91.7877 66.9968 91.8276 69.031 90.431 69.8809L40.9323 100L6 77.8973L54.6946 49.208C56.9751 47.7604 59.8823 47.7316 62.1916 49.1312L90.2537 66.1428Z" fill="url(#paint0_linear_65_18548)"/>
<path d="M87.2341 69.7337C86.715 69.7337 86.199 69.5961 85.7442 69.3374L57.5867 53.1832C56.4031 52.5103 55.665 51.2559 55.665 49.9146V2.54336C55.665 1.14085 56.8334 0 58.2696 0C58.7259 0 59.1792 0.119627 59.5773 0.346899L88.0946 16.706C89.3931 17.4446 90.2016 18.8187 90.2016 20.29V66.8359C90.2031 68.4328 88.8709 69.7337 87.2341 69.7337Z" fill="#3A9386"/>
<path d="M86.2438 70.1538C85.7247 70.1538 85.2087 70.0163 84.754 69.7576L56.5965 53.6033C55.4129 52.9305 54.6748 51.676 54.6748 50.3348V2.96352C54.6748 1.56101 55.8431 0.420166 57.2794 0.420166C57.7357 0.420166 58.1889 0.539775 58.5871 0.767047L87.1044 17.1262C88.4029 17.8648 89.2113 19.2389 89.2113 20.7102V67.2561C89.2129 68.8545 87.8807 70.1538 86.2438 70.1538Z" fill="url(#paint1_linear_65_18548)"/>
<path d="M87.1691 68.5151C86.6929 68.8515 86.0283 68.9262 85.4465 68.5958L57.292 52.4445C56.5233 52.0064 56.0518 51.2035 56.0518 50.3348V2.96202C56.0518 2.3131 56.5555 1.8406 57.1374 1.77332C56.8709 1.98564 56.6903 2.3116 56.6903 2.69587L56.6872 50.0686C56.6872 50.9374 57.1604 51.7418 57.9306 52.1784L86.085 68.3297C86.4372 68.5285 86.82 68.5794 87.1691 68.5151Z" fill="#3A9386"/>
<path d="M87.8368 20.7102V67.2561C87.8368 67.7974 87.5674 68.2429 87.1708 68.5151C86.8201 68.5794 86.4373 68.5285 86.0882 68.3297L57.9338 52.1784C57.1651 51.7418 56.6904 50.9374 56.6904 50.0686L56.6935 2.69587C56.6935 2.31161 56.8726 1.98564 57.1406 1.77332C57.3887 1.74342 57.6536 1.78978 57.8986 1.92883L86.4113 18.2849C87.2918 18.7888 87.8368 19.7114 87.8368 20.7102Z" fill="url(#paint2_linear_65_18548)"/>
<path d="M79.6779 27.0168L64.2142 18.059C63.8437 17.8452 63.542 17.3742 63.542 17.0124C63.542 16.6505 63.8452 16.5309 64.2142 16.7447L79.6779 25.7025C80.0485 25.9164 80.3501 26.3873 80.3501 26.7492C80.3501 27.111 80.047 27.2307 79.6779 27.0168Z" fill="#CCC9C8"/>
<path d="M79.6779 20.7864L64.2142 11.8285C63.8437 11.6147 63.542 11.1437 63.542 10.7819C63.542 10.4201 63.8452 10.3004 64.2142 10.5143L79.6779 19.4721C80.0485 19.6859 80.3501 20.1569 80.3501 20.5187C80.3501 20.8805 80.047 21.0017 79.6779 20.7864Z" fill="url(#paint3_linear_65_18548)"/>
<path d="M79.6779 41.9525L64.2142 32.9947C63.8437 32.7809 63.542 32.3099 63.542 31.948C63.542 31.5862 63.8452 31.4666 64.2142 31.6804L79.6779 40.6382C80.0485 40.852 80.3501 41.323 80.3501 41.6849C80.3501 42.0467 80.047 42.1663 79.6779 41.9525Z" fill="url(#paint4_linear_65_18548)"/>
<path d="M82.2417 31.9332L61.6468 20.0029C61.2763 19.7891 60.9746 19.3181 60.9746 18.9562C60.9746 18.5944 61.2778 18.4748 61.6468 18.6886L82.2417 30.6189C82.6122 30.8327 82.9138 31.3037 82.9138 31.6655C82.9138 32.0274 82.6122 32.1485 82.2417 31.9332Z" fill="#CCC9C8"/>
<path d="M82.2417 35.3645L61.6468 23.4343C61.2763 23.2204 60.9746 22.7494 60.9746 22.3876C60.9746 22.0258 61.2778 21.9062 61.6468 22.12L82.2417 34.0503C82.6122 34.2641 82.9138 34.7351 82.9138 35.0969C82.9138 35.4587 82.6122 35.5784 82.2417 35.3645Z" fill="#CCC9C8"/>
<path d="M82.2417 38.7945L61.6468 26.8642C61.2763 26.6504 60.9746 26.1794 60.9746 25.8176C60.9746 25.4572 61.2778 25.3361 61.6468 25.5499L82.2417 37.4802C82.6122 37.694 82.9138 38.165 82.9138 38.5269C82.9138 38.8887 82.6122 39.0098 82.2417 38.7945Z" fill="#CCC9C8"/>
<path d="M82.2417 48.37L61.6468 36.4398C61.2763 36.2259 60.9746 35.755 60.9746 35.3931C60.9746 35.0313 61.2778 34.9116 61.6468 35.1255L82.2417 47.0558C82.6122 47.2696 82.9138 47.7406 82.9138 48.1024C82.9138 48.4642 82.6122 48.5839 82.2417 48.37Z" fill="#CCC9C8"/>
<path d="M82.2417 51.8015L61.6468 39.8712C61.2763 39.6573 60.9746 39.1863 60.9746 38.8245C60.9746 38.4627 61.2778 38.343 61.6468 38.5569L82.2417 50.4872C82.6122 50.701 82.9138 51.172 82.9138 51.5338C82.9138 51.8956 82.6122 52.0153 82.2417 51.8015Z" fill="#CCC9C8"/>
<path d="M82.2417 55.2315L61.6468 43.3012C61.2763 43.0874 60.9746 42.6164 60.9746 42.2546C60.9746 41.8927 61.2778 41.7731 61.6468 41.9869L82.2417 53.9172C82.6122 54.131 82.9138 54.602 82.9138 54.9639C82.9138 55.3257 82.6122 55.4468 82.2417 55.2315Z" fill="#CCC9C8"/>
<path d="M85.3476 54.925L94.0005 76.2243L89.0593 73.5808L87.306 78.4313L79.333 59.4825L85.3476 54.925Z" fill="url(#paint5_linear_65_18548)"/>
<path d="M87.306 75.3272L80.6865 59.2073L81.0785 58.992L87.3136 73.9471L88.2966 71.2019L90.8369 72.6956L84.7396 57.9797L85.1761 57.8362L91.8353 73.9157L88.4682 71.9226L87.306 75.3272Z" fill="url(#paint6_linear_65_18548)"/>
<path d="M76.6537 52.9138L67.1602 64.8127L71.5272 65.6112L71.9069 72.1557L81.4005 60.2568L76.6537 52.9138Z" fill="url(#paint7_linear_65_18548)"/>
<path d="M72.819 68.8318L80.7461 59.24L80.5195 58.9066L73.0364 67.9601L72.7991 64.0531L70.3017 63.5851L77.6224 54.406L77.3942 54.0756L69.6172 63.8258L72.548 64.3746L72.819 68.8318Z" fill="url(#paint8_linear_65_18548)"/>
<path d="M87.0557 57.2619C87.0527 57.3322 87.0511 57.4025 87.0465 57.4712C87.0328 57.6372 87.0129 57.7987 86.9853 57.9557C86.9792 57.9886 86.9776 58.0245 86.9715 58.0559C86.9363 58.2428 86.8889 58.4222 86.8337 58.5942C86.8184 58.642 86.797 58.6869 86.7801 58.7347C86.7357 58.8558 86.6883 58.9724 86.6331 59.0831C86.6056 59.1384 86.5765 59.1908 86.5458 59.2431C86.4907 59.3403 86.4325 59.433 86.3682 59.5212C86.333 59.5705 86.2978 59.6184 86.2595 59.6647C86.1876 59.7515 86.111 59.8322 86.0298 59.9084C85.9916 59.9443 85.9579 59.9817 85.9181 60.0161C85.794 60.1208 85.6623 60.215 85.5184 60.2957L83.3119 61.5487C83.4559 61.4694 83.5875 61.3738 83.7116 61.2691C83.7514 61.2362 83.7866 61.1973 83.8233 61.1614C83.9045 61.0852 83.9811 61.0044 84.053 60.9177C84.0913 60.8714 84.1265 60.822 84.1618 60.7742C84.2245 60.686 84.2827 60.5932 84.3378 60.4976C84.3685 60.4452 84.3976 60.3929 84.4251 60.3361C84.4803 60.2254 84.5277 60.1088 84.5721 59.9877C84.589 59.9399 84.6104 59.895 84.6257 59.8471C84.6808 59.6752 84.7283 59.4973 84.7635 59.3104C84.7696 59.2775 84.7727 59.2401 84.7788 59.2072C84.8048 59.0502 84.8263 58.8902 84.8386 58.7242C84.8431 58.6555 84.8447 58.5852 84.8477 58.5149C84.8539 58.3774 84.8569 58.2368 84.8538 58.0948C84.8523 58.017 84.8493 57.9378 84.8447 57.8585C84.837 57.7135 84.8232 57.5669 84.8064 57.4189C84.7972 57.3412 84.7895 57.2634 84.7788 57.1842C84.7574 57.0302 84.7283 56.8717 84.6962 56.7147C84.6824 56.6444 84.6717 56.5741 84.6563 56.5024C84.638 56.4231 84.6165 56.3424 84.5966 56.2616C84.566 56.136 84.5338 56.0104 84.4971 55.8848C84.4787 55.822 84.4573 55.7592 84.4374 55.6964C84.3945 55.5574 84.3486 55.4168 84.298 55.2778C84.2766 55.2195 84.2552 55.1597 84.2337 55.1013C84.1694 54.9324 84.102 54.7634 84.0285 54.5945C84.0178 54.5705 84.0086 54.5451 83.9979 54.5212C83.9137 54.3298 83.8203 54.1369 83.7238 53.9455C83.7009 53.8992 83.6748 53.8514 83.6503 53.805C83.5508 53.6136 83.4467 53.4237 83.3349 53.2338C83.2185 53.038 83.0976 52.8481 82.9735 52.6627C82.9399 52.6118 82.9046 52.5625 82.8709 52.5131C82.7806 52.3816 82.6872 52.253 82.5938 52.1274C82.5494 52.0676 82.505 52.0078 82.4606 51.9494C82.3764 51.8418 82.2906 51.7371 82.2033 51.634C82.1421 51.5607 82.0823 51.4874 82.0211 51.4171C81.9629 51.3514 81.9032 51.2886 81.8435 51.2258C81.7256 51.0972 81.6061 50.9716 81.4852 50.852C81.4331 50.7996 81.3795 50.7503 81.326 50.6994C81.0764 50.4632 80.8207 50.2419 80.5619 50.0445C80.5267 50.0176 80.4914 49.9952 80.4577 49.9683C80.1852 49.7664 79.9096 49.5795 79.634 49.424C79.4135 49.2999 79.193 49.1968 78.974 49.1041C78.9112 49.0771 78.85 49.0532 78.7887 49.0293C78.6586 48.9799 78.5284 48.9366 78.3998 48.8992C78.3355 48.8798 78.2696 48.8588 78.2053 48.8424C78.1334 48.8244 78.0614 48.811 77.9894 48.7975C77.9006 48.7796 77.8118 48.7631 77.7245 48.7527C77.6725 48.7467 77.6204 48.7422 77.5684 48.7377C77.4673 48.7288 77.3693 48.7243 77.2713 48.7243C77.23 48.7243 77.1901 48.7243 77.1488 48.7258C77.0141 48.7317 76.8824 48.7422 76.7537 48.7646C76.7415 48.7661 76.7308 48.7706 76.7201 48.7721C76.6006 48.7945 76.4858 48.8259 76.3725 48.8618C76.3418 48.8723 76.3112 48.8828 76.2821 48.8932C76.1596 48.9381 76.0387 48.9904 75.9238 49.0532L78.1303 47.8002C78.1334 47.7987 78.138 47.7957 78.141 47.7942C78.2268 47.7464 78.3156 47.7045 78.4059 47.6687C78.4335 47.6582 78.461 47.6507 78.4886 47.6402C78.5192 47.6283 78.5498 47.6193 78.5805 47.6088C78.6141 47.5984 78.6479 47.5834 78.6815 47.5745C78.7627 47.552 78.8438 47.5341 78.9281 47.5191C78.9403 47.5176 78.951 47.5131 78.9633 47.5116C78.9663 47.5116 78.9709 47.5102 78.974 47.5087C79.0766 47.4907 79.1807 47.4788 79.2864 47.4728C79.3093 47.4713 79.3338 47.4728 79.3568 47.4728C79.3981 47.4713 79.438 47.4713 79.4793 47.4713C79.5298 47.4713 79.5788 47.4683 79.6294 47.4698C79.6768 47.4713 79.7273 47.4803 79.7748 47.4832C79.8269 47.4877 79.8789 47.4922 79.9325 47.4982C79.9616 47.5012 79.9892 47.5027 80.0183 47.5072C80.0765 47.5161 80.1362 47.5326 80.1959 47.5445C80.2679 47.558 80.3398 47.5715 80.4133 47.5894C80.4363 47.5954 80.4578 47.5969 80.4807 47.6029C80.5221 47.6133 80.5634 47.6328 80.6047 47.6447C80.7333 47.6821 80.8635 47.7255 80.9952 47.7748C81.0289 47.7883 81.0626 47.7957 81.0978 47.8092C81.1254 47.8197 81.1529 47.8376 81.1805 47.8496C81.3994 47.9423 81.6199 48.0454 81.8404 48.1695C82.116 48.325 82.3917 48.5105 82.6642 48.7123C82.6995 48.7377 82.7347 48.7617 82.7699 48.7886C83.0287 48.9859 83.2828 49.2072 83.534 49.4435C83.5585 49.4659 83.5845 49.4838 83.6074 49.5063C83.6365 49.5347 83.6641 49.5661 83.6917 49.5945C83.8126 49.7141 83.932 49.8397 84.05 49.9668C84.0913 50.0116 84.1342 50.052 84.1755 50.0984C84.1939 50.1178 84.2108 50.1402 84.2276 50.1612C84.2888 50.2314 84.3486 50.3047 84.4098 50.378C84.4711 50.4512 84.5323 50.52 84.592 50.5948C84.6165 50.6262 84.641 50.6606 84.6655 50.692C84.7114 50.7518 84.7559 50.8116 84.8018 50.8714C84.8477 50.9312 84.8937 50.9895 84.9381 51.0523C84.9855 51.1181 85.0315 51.1884 85.0774 51.2557C85.1126 51.3065 85.1463 51.3558 85.18 51.4067C85.1999 51.4366 85.2198 51.4635 85.2397 51.4934C85.3331 51.6354 85.4235 51.7805 85.5123 51.9285C85.5215 51.945 85.5322 51.9614 85.5414 51.9778C85.618 52.1064 85.6899 52.235 85.7603 52.3651C85.794 52.4264 85.8231 52.4877 85.8553 52.549C85.8798 52.5969 85.9043 52.6432 85.9288 52.6911C85.9471 52.7284 85.9686 52.7643 85.987 52.8017C86.0605 52.9497 86.1293 53.0978 86.1952 53.2443C86.1982 53.2518 86.2013 53.2592 86.2044 53.2652C86.2151 53.2891 86.2243 53.3146 86.235 53.3385C86.2871 53.4596 86.3391 53.5792 86.3866 53.7003C86.405 53.7482 86.4218 53.796 86.4402 53.8454C86.4632 53.9052 86.4846 53.9635 86.506 54.0233C86.5244 54.0756 86.5459 54.128 86.5642 54.1818C86.5933 54.2685 86.6178 54.3552 86.6454 54.4419C86.6653 54.5047 86.6867 54.5675 86.7036 54.6303C86.7112 54.6543 86.7189 54.6782 86.7265 54.7021C86.7556 54.8038 86.7771 54.904 86.8031 55.0056C86.823 55.0864 86.846 55.1686 86.8643 55.2494C86.8674 55.2643 86.872 55.2793 86.8751 55.2942C86.8873 55.3496 86.8934 55.4034 86.9042 55.4587C86.9363 55.6172 86.9654 55.7742 86.9868 55.9297C86.9914 55.9566 86.9975 55.985 87.0021 56.0134C87.0083 56.0657 87.0098 56.1151 87.0159 56.1659C87.0328 56.314 87.045 56.4605 87.0542 56.604C87.0588 56.6848 87.0619 56.7625 87.0634 56.8418C87.0649 56.9853 87.0619 57.1244 87.0557 57.2619Z" fill="#D7A65B"/>
<path d="M83.352 61.5562C82.3261 62.1304 80.9832 61.948 79.6419 61.1914C78.3006 60.4348 76.9607 59.1041 75.9409 57.3771C73.8983 53.9276 73.909 50.2061 75.9655 49.0607C76.9914 48.4896 78.3342 48.6735 79.6756 49.4301C81.0169 50.1866 82.3567 51.5159 83.3765 53.2399C85.4192 56.6953 85.4084 60.4184 83.352 61.5562Z" fill="url(#paint9_linear_65_18548)"/>
<path d="M75.8288 49.2431C76.8547 48.6719 78.1976 48.8558 79.539 49.6124C80.8803 50.369 82.2201 51.6982 83.2399 53.4222C84.9258 56.2751 85.2121 59.3088 84.1035 60.9207C85.3683 59.3627 85.1279 56.2048 83.3762 53.2413C82.3579 51.5188 81.0181 50.1881 79.6753 49.4315C78.3339 48.6749 76.9895 48.4925 75.9651 49.0622C75.6068 49.261 75.3128 49.5391 75.0801 49.88C75.2883 49.6214 75.5379 49.4061 75.8288 49.2431Z" fill="url(#paint10_linear_65_18548)"/>
<path d="M78.0003 53.3744L78.8976 52.866L76.5702 51.933L75.6729 52.4428L78.0003 53.3744Z" fill="#D7A65B"/>
<path d="M81.1077 59.9549L82.005 59.4451L81.6145 56.6206L80.7188 57.1305L81.1077 59.9549Z" fill="#DCB274"/>
<path d="M80.0824 54.5466L80.9797 54.0382L79.9461 51.0867L79.0488 51.5965L80.0824 54.5466Z" fill="#DCB274"/>
<path d="M82.4064 56.2392L83.3037 55.7293L80.9793 54.0382L80.082 54.5466L82.4064 56.2392Z" fill="#D7A65B"/>
<path d="M79.0477 51.5966L78.0003 53.3744L75.6729 52.4428L77.3511 55.2314L76.9468 57.6088L79.0308 57.5535L81.1071 59.9548L80.7182 57.1303L82.4056 56.2392L80.0812 54.5466L79.0477 51.5966Z" fill="url(#paint11_linear_65_18548)"/>
<path d="M77.9391 53.4297L77.9773 53.3654L75.6729 52.4429L75.7357 52.5475L77.9391 53.4297Z" fill="url(#paint12_linear_65_18548)"/>
<path d="M80.019 54.6019L82.3265 56.2796L82.4046 56.2392L80.0802 54.5466L79.0466 51.5966L78.9961 51.6818L80.019 54.6019Z" fill="url(#paint13_linear_65_18548)"/>
<path d="M80.6572 57.1842L81.0262 59.8606L81.1074 59.9548L80.72 57.1512L80.6572 57.1842Z" fill="url(#paint14_linear_65_18548)"/>
<defs>
<linearGradient id="paint0_linear_65_18548" x1="70.1044" y1="57.0474" x2="29.931" y2="88.1441" gradientUnits="userSpaceOnUse">
<stop stop-color="#2B2E3D"/>
<stop offset="1" stop-color="#525575"/>
</linearGradient>
<linearGradient id="paint1_linear_65_18548" x1="87.6873" y1="15.3432" x2="70.6389" y2="37.8602" gradientUnits="userSpaceOnUse">
<stop stop-color="#57BDB2"/>
<stop offset="1" stop-color="#6EE3CC"/>
</linearGradient>
<linearGradient id="paint2_linear_65_18548" x1="85.8978" y1="17.8676" x2="59.1828" y2="53.1519" gradientUnits="userSpaceOnUse">
<stop stop-color="white"/>
<stop offset="1" stop-color="#E9E9E9"/>
</linearGradient>
<linearGradient id="paint3_linear_65_18548" x1="63.5413" y1="15.6515" x2="80.3502" y2="15.6515" gradientUnits="userSpaceOnUse">
<stop stop-color="#FFAC06"/>
<stop offset="0.9952" stop-color="#FA8A13"/>
</linearGradient>
<linearGradient id="paint4_linear_65_18548" x1="63.5413" y1="36.8168" x2="80.3502" y2="36.8168" gradientUnits="userSpaceOnUse">
<stop stop-color="#FFAC06"/>
<stop offset="0.9952" stop-color="#FA8A13"/>
</linearGradient>
<linearGradient id="paint5_linear_65_18548" x1="91.1041" y1="76.7345" x2="82.9641" y2="58.7647" gradientUnits="userSpaceOnUse">
<stop stop-color="#FFAC06"/>
<stop offset="1" stop-color="#F46022"/>
</linearGradient>
<linearGradient id="paint6_linear_65_18548" x1="80.6867" y1="63.4753" x2="91.8357" y2="63.4753" gradientUnits="userSpaceOnUse">
<stop stop-color="#FFF1D3"/>
<stop offset="1" stop-color="#FFDC96"/>
</linearGradient>
<linearGradient id="paint7_linear_65_18548" x1="77.1163" y1="66.0448" x2="71.5475" y2="58.8178" gradientUnits="userSpaceOnUse">
<stop stop-color="#FFAC06"/>
<stop offset="1" stop-color="#F46022"/>
</linearGradient>
<linearGradient id="paint8_linear_65_18548" x1="80.7462" y1="64.6074" x2="69.617" y2="64.6074" gradientUnits="userSpaceOnUse">
<stop stop-color="#FFF1D3"/>
<stop offset="1" stop-color="#FFDC96"/>
</linearGradient>
<linearGradient id="paint9_linear_65_18548" x1="77.372" y1="58.4577" x2="82.955" y2="50.3993" gradientUnits="userSpaceOnUse">
<stop stop-color="#DCB274"/>
<stop offset="1" stop-color="#FFDC96"/>
</linearGradient>
<linearGradient id="paint10_linear_65_18548" x1="83.4654" y1="59.2496" x2="77.4191" y2="47.7338" gradientUnits="userSpaceOnUse">
<stop stop-color="#FFDF9F"/>
<stop offset="1" stop-color="#FFDC96"/>
</linearGradient>
<linearGradient id="paint11_linear_65_18548" x1="75.6731" y1="55.7751" x2="82.4061" y2="55.7751" gradientUnits="userSpaceOnUse">
<stop stop-color="#FFF1D3"/>
<stop offset="1" stop-color="#FFDC96"/>
</linearGradient>
<linearGradient id="paint12_linear_65_18548" x1="75.6731" y1="52.9359" x2="77.9773" y2="52.9359" gradientUnits="userSpaceOnUse">
<stop stop-color="#FFF1D3"/>
<stop offset="1" stop-color="white"/>
</linearGradient>
<linearGradient id="paint13_linear_65_18548" x1="78.9963" y1="53.9382" x2="82.4051" y2="53.9382" gradientUnits="userSpaceOnUse">
<stop stop-color="#FFF1D3"/>
<stop offset="1" stop-color="white"/>
</linearGradient>
<linearGradient id="paint14_linear_65_18548" x1="80.6568" y1="58.5525" x2="81.1079" y2="58.5525" gradientUnits="userSpaceOnUse">
<stop stop-color="#FFF1D3"/>
<stop offset="1" stop-color="white"/>
</linearGradient>
</defs>
</svg>
