<svg width="58" height="68" viewBox="0 0 58 68" fill="none" xmlns="http://www.w3.org/2000/svg">
<path d="M2.96569 15.2615L25.9657 1.77874C27.8395 0.680321 30.1606 0.680322 32.0343 1.77874L55.0343 15.2615C56.8714 16.3384 58 18.3083 58 20.4377V47.5623C58 49.6917 56.8714 51.6616 55.0343 52.7385L32.0343 66.2213C30.1605 67.3197 27.8395 67.3197 25.9657 66.2213L2.96568 52.7385C1.12864 51.6616 0 49.6917 0 47.5623V20.4377C0 18.3083 1.12864 16.3384 2.96569 15.2615Z" fill="#22438C"/>
<path d="M36.5347 40.2003H33.8408C33.2432 40.2003 32.6731 40.4934 32.3329 40.9788L30.4482 43.6714C29.7126 44.7246 28.1404 44.7155 27.4233 43.6531L25.6212 41.0063C25.2811 40.5026 24.711 40.2003 24.1042 40.2003H21.4563C18.0453 40.2003 15.2778 42.9571 15.2778 46.3549V49.0841C15.2778 49.5878 15.6916 50 16.1972 50H41.8121C42.3178 50 42.7315 49.5878 42.7315 49.0841V46.3549C42.7131 42.9571 39.9457 40.2003 36.5347 40.2003ZM28.9863 37.9107C33.1696 37.9107 36.5623 34.5312 36.5623 30.364C36.5623 26.1969 33.1696 22.8174 28.9863 22.8174C24.803 22.8174 21.4103 26.1969 21.4103 30.364C21.4103 34.5312 24.803 37.9107 28.9863 37.9107Z" fill="#F9FBFE"/>
</svg>
