<svg width="306" height="266" viewBox="0 0 306 266" fill="none" xmlns="http://www.w3.org/2000/svg">
<g style="mix-blend-mode:soft-light" opacity="0.6">
<path d="M257.066 61.5769L245.109 65.9287L275.214 148.641L287.171 144.289L257.066 61.5769Z" fill="#FCFCFC"/>
<path d="M251.666 54.4586L250.405 54.9175L250.474 57.5084L248.901 55.4652L247.437 55.9981L247.45 57.5534L246.42 56.3681L245.037 56.8714L244.854 54.5974L244.664 52.5555C244.561 52.2718 244.72 52.0763 244.923 52.0023L248.665 50.6405C248.868 50.5664 248.909 50.5516 249.178 50.9124L250.345 52.599L251.666 54.4586Z" fill="#FCFCFC"/>
<path d="M257.117 61.4724L245.16 65.8242L244.752 54.4533L244.837 54.5601L246.403 56.331L247.434 57.5161L247.42 55.9609L247.436 53.4764L248.884 55.4279L250.457 57.4713L250.388 54.8804L250.327 52.562L250.324 52.4255L257.117 61.4724Z" fill="#E0E7EB"/>
<path d="M178.68 52.7695L228.83 190.555L255.183 180.964L205.033 43.1777L178.68 52.7695ZM190.929 61.1155C189.961 61.4556 188.899 61.4018 187.973 60.9656C187.047 60.5294 186.331 59.7462 185.982 58.7858C185.803 58.3107 185.72 57.8046 185.738 57.297C185.757 56.7894 185.876 56.2904 186.089 55.8286C186.303 55.3669 186.606 54.9517 186.98 54.6072C187.355 54.2626 187.795 53.9953 188.274 53.821C188.755 53.6334 189.27 53.5442 189.786 53.5589C190.302 53.5735 190.81 53.6917 191.279 53.9063C191.749 54.121 192.17 54.4277 192.517 54.8082C192.865 55.1888 193.132 55.6354 193.302 56.1214C193.481 56.6107 193.558 57.1308 193.531 57.6511C193.503 58.1715 193.371 58.6813 193.142 59.15C192.913 59.6188 192.592 60.037 192.197 60.3798C191.803 60.7226 191.344 60.9828 190.847 61.1452L190.929 61.1155Z" fill="#FCFCFC"/>
<g style="mix-blend-mode:multiply">
<path d="M207.329 49.3223L198.301 52.6084L199.436 55.7287L208.465 52.4426L207.329 49.3223Z" fill="#E0E7EB"/>
</g>
<g style="mix-blend-mode:multiply">
<path d="M203.402 60.8499L210.559 58.2447L209.675 55.8133L202.543 58.3631L203.402 60.8499Z" fill="#E0E7EB"/>
</g>
<g style="mix-blend-mode:multiply">
<path d="M211.907 61.9485L204.749 64.5537L205.649 67.0257L212.807 64.4205L211.907 61.9485Z" fill="#E0E7EB"/>
</g>
<g style="mix-blend-mode:multiply">
<path d="M214.157 68.1272L206.999 70.7324L207.899 73.2044L215.057 70.5992L214.157 68.1272Z" fill="#E0E7EB"/>
</g>
<g style="mix-blend-mode:multiply">
<path d="M216.301 73.8974L207.231 77.1982L208.367 80.3188L217.436 77.0179L216.301 73.8974Z" fill="#E0E7EB"/>
</g>
<g style="mix-blend-mode:multiply">
<path d="M212.401 85.5735L219.558 82.9683L218.659 80.4963L211.501 83.1016L212.401 85.5735Z" fill="#E0E7EB"/>
</g>
<g style="mix-blend-mode:multiply">
<path d="M213.71 89.5395L214.606 92.0127L221.727 89.431L220.83 86.9577L213.71 89.5395Z" fill="#E0E7EB"/>
</g>
<g style="mix-blend-mode:multiply">
<path d="M223.11 92.8549L215.993 95.4453L216.893 97.9173L224.01 95.3269L223.11 92.8549Z" fill="#E0E7EB"/>
</g>
<g style="mix-blend-mode:multiply">
<path d="M225.298 98.6161L216.229 101.917L217.364 105.038L226.433 101.737L225.298 98.6161Z" fill="#E0E7EB"/>
</g>
<g style="mix-blend-mode:multiply">
<path d="M221.352 110.169L228.469 107.579L227.569 105.107L220.452 107.697L221.352 110.169Z" fill="#E0E7EB"/>
</g>
<g style="mix-blend-mode:multiply">
<path d="M229.855 111.262L222.697 113.867L223.597 116.339L230.755 113.734L229.855 111.262Z" fill="#E0E7EB"/>
</g>
<g style="mix-blend-mode:multiply">
<path d="M225.89 116.193L226.79 118.665L233.907 116.075L233.007 113.603L225.89 116.193Z" fill="#E0E7EB"/>
</g>
<g style="mix-blend-mode:multiply">
<path d="M234.222 123.264L225.193 126.55L226.329 129.67L235.357 126.384L234.222 123.264Z" fill="#E0E7EB"/>
</g>
<g style="mix-blend-mode:multiply">
<path d="M236.537 129.801L229.42 132.392L230.32 134.864L237.437 132.273L236.537 129.801Z" fill="#E0E7EB"/>
</g>
<g style="mix-blend-mode:multiply">
<path d="M238.808 135.917L231.65 138.522L232.55 140.994L239.708 138.389L238.808 135.917Z" fill="#E0E7EB"/>
</g>
<g style="mix-blend-mode:multiply">
<path d="M234.784 147.138L241.942 144.533L241.043 142.061L233.885 144.666L234.784 147.138Z" fill="#E0E7EB"/>
</g>
<g style="mix-blend-mode:multiply">
<path d="M243.179 147.917L234.15 151.203L235.286 154.324L244.315 151.038L243.179 147.917Z" fill="#E0E7EB"/>
</g>
<g style="mix-blend-mode:multiply">
<path d="M252.178 172.516L243.108 175.817L244.244 178.938L253.313 175.637L252.178 172.516Z" fill="#E0E7EB"/>
</g>
<g style="mix-blend-mode:multiply">
<path d="M245.532 154.394L238.374 156.999L239.274 159.471L246.432 156.866L245.532 154.394Z" fill="#E0E7EB"/>
</g>
<g style="mix-blend-mode:multiply">
<path d="M247.732 160.566L240.615 163.156L241.515 165.628L248.632 163.038L247.732 160.566Z" fill="#E0E7EB"/>
</g>
<g style="mix-blend-mode:multiply">
<path d="M249.975 166.731L242.858 169.321L243.758 171.793L250.875 169.203L249.975 166.731Z" fill="#E0E7EB"/>
</g>
<path fill-rule="evenodd" clip-rule="evenodd" d="M8.78418 82.8027L156.86 28.9076L227.542 223.105L79.4662 277L8.78418 82.8027ZM64.5039 106.228L131.323 81.9074L149.952 133.091L83.1332 157.411L64.5039 106.228Z" fill="#FCFCFC"/>
<path d="M23.3729 89.096C23.6037 89.7302 23.5722 90.4303 23.2854 91.0425C22.9986 91.6547 22.48 92.1286 21.8436 92.3602L6.99945 97.7631C6.36307 97.9947 5.66091 97.9651 5.04772 97.6804C4.43453 97.3958 3.96047 96.8797 3.72966 96.2456V96.2456C3.51051 95.6109 3.54751 94.9155 3.83286 94.3063C4.11821 93.6972 4.62964 93.222 5.25896 92.9811L20.1031 87.5783C20.7401 87.3583 21.4372 87.3936 22.0473 87.6768C22.6574 87.96 23.1328 88.469 23.3729 89.096V89.096Z" fill="#E0E7EB"/>
<path d="M28.6512 103.6C28.882 104.234 28.8505 104.934 28.5637 105.546C28.2769 106.159 27.7584 106.633 27.122 106.864L12.2779 112.267C11.6415 112.499 10.9392 112.469 10.326 112.184C9.71285 111.9 9.23879 111.384 9.00798 110.749V110.749C8.78883 110.115 8.82583 109.419 9.11118 108.81C9.39653 108.201 9.90796 107.726 10.5373 107.485L25.3815 102.082C26.0184 101.862 26.7155 101.898 27.3256 102.181C27.9358 102.464 28.4111 102.973 28.6512 103.6Z" fill="#E0E7EB"/>
<path d="M33.9802 118.24C34.211 118.874 34.1796 119.575 33.8928 120.187C33.606 120.799 33.0874 121.273 32.4511 121.505L17.6069 126.908C16.9705 127.139 16.2683 127.11 15.6551 126.825C15.042 126.54 14.5678 126.024 14.337 125.39V125.39C14.1178 124.755 14.1549 124.06 14.4403 123.451C14.7256 122.842 15.2371 122.367 15.8664 122.126L30.7106 116.723C31.3475 116.503 32.0446 116.538 32.6547 116.821C33.2649 117.105 33.7401 117.613 33.9802 118.24Z" fill="#E0E7EB"/>
<path d="M39.2557 132.734C39.4865 133.368 39.455 134.068 39.1682 134.68C38.8814 135.292 38.3629 135.767 37.7265 135.998L22.8824 141.401C22.246 141.633 21.5437 141.603 20.9305 141.318C20.3173 141.034 19.8433 140.517 19.6125 139.883V139.883C19.3933 139.249 19.4303 138.553 19.7157 137.944C20.001 137.335 20.5125 136.86 21.1418 136.619L35.986 131.216C36.6229 130.996 37.32 131.031 37.9301 131.315C38.5403 131.598 39.0156 132.107 39.2557 132.734V132.734Z" fill="#E0E7EB"/>
<path d="M44.5877 147.38C44.7019 147.694 44.753 148.027 44.738 148.361C44.723 148.695 44.6422 149.024 44.5002 149.327C44.3582 149.63 44.1578 149.902 43.9104 150.128C43.663 150.354 43.3736 150.53 43.0585 150.644L28.2143 156.047C27.8992 156.162 27.5647 156.214 27.2299 156.199C26.895 156.185 26.5662 156.106 26.2626 155.965C25.9589 155.824 25.6863 155.624 25.4601 155.378C25.234 155.132 25.0587 154.844 24.9444 154.53V154.53C24.7253 153.895 24.7624 153.2 25.0477 152.591C25.3331 151.981 25.8445 151.506 26.4738 151.265L41.318 145.862C41.9549 145.642 42.652 145.678 43.2622 145.961C43.8723 146.244 44.3476 146.753 44.5877 147.38V147.38Z" fill="#E0E7EB"/>
<path d="M49.9296 162.059C50.1487 162.694 50.1117 163.389 49.8264 163.998C49.541 164.608 49.0297 165.083 48.4004 165.324L33.5562 170.726C32.9193 170.946 32.222 170.911 31.6119 170.628C31.0018 170.345 30.5264 169.836 30.2863 169.209V169.209C30.0541 168.571 30.0827 167.867 30.366 167.249C30.6493 166.631 31.1647 166.148 31.801 165.904L46.6451 160.501C47.2891 160.279 47.9944 160.318 48.6088 160.609C49.2232 160.901 49.6975 161.421 49.9296 162.059V162.059Z" fill="#E0E7EB"/>
<path d="M55.2275 176.617C55.4467 177.252 55.4097 177.947 55.1243 178.556C54.839 179.165 54.3276 179.64 53.6982 179.881L38.8541 185.284C38.2171 185.504 37.52 185.469 36.9099 185.186C36.2997 184.903 35.8244 184.394 35.5843 183.767V183.767C35.352 183.129 35.3806 182.425 35.6639 181.807C35.9472 181.188 36.4626 180.705 37.0988 180.462L51.943 175.059C52.587 174.836 53.2922 174.875 53.9066 175.167C54.521 175.458 54.9954 175.979 55.2275 176.617V176.617Z" fill="#E0E7EB"/>
<path d="M60.5359 191.2C60.755 191.835 60.7181 192.53 60.4327 193.14C60.1473 193.749 59.636 194.224 59.0067 194.465L44.1625 199.868C43.5256 200.088 42.8284 200.052 42.2182 199.769C41.6081 199.486 41.1327 198.977 40.8927 198.35V198.35C40.6619 197.716 40.6933 197.016 40.9801 196.403C41.2668 195.791 41.7857 195.317 42.422 195.086L57.2662 189.683C57.9026 189.451 58.6045 189.481 59.2177 189.765C59.8309 190.05 60.3051 190.566 60.5359 191.2V191.2Z" fill="#E0E7EB"/>
<path d="M65.8163 205.706C66.0354 206.341 65.9984 207.037 65.7131 207.646C65.4277 208.255 64.9164 208.73 64.2871 208.971L49.4429 214.374C48.806 214.594 48.1087 214.558 47.4986 214.275C46.8885 213.992 46.4131 213.483 46.173 212.856V212.856C45.9422 212.222 45.9736 211.522 46.2604 210.91C46.5472 210.297 47.0659 209.823 47.7023 209.591L62.5465 204.189C63.1829 203.957 63.8849 203.987 64.4981 204.272C65.1113 204.556 65.5855 205.072 65.8163 205.706V205.706Z" fill="#E0E7EB"/>
<path d="M71.1511 220.368C71.3703 221.003 71.3333 221.698 71.0479 222.308C70.7626 222.917 70.2513 223.392 69.622 223.633L54.7778 229.036C54.1409 229.256 53.4436 229.22 52.8335 228.937C52.2233 228.654 51.748 228.145 51.5079 227.518V227.518C51.2771 226.884 51.3085 226.184 51.5953 225.571C51.8821 224.959 52.4009 224.485 53.0373 224.254L67.8815 218.851C68.5179 218.619 69.2198 218.649 69.8329 218.933C70.4461 219.218 70.9203 219.734 71.1511 220.368V220.368Z" fill="#E0E7EB"/>
<path d="M76.4656 234.965C76.6847 235.6 76.6477 236.295 76.3624 236.904C76.077 237.513 75.5657 237.989 74.9364 238.229L60.0922 243.632C59.4553 243.852 58.7581 243.817 58.1479 243.534C57.5378 243.251 57.0624 242.742 56.8223 242.114V242.114C56.5915 241.48 56.623 240.78 56.9097 240.168C57.1965 239.556 57.7154 239.082 58.3517 238.85L73.1959 233.447C73.8323 233.216 74.5342 233.246 75.1474 233.53C75.7606 233.815 76.2348 234.331 76.4656 234.965V234.965Z" fill="#E0E7EB"/>
<path d="M81.7782 249.562C81.9973 250.197 81.9603 250.892 81.675 251.501C81.3896 252.11 80.8782 252.585 80.2489 252.826L65.4047 258.229C64.7678 258.449 64.0706 258.414 63.4605 258.131C62.8504 257.847 62.375 257.338 62.1349 256.711V256.711C61.9041 256.077 61.9355 255.377 62.2223 254.765C62.5091 254.153 63.0279 253.679 63.6642 253.447L78.5084 248.044C79.1448 247.812 79.8468 247.842 80.46 248.127C81.0732 248.412 81.5474 248.928 81.7782 249.562V249.562Z" fill="#E0E7EB"/>
<path d="M87.0808 264.133C87.3 264.768 87.263 265.463 86.9776 266.072C86.6923 266.681 86.181 267.156 85.5516 267.397L70.7075 272.8C70.0705 273.02 69.3733 272.985 68.7632 272.702C68.153 272.418 67.6777 271.91 67.4376 271.282V271.282C67.2068 270.648 67.2382 269.948 67.525 269.336C67.8118 268.724 68.3306 268.25 68.967 268.018L83.8112 262.615C84.4475 262.384 85.1494 262.413 85.7626 262.698C86.3758 262.983 86.85 263.499 87.0808 264.133V264.133Z" fill="#E0E7EB"/>
<path d="M266.093 162.785C266.295 162.545 266.428 162.255 266.478 161.946C266.528 161.636 266.492 161.32 266.375 161.029C266.3 160.806 266.181 160.6 266.024 160.423C265.868 160.246 265.677 160.103 265.464 160.001C265.251 159.899 265.02 159.84 264.783 159.829C264.547 159.818 264.311 159.853 264.088 159.934C263.635 160.099 263.266 160.437 263.062 160.872C262.858 161.308 262.835 161.807 263 162.258C263.108 162.549 263.288 162.808 263.523 163.011C263.758 163.214 264.04 163.355 264.344 163.421L267.53 172.174L258.351 160.875C258.741 160.467 259.036 159.98 259.216 159.446C259.396 158.913 259.456 158.347 259.392 157.788C259.326 156.593 259.069 155.416 258.63 154.303L264.527 152.156C264.927 153.283 265.485 154.346 266.184 155.316C266.509 155.779 266.928 156.168 267.414 156.458C267.901 156.747 268.443 156.931 269.006 156.997L269.238 171.553L266.093 162.785Z" fill="#E0E7EB"/>
<path d="M233.257 53.8218L219.266 58.9141L239.945 115.731L253.936 110.638L233.257 53.8218Z" fill="#FCFCFC"/>
<path d="M257.773 158.382L267.819 154.726L255.497 114.923L241.506 120.016L257.773 158.382Z" fill="#FCFCFC"/>
<path d="M253.932 110.627L239.941 115.72L241.52 120.056L255.511 114.964L253.932 110.627Z" fill="#FCFCFC"/>
<path d="M231.691 49.5181L217.7 54.6104L219.278 58.9466L233.269 53.8543L231.691 49.5181Z" fill="#FCFCFC"/>
<path d="M217.485 54.626L231.476 49.534C230.789 47.6817 229.398 46.1757 227.603 45.3426C225.808 44.5095 223.755 44.4167 221.888 45.084C220.971 45.4237 220.13 45.94 219.413 46.6033C218.696 47.2667 218.116 48.0642 217.707 48.9502C217.298 49.8363 217.068 50.7934 217.03 51.7672C216.992 52.7411 217.147 53.7126 217.485 54.626V54.626Z" fill="#FCFCFC"/>
<path d="M238.227 87.691C238.333 87.9997 238.5 88.2841 238.718 88.5275C238.935 88.7709 239.2 88.9686 239.495 89.1089C239.791 89.2491 240.111 89.3291 240.438 89.3443C240.765 89.3596 241.092 89.3099 241.4 89.1978V89.1978C242.026 88.9701 242.536 88.5039 242.818 87.9021C243.1 87.3003 243.13 86.6122 242.904 85.9888L231.62 54.9869C231.508 54.68 231.336 54.3986 231.114 54.159C230.892 53.9194 230.625 53.7265 230.327 53.5914C230.029 53.4563 229.707 53.3818 229.38 53.3722C229.052 53.3626 228.726 53.418 228.42 53.5354C228.112 53.6413 227.829 53.808 227.587 54.0254C227.344 54.2428 227.149 54.5065 227.011 54.8008C226.873 55.0952 226.796 55.4141 226.784 55.7385C226.772 56.063 226.826 56.3863 226.943 56.6891L238.227 87.691Z" fill="#E0E7EB"/>
<g style="mix-blend-mode:multiply">
<path d="M222.165 44.9841L264.01 159.954C263.786 160.036 263.58 160.161 263.404 160.322C263.228 160.483 263.085 160.677 262.984 160.892C262.883 161.108 262.825 161.342 262.815 161.579C262.804 161.817 262.84 162.054 262.922 162.278C263.03 162.569 263.21 162.828 263.445 163.031C263.68 163.234 263.962 163.375 264.266 163.441L267.452 172.194L258.314 160.88C258.703 160.473 258.999 159.985 259.179 159.452C259.358 158.918 259.419 158.352 259.355 157.793L257.769 158.371L241.517 120.045L217.681 54.5557C217.016 52.6957 217.114 50.6476 217.953 48.8557C218.793 47.0638 220.306 45.6727 222.165 44.9841Z" fill="#F6F8F9"/>
</g>
</g>
</svg>
