<svg width="25" height="25" viewBox="0 0 25 25" fill="none" xmlns="http://www.w3.org/2000/svg">
<path fill-rule="evenodd" clip-rule="evenodd" d="M12.5001 7.91654C11.5309 7.91654 10.7423 8.68769 10.7423 9.63529C10.7423 10.5829 11.5309 11.354 12.5001 11.354C13.4692 11.354 14.2579 10.5829 14.2579 9.63529C14.2579 8.68769 13.4692 7.91654 12.5001 7.91654ZM12.5 13.6456C10.2383 13.6456 8.39844 11.8467 8.39844 9.63521C8.39844 7.42376 10.2383 5.6248 12.5 5.6248C14.7617 5.6248 16.6016 7.42376 16.6016 9.63521C16.6016 11.8467 14.7617 13.6456 12.5 13.6456ZM12.5 1.0415C7.33086 1.0415 3.125 5.1138 3.125 10.1199C3.125 16.3922 11.3855 23.3875 11.7371 23.682C11.9574 23.8665 12.2281 23.9582 12.5 23.9582C12.7719 23.9582 13.0426 23.8665 13.2629 23.682C13.6145 23.3875 21.875 16.3922 21.875 10.1199C21.875 5.1138 17.6691 1.0415 12.5 1.0415Z" fill="#1A71CA"/>
</svg>
