<svg width="16" height="13" viewBox="0 0 16 13" fill="none" xmlns="http://www.w3.org/2000/svg">
<path fill-rule="evenodd" clip-rule="evenodd" d="M4.41455 1.5C3.76655 1.5 3.15905 1.7505 2.70455 2.20575C1.76105 3.15075 1.76105 4.689 2.7053 5.6355L7.99955 10.9387L13.2945 5.6355C14.2388 4.689 14.2388 3.15075 13.2945 2.20575C12.3855 1.2945 10.7835 1.296 9.87455 2.20575L8.53055 3.552C8.24855 3.83475 7.75055 3.83475 7.46855 3.552L6.12455 2.205C5.67005 1.7505 5.0633 1.5 4.41455 1.5ZM7.99955 12.75C7.8008 12.75 7.60955 12.6712 7.4693 12.5295L1.6433 6.6945C0.116297 5.1645 0.116297 2.67525 1.6433 1.14525C2.3813 0.40725 3.3653 0 4.41455 0C5.4638 0 6.44855 0.40725 7.1858 1.14525L7.99955 1.9605L8.8133 1.146C9.5513 0.40725 10.5353 0 11.5853 0C12.6338 0 13.6185 0.40725 14.3558 1.14525C15.8835 2.67525 15.8835 5.1645 14.3565 6.6945L8.53055 12.5303C8.38955 12.6713 8.19905 12.75 7.99955 12.75Z" fill="#F9FBFE"/>
</svg>
