<svg width="16" height="16" viewBox="0 0 16 16" fill="none" xmlns="http://www.w3.org/2000/svg">
<g clip-path="url(#clip0_2531_8568)">
<path d="M14.4833 0.917422C14.0584 0.49317 13.4825 0.254883 12.8821 0.254883C12.2816 0.254883 11.7057 0.49317 11.2808 0.917422L1.11583 11.0824C0.824737 11.3719 0.593931 11.7162 0.436766 12.0954C0.279601 12.4747 0.199197 12.8813 0.200205 13.2918V14.5749C0.200205 14.7407 0.266053 14.8997 0.383263 15.0169C0.500473 15.1341 0.659444 15.1999 0.825205 15.1999H2.10833C2.51881 15.2011 2.92544 15.1208 3.30468 14.9637C3.68392 14.8067 4.02824 14.576 4.3177 14.2849L14.4833 4.1193C14.9074 3.69442 15.1456 3.11865 15.1456 2.51836C15.1456 1.91807 14.9074 1.3423 14.4833 0.917422ZM3.43395 13.4012C3.08146 13.7513 2.60518 13.9485 2.10833 13.9499H1.4502V13.2918C1.44957 13.0455 1.4978 12.8015 1.5921 12.574C1.6864 12.3464 1.8249 12.1398 1.99958 11.9662L9.71395 4.2518L11.1515 5.6893L3.43395 13.4012ZM13.599 3.23555L12.0327 4.80242L10.5952 3.36805L12.1621 1.80117C12.2565 1.70699 12.3685 1.63232 12.4917 1.58143C12.615 1.53054 12.747 1.50442 12.8804 1.50456C13.0137 1.50471 13.1457 1.53111 13.2689 1.58227C13.392 1.63343 13.5038 1.70835 13.598 1.80273C13.6922 1.89712 13.7669 2.00914 13.8178 2.13238C13.8687 2.25563 13.8948 2.38769 13.8946 2.52103C13.8945 2.65437 13.8681 2.78637 13.8169 2.9095C13.7658 3.03264 13.6908 3.14449 13.5965 3.23867L13.599 3.23555Z" fill="#F6F8F9"/>
</g>
<defs>
<clipPath id="clip0_2531_8568">
<rect width="15" height="15" fill="white" transform="translate(0.200195 0.199951)"/>
</clipPath>
</defs>
</svg>
