<svg width="16" height="16" viewBox="0 0 16 16" fill="none" xmlns="http://www.w3.org/2000/svg">
<g clip-path="url(#clip0_3536_4420)">
<path d="M14.4833 0.917911C14.0584 0.493659 13.4825 0.255371 12.8821 0.255371C12.2816 0.255371 11.7057 0.493659 11.2808 0.917911L1.11583 11.0829C0.824737 11.3724 0.593931 11.7167 0.436766 12.0959C0.279601 12.4751 0.199197 12.8818 0.200205 13.2923V14.5754C0.200205 14.7412 0.266053 14.9001 0.383263 15.0174C0.500473 15.1346 0.659444 15.2004 0.825205 15.2004H2.10833C2.51881 15.2016 2.92544 15.1213 3.30468 14.9642C3.68392 14.8072 4.02824 14.5764 4.3177 14.2854L14.4833 4.11979C14.9074 3.69491 15.1456 3.11914 15.1456 2.51885C15.1456 1.91856 14.9074 1.34279 14.4833 0.917911ZM3.43395 13.4017C3.08146 13.7518 2.60518 13.949 2.10833 13.9504H1.4502V13.2923C1.44957 13.046 1.4978 12.802 1.5921 12.5744C1.6864 12.3469 1.8249 12.1403 1.99958 11.9667L9.71395 4.25229L11.1515 5.68979L3.43395 13.4017ZM13.599 3.23604L12.0327 4.80291L10.5952 3.36854L12.1621 1.80166C12.2565 1.70748 12.3685 1.63281 12.4917 1.58192C12.615 1.53102 12.747 1.5049 12.8804 1.50505C13.0137 1.50519 13.1457 1.5316 13.2689 1.58276C13.392 1.63392 13.5038 1.70884 13.598 1.80322C13.6922 1.89761 13.7669 2.00962 13.8178 2.13287C13.8687 2.25611 13.8948 2.38818 13.8946 2.52152C13.8945 2.65485 13.8681 2.78686 13.8169 2.90999C13.7658 3.03313 13.6908 3.14498 13.5965 3.23916L13.599 3.23604Z" fill="#22438C"/>
</g>
<defs>
<clipPath id="clip0_3536_4420">
<rect width="15" height="15" fill="white" transform="translate(0.200195 0.200195)"/>
</clipPath>
</defs>
</svg>
