<svg width="25" height="24" viewBox="0 0 25 24" fill="none" xmlns="http://www.w3.org/2000/svg">
<path fill-rule="evenodd" clip-rule="evenodd" d="M13.5417 4C17.5615 4 20.8333 7.141 20.8333 11C20.8333 11.553 21.299 12 21.875 12C22.451 12 22.9167 11.553 22.9167 11C22.9167 6.037 18.7115 2 13.5417 2C12.9667 2 12.5 2.447 12.5 3C12.5 3.553 12.9667 4 13.5417 4ZM13.5417 8C15.2646 8 16.6667 9.346 16.6667 11C16.6667 11.553 17.1323 12 17.7083 12C18.2844 12 18.75 11.553 18.75 11C18.75 8.243 16.4135 6 13.5417 6C12.9667 6 12.5 6.447 12.5 7C12.5 7.553 12.9667 8 13.5417 8ZM21.9063 15.2622C22.2563 15.3392 22.5406 15.5832 22.6573 15.9082C22.7427 16.1432 22.8083 16.3882 22.85 16.6382C22.8938 16.8872 22.9167 17.1412 22.9167 17.4002C22.9167 19.9362 20.7677 22.0002 18.125 22.0002C9.28021 22.0002 2.08334 15.0922 2.08334 6.5992C2.08334 4.0632 4.23334 2.0002 6.875 2.0002C7.14584 2.0002 7.41354 2.0222 7.67292 2.0652C7.92604 2.1042 8.18125 2.1662 8.42813 2.2482C8.76771 2.3612 9.02188 2.6342 9.10209 2.9702L10.5281 8.9332C10.6073 9.2622 10.5083 9.6062 10.2656 9.8492C10.1229 9.9922 10.1198 9.9952 8.82813 10.6432C9.87396 12.8182 11.6917 14.5562 13.9115 15.5272C14.5885 14.2862 14.5917 14.2822 14.7396 14.1452C14.9938 13.9122 15.351 13.8192 15.6938 13.8922L21.9063 15.2622Z" fill="#DF2040"/>
</svg>
