<svg width="18" height="18" viewBox="0 0 18 18" fill="none" xmlns="http://www.w3.org/2000/svg">
<path d="M6.09375 15.25H4.78125C4.2591 15.25 3.75835 15.0525 3.38913 14.7008C3.01992 14.3492 2.8125 13.8723 2.8125 13.375V4.625C2.8125 4.12772 3.01992 3.65081 3.38913 3.29917C3.75835 2.94754 4.2591 2.75 4.78125 2.75H6.09375C6.2678 2.75 6.43472 2.68415 6.55779 2.56694C6.68086 2.44973 6.75 2.29076 6.75 2.125C6.75 1.95924 6.68086 1.80027 6.55779 1.68306C6.43472 1.56585 6.2678 1.5 6.09375 1.5H4.78125C3.91133 1.50099 3.07733 1.83055 2.46221 2.41639C1.84708 3.00222 1.50104 3.7965 1.5 4.625L1.5 13.375C1.50104 14.2035 1.84708 14.9978 2.46221 15.5836C3.07733 16.1694 3.91133 16.499 4.78125 16.5H6.09375C6.2678 16.5 6.43472 16.4342 6.55779 16.3169C6.68086 16.1997 6.75 16.0408 6.75 15.875C6.75 15.7092 6.68086 15.5503 6.55779 15.4331C6.43472 15.3158 6.2678 15.25 6.09375 15.25Z" fill="#3C4455"/>
<path d="M13.0501 13.3037L15.9471 10.3556C16.3012 9.99336 16.5 9.50312 16.5 8.9921C16.5 8.48108 16.3012 7.99084 15.9471 7.6286L13.0501 4.68046C12.931 4.56336 12.7715 4.49856 12.6059 4.50002C12.4403 4.50149 12.2819 4.5691 12.1648 4.68829C12.0477 4.80748 11.9812 4.96872 11.9798 5.13727C11.9784 5.30583 12.042 5.46821 12.1571 5.58946L14.8677 8.34924H5.13156C4.96406 8.34924 4.80342 8.41697 4.68498 8.53753C4.56654 8.65809 4.5 8.8216 4.5 8.9921C4.5 9.1626 4.56654 9.32611 4.68498 9.44667C4.80342 9.56723 4.96406 9.63496 5.13156 9.63496H14.8684L12.1571 12.3947C12.0968 12.454 12.0486 12.525 12.0155 12.6034C11.9824 12.6818 11.965 12.7662 11.9643 12.8516C11.9636 12.9369 11.9795 13.0216 12.0113 13.1006C12.0431 13.1796 12.0899 13.2514 12.1492 13.3117C12.2085 13.3721 12.2791 13.4198 12.3567 13.4521C12.4343 13.4845 12.5175 13.5007 12.6013 13.5C12.6852 13.4992 12.768 13.4815 12.8451 13.4478C12.9222 13.4141 12.9918 13.3651 13.0501 13.3037Z" fill="#3C4455"/>
</svg>
