<svg width="18" height="18" viewBox="0 0 18 18" fill="none" xmlns="http://www.w3.org/2000/svg">
<g clip-path="url(#clip0_2193_43555)">
<path d="M17.8769 6.59559C17.7235 6.10726 17.417 5.68127 17.0027 5.38061C16.5885 5.07995 16.0885 4.92059 15.5766 4.92609H12.2999L11.3047 1.82409C11.1481 1.33581 10.8406 0.909848 10.4264 0.607637C10.0122 0.305425 9.51265 0.142578 8.9999 0.142578C8.48715 0.142578 7.98765 0.305425 7.57342 0.607637C7.1592 0.909848 6.85166 1.33581 6.69515 1.82409L5.6999 4.92609H2.42315C1.91296 4.92681 1.41604 5.08875 1.00339 5.38877C0.590726 5.68878 0.283431 6.11153 0.125392 6.59663C-0.0326479 7.08173 -0.0333474 7.60436 0.123393 8.08988C0.280133 8.5754 0.586296 8.99897 0.99815 9.30009L3.66515 11.2501L2.65115 14.3903C2.48728 14.8774 2.48521 15.4043 2.64523 15.8927C2.80526 16.381 3.11881 16.8045 3.53915 17.1001C3.95229 17.4052 4.45294 17.5686 4.96652 17.566C5.48009 17.5635 5.97908 17.395 6.38915 17.0858L8.9999 15.1643L11.6114 17.0836C12.0238 17.3869 12.5217 17.5517 13.0337 17.5542C13.5456 17.5567 14.0451 17.3968 14.4605 17.0975C14.8758 16.7982 15.1855 16.3749 15.3451 15.8884C15.5047 15.402 15.5059 14.8775 15.3486 14.3903L14.3347 11.2501L17.0047 9.30009C17.4212 9.00275 17.731 8.57918 17.8881 8.0921C18.0452 7.60501 18.0412 7.08028 17.8769 6.59559ZM16.1196 8.08884L13.0117 10.3606C12.884 10.4537 12.789 10.5848 12.7403 10.7351C12.6915 10.8854 12.6915 11.0473 12.7402 11.1976L13.9214 14.8501C13.9812 15.0353 13.9807 15.2348 13.9199 15.4197C13.8592 15.6047 13.7414 15.7656 13.5835 15.8794C13.4255 15.9931 13.2356 16.0539 13.0409 16.0529C12.8463 16.0519 12.6569 15.9892 12.5002 15.8738L9.4439 13.6238C9.31517 13.5293 9.15962 13.4783 8.9999 13.4783C8.84018 13.4783 8.68463 13.5293 8.5559 13.6238L5.49965 15.8738C5.34296 15.9908 5.1531 16.0548 4.9576 16.0565C4.76209 16.0583 4.57111 15.9978 4.41232 15.8837C4.25354 15.7696 4.13521 15.6079 4.0745 15.4221C4.01378 15.2363 4.01384 15.0359 4.07465 14.8501L5.25965 11.1976C5.30834 11.0473 5.3083 10.8854 5.25955 10.7351C5.21079 10.5848 5.11581 10.4537 4.98815 10.3606L1.88015 8.08884C1.72363 7.97423 1.60733 7.8131 1.54786 7.62845C1.48839 7.44379 1.48879 7.24507 1.54901 7.06066C1.60924 6.87625 1.72619 6.71559 1.88318 6.60163C2.04017 6.48766 2.22916 6.42622 2.42315 6.42609H6.24815C6.40694 6.42608 6.56163 6.37568 6.68994 6.28214C6.81825 6.18861 6.91356 6.05676 6.96215 5.90559L8.12465 2.28234C8.18432 2.09693 8.30128 1.93523 8.4587 1.82052C8.61612 1.70582 8.80587 1.64402 9.00065 1.64402C9.19543 1.64402 9.38518 1.70582 9.5426 1.82052C9.70002 1.93523 9.81698 2.09693 9.87665 2.28234L11.0392 5.90559C11.0877 6.05676 11.1831 6.18861 11.3114 6.28214C11.4397 6.37568 11.5944 6.42608 11.7531 6.42609H15.5781C15.7721 6.42622 15.9611 6.48766 16.1181 6.60163C16.2751 6.71559 16.3921 6.87625 16.4523 7.06066C16.5125 7.24507 16.5129 7.44379 16.4534 7.62845C16.394 7.8131 16.2777 7.97423 16.1212 8.08884H16.1196Z" fill="#3C4455"/>
</g>
<defs>
<clipPath id="clip0_2193_43555">
<rect width="18" height="18" fill="white"/>
</clipPath>
</defs>
</svg>
